<svg width="850" height="600" viewBox="0 0 850 600" fill="none" xmlns="http://www.w3.org/2000/svg">
<path d="M585.65 202.63H728.14L704.93 219.38V252.38C704.93 254.205 704.205 255.955 702.915 257.245C701.625 258.535 699.875 259.26 698.05 259.26H585.65C583.825 259.26 582.075 258.535 580.785 257.245C579.495 255.955 578.77 254.205 578.77 252.38V209.51C578.77 207.685 579.495 205.935 580.785 204.645C582.075 203.355 583.825 202.63 585.65 202.63Z" fill="#F5F5F5"/>
<path d="M591.59 225.92C591.59 226.06 613.08 226.17 639.59 226.17C666.1 226.17 687.59 226.06 687.59 225.92C687.59 225.78 666.1 225.67 639.59 225.67C613.08 225.67 591.59 225.78 591.59 225.92Z" fill="#E0E0E0"/>
<path d="M591.59 238.57C591.59 238.71 613.08 238.82 639.59 238.82C666.1 238.82 687.59 238.71 687.59 238.57C687.59 238.43 666.1 238.32 639.59 238.32C613.08 238.32 591.59 238.44 591.59 238.57Z" fill="#E0E0E0"/>
<path d="M369.24 81.03H362.57V103.37H369.24V81.03Z" fill="#E0E0E0"/>
<path d="M313.54 77.8H306.87V103.37H313.54V77.8Z" fill="#E0E0E0"/>
<path d="M327.47 72.47H320.8V103.37H327.47V72.47Z" fill="#E0E0E0"/>
<path d="M341.39 74.16H334.72V103.37H341.39V74.16Z" fill="#E0E0E0"/>
<path d="M355.31 64.28H348.64V103.37H355.31V64.28Z" fill="#E0E0E0"/>
<path d="M383.16 64.47H376.49V103.37H383.16V64.47Z" fill="#E0E0E0"/>
<path d="M397.09 77.25H390.42V103.37H397.09V77.25Z" fill="#E0E0E0"/>
<path d="M411.01 66.18H404.34V103.37H411.01V66.18Z" fill="#E0E0E0"/>
<path d="M424.94 57.81H418.27V103.37H424.94V57.81Z" fill="#E0E0E0"/>
<path d="M438.86 65.99H432.19V103.37H438.86V65.99Z" fill="#E0E0E0"/>
<path d="M614.56 101.3L669.7 92.87C671.468 104.396 669.58 116.187 664.302 126.586C659.024 136.984 650.621 145.467 640.273 150.844C629.925 156.221 618.153 158.221 606.61 156.562C595.068 154.904 584.334 149.672 575.919 141.599C567.503 133.527 561.828 123.021 559.69 111.557C557.553 100.094 559.061 88.2485 564.002 77.6859C568.943 67.1232 577.069 58.374 587.238 52.6674C597.408 46.9608 609.11 44.5837 620.7 45.87L614.56 101.3Z" fill="#EBEBEB"/>
<path d="M632.45 46L625.76 88.74L667.76 80.86C667.76 80.86 661.55 56.94 632.45 46Z" fill="#E0E0E0"/>
<path d="M51.48 205C51.4135 199.597 52.9492 194.296 55.8931 189.766C58.8371 185.236 63.0573 181.679 68.021 179.546C72.9847 177.412 78.4693 176.797 83.7824 177.778C89.0954 178.759 93.9986 181.292 97.873 185.058C101.747 188.824 104.419 193.653 105.551 198.936C106.683 204.219 106.224 209.718 104.233 214.741C102.241 219.763 98.8066 224.083 94.3619 227.155C89.9173 230.227 84.6621 231.913 79.26 232C71.9994 232.091 64.9987 229.3 59.7917 224.239C54.5847 219.179 51.5958 212.26 51.48 205ZM91.89 204.34C91.8345 201.76 91.0164 199.254 89.539 197.138C88.0616 195.023 85.991 193.391 83.588 192.451C81.185 191.51 78.5574 191.301 76.0361 191.852C73.5149 192.402 71.213 193.686 69.4205 195.543C67.6281 197.399 66.4253 199.745 65.9637 202.284C65.5022 204.823 65.8026 207.441 66.827 209.81C67.8515 212.178 69.5542 214.19 71.7205 215.593C73.8867 216.995 76.4197 217.725 79 217.69C80.7234 217.661 82.4242 217.293 84.0052 216.606C85.5862 215.92 87.0162 214.928 88.2134 213.688C89.4107 212.448 90.3517 210.984 90.9825 209.38C91.6134 207.776 91.9218 206.063 91.89 204.34Z" fill="#F5F5F5"/>
<path d="M51.4801 205C51.3542 197.734 54.1157 190.715 59.1588 185.482C64.2018 180.25 71.1144 177.232 78.3801 177.09L78.6101 191.42C75.1805 191.551 71.9382 193.018 69.5765 195.508C67.2148 197.998 65.9211 201.314 65.972 204.745C66.023 208.177 67.4145 211.453 69.8491 213.872C72.2837 216.291 75.5682 217.661 79.0001 217.69L79.2601 232C71.9987 232.094 64.9965 229.304 59.7889 224.242C54.5813 219.181 51.5933 212.261 51.4801 205Z" fill="#E0E0E0"/>
<path d="M75.9301 174.88C80.0861 174.782 84.2201 175.513 88.0899 177.032C91.9598 178.55 95.4879 180.826 98.4678 183.725C101.448 186.623 103.819 190.087 105.444 193.914C107.069 197.741 107.914 201.853 107.93 206.01L91.2301 206.27C91.1001 197.8 84.6501 192.47 76.2301 192.61L75.9301 174.88Z" fill="#EBEBEB"/>
<path d="M229.12 301.44H194.36V342.76H229.12V301.44Z" fill="#F5F5F5"/>
<path d="M195.57 298.74H38.5V345.35H195.57V298.74Z" fill="#E0E0E0"/>
<path d="M230.17 302.66H191.35V298.74H230.17C230.701 298.74 231.209 298.951 231.584 299.326C231.959 299.701 232.17 300.21 232.17 300.74C232.149 301.256 231.93 301.745 231.557 302.103C231.184 302.461 230.687 302.66 230.17 302.66Z" fill="#E0E0E0"/>
<path d="M230.17 345.35H191.35V341.43H230.17C230.701 341.43 231.209 341.641 231.584 342.016C231.959 342.391 232.17 342.899 232.17 343.43C232.149 343.946 231.93 344.435 231.557 344.793C231.184 345.151 230.687 345.35 230.17 345.35Z" fill="#E0E0E0"/>
<path d="M183.22 298.74H164.66V345.35H183.22V298.74Z" fill="#EBEBEB"/>
<path d="M71.9901 299.26H53.4301V345.87H71.9901V299.26Z" fill="#EBEBEB"/>
<path d="M229.12 308.27C229.12 308.39 221.6 308.48 212.32 308.48C203.04 308.48 195.52 308.39 195.52 308.27C195.52 308.15 203.04 308.06 212.32 308.06C221.6 308.06 229.12 308.16 229.12 308.27Z" fill="#E0E0E0"/>
<path d="M229.12 314.47C229.12 314.58 221.6 314.67 212.32 314.67C203.04 314.67 195.52 314.58 195.52 314.47C195.52 314.36 203.04 314.26 212.32 314.26C221.6 314.26 229.12 314.35 229.12 314.47Z" fill="#E0E0E0"/>
<path d="M229.12 322.1C229.12 322.21 221.6 322.3 212.32 322.3C203.04 322.3 195.52 322.21 195.52 322.1C195.52 321.99 203.04 321.89 212.32 321.89C221.6 321.89 229.12 322 229.12 322.1Z" fill="#E0E0E0"/>
<path d="M229.12 329.72C229.12 329.84 221.6 329.93 212.32 329.93C203.04 329.93 195.52 329.84 195.52 329.72C195.52 329.6 203.04 329.52 212.32 329.52C221.6 329.52 229.12 329.61 229.12 329.72Z" fill="#E0E0E0"/>
<path d="M229.12 337.35C229.12 337.47 221.6 337.56 212.32 337.56C203.04 337.56 195.52 337.47 195.52 337.35C195.52 337.23 203.04 337.15 212.32 337.15C221.6 337.15 229.12 337.24 229.12 337.35Z" fill="#E0E0E0"/>
<path d="M154.68 317.9H84.02V326.29H154.68V317.9Z" fill="#EBEBEB"/>
<path d="M228.77 346.27H193.48V371.45H228.77V346.27Z" fill="#FAFAFA"/>
<path d="M193.88 345.35H43.7001V372.35H193.88V345.35Z" fill="#F5F5F5"/>
<path d="M192.78 347.18H230.71C230.83 347.18 230.948 347.156 231.058 347.111C231.169 347.065 231.269 346.998 231.354 346.913C231.438 346.829 231.505 346.729 231.551 346.618C231.596 346.508 231.62 346.389 231.62 346.27C231.62 346.028 231.524 345.795 231.354 345.623C231.184 345.451 230.952 345.353 230.71 345.35H192.78V347.18Z" fill="#F5F5F5"/>
<path d="M192.78 370.53H231.2C231.311 370.53 231.418 370.574 231.497 370.653C231.576 370.732 231.62 370.839 231.62 370.95V371.95C231.62 372.061 231.576 372.168 231.497 372.247C231.418 372.326 231.311 372.37 231.2 372.37H192.78V370.54V370.53Z" fill="#F5F5F5"/>
<path d="M228.77 351.05C228.77 351.16 220.95 351.26 211.32 351.26C201.69 351.26 193.87 351.16 193.87 351.05C193.87 350.94 201.68 350.84 211.32 350.84C220.96 350.84 228.77 350.94 228.77 351.05Z" fill="#E0E0E0"/>
<path d="M228.77 355.81C228.77 355.93 220.95 356.02 211.32 356.02C201.69 356.02 193.87 355.93 193.87 355.81C193.87 355.69 201.68 355.61 211.32 355.61C220.96 355.61 228.77 355.7 228.77 355.81Z" fill="#E0E0E0"/>
<path d="M228.77 360.58C228.77 360.69 220.95 360.78 211.32 360.78C201.69 360.78 193.87 360.69 193.87 360.58C193.87 360.47 201.68 360.37 211.32 360.37C220.96 360.37 228.77 360.46 228.77 360.58Z" fill="#E0E0E0"/>
<path d="M228.77 365.34C228.77 365.45 220.95 365.54 211.32 365.54C201.69 365.54 193.87 365.45 193.87 365.34C193.87 365.23 201.68 365.13 211.32 365.13C220.96 365.13 228.77 365.22 228.77 365.34Z" fill="#E0E0E0"/>
<path d="M234.12 374.76H198.1V443.01H234.12V374.76Z" fill="#EBEBEB"/>
<path d="M198.1 372.36H29.03V446.36H198.1V372.36Z" fill="#E0E0E0"/>
<path d="M236.94 446.35H193.48V441.55H236.94C237.576 441.553 238.185 441.806 238.634 442.256C239.084 442.705 239.337 443.314 239.34 443.95C239.34 444.265 239.278 444.577 239.157 444.868C239.037 445.16 238.86 445.424 238.637 445.647C238.414 445.87 238.15 446.047 237.858 446.167C237.567 446.288 237.255 446.35 236.94 446.35Z" fill="#E0E0E0"/>
<path d="M193.48 372.36H238.24C238.384 372.36 238.527 372.388 238.661 372.444C238.794 372.499 238.916 372.58 239.018 372.682C239.12 372.784 239.201 372.906 239.256 373.039C239.312 373.173 239.34 373.316 239.34 373.46V376.06C239.34 376.352 239.224 376.632 239.018 376.838C238.812 377.044 238.532 377.16 238.24 377.16H193.48V372.36Z" fill="#E0E0E0"/>
<path d="M234.12 383.9C234.12 384.02 226.06 384.11 216.12 384.11C206.18 384.11 198.12 384.02 198.12 383.9C198.12 383.78 206.18 383.7 216.12 383.7C226.06 383.7 234.12 383.79 234.12 383.9Z" fill="#E0E0E0"/>
<path d="M234.12 392.66C234.12 392.77 226.06 392.86 216.12 392.86C206.18 392.86 198.12 392.77 198.12 392.66C198.12 392.55 206.18 392.45 216.12 392.45C226.06 392.45 234.12 392.54 234.12 392.66Z" fill="#E0E0E0"/>
<path d="M234.12 401.41C234.12 401.52 226.06 401.62 216.12 401.62C206.18 401.62 198.12 401.52 198.12 401.41C198.12 401.3 206.18 401.2 216.12 401.2C226.06 401.2 234.12 401.3 234.12 401.41Z" fill="#E0E0E0"/>
<path d="M234.12 410.16C234.12 410.28 226.06 410.37 216.12 410.37C206.18 410.37 198.12 410.28 198.12 410.16C198.12 410.04 206.18 409.96 216.12 409.96C226.06 409.96 234.12 410.05 234.12 410.16Z" fill="#E0E0E0"/>
<path d="M234.12 418.92C234.12 419.03 226.06 419.12 216.12 419.12C206.18 419.12 198.12 419.03 198.12 418.92C198.12 418.81 206.18 418.71 216.12 418.71C226.06 418.71 234.12 418.8 234.12 418.92Z" fill="#E0E0E0"/>
<path d="M234.12 427.67C234.12 427.78 226.06 427.88 216.12 427.88C206.18 427.88 198.12 427.78 198.12 427.67C198.12 427.56 206.18 427.46 216.12 427.46C226.06 427.46 234.12 427.56 234.12 427.67Z" fill="#E0E0E0"/>
<path d="M234.12 436.42C234.12 436.54 226.06 436.63 216.12 436.63C206.18 436.63 198.12 436.54 198.12 436.42C198.12 436.3 206.18 436.22 216.12 436.22C226.06 436.22 234.12 436.31 234.12 436.42Z" fill="#E0E0E0"/>
<path d="M86.88 413.4V417.52C86.88 422.52 84.4 425.31 79.62 425.31C74.84 425.31 72.36 422.48 72.36 417.52V401.41C72.36 396.41 74.84 393.61 79.62 393.61C84.4 393.61 86.88 396.45 86.88 401.41V404.41H82.28V401.1C82.28 398.88 81.28 398.04 79.76 398.04C78.24 398.04 77.23 398.88 77.23 401.1V417.83C77.23 420.05 78.23 420.83 79.76 420.83C81.29 420.83 82.28 420.04 82.28 417.83V413.4H86.88Z" fill="#EBEBEB"/>
<path d="M89.4501 401.41C89.4501 396.41 92.0601 393.61 96.8401 393.61C101.62 393.61 104.23 396.45 104.23 401.41V417.52C104.23 422.52 101.62 425.31 96.8401 425.31C92.0601 425.31 89.4501 422.48 89.4501 417.52V401.41ZM94.3201 417.83C94.3201 420.05 95.3201 420.89 96.8401 420.89C98.3601 420.89 99.3601 420.05 99.3601 417.83V401.1C99.3601 398.88 98.3601 398.04 96.8401 398.04C95.3201 398.04 94.3201 398.88 94.3201 401.1V417.83Z" fill="#EBEBEB"/>
<path d="M107.37 394H112.24V420.56H120.24V425H107.37V394Z" fill="#EBEBEB"/>
<path d="M122 401.41C122 396.41 124.61 393.61 129.39 393.61C134.17 393.61 136.79 396.45 136.79 401.41V417.52C136.79 422.52 134.18 425.31 129.39 425.31C124.6 425.31 122 422.48 122 417.52V401.41ZM126.87 417.83C126.87 420.05 127.87 420.89 129.39 420.89C130.91 420.89 131.92 420.05 131.92 417.83V401.1C131.92 398.88 130.92 398.04 129.39 398.04C127.86 398.04 126.87 398.88 126.87 401.1V417.83Z" fill="#EBEBEB"/>
<path d="M144.56 394V417.91C144.56 420.12 145.56 420.91 147.08 420.91C148.6 420.91 149.6 420.11 149.6 417.91V394H154.21V417.6C154.21 422.55 151.73 425.39 146.95 425.39C142.17 425.39 139.69 422.55 139.69 417.6V394H144.56Z" fill="#EBEBEB"/>
<path d="M167.71 425C167.299 423.775 167.146 422.477 167.26 421.19V416.32C167.26 413.44 166.26 412.38 164.08 412.38H162.39V425H157.52V394H164.87C169.87 394 172.09 396.35 172.09 401.13V403.56C172.09 406.75 171.09 408.83 168.9 409.85C171.34 410.85 172.13 413.21 172.13 416.44V421.23C172.043 422.507 172.227 423.789 172.67 424.99L167.71 425ZM162.39 398.44V407.95H164.3C166.11 407.95 167.22 407.16 167.22 404.68V401.62C167.22 399.41 166.47 398.44 164.74 398.44H162.39Z" fill="#EBEBEB"/>
<path d="M85.83 356H82.28L82.47 355.08H90.62L90.42 356H86.88L85.05 365.14H84L85.83 356Z" fill="#E0E0E0"/>
<path d="M97.46 357.57L91.94 366.11C91 367.55 90.3 368 89.21 368C88.8803 368.015 88.551 367.964 88.2416 367.849C87.9323 367.734 87.6495 367.557 87.41 367.33L87.95 366.58C88.1235 366.759 88.332 366.9 88.5626 366.995C88.7932 367.089 89.0408 367.135 89.29 367.13C89.94 367.13 90.44 366.82 91.03 365.9L91.56 365.1L89.68 357.58H90.68L92.28 364L96.41 357.56L97.46 357.57Z" fill="#E0E0E0"/>
<path d="M105.86 360.7C105.893 361.281 105.806 361.862 105.606 362.409C105.405 362.955 105.095 363.454 104.694 363.876C104.293 364.298 103.809 364.633 103.274 364.86C102.738 365.088 102.162 365.204 101.58 365.2C100.988 365.262 100.391 365.136 99.874 364.839C99.3571 364.543 98.9465 364.092 98.7001 363.55L97.8401 367.92H96.8401L98.9001 357.57H99.9001L99.6601 358.78C100.036 358.36 100.499 358.029 101.018 357.809C101.537 357.59 102.097 357.487 102.66 357.51C103.085 357.489 103.51 357.556 103.907 357.709C104.304 357.862 104.665 358.096 104.967 358.396C105.268 358.696 105.503 359.057 105.657 359.453C105.811 359.85 105.88 360.275 105.86 360.7ZM104.86 360.76C104.883 360.433 104.834 360.104 104.715 359.799C104.596 359.493 104.411 359.217 104.173 358.992C103.935 358.766 103.65 358.596 103.338 358.493C103.026 358.391 102.696 358.359 102.37 358.4C101.911 358.399 101.457 358.495 101.037 358.68C100.617 358.864 100.24 359.135 99.9305 359.474C99.6208 359.813 99.3853 360.212 99.2389 360.647C99.0924 361.082 99.0384 361.543 99.0801 362C99.0547 362.327 99.1029 362.656 99.2212 362.962C99.3394 363.269 99.5247 363.545 99.7635 363.77C100.002 363.995 100.288 364.164 100.601 364.265C100.914 364.365 101.245 364.394 101.57 364.35C102.026 364.346 102.475 364.248 102.891 364.062C103.307 363.876 103.68 363.606 103.986 363.269C104.292 362.931 104.525 362.534 104.671 362.103C104.816 361.671 104.87 361.214 104.83 360.76H104.86Z" fill="#E0E0E0"/>
<path d="M107.05 362C107.022 361.413 107.116 360.827 107.324 360.278C107.532 359.729 107.851 359.228 108.261 358.807C108.671 358.386 109.162 358.054 109.706 357.831C110.249 357.608 110.833 357.498 111.42 357.51C113.52 357.51 114.86 358.75 114.86 360.7C114.887 361.287 114.794 361.874 114.586 362.424C114.378 362.973 114.059 363.475 113.649 363.896C113.24 364.318 112.748 364.651 112.205 364.876C111.661 365.1 111.078 365.21 110.49 365.2C110.047 365.248 109.599 365.199 109.176 365.059C108.754 364.918 108.366 364.688 108.04 364.385C107.714 364.081 107.457 363.711 107.286 363.3C107.115 362.889 107.035 362.445 107.05 362ZM113.84 360.76C113.863 360.433 113.814 360.104 113.695 359.799C113.576 359.493 113.391 359.217 113.153 358.992C112.915 358.766 112.629 358.596 112.318 358.493C112.006 358.391 111.676 358.359 111.35 358.4C110.898 358.406 110.451 358.504 110.038 358.688C109.625 358.872 109.254 359.138 108.947 359.47C108.64 359.802 108.404 360.193 108.253 360.62C108.102 361.046 108.04 361.499 108.07 361.95C108.046 362.277 108.096 362.605 108.215 362.91C108.334 363.216 108.519 363.491 108.757 363.716C108.996 363.941 109.281 364.11 109.593 364.211C109.905 364.312 110.235 364.342 110.56 364.3C111.012 364.297 111.459 364.201 111.873 364.019C112.287 363.837 112.659 363.571 112.966 363.24C113.273 362.908 113.509 362.517 113.66 362.09C113.81 361.664 113.871 361.211 113.84 360.76Z" fill="#E0E0E0"/>
<path d="M124.64 357.57L123.32 364.21C122.79 366.89 121.38 367.99 118.92 367.99C117.697 368.054 116.496 367.65 115.56 366.86L116.16 366.08C116.94 366.77 117.959 367.129 119 367.08C119.393 367.117 119.789 367.076 120.166 366.96C120.543 366.844 120.893 366.655 121.197 366.403C121.501 366.151 121.752 365.842 121.936 365.493C122.12 365.145 122.234 364.763 122.27 364.37L122.45 363.54C122.073 363.959 121.609 364.291 121.092 364.514C120.574 364.737 120.014 364.845 119.45 364.83C117.45 364.83 116.11 363.67 116.11 361.83C116.095 361.261 116.196 360.694 116.407 360.166C116.619 359.637 116.936 359.157 117.34 358.755C117.743 358.354 118.225 358.039 118.754 357.83C119.284 357.621 119.851 357.522 120.42 357.54C121.032 357.478 121.647 357.613 122.177 357.924C122.707 358.235 123.125 358.706 123.37 359.27L123.69 357.6L124.64 357.57ZM122.92 360.57C122.92 359.19 121.99 358.37 120.42 358.37C119.981 358.359 119.544 358.438 119.136 358.602C118.728 358.767 118.359 359.013 118.051 359.326C117.742 359.639 117.501 360.013 117.343 360.423C117.185 360.833 117.112 361.271 117.13 361.71C117.13 363.09 118.05 363.91 119.63 363.91C120.067 363.921 120.501 363.843 120.907 363.68C121.312 363.518 121.68 363.274 121.988 362.964C122.296 362.654 122.538 362.285 122.698 361.878C122.858 361.472 122.934 361.037 122.92 360.6V360.57Z" fill="#E0E0E0"/>
<path d="M131.31 357.51L131.12 358.51H130.84C129.23 358.51 128.15 359.43 127.77 361.31L127.01 365.15H126.01L127.51 357.59H128.51L128.2 359C128.541 358.499 129.008 358.097 129.554 357.836C130.1 357.574 130.706 357.462 131.31 357.51Z" fill="#E0E0E0"/>
<path d="M140 357.57L138.49 365.13H137.49L137.73 363.94C137.359 364.348 136.904 364.672 136.397 364.89C135.89 365.107 135.342 365.213 134.79 365.2C134.356 365.236 133.919 365.179 133.509 365.033C133.099 364.886 132.725 364.653 132.413 364.35C132.1 364.047 131.856 363.68 131.697 363.275C131.538 362.87 131.467 362.435 131.49 362C131.459 361.421 131.546 360.841 131.747 360.297C131.947 359.752 132.257 359.255 132.657 358.834C133.057 358.414 133.538 358.08 134.072 357.852C134.605 357.624 135.18 357.508 135.76 357.51C136.351 357.447 136.947 357.572 137.464 357.866C137.981 358.161 138.392 358.61 138.64 359.15L138.96 357.57H140ZM138.3 360.76C138.323 360.433 138.274 360.104 138.155 359.799C138.036 359.493 137.851 359.217 137.613 358.992C137.375 358.766 137.09 358.596 136.778 358.494C136.466 358.391 136.136 358.359 135.81 358.4C135.358 358.406 134.912 358.504 134.5 358.688C134.087 358.872 133.716 359.138 133.41 359.47C133.104 359.803 132.869 360.194 132.719 360.62C132.57 361.047 132.509 361.499 132.54 361.95C132.516 362.275 132.563 362.6 132.68 362.904C132.796 363.208 132.979 363.482 133.214 363.707C133.449 363.932 133.732 364.102 134.041 364.204C134.349 364.307 134.677 364.339 135 364.3C135.452 364.297 135.899 364.201 136.313 364.019C136.727 363.837 137.099 363.571 137.406 363.24C137.713 362.908 137.95 362.517 138.1 362.09C138.25 361.664 138.312 361.211 138.28 360.76H138.3Z" fill="#E0E0E0"/>
<path d="M149.79 360.7C149.823 361.281 149.736 361.863 149.536 362.409C149.335 362.955 149.025 363.454 148.624 363.876C148.223 364.298 147.739 364.633 147.204 364.86C146.668 365.088 146.092 365.204 145.51 365.2C144.918 365.262 144.321 365.136 143.804 364.839C143.287 364.543 142.876 364.092 142.63 363.55L141.77 367.92H140.77L142.82 357.57H143.82L143.58 358.78C143.948 358.367 144.402 358.039 144.91 357.82C145.417 357.601 145.967 357.495 146.52 357.51C146.95 357.48 147.382 357.541 147.787 357.69C148.192 357.838 148.561 358.071 148.87 358.372C149.179 358.673 149.42 359.037 149.579 359.438C149.737 359.839 149.809 360.269 149.79 360.7ZM148.79 360.76C148.813 360.433 148.764 360.104 148.645 359.799C148.526 359.493 148.341 359.217 148.103 358.992C147.865 358.766 147.579 358.596 147.268 358.493C146.956 358.391 146.626 358.359 146.3 358.4C145.84 358.398 145.385 358.492 144.964 358.677C144.543 358.861 144.164 359.131 143.854 359.47C143.543 359.809 143.307 360.209 143.16 360.645C143.013 361.08 142.958 361.542 143 362C142.975 362.326 143.023 362.654 143.141 362.96C143.258 363.265 143.443 363.54 143.68 363.766C143.918 363.991 144.203 364.16 144.514 364.261C144.825 364.362 145.155 364.393 145.48 364.35C145.937 364.349 146.389 364.253 146.807 364.068C147.226 363.883 147.601 363.613 147.909 363.276C148.217 362.938 148.452 362.54 148.599 362.107C148.745 361.674 148.8 361.215 148.76 360.76H148.79Z" fill="#E0E0E0"/>
<path d="M158.94 360C158.942 360.289 158.915 360.577 158.86 360.86L158 365.16H157L157.87 360.85C157.911 360.622 157.935 360.391 157.94 360.16C157.94 359.08 157.29 358.46 155.94 358.46C155.186 358.423 154.447 358.678 153.875 359.171C153.303 359.664 152.944 360.359 152.87 361.11L152.06 365.16H151.06L153.19 354.49H154.19L153.34 358.73C153.707 358.334 154.155 358.022 154.654 357.817C155.153 357.611 155.691 357.517 156.23 357.54C158 357.51 158.94 358.43 158.94 360Z" fill="#E0E0E0"/>
<path d="M168.5 357.57L163 366.11C162.06 367.55 161.36 367.99 160.27 367.99C159.94 368.005 159.611 367.954 159.302 367.839C158.992 367.724 158.709 367.547 158.47 367.32L159.02 366.57C159.191 366.75 159.397 366.891 159.627 366.986C159.856 367.081 160.102 367.127 160.35 367.12C161 367.12 161.5 366.81 162.09 365.89L162.63 365.09L160.74 357.57H161.74L163.3 364.01L167.43 357.57H168.5Z" fill="#E0E0E0"/>
<path d="M191.28 46.79H37.89L62.89 64.79V100.26C62.8887 101.233 63.0795 102.198 63.4514 103.097C63.8233 103.997 64.3691 104.814 65.0574 105.503C65.7458 106.191 66.5632 106.737 67.4628 107.109C68.3624 107.481 69.3266 107.671 70.3 107.67H191.3C193.265 107.67 195.15 106.889 196.54 105.5C197.929 104.11 198.71 102.225 198.71 100.26V54.2C198.71 53.2252 198.518 52.26 198.144 51.3597C197.77 50.4594 197.223 49.6416 196.533 48.9533C195.842 48.2649 195.023 47.7195 194.122 47.3483C193.221 46.9771 192.255 46.7874 191.28 46.79Z" fill="#F5F5F5"/>
<path d="M184.88 71.86C184.88 72.01 161.75 72.13 133.22 72.13C104.69 72.13 81.55 72 81.55 71.86C81.55 71.72 104.68 71.59 133.22 71.59C161.76 71.59 184.88 71.71 184.88 71.86Z" fill="#E0E0E0"/>
<path d="M184.88 85.48C184.88 85.63 161.75 85.75 133.22 85.75C104.69 85.75 81.55 85.63 81.55 85.48C81.55 85.33 104.68 85.21 133.22 85.21C161.76 85.21 184.88 85.33 184.88 85.48Z" fill="#E0E0E0"/>
<path d="M723.27 446.35C723.27 446.5 566.43 446.61 373.02 446.61C179.61 446.61 22.73 446.5 22.73 446.35C22.73 446.2 179.53 446.09 373.02 446.09C566.51 446.09 723.27 446.21 723.27 446.35Z" fill="#263238"/>
<path d="M657.45 395.31C657.45 395.31 630.94 364.81 620.94 334.31C610.94 303.81 615.69 307.31 615.69 307.31C615.69 307.31 629.19 336.95 639.44 351.26C649.69 365.57 668 386.56 668 386.56L657.45 395.31Z" fill="#455A64"/>
<path d="M662.73 312C662.556 311.679 662.273 311.431 661.932 311.299C661.592 311.168 661.215 311.161 660.87 311.282C660.526 311.402 660.235 311.64 660.05 311.955C659.865 312.27 659.797 312.64 659.86 313C661.47 323.72 664.97 348.87 664.86 365.18C664.68 386.37 664.86 394.56 664.86 394.56H675.86C675.86 394.56 673.86 350.76 671.41 337.4C669.67 328.06 666 317.66 662.73 312Z" fill="#455A64"/>
<path d="M668.75 391C673.372 380.524 676.432 369.425 677.83 358.06C678.74 350.26 677.11 339.72 674.7 325.65C673.773 320.505 673.308 315.288 673.31 310.06C673.314 309.477 673.511 308.912 673.872 308.453C674.232 307.994 674.734 307.668 675.3 307.526C675.865 307.384 676.462 307.434 676.996 307.669C677.53 307.903 677.971 308.308 678.25 308.82C679.58 311.2 683.44 319.32 684.42 324.4C687.09 338.29 690.11 345.24 687.8 358.4C685.49 371.56 676.94 391.88 676.94 391.88L668.75 391Z" fill="#455A64"/>
<path d="M678.68 391.91C678.68 391.91 707.79 329.36 709.81 320.08C711.83 310.8 718.68 289.42 719.49 290.63C720.3 291.84 721.49 303.14 716.26 316.05C711.03 328.96 688.62 393.81 688.62 393.81H678.68" fill="#455A64"/>
<path d="M665.56 389.11C665.273 388.944 664.999 388.757 664.74 388.55C664.23 388.16 663.44 387.61 662.49 386.83C659.766 384.663 657.155 382.357 654.67 379.92C646.471 371.853 639.37 362.741 633.55 352.82C627.745 342.905 622.919 332.449 619.14 321.6C617.68 317.45 616.61 314.05 615.92 311.68C615.56 310.51 615.31 309.58 615.14 308.96C615.034 308.635 614.96 308.3 614.92 307.96C615.058 308.26 615.171 308.571 615.26 308.89L616.15 311.58C616.91 313.92 618.04 317.3 619.55 321.42C623.448 332.191 628.315 342.587 634.09 352.48C639.893 362.365 646.919 371.48 655 379.61C658.11 382.71 660.78 385.06 662.66 386.61C663.59 387.42 664.35 388 664.84 388.42C665.098 388.63 665.339 388.861 665.56 389.11Z" fill="#263238"/>
<path d="M668.74 359.1C668.603 358.498 668.516 357.886 668.48 357.27C668.34 355.97 668.16 354.27 667.95 352.27C667.49 348.03 666.77 342.2 665.74 335.79C664.71 329.38 663.56 323.61 662.67 319.45C662.24 317.45 661.88 315.79 661.61 314.52C661.449 313.92 661.339 313.308 661.28 312.69C661.518 313.263 661.705 313.855 661.84 314.46C662.17 315.61 662.6 317.28 663.1 319.35C664.1 323.49 665.32 329.26 666.35 335.69C667.38 342.12 668.03 347.97 668.35 352.22C668.53 354.35 668.64 356.07 668.69 357.22C668.772 357.843 668.789 358.473 668.74 359.1Z" fill="#263238"/>
<path d="M675.56 308.35C675.698 308.605 675.812 308.873 675.9 309.15C676.13 309.74 676.42 310.51 676.78 311.47C677.14 312.43 677.6 313.72 678.03 315.2C678.46 316.68 679.03 318.32 679.44 320.2L680.16 323.14C680.41 324.14 680.58 325.25 680.8 326.36C681.28 328.58 681.57 330.99 681.92 333.52C683.249 344.534 682.851 355.688 680.74 366.58C680.21 369.08 679.74 371.46 679.11 373.64C678.81 374.73 678.56 375.8 678.24 376.8C677.92 377.8 677.61 378.8 677.31 379.69C676.75 381.54 676.08 383.15 675.54 384.58C675 386.01 674.48 387.23 674.03 388.21L673.03 390.46C672.923 390.729 672.789 390.987 672.63 391.23C672.7 390.948 672.797 390.673 672.92 390.41L673.84 388.11C674.26 387.11 674.76 385.9 675.25 384.46C675.74 383.02 676.4 381.4 676.93 379.55C677.21 378.63 677.51 377.67 677.82 376.67C678.13 375.67 678.36 374.6 678.65 373.51C679.26 371.33 679.65 368.96 680.22 366.51C682.251 355.667 682.648 344.581 681.4 333.62C681.06 331.1 680.79 328.7 680.34 326.49C680.12 325.38 679.96 324.3 679.73 323.28C679.5 322.26 679.27 321.28 679.05 320.34C678.66 318.46 678.13 316.8 677.73 315.34C677.33 313.88 676.94 312.62 676.59 311.6C676.24 310.58 676.02 309.84 675.83 309.24C675.709 308.953 675.619 308.655 675.56 308.35Z" fill="#263238"/>
<path d="M719.15 291.89C719.168 291.983 719.168 292.078 719.15 292.17C719.15 292.39 719.07 292.66 719.02 292.98C718.89 293.69 718.73 294.75 718.45 296.1C717.89 298.79 716.95 302.66 715.45 307.36C713.95 312.06 712.02 317.56 709.66 323.62C707.3 329.68 704.58 336.27 702 343.29C699.42 350.31 697.35 357.15 695.45 363.35C693.55 369.55 691.79 375.15 690.06 379.75C688.728 383.398 687.195 386.97 685.47 390.45C684.87 391.69 684.33 392.61 683.99 393.25L683.58 393.96C683.539 394.047 683.485 394.128 683.42 394.2C683.441 394.106 683.475 394.015 683.52 393.93L683.88 393.19C684.19 392.53 684.69 391.59 685.25 390.34C686.42 387.86 688 384.22 689.65 379.6C691.3 374.98 693.05 369.41 694.91 363.19C696.77 356.97 698.78 350.11 701.41 343.08C704.04 336.05 706.75 329.45 709.13 323.41C711.51 317.37 713.54 311.89 715.03 307.22C716.52 302.55 717.54 298.71 718.17 296.04C718.49 294.71 718.69 293.66 718.86 292.96C718.94 292.64 719 292.38 719.05 292.16C719.069 292.065 719.103 291.974 719.15 291.89Z" fill="#263238"/>
<path d="M629.41 278.07C629.008 277.686 628.49 277.447 627.937 277.389C627.384 277.332 626.827 277.46 626.355 277.752C625.882 278.045 625.52 278.487 625.326 279.008C625.131 279.528 625.115 280.099 625.28 280.63C626.276 283.846 627.499 286.987 628.94 290.03C632.94 298.54 644.7 329.03 650.2 345.8C655.7 362.57 663.45 393.8 663.45 393.8L675.2 391.9C675.2 391.9 664.45 340.55 654 322C645.51 307.17 637.07 285.69 629.41 278.07Z" fill="#455A64"/>
<path d="M653.41 356.28C653.666 356.726 653.87 357.199 654.02 357.69C654.37 358.61 654.84 359.95 655.37 361.63C656.45 364.98 657.78 369.63 659.11 374.86C660.44 380.09 661.55 384.8 662.32 388.23C662.68 389.85 662.97 391.23 663.21 392.3C663.339 392.794 663.419 393.3 663.45 393.81C663.239 393.345 663.078 392.859 662.97 392.36C662.69 391.29 662.33 389.94 661.9 388.36L658.51 375C657.18 369.8 655.92 365.11 654.95 361.74L653.79 357.74C653.615 357.267 653.488 356.778 653.41 356.28Z" fill="#263238"/>
<path d="M669.35 392.86C669.318 392.759 669.298 392.655 669.29 392.55C669.29 392.3 669.21 392 669.15 391.62C669.03 390.81 668.92 389.62 668.67 388.06C668.24 384.98 667.47 380.53 666.21 375.11C664.704 368.762 662.868 362.497 660.71 356.34C658.3 349.34 655.28 341.86 651.85 334.07C644.94 318.52 638.04 304.73 633.5 294.54C631.21 289.45 629.43 285.3 628.26 282.4C627.66 280.96 627.26 279.83 626.94 279.06C626.81 278.7 626.7 278.42 626.61 278.18C626.566 278.085 626.536 277.984 626.52 277.88C626.52 277.88 626.58 277.97 626.67 278.16C626.76 278.35 626.9 278.67 627.06 279.01L628.48 282.31C629.72 285.17 631.56 289.31 633.9 294.31C638.53 304.46 645.5 318.21 652.42 333.78C655.85 341.58 658.86 349.12 661.25 356.11C663.391 362.303 665.191 368.609 666.64 375C667.613 379.293 668.371 383.631 668.91 388C669.12 389.55 669.19 390.76 669.28 391.58C669.28 391.96 669.33 392.26 669.35 392.51C669.366 392.626 669.366 392.744 669.35 392.86Z" fill="#263238"/>
<path d="M675.2 391.91C675.017 391.254 674.883 390.586 674.8 389.91C674.57 388.53 674.26 386.71 673.89 384.51C673.08 379.96 671.89 373.69 670.07 366.87C668.25 360.05 666.32 353.96 664.8 349.6L663 344.46C662.739 343.839 662.532 343.196 662.38 342.54C662.71 343.128 662.994 343.739 663.23 344.37C663.73 345.56 664.44 347.3 665.23 349.47C667.355 355.122 669.178 360.884 670.69 366.73C672.203 372.575 673.421 378.493 674.34 384.46C674.68 386.75 674.93 388.61 675.06 389.9C675.157 390.566 675.204 391.237 675.2 391.91Z" fill="#263238"/>
<path d="M699.31 390.22H653.45V446.09H699.31V390.22Z" fill="#7E3AF2"/>
<g opacity="0.3">
<path d="M699.31 390.22H653.45V446.09H699.31V390.22Z" fill="black"/>
</g>
<path d="M684.68 390.22H644V446.09H684.68V390.22Z" fill="#7E3AF2"/>
<path d="M88.53 370.8C80.71 365.8 69.89 365.7 62.29 371.01C55.07 376.06 51.4 385.24 51.72 394.01C52.04 402.78 56.31 413.56 64.28 418.19L87.68 418.09C91.4405 415.353 94.5465 411.816 96.7738 407.733C99.0012 403.65 100.294 399.123 100.56 394.48C100.91 385.24 96.34 375.8 88.53 370.8Z" fill="#455A64"/>
<path d="M77 419.07C76.89 418.409 76.8431 417.74 76.86 417.07C76.86 415.63 76.76 413.79 76.7 411.58C76.58 406.95 76.4 400.58 76.09 393.49C75.78 386.4 75.4 380.03 75.09 375.4C74.96 373.2 74.85 371.4 74.76 369.92C74.6959 369.255 74.6959 368.585 74.76 367.92C74.9275 368.576 75.0346 369.245 75.08 369.92C75.24 371.21 75.43 373.08 75.65 375.39C76.07 380.01 76.53 386.39 76.85 393.48C77.17 400.57 77.26 406.97 77.24 411.61C77.24 413.93 77.24 415.8 77.16 417.1C77.1659 417.76 77.1123 418.42 77 419.07Z" fill="#263238"/>
<path d="M54.08 392.05C54.08 392.25 52.79 392.32 51.24 392.19C49.69 392.06 48.45 391.79 48.46 391.59C48.47 391.39 49.75 391.32 51.3 391.44C52.85 391.56 54.1 391.84 54.08 392.05Z" fill="#263238"/>
<path d="M54.5199 384.15C54.4299 384.34 53.3399 384.04 52.0699 383.47C50.7999 382.9 49.8399 382.3 49.9199 382.11C49.9999 381.92 51.0999 382.23 52.3699 382.79C53.6399 383.35 54.5999 384 54.5199 384.15Z" fill="#263238"/>
<path d="M58.58 378.29C58.47 378.46 57.24 377.88 55.96 376.82C54.68 375.76 53.87 374.65 54.02 374.52C54.17 374.39 55.19 375.21 56.43 376.24C57.67 377.27 58.69 378.11 58.58 378.29Z" fill="#263238"/>
<path d="M62.6699 372.76C62.4799 372.84 61.8899 371.92 61.3499 370.7C60.8099 369.48 60.5199 368.42 60.7099 368.33C60.8999 368.24 61.4899 369.17 62.0299 370.4C62.5699 371.63 62.8499 372.68 62.6699 372.76Z" fill="#263238"/>
<path d="M69.08 368.84C68.89 368.92 68.26 367.94 67.83 366.58C67.4 365.22 67.37 364.04 67.57 364.01C67.77 363.98 68.14 365.01 68.57 366.35C69 367.69 69.27 368.75 69.08 368.84Z" fill="#263238"/>
<path d="M79.77 364.41C79.97 364.48 79.85 365.32 79.51 366.29C79.17 367.26 78.73 367.98 78.51 367.91C78.29 367.84 78.43 367.01 78.77 366.04C79.11 365.07 79.58 364.34 79.77 364.41Z" fill="#263238"/>
<path d="M87.71 367.82C87.85 367.97 87.34 368.67 86.57 369.38C85.8 370.09 85.07 370.54 84.93 370.38C84.79 370.22 85.3 369.53 86.06 368.82C86.82 368.11 87.57 367.67 87.71 367.82Z" fill="#263238"/>
<path d="M94.69 372.33C94.81 372.5 94.19 373.12 93.31 373.72C92.43 374.32 91.62 374.66 91.5 374.49C91.38 374.32 92.01 373.7 92.89 373.1C93.77 372.5 94.58 372.16 94.69 372.33Z" fill="#263238"/>
<path d="M99.65 379.05C99.73 379.24 98.76 379.84 97.47 380.39C96.18 380.94 95.07 381.23 94.99 381.04C94.91 380.85 95.89 380.25 97.18 379.71C98.47 379.17 99.57 378.86 99.65 379.05Z" fill="#263238"/>
<path d="M101.61 386.39C101.61 386.59 100.61 386.89 99.38 387.04C98.15 387.19 97.1 387.16 97.07 386.95C97.04 386.74 98.07 386.46 99.29 386.3C100.51 386.14 101.58 386.18 101.61 386.39Z" fill="#263238"/>
<path d="M102.62 395.42C102.54 395.61 101.48 395.33 100.26 394.8C99.04 394.27 98.1 393.68 98.18 393.49C98.26 393.3 99.33 393.58 100.55 394.11C101.77 394.64 102.71 395.23 102.62 395.42Z" fill="#263238"/>
<path d="M101.73 403.17C101.66 403.36 100.32 403.04 98.92 402.12C97.52 401.2 96.69 400.12 96.83 399.97C96.97 399.82 98 400.63 99.33 401.49C100.66 402.35 101.8 403 101.73 403.17Z" fill="#263238"/>
<path d="M97.69 410.22C97.57 410.38 96.5 409.76 95.48 408.65C94.46 407.54 93.91 406.44 94.07 406.32C94.23 406.2 95.07 407.09 96.07 408.14C97.07 409.19 97.83 410.06 97.69 410.22Z" fill="#263238"/>
<path d="M59.3901 411.05C59.4801 411.23 58.3901 412.05 56.8801 412.77C55.3701 413.49 54.1301 414 54.0001 413.84C53.8701 413.68 55.0001 412.84 56.5001 412.11C58.0001 411.38 59.2901 410.87 59.3901 411.05Z" fill="#263238"/>
<path d="M55.89 404.67C55.97 404.86 55.07 405.45 53.89 405.99C52.71 406.53 51.66 406.82 51.57 406.63C51.48 406.44 52.39 405.85 53.57 405.31C54.75 404.77 55.8 404.48 55.89 404.67Z" fill="#263238"/>
<path d="M53.32 399C53.32 399.2 52.24 399.53 50.84 399.73C49.44 399.93 48.3 399.92 48.27 399.73C48.24 399.54 49.35 399.2 50.74 399.01C52.13 398.82 53.29 398.81 53.32 399Z" fill="#263238"/>
<path d="M61.75 395.9C61.81 396.1 60.75 396.6 59.3 396.76C57.85 396.92 56.69 396.67 56.71 396.47C56.73 396.27 57.85 396.18 59.21 396.02C60.57 395.86 61.69 395.7 61.75 395.9Z" fill="#263238"/>
<path d="M68.76 388.93C68.82 389.12 67.96 389.56 66.76 389.67C65.56 389.78 64.68 389.53 64.7 389.33C64.72 389.13 65.62 389.04 66.7 388.93C67.78 388.82 68.7 388.73 68.76 388.93Z" fill="#263238"/>
<path d="M70.1 383.34C70.03 383.54 69.1 383.39 68.02 383.02C66.94 382.65 66.12 382.19 66.19 382.02C66.26 381.85 67.19 381.97 68.27 382.35C69.35 382.73 70.17 383.15 70.1 383.34Z" fill="#263238"/>
<path d="M72.67 377.69C72.53 377.84 71.89 377.42 71.43 376.62C70.97 375.82 70.93 375.07 71.13 375.02C71.33 374.97 71.67 375.55 72.13 376.25C72.59 376.95 72.82 377.55 72.67 377.69Z" fill="#263238"/>
<path d="M69.57 400.82C69.62 401.02 68.82 401.39 67.77 401.65C67.2766 401.78 66.77 401.854 66.26 401.87L66.12 401.43C66.39 401.43 66.56 401.43 66.6 401.48C66.64 401.53 66.52 401.69 66.3 401.86L66.15 401.42C66.6136 401.201 67.0998 401.033 67.6 400.92C68.64 400.67 69.52 400.62 69.57 400.82Z" fill="#263238"/>
<path d="M71 410.73C71.07 410.92 70 411.5 68.7 412.03C67.4 412.56 66.21 412.83 66.14 412.64C66.07 412.45 67.14 411.86 68.43 411.34C69.72 410.82 70.94 410.54 71 410.73Z" fill="#263238"/>
<path d="M63.1001 406.33C63.1701 406.52 62.4801 406.93 61.5701 407.24C60.6601 407.55 59.8701 407.65 59.8001 407.45C59.7301 407.25 60.4201 406.85 61.3301 406.54C62.2401 406.23 63.0001 406.13 63.1001 406.33Z" fill="#263238"/>
<path d="M63.7 386.17C63.7 386.37 62.46 386.25 61.09 385.76C59.72 385.27 58.71 384.61 58.8 384.43C58.89 384.25 60 384.58 61.34 385.05C62.68 385.52 63.75 386 63.7 386.17Z" fill="#263238"/>
<path d="M82.86 384C82.98 384.17 82.31 384.81 81.37 385.43C80.43 386.05 79.57 386.43 79.45 386.24C79.33 386.05 80.01 385.43 80.95 384.81C81.89 384.19 82.75 383.8 82.86 384Z" fill="#263238"/>
<path d="M83.91 393.92C83.91 394.12 83.24 394.44 82.33 394.63C81.42 394.82 80.65 394.81 80.6 394.63C80.55 394.45 81.27 394.11 82.18 393.92C83.09 393.73 83.86 393.72 83.91 393.92Z" fill="#263238"/>
<path d="M85.12 405.11C85.03 405.29 84.01 405.01 82.85 404.47C81.69 403.93 80.85 403.34 80.85 403.15C80.85 402.96 81.96 403.25 83.12 403.79C84.28 404.33 85.2 404.92 85.12 405.11Z" fill="#263238"/>
<path d="M82.5501 416C82.3901 416.14 81.7301 415.6 81.0801 414.8C80.4301 414 80.0801 413.25 80.1901 413.12C80.3001 412.99 81.0001 413.53 81.6601 414.33C82.3201 415.13 82.7101 415.86 82.5501 416Z" fill="#263238"/>
<path d="M82 376.65C82.13 376.81 81.69 377.36 80.94 377.73C80.19 378.1 79.5 378.13 79.45 377.93C79.4 377.73 79.94 377.41 80.61 377.07C81.28 376.73 81.9 376.49 82 376.65Z" fill="#263238"/>
<path d="M91.42 386.68C91.49 386.87 90.62 387.35 89.42 387.52C88.22 387.69 87.27 387.46 87.28 387.26C87.29 387.06 88.21 386.93 89.28 386.78C90.35 386.63 91.35 386.49 91.42 386.68Z" fill="#263238"/>
<path d="M89.55 377.68C89.64 377.86 88.78 378.48 87.55 378.87C86.32 379.26 85.2699 379.26 85.2399 379.06C85.2099 378.86 86.16 378.53 87.32 378.15C88.48 377.77 89.45 377.49 89.55 377.68Z" fill="#263238"/>
<path d="M93.47 400.63C93.47 400.83 91.99 400.96 90.21 400.63C88.43 400.3 87.1 399.63 87.21 399.48C87.32 399.33 88.68 399.59 90.39 399.89C92.1 400.19 93.47 400.42 93.47 400.63Z" fill="#263238"/>
<path d="M90 413.71C89.88 413.87 88.79 413.23 87.71 412.14C86.63 411.05 86 410 86.13 409.84C86.26 409.68 87.13 410.56 88.22 411.62C89.31 412.68 90.11 413.55 90 413.71Z" fill="#263238"/>
<path d="M74.64 367C72.2521 368.451 70.0522 370.191 68.09 372.18C63.5389 377.169 60.6826 383.469 59.93 390.18C59.591 393.868 59.7558 397.586 60.42 401.23C60.9556 404.221 61.6466 407.181 62.49 410.1C63.21 412.59 63.87 414.59 64.31 415.98C64.5761 416.689 64.7867 417.418 64.94 418.16C64.5737 417.497 64.2723 416.801 64.04 416.08C63.51 414.72 62.77 412.74 61.99 410.25C61.059 407.333 60.3109 404.36 59.75 401.35C59.0246 397.646 58.836 393.857 59.19 390.1C59.9392 383.223 62.9336 376.784 67.71 371.78C69.1606 370.308 70.8019 369.037 72.59 368C73.0717 367.706 73.5728 367.446 74.09 367.22C74.2626 367.122 74.4476 367.048 74.64 367Z" fill="#263238"/>
<path d="M84.83 418.7C84.66 418.61 86.5 415.78 88.18 410.7C90.4289 404.07 91.1134 397.009 90.18 390.07C89.6759 386.243 88.6042 382.512 87 379C85.6584 376.177 83.8228 373.617 81.58 371.44C79.9939 370.048 78.1986 368.914 76.26 368.08C74.88 367.51 74.05 367.37 74.06 367.31C74.2622 367.279 74.4679 367.279 74.67 367.31C75.2448 367.413 75.81 367.564 76.36 367.76C78.3897 368.504 80.2719 369.601 81.92 371C84.2845 373.169 86.2184 375.764 87.62 378.65C89.2876 382.192 90.4006 385.97 90.92 389.85C91.8761 396.899 91.1039 404.075 88.67 410.76C88.25 412.05 87.67 413.15 87.3 414.15C86.93 415.15 86.42 415.95 86.06 416.61C85.7035 417.337 85.2923 418.035 84.83 418.7Z" fill="#263238"/>
<path d="M55.89 416.93H97.07L97.32 425.17H55.89V416.93Z" fill="#7E3AF2"/>
<path d="M59.39 421.05L61.75 446.21H91.86L94.28 421.33L59.39 421.05Z" fill="#7E3AF2"/>
<path d="M97.32 425.27C97.32 425.48 88.05 425.64 76.61 425.64C65.17 425.64 55.9 425.48 55.9 425.27C55.9 425.06 65.17 424.9 76.61 424.9C88.05 424.9 97.32 425.06 97.32 425.27Z" fill="#263238"/>
<path d="M93.14 432.93C92.9255 433.497 92.629 434.029 92.26 434.51C91.331 435.877 90.2582 437.141 89.06 438.28L88.87 438.46L88.69 438.26C86.2159 435.667 83.5115 433.304 80.61 431.2H81.07L77.49 434.34L73.26 438L73.03 438.21L72.79 438.01L65.92 432.23L66.32 432.18C64.9 433.92 63.7 435.37 62.76 436.53C62.3499 437.086 61.8804 437.596 61.36 438.05C61.6895 437.442 62.0744 436.867 62.51 436.33L65.87 431.84L66.05 431.61L66.28 431.79L73.28 437.45H72.82L77.03 433.75L80.62 430.62L80.84 430.43L81.08 430.6C83.9888 432.75 86.6695 435.193 89.08 437.89H88.7C90.3143 436.362 91.7994 434.703 93.14 432.93Z" fill="#263238"/>
<path d="M587.95 131.77H152.03C143.983 131.77 137.46 138.293 137.46 146.34V424.74C137.46 432.787 143.983 439.31 152.03 439.31H587.95C595.997 439.31 602.52 432.787 602.52 424.74V146.34C602.52 138.293 595.997 131.77 587.95 131.77Z" fill="#455A64"/>
<path d="M122.24 419.44H626.09V428.55C626.09 433.271 624.215 437.798 620.876 441.136C617.538 444.475 613.011 446.35 608.29 446.35H140C135.279 446.35 130.752 444.475 127.413 441.136C124.075 437.798 122.2 433.271 122.2 428.55V419.44H122.24Z" fill="#455A64"/>
<path d="M324.15 416.56L330.4 426.51H418.38L424.18 416.56H324.15Z" fill="#263238"/>
<path d="M598.52 416.56C598.52 416.73 495.3 416.86 368.01 416.86C240.72 416.86 137.46 416.73 137.46 416.56C137.46 416.39 240.66 416.26 368.01 416.26C495.36 416.26 598.52 416.39 598.52 416.56Z" fill="#263238"/>
<path d="M584.11 149.45H154.05C152.244 149.45 150.78 150.914 150.78 152.72V405.16C150.78 406.966 152.244 408.43 154.05 408.43H584.11C585.916 408.43 587.38 406.966 587.38 405.16V152.72C587.38 150.914 585.916 149.45 584.11 149.45Z" fill="#EBEBEB"/>
<path d="M586.91 408.81H150.31L150.78 168.81H586.91V408.81Z" fill="white"/>
<path d="M186.59 159.46C186.596 160.152 186.396 160.829 186.016 161.407C185.637 161.985 185.094 162.437 184.456 162.706C183.819 162.974 183.117 163.048 182.438 162.917C181.759 162.785 181.134 162.455 180.643 161.968C180.152 161.482 179.817 160.86 179.679 160.182C179.542 159.504 179.61 158.801 179.873 158.161C180.136 157.522 180.583 156.975 181.158 156.59C181.733 156.206 182.408 156 183.1 156C184.021 155.997 184.906 156.36 185.56 157.009C186.214 157.657 186.585 158.539 186.59 159.46Z" fill="#263238"/>
<path d="M165.46 159.46C165.466 160.153 165.266 160.832 164.884 161.41C164.503 161.989 163.958 162.441 163.319 162.708C162.681 162.976 161.976 163.048 161.297 162.914C160.617 162.781 159.992 162.448 159.502 161.958C159.012 161.468 158.679 160.843 158.546 160.163C158.412 159.484 158.484 158.779 158.752 158.141C159.019 157.502 159.471 156.957 160.05 156.576C160.628 156.194 161.307 155.994 162 156C162.916 156.005 163.793 156.371 164.441 157.019C165.089 157.667 165.455 158.544 165.46 159.46Z" fill="#263238"/>
<path d="M175.6 159.46C175.6 160.15 175.395 160.825 175.012 161.399C174.628 161.973 174.083 162.42 173.446 162.684C172.808 162.948 172.106 163.018 171.429 162.883C170.752 162.748 170.13 162.416 169.642 161.928C169.154 161.44 168.822 160.818 168.687 160.141C168.552 159.464 168.622 158.762 168.886 158.124C169.15 157.487 169.597 156.942 170.171 156.558C170.745 156.175 171.42 155.97 172.11 155.97C172.569 155.969 173.023 156.058 173.447 156.233C173.871 156.408 174.256 156.665 174.581 156.989C174.905 157.314 175.162 157.699 175.337 158.123C175.512 158.547 175.601 159.001 175.6 159.46Z" fill="#263238"/>
<path d="M587.38 385.63H150.31V408.81H587.38V385.63Z" fill="#263238"/>
<path d="M166.83 399.9V400.64H163.35V400.06L165.22 398.28C165.68 397.84 165.76 397.56 165.76 397.28C165.76 396.85 165.46 396.6 164.88 396.6C164.671 396.589 164.462 396.627 164.271 396.712C164.08 396.797 163.911 396.927 163.78 397.09L163.16 396.62C163.379 396.36 163.656 396.154 163.968 396.018C164.28 395.883 164.62 395.822 164.96 395.84C165.96 395.84 166.65 396.35 166.65 397.19C166.643 397.483 166.569 397.77 166.431 398.029C166.294 398.287 166.099 398.51 165.86 398.68L164.6 399.88L166.83 399.9Z" fill="white"/>
<path d="M167.3 397.56C167.3 397.449 167.333 397.34 167.395 397.248C167.457 397.156 167.545 397.084 167.648 397.042C167.751 397 167.864 396.989 167.973 397.012C168.082 397.034 168.182 397.088 168.259 397.168C168.337 397.247 168.39 397.348 168.41 397.457C168.431 397.566 168.418 397.679 168.374 397.781C168.33 397.883 168.257 397.97 168.164 398.031C168.07 398.091 167.961 398.122 167.85 398.12C167.776 398.121 167.703 398.108 167.635 398.08C167.567 398.052 167.506 398.011 167.454 397.959C167.403 397.906 167.363 397.844 167.336 397.775C167.309 397.707 167.297 397.633 167.3 397.56ZM167.3 400.13C167.289 400.051 167.296 399.97 167.319 399.894C167.342 399.817 167.381 399.747 167.433 399.687C167.486 399.627 167.551 399.578 167.623 399.545C167.696 399.512 167.775 399.495 167.855 399.495C167.935 399.495 168.014 399.512 168.086 399.545C168.159 399.578 168.224 399.627 168.276 399.687C168.329 399.747 168.368 399.817 168.391 399.894C168.414 399.97 168.421 400.051 168.41 400.13C168.421 400.209 168.414 400.29 168.391 400.366C168.368 400.443 168.329 400.513 168.276 400.573C168.224 400.633 168.159 400.682 168.086 400.715C168.014 400.748 167.935 400.765 167.855 400.765C167.775 400.765 167.696 400.748 167.623 400.715C167.551 400.682 167.486 400.633 167.433 400.573C167.381 400.513 167.342 400.443 167.319 400.366C167.296 400.29 167.289 400.209 167.3 400.13Z" fill="white"/>
<path d="M170.6 395.92V400.64H169.73V396.64H168.73V395.9L170.6 395.92Z" fill="white"/>
<path d="M175.75 399.57H174.91V400.64H174.06V399.57H171.47V399L173.8 396H174.74L172.54 398.91H174.09V397.96H174.91V398.91H175.75V399.57Z" fill="white"/>
<path d="M541.7 397.68H183.46V399.31H541.7V397.68Z" fill="white"/>
<path d="M295.14 395.93H183.19V400.29H295.14V395.93Z" fill="#7E3AF2"/>
<path d="M298.76 398.5C298.76 399.578 298.44 400.632 297.842 401.528C297.243 402.424 296.391 403.123 295.396 403.535C294.4 403.948 293.304 404.056 292.247 403.845C291.19 403.635 290.218 403.116 289.456 402.354C288.694 401.592 288.175 400.62 287.965 399.563C287.754 398.506 287.862 397.41 288.275 396.414C288.687 395.419 289.386 394.567 290.282 393.969C291.178 393.37 292.232 393.05 293.31 393.05C294.755 393.05 296.142 393.624 297.164 394.646C298.186 395.668 298.76 397.055 298.76 398.5Z" fill="#7E3AF2"/>
<path d="M550.72 398.45C550.718 398.668 550.671 398.883 550.582 399.081C550.492 399.28 550.363 399.458 550.201 399.603C550.039 399.749 549.849 399.86 549.642 399.928C549.435 399.996 549.217 400.021 549 400C547.71 400 547 399.17 547 397.65C546.96 397.327 546.992 397 547.092 396.69C547.192 396.38 547.358 396.096 547.578 395.857C547.799 395.619 548.069 395.431 548.37 395.307C548.671 395.183 548.995 395.126 549.32 395.14C549.754 395.129 550.182 395.236 550.56 395.45L550.23 396.11C549.963 395.946 549.653 395.866 549.34 395.88C548.45 395.88 547.89 396.43 547.89 397.5C548.052 397.331 548.248 397.2 548.466 397.115C548.683 397.031 548.917 396.995 549.15 397.01C549.349 396.996 549.548 397.023 549.736 397.089C549.924 397.155 550.097 397.259 550.244 397.393C550.391 397.528 550.509 397.691 550.59 397.873C550.672 398.054 550.716 398.251 550.72 398.45ZM549.87 398.45C549.87 397.96 549.5 397.65 548.93 397.65C548.81 397.63 548.687 397.636 548.57 397.667C548.452 397.698 548.342 397.754 548.248 397.83C548.153 397.907 548.076 398.002 548.021 398.111C547.967 398.22 547.935 398.339 547.93 398.46C547.93 398.9 548.28 399.25 548.93 399.25C549.043 399.268 549.158 399.263 549.268 399.234C549.379 399.205 549.481 399.152 549.57 399.081C549.659 399.009 549.732 398.919 549.783 398.817C549.835 398.716 549.864 398.604 549.87 398.49V398.45Z" fill="white"/>
<path d="M551.15 396.83C551.139 396.751 551.146 396.67 551.169 396.594C551.192 396.517 551.231 396.447 551.283 396.387C551.336 396.327 551.401 396.278 551.474 396.245C551.546 396.212 551.625 396.195 551.705 396.195C551.785 396.195 551.864 396.212 551.936 396.245C552.009 396.278 552.074 396.327 552.127 396.387C552.179 396.447 552.218 396.517 552.241 396.594C552.264 396.67 552.271 396.751 552.26 396.83C552.271 396.909 552.264 396.99 552.241 397.066C552.218 397.143 552.179 397.213 552.127 397.273C552.074 397.333 552.009 397.382 551.936 397.415C551.864 397.448 551.785 397.465 551.705 397.465C551.625 397.465 551.546 397.448 551.474 397.415C551.401 397.382 551.336 397.333 551.283 397.273C551.231 397.213 551.192 397.143 551.169 397.066C551.146 396.99 551.139 396.909 551.15 396.83ZM551.15 399.4C551.139 399.321 551.146 399.24 551.169 399.164C551.192 399.087 551.231 399.017 551.283 398.957C551.336 398.897 551.401 398.848 551.474 398.815C551.546 398.782 551.625 398.765 551.705 398.765C551.785 398.765 551.864 398.782 551.936 398.815C552.009 398.848 552.074 398.897 552.127 398.957C552.179 399.017 552.218 399.087 552.241 399.164C552.264 399.24 552.271 399.321 552.26 399.4C552.271 399.479 552.264 399.56 552.241 399.636C552.218 399.713 552.179 399.783 552.127 399.843C552.074 399.903 552.009 399.952 551.936 399.985C551.864 400.018 551.785 400.035 551.705 400.035C551.625 400.035 551.546 400.018 551.474 399.985C551.401 399.952 551.336 399.903 551.283 399.843C551.231 399.783 551.192 399.713 551.169 399.636C551.146 399.56 551.139 399.479 551.15 399.4Z" fill="white"/>
<path d="M552.82 397.55C552.82 396 553.67 395.12 554.82 395.12C555.97 395.12 556.82 396 556.82 397.55C556.82 399.1 555.97 399.98 554.82 399.98C553.67 399.98 552.82 399.1 552.82 397.55ZM555.88 397.55C555.88 396.41 555.44 395.89 554.79 395.89C554.14 395.89 553.7 396.41 553.7 397.55C553.7 398.69 554.15 399.22 554.79 399.22C555.43 399.22 555.88 398.69 555.88 397.55Z" fill="white"/>
<path d="M557.35 397.55C557.35 396 558.2 395.12 559.35 395.12C560.5 395.12 561.35 396 561.35 397.55C561.35 399.1 560.5 399.98 559.35 399.98C558.2 399.98 557.35 399.1 557.35 397.55ZM560.42 397.55C560.42 396.41 559.97 395.89 559.32 395.89C558.67 395.89 558.24 396.41 558.24 397.55C558.24 398.69 558.68 399.22 559.32 399.22C559.96 399.22 560.42 398.69 560.42 397.55Z" fill="white"/>
<path d="M568.93 397.26H567.29V392.55H572V394.18H568.93V397.26Z" fill="white"/>
<path d="M572 403.4H567.29V398.7H568.92V401.77H572V403.4Z" fill="white"/>
<path d="M579.5 403.4H574.8V401.77H577.86V398.69H579.5V403.4Z" fill="white"/>
<path d="M579.5 397.25H577.87V394.18H574.79V392.55H579.5V397.25Z" fill="white"/>
<path d="M210.19 183.08H184.45L171.59 205.37L184.45 227.65H210.19L223.05 205.37L210.19 183.08Z" fill="#EBEBEB"/>
<path d="M186.55 209.73C185.353 208.5 184.3 207.138 183.41 205.67C182.513 204.189 182.136 202.45 182.34 200.73C182.61 199.766 182.827 198.788 182.99 197.8C183.09 196.42 182.51 194.98 182.99 193.69C183.75 191.69 186.46 191.36 188.11 189.97C189.39 188.88 190.02 187.12 191.43 186.21C192.739 185.517 194.253 185.311 195.7 185.63C197.132 185.96 198.603 186.088 200.07 186.01C201.083 185.793 202.085 185.523 203.07 185.2C204.061 184.889 205.132 184.964 206.07 185.41C206.528 185.66 206.87 186.079 207.023 186.578C207.176 187.077 207.129 187.616 206.89 188.08C208.58 187.3 210.72 188.62 211.18 190.41C211.356 191.326 211.273 192.274 210.939 193.145C210.605 194.016 210.034 194.776 209.29 195.34C207.794 196.455 206.039 197.17 204.19 197.42C199.02 198.42 193.42 197.85 188.97 195.05" fill="#263238"/>
<path d="M210.41 215.23C210.24 212.04 209.35 205.5 208.47 199.59C208.015 196.528 206.426 193.75 204.018 191.805C201.61 189.86 198.559 188.891 195.47 189.09H194.83C187.99 189.95 184.9 196.24 185.95 203.09L187.95 227.64H204.65C204.65 227.64 204.25 223.33 204.25 223.29C204.25 223.25 210.77 221.83 210.41 215.23Z" fill="#FFBE9D"/>
<path d="M204.24 223.21C201.196 223.466 198.145 222.815 195.47 221.34C195.47 221.34 197.83 225.95 204.37 224.92L204.24 223.21Z" fill="#EB996E"/>
<path d="M206.34 205.25C206.359 205.494 206.282 205.735 206.125 205.922C205.968 206.109 205.743 206.227 205.5 206.25C205.383 206.265 205.264 206.257 205.15 206.226C205.036 206.195 204.93 206.142 204.837 206.069C204.744 205.997 204.666 205.906 204.608 205.803C204.55 205.701 204.514 205.587 204.5 205.47C204.483 205.227 204.561 204.987 204.718 204.8C204.875 204.614 205.098 204.495 205.34 204.47C205.457 204.455 205.576 204.463 205.69 204.494C205.804 204.525 205.91 204.578 206.003 204.651C206.096 204.723 206.174 204.814 206.232 204.916C206.29 205.019 206.326 205.133 206.34 205.25Z" fill="#263238"/>
<path d="M207.27 202.91C207.16 203.04 206.41 202.56 205.39 202.63C204.37 202.7 203.67 203.26 203.55 203.14C203.43 203.02 203.55 202.86 203.91 202.6C204.328 202.269 204.838 202.074 205.37 202.04C205.898 202.002 206.424 202.135 206.87 202.42C207.2 202.64 207.32 202.85 207.27 202.91Z" fill="#263238"/>
<path d="M196.76 205.94C196.763 206.18 196.68 206.413 196.526 206.596C196.372 206.78 196.157 206.902 195.92 206.94C195.683 206.965 195.446 206.897 195.259 206.749C195.072 206.602 194.95 206.386 194.92 206.15C194.917 205.91 195 205.677 195.154 205.494C195.308 205.31 195.523 205.188 195.76 205.15C195.997 205.125 196.234 205.193 196.421 205.341C196.608 205.488 196.73 205.704 196.76 205.94Z" fill="#263238"/>
<path d="M197.31 203.77C197.2 203.9 196.45 203.42 195.43 203.49C194.41 203.56 193.71 204.11 193.59 204C193.47 203.89 193.59 203.72 193.95 203.46C194.369 203.122 194.882 202.922 195.42 202.888C195.957 202.853 196.492 202.987 196.95 203.27C197.24 203.49 197.36 203.71 197.31 203.77Z" fill="#263238"/>
<path d="M201.49 211C202.014 210.795 202.561 210.657 203.12 210.59C203.38 210.59 203.62 210.48 203.65 210.3C203.654 210.034 203.577 209.772 203.43 209.55L202.53 207.63C201.711 206.02 201.019 204.348 200.46 202.63C201.414 204.184 202.24 205.813 202.93 207.5C203.23 208.17 203.52 208.82 203.8 209.43C203.975 209.732 204.045 210.084 204 210.43C203.967 210.523 203.914 210.608 203.845 210.679C203.776 210.75 203.692 210.805 203.6 210.84C203.457 210.886 203.31 210.917 203.16 210.93C202.609 211.024 202.047 211.048 201.49 211Z" fill="#263238"/>
<path d="M197.3 199.77C197.22 200.05 196.2 199.99 195.02 200.22C193.84 200.45 192.9 200.83 192.72 200.59C192.54 200.35 192.8 200.21 193.17 199.91C193.662 199.544 194.235 199.301 194.84 199.2C195.442 199.082 196.063 199.112 196.65 199.29C197.1 199.44 197.34 199.64 197.3 199.77Z" fill="#263238"/>
<path d="M206.7 200C206.53 200.24 205.82 200.05 204.98 200.09C204.14 200.13 203.44 200.35 203.26 200.09C203.08 199.83 203.26 199.74 203.57 199.5C203.966 199.203 204.445 199.038 204.94 199.03C205.433 199.008 205.922 199.137 206.34 199.4C206.65 199.65 206.77 199.88 206.7 200Z" fill="#263238"/>
<path d="M186.8 208C186.68 208 182.17 207 182.62 211.47C183.07 215.94 187.95 214.47 187.94 214.37C187.93 214.27 186.8 208 186.8 208Z" fill="#FFBE9D"/>
<path d="M185.94 212.85C185.94 212.85 185.87 212.91 185.75 212.98C185.57 213.079 185.358 213.104 185.16 213.05C184.851 212.895 184.589 212.661 184.4 212.371C184.212 212.081 184.105 211.745 184.09 211.4C184.038 211.017 184.076 210.626 184.2 210.26C184.226 210.113 184.288 209.975 184.38 209.858C184.473 209.741 184.593 209.649 184.73 209.59C184.817 209.56 184.912 209.561 185 209.591C185.087 209.622 185.161 209.682 185.21 209.76C185.29 209.88 185.27 209.98 185.29 209.98C185.31 209.98 185.38 209.9 185.29 209.71C185.254 209.604 185.183 209.512 185.09 209.45C185.024 209.408 184.95 209.38 184.872 209.368C184.795 209.356 184.716 209.36 184.64 209.38C184.46 209.437 184.297 209.538 184.166 209.674C184.035 209.811 183.94 209.978 183.89 210.16C183.74 210.569 183.692 211.008 183.75 211.44C183.761 211.844 183.894 212.234 184.131 212.561C184.369 212.888 184.699 213.135 185.08 213.27C185.205 213.293 185.334 213.288 185.456 213.255C185.579 213.222 185.693 213.162 185.79 213.08C186 213 186 212.85 185.94 212.85Z" fill="#EB996E"/>
<path d="M208.14 193.42C207.83 195.21 204.19 196.86 201.14 196.77C198.36 196.69 196.98 195.31 194.97 194.33C193.69 193.71 193.69 193.71 191.97 193.99C190.57 194.22 189.84 195.87 189.06 197.06C190.56 200.33 189.95 204.13 189.31 207.67C189.285 208.067 189.127 208.444 188.86 208.74C188.572 208.917 188.23 208.987 187.896 208.938C187.561 208.888 187.255 208.723 187.03 208.47C186.29 207.674 185.797 206.681 185.61 205.61C184.98 203.22 184.83 200.728 185.17 198.28C185.502 195.831 186.545 193.532 188.17 191.67C190.313 189.411 193.249 188.074 196.36 187.94C199.457 187.826 202.512 188.69 205.09 190.41C206.32 191.15 207.35 192.18 208.09 193.41" fill="#263238"/>
<path d="M202.16 213.32L199.86 212.25C199.732 212.177 199.587 212.143 199.44 212.15C199.28 212.186 199.14 212.283 199.05 212.42C198.78 212.741 198.611 213.134 198.565 213.551C198.519 213.967 198.597 214.388 198.79 214.76C199 215.124 199.331 215.403 199.726 215.548C200.121 215.692 200.554 215.693 200.95 215.55C201.336 215.338 201.658 215.025 201.882 214.645C202.105 214.264 202.222 213.831 202.22 213.39L202.16 213.32Z" fill="#EB996E"/>
<path d="M201 215.72C201 215.72 200.52 216.09 199.65 215.84C199.142 215.668 198.717 215.311 198.46 214.84C198.296 214.558 198.198 214.242 198.172 213.917C198.146 213.592 198.193 213.265 198.31 212.96C198.432 212.642 198.623 212.355 198.87 212.12C198.989 212.01 199.12 211.913 199.26 211.83C199.352 211.781 199.455 211.755 199.56 211.755C199.665 211.755 199.768 211.781 199.86 211.83C200.39 212.12 200.74 212.37 201.09 212.59C201.76 213.04 202.16 213.35 202.09 213.41C202.02 213.47 201.59 213.28 200.87 212.91L199.64 212.27C199.55 212.27 199.56 212.27 199.46 212.27C199.359 212.338 199.266 212.415 199.18 212.5C198.992 212.685 198.848 212.911 198.76 213.16C198.67 213.395 198.631 213.647 198.645 213.899C198.659 214.15 198.725 214.396 198.84 214.62C199.035 214.997 199.352 215.297 199.74 215.47C200.49 215.79 201 215.63 201 215.72Z" fill="#263238"/>
<path d="M200.29 205.36C200.29 205.36 200.29 204.95 200.05 204.24C199.76 203.249 199.152 202.381 198.32 201.77C197.654 201.274 196.863 200.974 196.035 200.902C195.208 200.83 194.377 200.989 193.635 201.362C192.893 201.735 192.269 202.307 191.833 203.014C191.398 203.72 191.167 204.535 191.167 205.365C191.167 206.195 191.398 207.009 191.833 207.716C192.269 208.423 192.893 208.995 193.635 209.368C194.377 209.741 195.208 209.9 196.035 209.828C196.863 209.756 197.654 209.455 198.32 208.96C199.152 208.349 199.76 207.481 200.05 206.49C200.25 205.78 200.24 205.36 200.29 205.36C200.34 205.36 200.29 205.47 200.29 205.67C200.296 205.963 200.266 206.255 200.2 206.54C199.975 207.615 199.376 208.575 198.51 209.25C197.862 209.755 197.098 210.09 196.287 210.223C195.476 210.356 194.645 210.282 193.87 210.01C192.911 209.669 192.081 209.039 191.494 208.208C190.907 207.376 190.592 206.383 190.592 205.365C190.592 204.347 190.907 203.354 191.494 202.522C192.081 201.691 192.911 201.061 193.87 200.72C194.645 200.447 195.476 200.374 196.287 200.507C197.098 200.64 197.862 200.974 198.51 201.48C199.376 202.155 199.975 203.115 200.2 204.19C200.267 204.475 200.297 204.767 200.29 205.06C200.32 205.26 200.31 205.36 200.29 205.36Z" fill="#263238"/>
<path d="M211.52 204.92C211.47 204.92 211.52 204.52 211.28 203.83C211 202.867 210.409 202.023 209.6 201.43C208.951 200.948 208.182 200.656 207.377 200.586C206.572 200.517 205.763 200.672 205.041 201.035C204.319 201.398 203.713 201.954 203.289 202.642C202.865 203.33 202.64 204.122 202.64 204.93C202.64 205.738 202.865 206.53 203.289 207.218C203.713 207.906 204.319 208.462 205.041 208.825C205.763 209.188 206.572 209.344 207.377 209.274C208.182 209.204 208.951 208.912 209.6 208.43C210.409 207.837 211 206.993 211.28 206.03C211.48 205.34 211.47 204.93 211.52 204.93C211.57 204.93 211.52 205.03 211.52 205.23C211.526 205.515 211.499 205.801 211.44 206.08C211.217 207.126 210.633 208.061 209.79 208.72C209.158 209.214 208.412 209.541 207.62 209.671C206.828 209.8 206.016 209.728 205.26 209.46C204.326 209.126 203.517 208.512 202.946 207.701C202.374 206.89 202.067 205.922 202.067 204.93C202.067 203.938 202.374 202.97 202.946 202.159C203.517 201.348 204.326 200.734 205.26 200.4C206.016 200.132 206.828 200.06 207.62 200.189C208.412 200.319 209.158 200.646 209.79 201.14C210.633 201.803 211.217 202.741 211.44 203.79C211.499 204.069 211.526 204.355 211.52 204.64C211.55 204.82 211.54 204.92 211.52 204.92Z" fill="#263238"/>
<path d="M202.36 203.89C202.26 203.98 201.81 203.69 201.21 203.71C200.61 203.73 200.21 204.02 200.07 203.93C199.93 203.84 200.35 203.21 201.2 203.19C202.05 203.17 202.49 203.81 202.36 203.89Z" fill="#263238"/>
<path d="M191.17 204.7C191.26 204.81 190.38 205.61 189.22 206.48C188.564 207.078 187.796 207.541 186.96 207.84C186.87 207.73 187.75 206.93 188.91 206.06C189.564 205.459 190.333 204.997 191.17 204.7Z" fill="#263238"/>
<path d="M284 205.14C284 205.28 272.43 205.4 258.16 205.4C243.89 205.4 232.32 205.28 232.32 205.14C232.32 205 243.89 204.88 258.16 204.88C272.43 204.88 284 205 284 205.14Z" fill="#263238"/>
<path d="M260.09 210.55C260.09 210.69 253.95 210.81 246.37 210.81C238.79 210.81 232.65 210.69 232.65 210.55C232.65 210.41 238.79 210.28 246.37 210.28C253.95 210.28 260.09 210.4 260.09 210.55Z" fill="#263238"/>
<path d="M438.79 245.09C443.317 247.664 447.288 251.111 450.474 255.231C453.66 259.35 455.997 264.061 457.35 269.09C462.18 286.37 476.95 331.37 476.95 331.37C476.95 331.37 485.39 341.3 486.29 348.65C487.19 356 485.39 373.79 482.67 377.11C481.882 378.073 480.871 378.829 479.724 379.312C478.577 379.795 477.329 379.99 476.09 379.88L440.56 376.51L426.56 282.83L438.79 245.09Z" fill="#7E3AF2"/>
<path d="M321.31 243.46C321.31 243.46 295.9 251.46 289.57 258.36L310.37 355.12L310 385.66H430.48C430.48 384.15 431.56 284.28 431.56 284.28L438.79 245.09L396 237.56L387.56 230.92L339.93 233.34L332.69 240.57L321.31 243.46Z" fill="#7E3AF2"/>
<g opacity="0.3">
<path d="M331 327.41C330.63 326.59 330.09 325.7 329.21 325.52C327.76 325.22 326.79 326.93 326.3 328.33C322.458 339.299 317.136 349.692 310.48 359.22L310.17 374.08C317.17 368.17 324.11 361.84 328.59 353.83C333.07 345.82 334.74 335.77 331 327.41Z" fill="black"/>
</g>
<path d="M289.57 258.36C289.57 258.36 281.2 269.77 277.73 277.22C274.26 284.67 245.45 347.22 243.73 353.69C242.01 360.16 237.53 380.5 250.68 385.22H277.75L304.91 330.29L306.3 266.54L289.57 258.36Z" fill="#7E3AF2"/>
<path d="M279.46 345.54C279.46 345.54 278.86 345.01 277.61 344.3C275.826 343.343 273.913 342.649 271.93 342.24C270.567 341.941 269.183 341.747 267.79 341.66C266.185 341.539 264.571 341.654 263 342C259.443 342.914 256.258 344.913 253.89 347.72C251.482 350.496 249.719 353.771 248.73 357.31C247.913 360.203 247.371 363.166 247.11 366.16C246.85 368.72 246.76 370.81 246.67 372.24C246.67 372.92 246.59 373.47 246.57 373.9C246.57 374.096 246.543 374.291 246.49 374.48C246.477 374.287 246.477 374.093 246.49 373.9C246.49 373.46 246.49 372.9 246.49 372.24C246.49 370.79 246.55 368.71 246.76 366.13C246.971 363.087 247.484 360.072 248.29 357.13C249.272 353.511 251.06 350.161 253.52 347.33C255.962 344.444 259.251 342.401 262.92 341.49C264.524 341.156 266.169 341.065 267.8 341.22C269.212 341.324 270.613 341.541 271.99 341.87C273.995 342.316 275.918 343.071 277.69 344.11C278.167 344.405 278.619 344.739 279.04 345.11C279.195 345.238 279.335 345.382 279.46 345.54Z" fill="#263238"/>
<path d="M266.63 334.6C266.926 334.514 267.232 334.467 267.54 334.46C268.375 334.395 269.214 334.395 270.05 334.46C271.294 334.533 272.529 334.717 273.74 335.01C276.72 335.73 279.516 337.066 281.95 338.93C282.941 339.685 283.862 340.528 284.7 341.45C285.268 342.075 285.786 342.744 286.25 343.45C286.439 343.695 286.593 343.964 286.71 344.25C286.63 344.31 285.89 343.25 284.43 341.73C283.567 340.866 282.641 340.067 281.66 339.34C280.451 338.46 279.166 337.69 277.82 337.04C276.466 336.409 275.061 335.893 273.62 335.5C272.438 335.195 271.234 334.981 270.02 334.86C267.94 334.59 266.63 334.7 266.63 334.6Z" fill="#263238"/>
<path d="M291.09 331.59C290.671 331.607 290.252 331.577 289.84 331.5C289.04 331.4 287.89 331.28 286.45 331.17C278.971 330.612 271.455 331.512 264.32 333.82C262.95 334.26 261.85 334.65 261.1 334.94C260.717 335.109 260.319 335.24 259.91 335.33C260.254 335.091 260.627 334.896 261.02 334.75C261.75 334.4 262.84 333.96 264.2 333.47C271.341 330.942 278.955 330.033 286.49 330.81C287.92 330.96 289.08 331.13 289.87 331.3C290.285 331.358 290.693 331.455 291.09 331.59Z" fill="#263238"/>
<path d="M368.18 278.14C368.07 278.045 367.976 277.934 367.9 277.81L367.16 276.81L364.44 273.05C362.11 269.75 358.85 265.15 355.02 259.75L355.44 259.69C353.98 263.97 352.37 268.69 350.68 273.69L350.57 274L350.29 273.82L349.73 273.46C347.551 272.065 345.57 270.383 343.84 268.46C342.241 266.669 340.83 264.719 339.63 262.64C337.632 259.122 336.077 255.37 335 251.47C334.277 248.836 333.693 246.165 333.25 243.47C333.09 242.57 332.97 241.84 332.87 241.29C332.842 241.103 332.798 240.919 332.74 240.74C332.74 240.62 332.67 240.56 332.68 240.55C332.69 240.54 333.09 241.55 333.45 243.44C333.81 245.33 334.38 248.05 335.36 251.34C336.467 255.204 338.042 258.918 340.05 262.4C341.247 264.44 342.644 266.356 344.22 268.12C345.92 269.997 347.864 271.639 350 273L350.55 273.36L350.17 273.5C351.88 268.5 353.5 263.81 354.98 259.5L355.13 259.06L355.4 259.44C359.16 264.89 362.4 269.53 364.67 272.85C365.76 274.47 366.67 275.76 367.28 276.7L367.95 277.7C368.042 277.838 368.119 277.986 368.18 278.14Z" fill="#263238"/>
<g opacity="0.3">
<path d="M399.53 324.33C398.451 335.613 400.897 346.954 406.53 356.79C412.13 366.53 420.35 375.22 430.58 379.88C430.91 369.95 430.43 358.25 430.76 348.32L399.53 324.33Z" fill="black"/>
</g>
<path d="M398.4 311.26C398.4 311.26 394.02 312.47 397.3 321.44C400.58 330.41 401.68 329.86 403.87 338.24C406.06 346.62 408.61 354.24 412.43 359.02C416.25 363.8 430.48 373.42 430.48 373.42L443.24 361.42C443.24 361.42 441.14 352.42 441.64 346.36C442.14 340.3 443.42 325.36 443.24 322.77C443.06 320.18 440.32 314.02 440.32 314.02V309.78L433.76 289.6C433.76 289.6 430.11 287.96 428.84 293.79L426.65 287.6C426.65 287.6 423.19 287.05 422.28 294.16C421.37 301.27 423.01 311.11 423.01 311.11L421.18 323.5L418.45 331.89L416.08 332.25C416.08 332.25 412.51 331.25 410.56 324.56C408.61 317.87 403.32 309.8 398.4 311.26Z" fill="#FFBE9D"/>
<path d="M439 343C439 343 439 342.85 438.94 342.55C438.88 342.25 438.88 341.76 438.85 341.21C438.78 339.99 438.69 338.3 438.58 336.21C438.38 331.86 438.11 325.8 437.79 318.73L437.84 318.88C437.513 318.541 437.1 318.299 436.645 318.179C436.19 318.059 435.711 318.066 435.26 318.2C434.771 318.319 434.31 318.534 433.905 318.832C433.5 319.131 433.158 319.508 432.9 319.94C431.78 321.73 431.72 324.07 431.37 326.32C430.68 331.43 430.02 336.32 429.42 340.73C429.12 342.95 428.8 345.05 428.37 347C427.965 348.808 427.434 350.586 426.78 352.32C426.22 353.91 425.72 355.32 425.41 356.65C425.133 357.745 424.996 358.87 425 360C425.035 360.972 425.203 361.934 425.5 362.86C425.38 362.636 425.28 362.401 425.2 362.16C424.963 361.467 424.828 360.742 424.8 360.01C424.752 358.85 424.863 357.69 425.13 356.56C425.481 355.076 425.918 353.613 426.44 352.18C427.058 350.452 427.559 348.685 427.94 346.89C428.35 344.96 428.66 342.89 428.94 340.65C429.52 336.21 430.17 331.35 430.85 326.23C431.01 325.1 431.13 323.97 431.33 322.85C431.494 321.718 431.874 320.628 432.45 319.64C432.748 319.155 433.139 318.733 433.6 318.4C434.062 318.067 434.585 317.829 435.14 317.7C435.679 317.538 436.253 317.531 436.795 317.679C437.338 317.828 437.828 318.126 438.21 318.54L438.26 318.61V318.69C438.51 325.76 438.72 331.82 438.87 336.18C438.87 338.29 438.96 339.98 439 341.18C439 341.73 439 342.18 439 342.52C439.017 342.679 439.017 342.84 439 343Z" fill="#EB996E"/>
<path d="M432 320C431.772 319.644 431.591 319.261 431.46 318.86C431.042 317.794 430.685 316.706 430.39 315.6C429.961 313.959 429.657 312.287 429.48 310.6C429.356 309.605 429.336 308.599 429.42 307.6C429.513 306.483 429.891 305.408 430.52 304.48C431.081 303.648 431.905 303.028 432.86 302.72L433.05 302.67L433.15 302.84C435 306.1 436.61 308.98 437.73 311.05L439.04 313.5C439.219 313.787 439.36 314.096 439.46 314.42C439.236 314.166 439.042 313.887 438.88 313.59L437.44 311.22C436.24 309.22 434.57 306.35 432.71 303.1L433 303.22C432.163 303.5 431.442 304.048 430.95 304.78C430.374 305.638 430.03 306.63 429.95 307.66C429.85 308.637 429.85 309.622 429.95 310.6C430.1 312.282 430.364 313.953 430.74 315.6C431.06 317 431.41 318.12 431.64 318.89C431.796 319.247 431.917 319.619 432 320Z" fill="#EB996E"/>
<path d="M428.94 321.64C428.851 321.257 428.811 320.863 428.82 320.47C428.82 319.61 428.74 318.55 428.69 317.3C428.61 314.62 428.52 310.92 428.47 306.83C428.321 303.333 428.374 299.831 428.63 296.34C428.755 295.28 428.983 294.236 429.31 293.22C429.407 292.837 429.566 292.472 429.78 292.14C429.413 293.532 429.149 294.949 428.99 296.38C428.74 299.03 428.99 302.73 428.99 306.82C428.99 310.91 429.07 314.61 429.06 317.29C429.06 318.55 429.06 319.61 429.06 320.47C429.063 320.863 429.023 321.256 428.94 321.64Z" fill="#EB996E"/>
<path d="M418.15 355.25C418.08 355.19 418.88 354.25 419.86 352.54C420.434 351.542 420.933 350.503 421.35 349.43C421.841 348.11 422.222 346.752 422.49 345.37C422.724 343.982 422.841 342.577 422.84 341.17C422.825 340.021 422.724 338.874 422.54 337.74C422.21 335.79 421.79 334.63 421.88 334.6C422.038 334.844 422.159 335.111 422.24 335.39C422.522 336.131 422.743 336.893 422.9 337.67C423.145 338.818 423.285 339.986 423.32 341.16C423.408 344.053 422.886 346.932 421.79 349.61C421.348 350.696 420.809 351.74 420.18 352.73C419.763 353.401 419.291 354.037 418.77 354.63C418.4 355.05 418.18 355.27 418.15 355.25Z" fill="#EB996E"/>
<path d="M440.55 349L451.62 352.84C451.62 352.84 462.2 347.37 469.49 352.84C476.78 358.31 483.11 372.72 481.11 378.55C481.11 378.55 476.11 384.77 472.25 385.68C468.39 386.59 453.54 382.98 447.35 381.68C441.16 380.38 430.48 373.44 430.48 373.44L440.55 349Z" fill="#FFBE9D"/>
<path d="M441.91 365.29C441.832 364.962 441.792 364.627 441.79 364.29C441.79 363.54 441.7 362.65 441.64 361.61C441.52 359.35 441.37 356.23 441.32 352.77C441.27 349.31 441.37 346.18 441.57 343.92C441.67 342.79 441.8 341.92 441.91 341.25C441.934 340.907 442.012 340.569 442.14 340.25C442.22 340.25 442.05 341.65 441.94 343.91C441.83 346.17 441.79 349.28 441.84 352.73C441.89 356.18 441.96 359.16 442 361.56C442 362.69 442 363.61 442 364.24C442.027 364.593 441.996 364.947 441.91 365.29Z" fill="#EB996E"/>
<path d="M478.42 352.38C477.273 351.188 476.043 350.079 474.74 349.06C471.538 346.664 467.699 345.269 463.706 345.05C459.713 344.831 455.745 345.799 452.3 347.83C450.902 348.701 449.566 349.667 448.3 350.72C448.564 350.353 448.869 350.017 449.21 349.72C450.11 348.884 451.091 348.14 452.14 347.5C455.618 345.334 459.68 344.293 463.771 344.52C467.862 344.748 471.783 346.232 475 348.77C475.973 349.518 476.864 350.366 477.66 351.3C477.955 351.629 478.21 351.991 478.42 352.38Z" fill="#263238"/>
<path d="M477 343.15C475.57 342.123 474.022 341.27 472.39 340.61C468.378 339.186 464.02 339.056 459.93 340.24C457.68 340.871 455.515 341.771 453.48 342.92C451.824 343.872 450.26 344.977 448.81 346.22C447.57 347.28 446.62 348.22 445.97 348.85C445.651 349.214 445.299 349.549 444.92 349.85C445.18 349.446 445.482 349.071 445.82 348.73C446.684 347.756 447.602 346.831 448.57 345.96C450.007 344.662 451.572 343.513 453.24 342.53C455.295 341.329 457.497 340.398 459.79 339.76C463.98 338.536 468.456 338.722 472.53 340.29C473.747 340.776 474.893 341.422 475.94 342.21C476.31 342.48 476.56 342.74 476.75 342.9C476.94 343.06 477 343.14 477 343.15Z" fill="#263238"/>
<path d="M477.09 335.15C477.09 335.25 475.09 334.66 471.91 334.23C470.031 333.978 468.136 333.858 466.24 333.87C463.917 333.896 461.6 334.103 459.31 334.49C457.024 334.91 454.774 335.505 452.58 336.27C450.791 336.905 449.05 337.667 447.37 338.55C444.5 340.05 442.88 341.27 442.82 341.18C443.16 340.85 443.531 340.556 443.93 340.3C444.366 339.957 444.823 339.643 445.3 339.36C445.85 339.01 446.47 338.6 447.19 338.22C448.871 337.29 450.619 336.488 452.42 335.82C454.63 335.014 456.905 334.398 459.22 333.98C461.533 333.589 463.874 333.391 466.22 333.39C468.139 333.4 470.055 333.557 471.95 333.86C472.76 333.96 473.48 334.15 474.11 334.28C474.657 334.391 475.198 334.531 475.73 334.7C476.195 334.81 476.65 334.961 477.09 335.15Z" fill="#263238"/>
<path d="M392.26 237.23C392.675 238.161 392.931 239.155 393.02 240.17C393.318 243.038 393.177 245.935 392.6 248.76C392.249 250.788 391.772 252.792 391.17 254.76C390.382 257.05 389.412 259.274 388.27 261.41C385.88 266.01 382.88 271.02 379.4 276.41L379 277.04V276.29C379 272.75 379 269.04 379 265.19L379.39 265.38L370 272.87L370.08 272.75C367.853 280.049 366.483 287.584 366 295.2C365.08 307.37 365.82 319.01 366.39 329.57C366.96 340.13 367.21 349.66 367.54 357.66C367.87 365.66 368.14 372.12 368.38 376.59C368.52 378.81 368.62 380.53 368.69 381.73C368.69 382.3 368.76 382.73 368.78 383.07C368.8 383.41 368.78 383.53 368.78 383.53C368.78 383.53 368.78 383.38 368.71 383.08C368.64 382.78 368.63 382.31 368.57 381.74C368.46 380.57 368.32 378.84 368.17 376.6C367.87 372.14 367.52 365.67 367.17 357.67C366.82 349.67 366.39 340.16 365.91 329.59C365.43 319.02 364.56 307.37 365.48 295.16C365.986 287.498 367.392 279.923 369.67 272.59V272.52H369.73L379.09 265.01L379.48 264.69V265.19C379.48 269.04 379.48 272.75 379.48 276.29L379.07 276.16C385.94 265.51 391.53 256.25 392.39 248.76C392.984 245.961 393.166 243.091 392.93 240.24C392.848 239.491 392.711 238.749 392.52 238.02C392.32 237.48 392.26 237.23 392.26 237.23Z" fill="#263238"/>
<path d="M374.32 366.22H374C373.272 366.267 372.59 366.595 372.1 367.135C371.609 367.675 371.348 368.385 371.371 369.114C371.395 369.844 371.701 370.535 372.225 371.043C372.749 371.55 373.45 371.834 374.18 371.834C374.91 371.834 375.611 371.55 376.135 371.043C376.659 370.535 376.965 369.844 376.988 369.114C377.012 368.385 376.751 367.675 376.26 367.135C375.769 366.595 375.088 366.267 374.36 366.22H374.32Z" fill="white"/>
<path d="M374.32 327.68H374C373.274 327.727 372.595 328.054 372.107 328.592C371.618 329.13 371.358 329.838 371.381 330.564C371.405 331.291 371.71 331.98 372.232 332.486C372.754 332.991 373.453 333.274 374.18 333.274C374.907 333.274 375.605 332.991 376.128 332.486C376.65 331.98 376.955 331.291 376.978 330.564C377.002 329.838 376.742 329.13 376.253 328.592C375.764 328.054 375.085 327.727 374.36 327.68H374.32Z" fill="white"/>
<path d="M374 293.2C374.747 293.249 375.482 292.999 376.045 292.506C376.607 292.013 376.951 291.317 377 290.57C377.049 289.823 376.799 289.088 376.306 288.525C375.813 287.963 375.117 287.619 374.37 287.57H374C373.252 287.57 372.535 287.867 372.006 288.396C371.477 288.925 371.18 289.642 371.18 290.39C371.18 291.138 371.477 291.855 372.006 292.384C372.535 292.913 373.252 293.21 374 293.21V293.2Z" fill="white"/>
<path d="M330.77 192.07C327.27 188.18 323.77 184.26 321.18 179.7C318.59 175.14 317.1 169.81 317.94 164.7C318.44 161.7 319.72 158.8 319.94 155.7C320.22 151.5 318.46 147.11 319.94 143.18C322.26 137.02 330.55 136.07 335.57 131.82C339.48 128.51 341.38 123.14 345.68 120.36C349.44 117.92 354.27 117.98 358.68 118.6C363.09 119.22 367.57 120.35 372.01 119.75C375.17 119.33 378.15 118.05 381.24 117.28C384.33 116.51 387.8 116.28 390.55 117.92C393.3 119.56 394.86 123.43 393.05 126.06C398.19 123.69 404.72 127.7 406.13 133.18C407.54 138.66 404.72 144.59 400.36 148.18C396 151.77 390.36 153.48 384.81 154.53C369.07 157.53 351.98 155.82 338.41 147.3" fill="#263238"/>
<path d="M386.14 245C385.37 239 384.74 234.07 384.7 233.45C384.7 233.45 404.62 228.97 403.52 208.83C402.99 199.09 400.27 179.13 397.59 161.1C396.213 151.753 391.364 143.269 384.01 137.338C376.655 131.407 367.336 128.466 357.91 129.1L355.91 129.22C335.06 131.85 325.63 151.03 328.83 171.81L340.09 241.48C340.09 241.48 344.89 256.89 355.16 259.56L368.16 278.08L370.3 270.08L379.96 261.66C381.811 259.483 383.411 257.105 384.73 254.57C386.205 251.611 386.699 248.259 386.14 245Z" fill="#FFBE9D"/>
<path d="M384.71 233.17C384.71 233.17 372.06 235.05 357.97 227.46C357.97 227.46 365.15 241.53 385.11 238.38L384.71 233.17Z" fill="#EB996E"/>
<path d="M391.12 178.42C391.176 179.169 390.938 179.911 390.456 180.488C389.975 181.065 389.287 181.431 388.54 181.51C388.176 181.563 387.805 181.543 387.449 181.451C387.093 181.358 386.76 181.195 386.468 180.971C386.176 180.748 385.932 180.468 385.75 180.148C385.569 179.828 385.453 179.475 385.41 179.11C385.343 178.355 385.578 177.603 386.063 177.021C386.549 176.438 387.245 176.071 388 176C388.365 175.948 388.736 175.97 389.092 176.065C389.448 176.159 389.781 176.324 390.072 176.55C390.363 176.775 390.606 177.057 390.786 177.379C390.966 177.7 391.079 178.054 391.12 178.42Z" fill="#263238"/>
<path d="M393.93 171.28C393.6 171.68 391.31 170.21 388.22 170.43C385.13 170.65 383 172.34 382.6 172C382.43 171.85 382.75 171.15 383.69 170.36C384.964 169.342 386.522 168.744 388.15 168.65C389.76 168.533 391.366 168.936 392.73 169.8C393.73 170.44 394.09 171.1 393.93 171.28Z" fill="#263238"/>
<path d="M361.9 180.51C361.958 181.259 361.721 182.001 361.239 182.577C360.756 183.153 360.067 183.516 359.32 183.59C358.957 183.645 358.586 183.626 358.23 183.535C357.874 183.443 357.54 183.281 357.248 183.058C356.956 182.835 356.712 182.556 356.53 182.237C356.349 181.917 356.233 181.565 356.19 181.2C356.134 180.452 356.37 179.712 356.85 179.135C357.329 178.558 358.014 178.191 358.76 178.11C359.124 178.057 359.496 178.077 359.852 178.169C360.209 178.261 360.543 178.424 360.836 178.648C361.128 178.872 361.373 179.152 361.556 179.471C361.739 179.791 361.856 180.144 361.9 180.51Z" fill="#263238"/>
<path d="M363.57 173.89C363.23 174.29 360.95 172.82 357.86 173.04C354.77 173.26 352.6 174.95 352.24 174.59C352.06 174.44 352.38 173.74 353.32 172.95C354.598 171.933 356.159 171.336 357.79 171.24C359.397 171.124 360.999 171.528 362.36 172.39C363.36 173.05 363.73 173.71 363.57 173.89Z" fill="#263238"/>
<path d="M376.32 196.08C376.32 195.9 378.2 195.44 381.32 194.83C382.1 194.7 382.84 194.49 382.94 193.95C382.95 193.128 382.709 192.322 382.25 191.64L379.51 185.78C375.7 177.44 372.88 170.55 373.22 170.4C373.56 170.25 376.92 176.89 380.74 185.24L383.38 191.14C383.939 192.059 384.159 193.146 384 194.21C383.903 194.495 383.743 194.755 383.532 194.97C383.321 195.184 383.064 195.348 382.78 195.45C382.35 195.599 381.903 195.693 381.45 195.73C378.29 196.11 376.35 196.25 376.32 196.08Z" fill="#263238"/>
<path d="M363.55 161.71C363.3 162.58 360.19 162.38 356.55 163.06C352.91 163.74 350.08 164.93 349.55 164.21C349.31 163.86 349.77 163.04 350.9 162.14C352.413 161.042 354.156 160.3 355.997 159.971C357.838 159.642 359.73 159.734 361.53 160.24C362.94 160.69 363.66 161.31 363.55 161.71Z" fill="#263238"/>
<path d="M392.19 162.4C391.7 163.14 389.52 162.56 386.95 162.69C384.38 162.82 382.25 163.48 381.7 162.78C381.46 162.44 381.76 161.71 382.7 160.98C383.921 160.101 385.376 159.604 386.879 159.55C388.383 159.497 389.869 159.89 391.15 160.68C392.07 161.34 392.41 162 392.19 162.4Z" fill="#263238"/>
<path d="M331.52 186.66C331.17 186.54 317.42 183.5 318.78 197.23C320.14 210.96 335 206.48 335 206.09C335 205.7 331.52 186.66 331.52 186.66Z" fill="#FFBE9D"/>
<path d="M328.92 201.58C328.85 201.58 328.7 201.77 328.31 201.99C327.768 202.293 327.129 202.372 326.53 202.21C325.02 201.82 323.53 199.64 323.26 197.21C323.111 196.036 323.223 194.845 323.59 193.72C323.68 193.281 323.874 192.87 324.156 192.522C324.437 192.174 324.799 191.899 325.21 191.72C325.479 191.621 325.773 191.618 326.044 191.713C326.314 191.808 326.542 191.995 326.69 192.24C326.91 192.61 326.85 192.89 326.92 192.9C326.99 192.91 327.19 192.65 327.03 192.09C326.917 191.757 326.695 191.471 326.4 191.28C326.196 191.143 325.968 191.048 325.728 191C325.488 190.952 325.24 190.952 325 191C324.448 191.169 323.949 191.477 323.55 191.893C323.151 192.31 322.865 192.822 322.72 193.38C322.251 194.627 322.097 195.969 322.27 197.29C322.63 200.05 324.27 202.5 326.34 202.87C326.72 202.942 327.112 202.928 327.486 202.827C327.86 202.727 328.207 202.543 328.5 202.29C328.93 201.91 329 201.6 328.92 201.58Z" fill="#EB996E"/>
<path d="M396.58 142.35C395.64 147.82 384.58 152.83 375.36 152.56C366.89 152.31 362.7 148.11 356.55 145.12C352.65 143.23 352.65 143.23 347.36 144.12C343.09 144.81 340.87 149.86 338.47 153.46C343.04 163.46 341.19 175.02 339.25 185.82C339.166 187.038 338.677 188.193 337.86 189.1C336.32 190.46 333.86 189.65 332.3 188.26C329.87 186.03 328.76 182.73 327.97 179.53C326.032 172.252 325.57 164.66 326.61 157.2C327.661 149.704 330.888 142.681 335.89 137C342.432 130.106 351.395 126.023 360.89 125.61C370.337 125.271 379.651 127.916 387.51 133.17C391.15 135.56 394.51 138.51 396.61 142.34" fill="#263238"/>
<path d="M378.35 203L371.35 199.74C370.966 199.513 370.525 199.402 370.08 199.42C369.588 199.531 369.155 199.824 368.87 200.24C368.049 201.222 367.538 202.425 367.399 203.697C367.26 204.969 367.501 206.254 368.09 207.39C368.731 208.496 369.738 209.344 370.938 209.786C372.138 210.228 373.455 210.236 374.66 209.81C377.14 208.81 378.34 205.9 378.54 203.22L378.35 203Z" fill="#EB996E"/>
<path d="M374.88 210.33C374.88 210.39 374.55 210.59 373.88 210.74C372.877 210.92 371.846 210.844 370.88 210.52C369.404 210.023 368.166 208.992 367.41 207.63C366.932 206.8 366.645 205.874 366.57 204.919C366.496 203.964 366.636 203.004 366.98 202.11C367.332 201.183 367.885 200.347 368.6 199.66C368.947 199.332 369.329 199.043 369.74 198.8C369.986 198.653 370.264 198.568 370.55 198.55C370.828 198.539 371.105 198.59 371.36 198.7C371.734 198.888 372.097 199.095 372.45 199.32L373.4 199.91L375.11 200.97C377.18 202.29 378.43 203.17 378.36 203.29C378.29 203.41 376.91 202.77 374.74 201.61L372.97 200.61L371.97 200.06C371.63 199.89 371.27 199.66 370.97 199.54C370.847 199.481 370.71 199.457 370.574 199.471C370.438 199.485 370.308 199.537 370.2 199.62C369.868 199.829 369.559 200.074 369.28 200.35C368.686 200.941 368.223 201.649 367.92 202.43C367.63 203.187 367.506 203.998 367.558 204.808C367.61 205.617 367.836 206.406 368.22 207.12C368.843 208.317 369.866 209.258 371.11 209.78C371.971 210.127 372.892 210.3 373.82 210.29C374.48 210.32 374.85 210.26 374.88 210.33Z" fill="#263238"/>
<path d="M372.67 178.77C372.571 177.598 372.387 176.435 372.12 175.29C371.625 173.375 370.734 171.585 369.506 170.035C368.278 168.485 366.739 167.208 364.988 166.288C363.238 165.368 361.314 164.825 359.34 164.692C357.367 164.56 355.388 164.842 353.53 165.52C352.249 165.979 351.046 166.63 349.96 167.45C348.802 168.279 347.789 169.292 346.96 170.45C345.178 172.86 344.216 175.778 344.216 178.775C344.216 181.772 345.178 184.69 346.96 187.1C347.789 188.257 348.802 189.271 349.96 190.1C351.046 190.92 352.249 191.57 353.53 192.03C355.388 192.702 357.366 192.979 359.337 192.843C361.309 192.708 363.23 192.164 364.979 191.244C366.729 190.325 368.267 189.051 369.496 187.504C370.726 185.958 371.619 184.171 372.12 182.26C372.385 181.118 372.569 179.958 372.67 178.79C372.681 178.866 372.681 178.944 372.67 179.02C372.67 179.2 372.67 179.43 372.67 179.7C372.679 180.072 372.652 180.443 372.59 180.81C372.534 181.315 372.444 181.817 372.32 182.31C372.003 183.671 371.481 184.976 370.77 186.18C369.062 189.099 366.385 191.328 363.204 192.479C360.024 193.63 356.541 193.63 353.36 192.48C352.035 192.006 350.79 191.331 349.67 190.48C348.476 189.625 347.429 188.581 346.57 187.39C344.723 184.894 343.726 181.87 343.726 178.765C343.726 175.66 344.723 172.636 346.57 170.14C347.423 168.947 348.467 167.903 349.66 167.05C350.78 166.198 352.025 165.524 353.35 165.05C355.801 164.17 358.442 163.963 361 164.45C363.025 164.837 364.943 165.653 366.627 166.843C368.31 168.034 369.72 169.57 370.76 171.35C371.471 172.553 371.993 173.859 372.31 175.22C372.434 175.713 372.524 176.214 372.58 176.72C372.642 177.087 372.669 177.458 372.66 177.83C372.66 178.1 372.66 178.33 372.66 178.51C372.676 178.596 372.68 178.683 372.67 178.77Z" fill="#263238"/>
<path d="M406.91 177.42C406.812 176.279 406.635 175.146 406.38 174.03C405.578 171.006 403.782 168.339 401.28 166.46C399.575 165.164 397.588 164.29 395.48 163.91C393.062 163.466 390.569 163.677 388.26 164.52C387.018 164.969 385.848 165.6 384.79 166.39C383.676 167.205 382.698 168.191 381.89 169.31C380.161 171.661 379.229 174.502 379.229 177.42C379.229 180.338 380.161 183.179 381.89 185.53C382.695 186.648 383.674 187.631 384.79 188.44C385.846 189.237 387.015 189.871 388.26 190.32C390.57 191.159 393.062 191.369 395.48 190.93C397.588 190.55 399.575 189.676 401.28 188.38C403.782 186.501 405.578 183.835 406.38 180.81C406.635 179.694 406.812 178.561 406.91 177.42C406.934 177.716 406.934 178.014 406.91 178.31C406.914 178.675 406.887 179.04 406.83 179.4C406.777 179.892 406.69 180.38 406.57 180.86C405.933 183.479 404.558 185.86 402.608 187.721C400.658 189.582 398.216 190.845 395.57 191.36C393.075 191.831 390.5 191.627 388.11 190.77C385.467 189.807 383.165 188.089 381.49 185.83C379.69 183.395 378.719 180.448 378.719 177.42C378.719 174.392 379.69 171.445 381.49 169.01C383.165 166.751 385.467 165.033 388.11 164.07C390.5 163.213 393.075 163.009 395.57 163.48C398.216 163.995 400.658 165.258 402.608 167.119C404.558 168.98 405.933 171.361 406.57 173.98C406.69 174.46 406.777 174.948 406.83 175.44C406.887 175.8 406.914 176.165 406.91 176.53C406.934 176.826 406.934 177.124 406.91 177.42Z" fill="#263238"/>
<path d="M379 174.26C378.94 174.31 378.61 174.04 378 173.75C377.213 173.375 376.351 173.187 375.48 173.2C374.611 173.212 373.757 173.432 372.99 173.84C372.39 174.15 372.07 174.44 371.99 174.38C371.91 174.32 372.17 173.94 372.77 173.52C373.56 172.982 374.491 172.686 375.446 172.67C376.402 172.654 377.342 172.918 378.15 173.43C378.76 173.83 379 174.22 379 174.26Z" fill="#263238"/>
<path d="M344.85 176.73C342.871 178.527 340.78 180.197 338.59 181.73C336.495 183.396 334.297 184.929 332.01 186.32C333.987 184.516 336.081 182.846 338.28 181.32C340.369 179.65 342.564 178.117 344.85 176.73Z" fill="#263238"/>
<g opacity="0.3">
<path d="M333 241.81C331.61 255.38 336.77 269.71 347.66 277.93C348.51 278.58 349.58 279.22 350.59 278.85C351.263 278.524 351.801 277.972 352.11 277.29C355.16 272.021 356.304 265.863 355.35 259.85C353.63 264.39 352.15 268.85 350.41 273.59C340.94 267.83 335 255.59 333 241.81Z" fill="black"/>
</g>
<path opacity="0.3" d="M369.87 272.67L377.87 269.75L379.19 283.26C379.19 283.26 387.81 267.55 391.38 260.39C394.95 253.23 393.11 240.57 393.11 240.57C393.11 240.57 394.38 251.57 385.75 265.64L379.23 276.24V265.14L369.87 272.67Z" fill="black"/>
<g opacity="0.3">
<path d="M277 341.33C273.353 339.781 269.346 339.279 265.43 339.88C261.256 340.221 257.264 341.732 253.91 344.24C250.67 346.85 248.48 350.97 248.91 355.11L249.31 355.16C252.1 347.62 257.64 342.16 264.79 341.47C271.94 340.78 278.91 343.98 283.79 349.23C283.26 345.31 280.52 343 277 341.33Z" fill="black"/>
</g>
<g opacity="0.3">
<path d="M478.94 349C476.168 346.155 472.546 344.291 468.62 343.69C465.2 343.118 461.696 343.321 458.366 344.285C455.036 345.249 451.965 346.95 449.38 349.26L450.9 348.02C454.767 345.691 459.206 344.486 463.72 344.54C468.25 344.618 472.594 346.354 475.93 349.42C478.93 352.26 480.72 356.11 482.43 359.86C482.707 357.904 482.537 355.91 481.932 354.029C481.328 352.148 480.305 350.429 478.94 349Z" fill="black"/>
</g>
<path d="M427.45 286.3C427.531 285.925 427.652 285.56 427.81 285.21C428.12 284.42 428.5 283.45 428.94 282.3C429.94 279.85 431.24 276.47 432.64 272.7C434.04 268.93 435.25 265.5 436.12 263.02L437.12 260.07C437.227 259.702 437.375 259.346 437.56 259.01C437.529 259.393 437.445 259.77 437.31 260.13C437.12 260.85 436.82 261.87 436.43 263.13C435.65 265.65 434.49 269.13 433.09 272.88C431.69 276.63 430.3 280.03 429.24 282.44C428.72 283.65 428.24 284.62 427.95 285.29C427.825 285.646 427.657 285.985 427.45 286.3Z" fill="#263238"/>
<path d="M301.38 287.28C301.24 287.28 300.15 282.55 298.95 276.65C297.75 270.75 296.89 266 297 265.92C297.11 265.84 298.22 270.65 299.42 276.55C300.62 282.45 301.52 287.25 301.38 287.28Z" fill="#263238"/>
<path d="M299.49 346.77C299.81 346.93 295.83 315.61 295.83 315.61C295.83 315.61 298.34 291.84 299.75 290.74V282.35C299.75 282.35 303.64 280 304.68 283.8C304.68 283.8 308.13 280.8 308.68 287.93C309.23 295.06 309.41 302.34 309.41 302.34L317.08 321.52L318.34 322.16C318.34 322.16 319.99 307.16 320.95 304.92C321.91 302.68 322.57 297.33 326.2 298.14C329.83 298.95 330.14 301.95 329.49 306.85C328.84 311.75 328.02 316.85 328.33 319.99C328.64 323.13 330.07 330.12 329.63 335.66C329.19 341.2 326.15 347.04 322.97 351.14C319.79 355.24 313.7 363.73 310.4 366.28C309.33 367.18 299.49 346.77 299.49 346.77Z" fill="#FFBE9D"/>
<path d="M303.37 321.28C303.32 320.835 303.32 320.385 303.37 319.94C303.43 318.94 303.52 317.76 303.62 316.3C303.85 313.23 304.21 308.99 304.62 304.3C304.84 301.97 305.05 299.75 305.24 297.71C305.354 296.77 305.354 295.82 305.24 294.88C305.134 294.075 304.785 293.322 304.24 292.72C303.84 292.289 303.356 291.945 302.818 291.709C302.279 291.473 301.698 291.351 301.11 291.35C300.67 291.371 300.232 291.424 299.8 291.51C299.898 291.441 300.006 291.387 300.12 291.35C300.441 291.23 300.778 291.159 301.12 291.14C301.75 291.104 302.381 291.204 302.97 291.434C303.558 291.663 304.09 292.017 304.53 292.47C305.135 293.119 305.522 293.941 305.64 294.82C305.765 295.793 305.765 296.777 305.64 297.75C305.46 299.75 305.26 302.02 305.06 304.35C304.63 309.03 304.21 313.26 303.88 316.35L303.47 319.98C303.474 320.415 303.44 320.85 303.37 321.28Z" fill="#EB996E"/>
<path d="M307.49 308.47C306.931 309.231 306.474 310.061 306.13 310.94C305.52 313.154 305.095 315.415 304.86 317.7C304.44 320.38 304.04 322.8 303.72 324.55C303.604 325.504 303.396 326.445 303.1 327.36C303.104 326.398 303.191 325.437 303.36 324.49C303.58 322.73 303.93 320.3 304.36 317.62C304.79 314.94 305.07 312.49 305.81 310.81C306.073 310.152 306.441 309.54 306.9 309C307.23 308.6 307.47 308.45 307.49 308.47Z" fill="#EB996E"/>
<path d="M304.67 283.39C304.809 283.708 304.9 284.045 304.94 284.39C305.08 285.03 305.25 285.96 305.44 287.12C305.82 289.43 306.24 292.64 306.51 296.21C306.78 299.78 306.83 303.02 306.79 305.36C306.79 306.53 306.74 307.48 306.69 308.13C306.698 308.467 306.658 308.804 306.57 309.13C306.449 307.874 306.399 306.612 306.42 305.35C306.37 303.01 306.25 299.79 305.99 296.24C305.73 292.69 305.37 289.48 305.08 287.16C304.869 285.913 304.732 284.654 304.67 283.39Z" fill="#EB996E"/>
<path d="M326.8 312.75C326.421 312.995 325.987 313.143 325.537 313.181C325.088 313.22 324.635 313.147 324.22 312.97C322.75 312.53 322.07 311.4 322.22 311.35C322.908 311.787 323.635 312.162 324.39 312.47C325.184 312.63 325.99 312.724 326.8 312.75Z" fill="#EB996E"/>
<path d="M299.92 342.87L279.66 351.39H267.58C267.58 351.39 255.64 355.12 253.8 366.32C251.96 377.52 251.7 383.27 256.95 384.66C262.2 386.05 277.03 386.2 284.38 383.76C291.73 381.32 310.99 365.76 310.99 365.76L312.84 354.52L299.92 342.87Z" fill="#FFBE9D"/>
<path d="M304.67 355.25C304.67 355.25 304.44 355.08 304.09 354.72C303.608 354.197 303.169 353.635 302.78 353.04C301.512 351.062 300.557 348.9 299.95 346.63C299.323 344.38 298.904 342.077 298.7 339.75C298.565 338.789 298.538 337.817 298.62 336.85C298.837 337.788 298.984 338.74 299.06 339.7C299.369 341.992 299.833 344.261 300.45 346.49C301.054 348.714 301.941 350.852 303.09 352.85C304 354.36 304.74 355.18 304.67 355.25Z" fill="#EB996E"/>
<path d="M313.5 358.8C314.036 357.398 314.422 355.943 314.65 354.46C315.104 350.842 314.128 347.19 311.93 344.28C310.7 342.56 309.31 341.06 308.14 339.6C307.074 338.327 306.155 336.938 305.4 335.46C304.904 334.451 304.567 333.372 304.4 332.26C304.339 331.856 304.339 331.444 304.4 331.04C304.634 332.52 305.1 333.954 305.78 335.29C306.568 336.717 307.503 338.058 308.57 339.29C309.74 340.71 311.14 342.21 312.4 343.97C313.626 345.621 314.488 347.512 314.93 349.52C315.271 351.166 315.315 352.859 315.06 354.52C314.892 355.628 314.583 356.71 314.14 357.74C313.98 358.1 313.83 358.37 313.73 358.55C313.63 358.73 313.51 358.81 313.5 358.8Z" fill="#EB996E"/>
<path d="M282.25 310C280.453 307.085 278.804 304.081 277.31 301C274.71 296 272.71 291.84 272.83 291.77C274.627 294.685 276.276 297.689 277.77 300.77C279.42 303.768 280.915 306.849 282.25 310Z" fill="white"/>
<path d="M315 273.51C315.853 270.946 316.871 268.441 318.05 266.01C319.073 263.512 320.252 261.08 321.58 258.73C320.722 261.292 319.703 263.797 318.53 266.23C317.51 268.729 316.33 271.161 315 273.51Z" fill="white"/>
<path d="M347.13 297.19C345.471 295.594 343.933 293.875 342.53 292.05C341.001 290.332 339.6 288.504 338.34 286.58C340 288.172 341.535 289.891 342.93 291.72C344.464 293.436 345.868 295.265 347.13 297.19Z" fill="white"/>
<path d="M339.74 329.76C340.755 327.932 341.912 326.187 343.2 324.54C344.36 322.8 345.661 321.157 347.09 319.63C346.078 321.46 344.921 323.205 343.63 324.85C342.476 326.595 341.175 328.238 339.74 329.76Z" fill="white"/>
<path d="M329.8 375.77C329.333 375.151 328.94 374.48 328.63 373.77C327.97 372.49 327.12 370.7 326.26 368.69C325.4 366.68 324.71 364.81 324.26 363.46C323.961 362.74 323.746 361.989 323.62 361.22C324.032 361.883 324.367 362.591 324.62 363.33L326.77 368.48C327.6 370.39 328.34 372.12 328.99 373.61C329.339 374.298 329.611 375.022 329.8 375.77Z" fill="white"/>
<path d="M358 356.21C355.955 356.075 353.925 355.77 351.93 355.3C349.893 354.998 347.886 354.523 345.93 353.88C349.988 354.317 354.003 355.097 357.93 356.21H358Z" fill="white"/>
<path d="M380 313.22C381.792 310.899 383.722 308.688 385.78 306.6C387.715 304.387 389.779 302.29 391.96 300.32C390.161 302.641 388.228 304.855 386.17 306.95C384.235 309.156 382.175 311.25 380 313.22Z" fill="white"/>
<path d="M402 370.55C401.89 370.65 398.66 366.9 394.78 362.2C390.9 357.5 387.85 353.6 387.96 353.51C388.07 353.42 391.3 357.16 395.18 361.86C399.06 366.56 402.09 370.46 402 370.55Z" fill="white"/>
<path d="M265.2 346.12C265.27 346.26 262.32 347.76 259.1 350.23C255.88 352.7 253.64 355.14 253.52 355.03C253.883 354.397 254.342 353.824 254.88 353.33C256.078 352.051 257.382 350.877 258.78 349.82C260.172 348.758 261.65 347.814 263.2 347C263.82 346.611 264.494 346.315 265.2 346.12Z" fill="white"/>
<path d="M273.44 324C272.805 325.415 272.017 326.756 271.09 328C270.301 329.339 269.365 330.587 268.3 331.72C268.937 330.306 269.725 328.965 270.65 327.72C271.437 326.379 272.373 325.131 273.44 324Z" fill="white"/>
<path d="M292 345.72C290.399 343.174 289.714 340.158 290.06 337.17C290.21 337.17 290.26 339.17 290.81 341.5C291.36 343.83 292.14 345.65 292 345.72Z" fill="white"/>
<path d="M294.75 276.8C293.507 277.234 292.213 277.506 290.9 277.61C289.609 277.881 288.287 277.979 286.97 277.9C288.217 277.467 289.514 277.195 290.83 277.09C292.119 276.825 293.436 276.727 294.75 276.8Z" fill="white"/>
<path d="M308.69 252.07C306.536 253.664 304.183 254.968 301.69 255.95C302.713 255.082 303.846 254.352 305.06 253.78C306.193 253.059 307.412 252.484 308.69 252.07Z" fill="white"/>
<path d="M347.9 262.52C346.487 261.083 345.196 259.531 344.04 257.88C342.757 256.329 341.606 254.673 340.6 252.93C343.306 255.91 345.748 259.118 347.9 262.52Z" fill="white"/>
<path d="M397.67 287.38C394.914 284.663 392.84 281.332 391.62 277.66C391.77 277.6 392.84 279.93 394.52 282.6C396.2 285.27 397.79 287.28 397.67 287.38Z" fill="white"/>
<path d="M416.67 293.64C415.463 297.156 413.923 300.548 412.07 303.77C412.603 301.988 413.296 300.258 414.14 298.6C414.824 296.87 415.671 295.209 416.67 293.64Z" fill="white"/>
<path d="M419.33 267.71C417.512 265.945 415.821 264.054 414.27 262.05C412.584 260.159 411.031 258.154 409.62 256.05C413.119 259.71 416.363 263.606 419.33 267.71Z" fill="white"/>
<path d="M390.31 246.65C389.993 245.056 389.842 243.434 389.86 241.81C389.709 240.189 389.733 238.556 389.93 236.94C390.247 238.533 390.398 240.155 390.38 241.78C390.537 243.401 390.513 245.034 390.31 246.65Z" fill="white"/>
<path d="M414 245.34C411.973 245.871 409.906 246.236 407.82 246.43C405.759 246.792 403.672 246.983 401.58 247C403.607 246.469 405.674 246.104 407.76 245.91C409.821 245.548 411.908 245.357 414 245.34Z" fill="white"/>
<path d="M451.23 272.71C449.841 270.431 448.599 268.066 447.51 265.63C446.273 263.266 445.191 260.824 444.27 258.32C445.664 260.597 446.91 262.962 448 265.4C449.232 267.765 450.311 270.207 451.23 272.71Z" fill="white"/>
<path d="M445 296.36C445.418 292.541 446.175 288.766 447.26 285.08C447.139 286.999 446.848 288.903 446.39 290.77C446.098 292.672 445.633 294.543 445 296.36Z" fill="white"/>
<path d="M462.24 315C461.074 312.508 460.072 309.943 459.24 307.32C458.249 304.756 457.424 302.13 456.77 299.46C457.929 301.958 458.931 304.527 459.77 307.15C460.757 309.712 461.582 312.334 462.24 315Z" fill="white"/>
<path d="M459.83 325.91C458.045 325.641 456.329 325.026 454.78 324.1C453.153 323.319 451.701 322.217 450.51 320.86C450.61 320.74 452.45 322.26 455.03 323.64C457.61 325.02 459.88 325.76 459.83 325.91Z" fill="white"/>
<path d="M482 350.77C480.653 348.587 479.607 346.232 478.89 343.77C480.236 345.953 481.282 348.308 482 350.77Z" fill="white"/>
<path d="M351.21 385.45C350.784 384.008 350.522 382.521 350.43 381.02C350.177 379.538 350.09 378.032 350.17 376.53C350.627 377.981 350.905 379.482 351 381C351.239 382.47 351.31 383.964 351.21 385.45Z" fill="white"/>
<path d="M419.14 383.73C419.186 382.266 419.404 380.813 419.79 379.4C420.015 377.953 420.408 376.537 420.96 375.18C420.914 376.644 420.692 378.098 420.3 379.51C420.081 380.957 419.691 382.374 419.14 383.73Z" fill="white"/>
<path d="M432.16 185.44L441 170C435.548 161.2 433.586 150.679 435.499 140.505C437.411 130.331 443.061 121.241 451.336 115.022C459.612 108.803 469.915 105.904 480.219 106.896C490.523 107.889 500.083 112.7 507.02 120.384C513.957 128.068 517.768 138.069 517.704 148.421C517.64 158.773 513.706 168.726 506.676 176.324C499.645 183.922 490.026 188.615 479.71 189.48C469.395 190.346 459.128 187.321 450.93 181L432.16 185.44Z" fill="#FAFAFA"/>
<path d="M432.16 185.44L450.93 181.16H451.12L451 181L450.82 181.17C453.45 183.209 456.309 184.934 459.34 186.31C462.953 187.927 466.778 189.018 470.7 189.55C472.873 189.853 475.068 189.964 477.26 189.88C478.39 189.82 479.53 189.79 480.69 189.7L484.19 189.17C494.62 187.125 503.878 181.181 510.08 172.55C513.525 167.775 515.912 162.321 517.08 156.55C518.27 150.445 518.103 144.153 516.59 138.12C515.018 131.83 511.975 126.003 507.71 121.12L506 119.17C505.44 118.54 504.78 118.03 504.18 117.45C503.58 116.87 502.98 116.29 502.3 115.81L500.3 114.33C499.648 113.826 498.959 113.372 498.24 112.97L496.14 111.69L493.94 110.62C493.22 110.244 492.479 109.91 491.72 109.62C485.82 107.295 479.475 106.321 473.15 106.77C467.185 107.171 461.382 108.878 456.15 111.77C446.717 117.016 439.666 125.693 436.46 136C435.175 140.372 434.568 144.914 434.66 149.47C434.762 153.423 435.436 157.34 436.66 161.1C437.692 164.225 439.084 167.218 440.81 170.02V169.89C435.27 179.82 432.56 184.67 432.13 185.43C432.57 184.68 435.35 179.86 441.02 170.01V169.95V169.89C439.336 167.094 437.987 164.111 437 161C435.783 157.266 435.109 153.376 435 149.45C434.934 144.936 435.551 140.439 436.83 136.11C440.04 125.943 447.021 117.39 456.34 112.21C461.521 109.324 467.274 107.617 473.19 107.21C479.438 106.77 485.705 107.737 491.53 110.04C492.279 110.33 493.01 110.664 493.72 111.04L495.9 112.1L498 113.4C498.697 113.8 499.365 114.248 500 114.74L502 116.21C502.67 116.69 503.23 117.29 503.85 117.83C504.47 118.37 505.1 118.91 505.65 119.53L507.32 121.36C511.536 126.197 514.545 131.965 516.1 138.19C517.603 144.146 517.77 150.361 516.59 156.39C515.447 162.099 513.094 167.497 509.69 172.22C503.567 180.766 494.421 186.661 484.11 188.71L480.65 189.25C479.5 189.34 478.37 189.38 477.25 189.44C475.079 189.528 472.904 189.428 470.75 189.14C466.853 188.636 463.048 187.579 459.45 186C456.432 184.651 453.583 182.952 450.96 180.94L450.19 180.35L450.78 181.12L450.85 180.92L432.16 185.44Z" fill="#263238"/>
<path d="M487.4 146.55C487.41 147.337 487.652 148.103 488.095 148.753C488.538 149.403 489.163 149.908 489.892 150.205C490.621 150.501 491.421 150.576 492.192 150.42C492.964 150.264 493.672 149.884 494.228 149.328C494.784 148.772 495.164 148.064 495.32 147.292C495.476 146.521 495.401 145.721 495.105 144.992C494.808 144.263 494.303 143.638 493.653 143.195C493.003 142.752 492.237 142.51 491.45 142.5C490.916 142.493 490.387 142.593 489.892 142.795C489.398 142.996 488.949 143.294 488.571 143.671C488.194 144.049 487.896 144.498 487.695 144.992C487.493 145.487 487.393 146.016 487.4 146.55Z" fill="#263238"/>
<path d="M471.21 146.55C471.22 147.339 471.463 148.107 471.908 148.758C472.354 149.41 472.982 149.915 473.714 150.21C474.445 150.505 475.248 150.577 476.021 150.417C476.793 150.257 477.501 149.872 478.056 149.311C478.61 148.749 478.986 148.037 479.136 147.262C479.287 146.488 479.205 145.686 478.901 144.958C478.596 144.23 478.084 143.608 477.427 143.171C476.77 142.733 475.999 142.5 475.21 142.5C474.681 142.5 474.156 142.605 473.668 142.809C473.179 143.013 472.736 143.312 472.364 143.689C471.992 144.066 471.698 144.513 471.5 145.004C471.302 145.495 471.203 146.021 471.21 146.55Z" fill="#263238"/>
<path d="M455.06 144.53C454.673 145.216 454.498 146.001 454.556 146.787C454.613 147.572 454.902 148.323 455.385 148.945C455.867 149.568 456.523 150.034 457.27 150.285C458.016 150.536 458.82 150.561 459.581 150.357C460.342 150.153 461.025 149.729 461.546 149.138C462.067 148.547 462.401 147.816 462.508 147.035C462.615 146.255 462.489 145.461 462.146 144.752C461.803 144.043 461.258 143.451 460.58 143.05C460.122 142.779 459.614 142.603 459.087 142.53C458.56 142.458 458.023 142.492 457.509 142.63C456.995 142.768 456.514 143.007 456.093 143.333C455.673 143.659 455.321 144.066 455.06 144.53Z" fill="#263238"/>
</svg>
