<svg width="464" height="415" viewBox="0 0 464 415" fill="none" xmlns="http://www.w3.org/2000/svg">
<path d="M464 355.585H36.3729V355.834H464V355.585Z" fill="#EBEBEB"/>
<path d="M109.566 365.074H81.2395V365.323H109.566V365.074Z" fill="#EBEBEB"/>
<path d="M230.139 362.373H182.741V362.622H230.139V362.373Z" fill="#EBEBEB"/>
<path d="M130.613 370.995H114.201V371.244H130.613V370.995Z" fill="#EBEBEB"/>
<path d="M402.978 364.955H366.039V365.204H402.978V364.955Z" fill="#EBEBEB"/>
<path d="M416.012 364.955H410.598V365.204H416.012V364.955Z" fill="#EBEBEB"/>
<path d="M313.518 368.453H273.458V368.703H313.518V368.453Z" fill="#EBEBEB"/>
<path d="M239.068 311.128H73.9271C72.6334 311.126 71.3934 310.525 70.4795 309.458C69.5655 308.391 69.0521 306.945 69.0521 305.437V34.8804C69.0634 33.3813 69.5817 31.9479 70.4945 30.8915C71.4072 29.8352 72.6408 29.2412 73.9271 29.2386H239.068C240.363 29.2386 241.605 29.8383 242.521 30.9057C243.437 31.9731 243.952 33.4208 243.952 34.9303V305.437C243.952 306.946 243.437 308.394 242.521 309.461C241.605 310.529 240.363 311.128 239.068 311.128ZM73.9271 29.438C72.6901 29.4406 71.5045 30.0152 70.6306 31.0356C69.7568 32.0559 69.2659 33.4387 69.2659 34.8804V305.437C69.2659 306.879 69.7568 308.261 70.6306 309.282C71.5045 310.302 72.6901 310.877 73.9271 310.879H239.068C240.306 310.877 241.492 310.302 242.368 309.282C243.243 308.262 243.736 306.879 243.738 305.437V34.8804C243.736 33.4378 243.243 32.055 242.368 31.035C241.492 30.0149 240.306 29.4406 239.068 29.438H73.9271Z" fill="#EBEBEB"/>
<path d="M424.068 311.128H258.919C257.624 311.126 256.383 310.525 255.468 309.458C254.553 308.392 254.037 306.945 254.035 305.437V34.8804C254.049 33.3804 254.569 31.947 255.483 30.8909C256.397 29.8348 257.631 29.2412 258.919 29.2386H424.068C425.353 29.2438 426.584 29.839 427.495 30.895C428.406 31.9511 428.923 33.383 428.935 34.8804V305.437C428.935 306.943 428.422 308.388 427.51 309.454C426.598 310.521 425.36 311.123 424.068 311.128ZM258.919 29.438C257.681 29.4406 256.494 30.0149 255.619 31.035C254.744 32.055 254.251 33.4378 254.249 34.8804V305.437C254.251 306.879 254.744 308.262 255.619 309.282C256.494 310.302 257.681 310.877 258.919 310.879H424.068C425.306 310.877 426.492 310.302 427.368 309.282C428.243 308.262 428.736 306.879 428.738 305.437V34.8804C428.736 33.4378 428.243 32.055 427.368 31.035C426.492 30.0149 425.306 29.4406 424.068 29.438H258.919Z" fill="#EBEBEB"/>
<path d="M408.349 222.475H391.243V355.695H408.349V222.475Z" fill="#E6E6E6"/>
<path d="M403.841 355.695H408.34V337.553H399.129L403.841 355.695Z" fill="#F0F0F0"/>
<path d="M250.665 222.475H233.56V355.695H250.665V222.475Z" fill="#E6E6E6"/>
<path d="M408.34 222.475H246.731V344.561H408.34V222.475Z" fill="#F0F0F0"/>
<path d="M405.278 261.867H249.793V227.389H405.278V261.867ZM250.648 260.871H404.423V228.386H250.648V260.871Z" fill="#E6E6E6"/>
<path d="M377.91 238.294H280.189C275.801 238.294 271.636 234.157 268.583 226.871H389.507C386.488 234.157 382.298 238.294 377.91 238.294Z" fill="#E6E6E6"/>
<path d="M251.23 355.695H246.731V337.553H255.942L251.23 355.695Z" fill="#F0F0F0"/>
<path d="M405.278 300.762H249.793V266.283H405.278V300.762ZM250.648 299.765H404.423V267.28H250.648V299.765Z" fill="#E6E6E6"/>
<path d="M377.91 277.188H280.189C275.801 277.188 271.636 273.051 268.583 265.765H389.507C386.488 273.051 382.298 277.188 377.91 277.188Z" fill="#E6E6E6"/>
<path d="M405.278 339.646H249.793V305.168H405.278V339.646ZM250.648 338.649H404.423V306.164H250.648V338.649Z" fill="#E6E6E6"/>
<path d="M377.91 316.073H280.189C275.801 316.073 271.636 311.946 268.583 304.649H389.507C386.488 311.946 382.298 316.073 377.91 316.073Z" fill="#E6E6E6"/>
<path d="M157.426 190.897L171.11 204.393C170.417 302.257 173.504 307.56 173.573 324.396H157.922C155.749 242.48 149.6 211.919 157.426 190.897Z" fill="#E0E0E0"/>
<path d="M164.285 353.551C142.262 353.551 123.677 343.135 119.161 329.051C118.015 325.17 116.433 321.483 114.458 318.086L114.107 317.518H214.462L214.12 318.086C212.145 321.483 210.563 325.17 209.416 329.051C204.858 343.135 186.316 353.551 164.285 353.551Z" fill="#E6E6E6"/>
<path d="M214.668 321.056H113.902C112.533 321.065 111.201 320.541 110.117 319.568C109.032 318.595 108.258 317.228 107.915 315.684C107.674 314.62 107.647 313.507 107.836 312.429C108.025 311.352 108.424 310.34 109.003 309.472C109.583 308.603 110.326 307.903 111.176 307.424C112.025 306.946 112.958 306.702 113.902 306.713H214.668C215.608 306.71 216.536 306.959 217.38 307.441C218.224 307.923 218.962 308.624 219.536 309.491C220.111 310.358 220.506 311.368 220.693 312.442C220.879 313.515 220.852 314.625 220.612 315.684C220.274 317.221 219.506 318.584 218.43 319.557C217.353 320.53 216.03 321.057 214.668 321.056Z" fill="#F5F5F5"/>
<path d="M165.516 225.605C167.56 200.087 180.569 199.24 212.264 223.661C199.136 284.873 157.819 321.555 165.516 225.605Z" fill="#E0E0E0"/>
<path d="M160.795 187.278C157.066 165.18 175.583 134.818 207.518 146.191C209.613 204.533 174.83 270.549 160.795 187.278Z" fill="#E0E0E0"/>
<path d="M177.541 183.63C182.271 155.969 153.192 108.533 123.703 114.743C101.86 155.66 155.553 312.085 177.541 183.63Z" fill="#E0E0E0"/>
<path d="M165.807 225.814C154.8 187.248 121.206 176.194 99.7216 219.973C132.743 290.635 192.337 318.754 165.807 225.814Z" fill="#E0E0E0"/>
<path d="M276.802 49.9616V200.147H392.261V49.9616H276.802Z" fill="#EBEBEB"/>
<path d="M275.75 49.9617V200.147H276.793V49.9617H275.75Z" fill="#E0E0E0"/>
<path d="M383.7 59.9296H285.346V190.179H383.7V59.9296Z" fill="#F5F5F5"/>
<path d="M321.19 56.2714H293.488V101.455H321.19V56.2714Z" fill="white"/>
<path d="M354.322 56.2813H326.629L324.636 101.465H352.329L354.322 56.2813Z" fill="white"/>
<path d="M320.711 108.064H293.009L291.016 153.258H318.718L320.711 108.064Z" fill="white"/>
<path d="M386.686 56.9952L359.019 55.5817L357.322 100.722L384.988 102.136L386.686 56.9952Z" fill="white"/>
<path d="M357.131 117.5L329.45 118.435L330.573 163.6L358.254 162.665L357.131 117.5Z" fill="white"/>
<path d="M84.3783 62.591H217.687C218.406 62.591 219.095 62.2581 219.604 61.6655C220.112 61.0729 220.398 60.2692 220.398 59.4312C220.398 59.0167 220.328 58.6063 220.191 58.2235C220.055 57.8407 219.855 57.493 219.603 57.2004C219.351 56.9077 219.053 56.6759 218.724 56.5182C218.395 56.3605 218.042 56.28 217.687 56.2813H84.3783C83.666 56.2892 82.9852 56.6245 82.4839 57.2144C81.9825 57.8043 81.7013 58.6009 81.7014 59.4312C81.7013 60.2623 81.9823 61.06 82.4833 61.6515C82.9844 62.2429 83.6652 62.5805 84.3783 62.591Z" fill="#E0E0E0"/>
<path d="M84.3783 75.9678H217.687C218.406 75.9678 219.095 75.6349 219.604 75.0423C220.112 74.4497 220.398 73.646 220.398 72.808C220.398 71.97 220.112 71.1662 219.604 70.5737C219.095 69.9811 218.406 69.6482 217.687 69.6482H84.3783C83.6652 69.6587 82.9844 69.9962 82.4833 70.5877C81.9823 71.1791 81.7013 71.9768 81.7014 72.808C81.7013 73.6392 81.9823 74.4369 82.4833 75.0283C82.9844 75.6198 83.6652 75.9573 84.3783 75.9678Z" fill="#E0E0E0"/>
<path d="M217.695 83.025H84.3783C82.881 83.025 81.6671 84.4375 81.6671 86.1798C81.6671 87.9222 82.881 89.3347 84.3783 89.3347H217.695C219.193 89.3347 220.406 87.9222 220.406 86.1798C220.406 84.4375 219.193 83.025 217.695 83.025Z" fill="#E0E0E0"/>
<path d="M95.3085 62.591H228.634C228.993 62.5962 229.348 62.5184 229.681 62.3618C230.013 62.2053 230.316 61.9732 230.57 61.6791C230.825 61.385 231.027 61.0348 231.164 60.6489C231.302 60.263 231.372 59.849 231.371 59.4312C231.372 59.0171 231.303 58.607 231.167 58.2242C231.032 57.8415 230.833 57.4937 230.582 57.201C230.331 56.9082 230.032 56.6762 229.704 56.5184C229.375 56.3606 229.023 56.28 228.668 56.2813H95.3085C94.9528 56.28 94.6005 56.3605 94.2716 56.5182C93.9427 56.6759 93.6438 56.9077 93.3919 57.2004C93.14 57.493 92.9402 57.8407 92.8038 58.2235C92.6675 58.6063 92.5973 59.0167 92.5973 59.4312C92.5973 60.2692 92.8829 61.0729 93.3914 61.6655C93.8998 62.2581 94.5894 62.591 95.3085 62.591Z" fill="#F5F5F5"/>
<path d="M95.3085 75.9678H228.634C228.992 75.9731 229.348 75.8952 229.681 75.7386C230.013 75.5821 230.316 75.35 230.57 75.0559C230.825 74.7619 231.027 74.4117 231.164 74.0257C231.302 73.6398 231.372 73.2258 231.371 72.808C231.372 72.3935 231.303 71.9828 231.168 71.5995C231.032 71.2162 230.833 70.8678 230.582 70.5743C230.331 70.2807 230.033 70.0478 229.704 69.8889C229.376 69.73 229.024 69.6482 228.668 69.6482H95.3085C94.5894 69.6482 93.8998 69.9811 93.3914 70.5737C92.8829 71.1662 92.5973 71.97 92.5973 72.808C92.5973 73.646 92.8829 74.4497 93.3914 75.0423C93.8998 75.6349 94.5894 75.9678 95.3085 75.9678Z" fill="#F5F5F5"/>
<path d="M228.625 83.025H95.3085C93.8111 83.025 92.5973 84.4375 92.5973 86.1798C92.5973 87.9222 93.8111 89.3347 95.3085 89.3347H228.625C230.123 89.3347 231.337 87.9222 231.337 86.1798C231.337 84.4375 230.123 83.025 228.625 83.025Z" fill="#F5F5F5"/>
<path d="M250.186 399C341.769 399 416.012 394.223 416.012 388.331C416.012 382.439 341.769 377.662 250.186 377.662C158.604 377.662 84.3612 382.439 84.3612 388.331C84.3612 394.223 158.604 399 250.186 399Z" fill="#F5F5F5"/>
<path d="M370.581 119.916C368.921 119.53 366.792 116.938 366.552 112.537C366.262 106.882 371.812 106.561 374.498 107.909C377.183 109.257 375.695 116.797 370.581 119.916Z" fill="#263238"/>
<path d="M412.693 366.551L406.305 368.935L400.335 352.762L406.715 350.378L412.693 366.551Z" fill="#FFC3BD"/>
<path d="M405.295 368.398L413.07 365.495C413.191 365.444 413.326 365.445 413.447 365.5C413.568 365.554 413.665 365.657 413.72 365.787L416.371 371.866C416.432 372.022 416.464 372.19 416.464 372.36C416.464 372.53 416.432 372.698 416.37 372.854C416.308 373.01 416.218 373.15 416.105 373.265C415.992 373.381 415.858 373.469 415.712 373.525C413.198 374.411 411.333 374.929 408.186 376.107C406.245 376.833 402.37 378.388 399.693 379.387C397.016 380.386 396.016 377.502 397.051 376.777C401.712 373.695 403.123 371.461 404.355 369.237C404.57 368.845 404.903 368.549 405.295 368.398Z" fill="#263238"/>
<path opacity="0.2" d="M406.715 350.378L400.335 352.762L403.414 361.103L409.803 358.719L406.715 350.378Z" fill="black"/>
<path d="M372.257 147.144H377.388C375.678 148.746 375.832 191.836 377.277 212.523C373.181 212.806 365.671 211.232 365.671 211.232C365.671 211.232 364.953 178.981 372.257 147.144Z" fill="#7E3AF2"/>
<path opacity="0.4" d="M372.257 147.144H377.388C375.678 148.746 375.832 191.836 377.277 212.523C373.181 212.806 365.671 211.232 365.671 211.232C365.671 211.232 364.953 178.981 372.257 147.144Z" fill="black"/>
<path d="M369.529 380.697H362.738L361.72 363.375H368.502L369.529 380.697Z" fill="#FFC3BD"/>
<path opacity="0.2" d="M368.502 363.384H361.72L362.25 372.309H369.033L368.502 363.384Z" fill="black"/>
<path d="M358.41 369.256L370.521 369.143C370.521 369.143 368.485 320.389 369.768 297.176C370.162 290.107 370.085 280.315 371.889 269.778C374.181 256.499 377.115 242.126 379.535 230.882C382.101 219.026 380.75 210.638 380.75 210.638L356.897 209.083C356.897 209.083 350.73 271.286 350.722 294.075C350.704 317.835 358.41 369.256 358.41 369.256Z" fill="#263238"/>
<path d="M361.925 379.83H370.196C370.327 379.824 370.456 379.874 370.556 379.968C370.656 380.063 370.72 380.195 370.735 380.339L371.504 386.983C371.517 387.153 371.498 387.323 371.448 387.484C371.398 387.645 371.318 387.793 371.214 387.918C371.109 388.043 370.982 388.142 370.841 388.21C370.699 388.278 370.547 388.313 370.392 388.312C367.733 388.265 365.808 388.096 362.456 388.096C360.395 388.096 352.945 388.331 350.097 388.331C347.249 388.331 347.147 385.23 348.335 384.948C353.672 383.685 358.966 381.951 360.788 380.292C361.106 379.995 361.509 379.831 361.925 379.83Z" fill="#263238"/>
<path d="M357.444 370.877H373.027L372.933 366.061L356.623 365.75L357.444 370.877Z" fill="#7E3AF2"/>
<path d="M359.565 381.131C359.116 381.174 358.667 381.04 358.299 380.754C358.182 380.638 358.096 380.489 358.05 380.322C358.005 380.156 358.002 379.979 358.043 379.811C358.052 379.705 358.086 379.604 358.142 379.516C358.197 379.429 358.272 379.358 358.359 379.312C359.146 378.878 361.207 380.367 361.446 380.537C361.471 380.557 361.489 380.585 361.498 380.618C361.508 380.65 361.507 380.684 361.498 380.716C361.488 380.749 361.472 380.78 361.449 380.804C361.427 380.829 361.4 380.847 361.37 380.858C360.779 381.019 360.174 381.111 359.565 381.131ZM358.71 379.585C358.636 379.584 358.563 379.601 358.496 379.632C358.462 379.654 358.434 379.684 358.413 379.72C358.392 379.756 358.379 379.797 358.376 379.84C358.352 379.953 358.354 380.071 358.382 380.183C358.411 380.295 358.465 380.398 358.539 380.481C358.881 380.829 359.77 380.876 360.942 380.622C360.263 380.121 359.497 379.781 358.693 379.623L358.71 379.585Z" fill="#7E3AF2"/>
<path d="M361.369 380.876C361.347 380.886 361.323 380.886 361.301 380.876C360.634 380.462 359.411 378.822 359.633 377.983C359.669 377.852 359.741 377.738 359.839 377.655C359.938 377.572 360.057 377.525 360.181 377.521C360.3 377.505 360.421 377.517 360.536 377.556C360.651 377.595 360.757 377.66 360.848 377.747C361.575 378.464 361.549 380.575 361.549 380.707C361.55 380.739 361.542 380.772 361.527 380.8C361.512 380.828 361.49 380.851 361.464 380.867C361.434 380.882 361.401 380.885 361.369 380.876ZM360.266 377.842H360.189C359.975 377.842 359.95 377.983 359.941 378.021C359.813 378.52 360.574 379.755 361.216 380.339C361.247 379.507 361.038 378.685 360.617 377.992C360.565 377.938 360.503 377.896 360.435 377.87C360.367 377.844 360.295 377.834 360.223 377.842H360.266Z" fill="#7E3AF2"/>
<path opacity="0.2" d="M371.889 269.816C374.181 256.536 377.115 242.164 379.535 230.92L376.892 225.058C371.222 232.88 370.358 256.829 371.889 269.816Z" fill="black"/>
<path d="M369.768 209.978C369.768 209.978 377.577 273.963 381.092 295.611C384.949 319.314 399.77 360.641 399.77 360.641L411.462 356.268C411.462 356.268 402.251 321.981 399.018 298.778C395.332 272.389 393.176 211.486 393.176 211.486L369.768 209.978Z" fill="#263238"/>
<path d="M398.488 361.424L413.147 355.948L411.658 351.377L396.23 356.815L398.488 361.424Z" fill="#7E3AF2"/>
<path d="M403.457 370.472C403.044 370.674 402.579 370.704 402.148 370.556C402.004 370.488 401.88 370.376 401.789 370.235C401.699 370.094 401.645 369.928 401.635 369.755C401.615 369.65 401.618 369.541 401.645 369.437C401.672 369.334 401.721 369.239 401.789 369.161C402.405 368.483 404.774 369.162 405.047 369.256C405.078 369.263 405.106 369.282 405.125 369.31C405.144 369.337 405.153 369.372 405.15 369.407C405.153 369.442 405.146 369.478 405.131 369.51C405.116 369.542 405.093 369.568 405.064 369.586C404.562 369.95 404.022 370.247 403.457 370.472ZM402.182 369.303C402.111 369.324 402.046 369.367 401.994 369.425C401.968 369.456 401.949 369.494 401.94 369.536C401.931 369.577 401.932 369.62 401.943 369.661C401.95 369.779 401.986 369.892 402.046 369.99C402.106 370.087 402.188 370.166 402.285 370.217C402.704 370.424 403.551 370.161 404.577 369.501C403.799 369.255 402.984 369.188 402.182 369.303Z" fill="#7E3AF2"/>
<path d="M405.03 369.604H404.987C404.243 369.435 402.627 368.294 402.584 367.427C402.58 367.29 402.614 367.154 402.683 367.039C402.752 366.924 402.852 366.836 402.969 366.786C403.078 366.733 403.196 366.706 403.315 366.706C403.435 366.706 403.553 366.733 403.662 366.786C404.517 367.211 405.15 369.284 405.176 369.369C405.19 369.398 405.197 369.43 405.197 369.463C405.197 369.496 405.19 369.528 405.176 369.557C405.159 369.581 405.136 369.599 405.11 369.607C405.084 369.616 405.056 369.615 405.03 369.604ZM403.114 367.097H403.046C402.858 367.201 402.858 367.314 402.858 367.361C402.858 367.87 403.953 368.794 404.731 369.124C404.526 368.53 404.064 367.361 403.491 367.097C403.431 367.07 403.367 367.056 403.303 367.056C403.238 367.056 403.174 367.07 403.114 367.097Z" fill="#7E3AF2"/>
<path d="M363.55 155.994C360.54 160.216 357.444 164.146 354.143 168.029C350.827 171.947 347.312 175.654 343.614 179.131C342.639 179.999 341.69 180.875 340.638 181.704C339.427 182.758 338.095 183.632 336.678 184.306C333.782 185.546 330.634 185.898 327.57 185.323C324.891 184.848 322.295 183.92 319.873 182.571C318.723 181.95 317.609 181.252 316.537 180.479C315.469 179.702 314.447 178.852 313.475 177.935L316.263 173.222C320.18 174.994 324.619 176.408 328.322 176.379C329.936 176.432 331.534 176.02 332.958 175.183C333.64 174.712 334.279 174.169 334.865 173.561C335.678 172.817 336.473 171.969 337.268 171.158C338.868 169.471 340.45 167.737 341.989 165.899C343.529 164.061 345.077 162.233 346.591 160.348C349.61 156.578 352.637 152.705 355.511 148.888L363.55 155.994Z" fill="#FFC3BD"/>
<path d="M362.781 161.828C360.089 165.204 357.145 168.325 353.98 171.158L351.714 168.84L343.623 160.574C345.865 155.871 348.874 151.663 352.501 148.162C358.864 141.913 366.407 143.902 367.271 151.706C367.596 154.608 365.441 158.378 362.781 161.828Z" fill="#7E3AF2"/>
<path opacity="0.2" d="M362.781 161.828C360.089 165.204 357.145 168.325 353.98 171.158L351.714 168.84C353.852 163.939 361.37 155.315 362.781 161.828Z" fill="black"/>
<path d="M354.22 220.138C357.435 221.627 362.353 222.617 366.552 221.184C366.27 214.182 366.364 174.692 372.693 147.106H376.439C374.729 148.643 369.512 200.243 371.222 221.712C378.398 223.362 392.501 222.099 394.724 219.676C394.442 216.302 392.894 199.451 393.108 187.689C393.202 182.675 393.407 177.143 393.878 171.337C394.505 163.035 395.7 154.796 397.453 146.692C397.453 146.692 393.176 145.438 388.276 144.628C387.309 144.467 386.326 144.326 385.359 144.213C380.25 143.553 375.11 143.216 369.965 143.205C369.332 143.205 368.708 143.261 368.1 143.308C365.206 143.54 362.326 143.968 359.479 144.59C359.479 144.59 350.32 178.509 354.22 220.138Z" fill="#7E3AF2"/>
<path opacity="0.2" d="M392.347 158.388C390.559 164.354 390.636 172.619 393.202 176.511C393.305 176.672 393.416 176.822 393.518 176.954C393.621 175.126 393.749 173.266 393.903 171.375C394.134 168.482 394.434 165.513 394.801 162.506L392.347 158.388Z" fill="black"/>
<path d="M384.461 125.034C383.307 130.434 382.007 140.377 385.317 144.251C383.718 145.908 381.812 147.163 379.729 147.928C377.647 148.693 375.439 148.95 373.258 148.68C368.981 148.294 368.887 144.995 369.896 143.242C375.481 142.149 375.49 137.587 374.66 133.318L384.461 125.034Z" fill="#FFC3BD"/>
<path opacity="0.2" d="M380.476 128.417L374.703 133.309C374.906 134.31 375.032 135.328 375.079 136.353C377.2 136.155 380.211 133.789 380.493 131.367C380.651 130.391 380.646 129.391 380.476 128.417Z" fill="black"/>
<path d="M385.317 116.033C384.744 123.441 384.744 127.805 381.28 131.443C376.063 136.909 367.869 133.082 366.433 125.599C365.141 118.851 366.296 107.881 372.924 105.27C374.409 104.715 375.996 104.577 377.541 104.87C379.086 105.162 380.54 105.875 381.771 106.945C383.003 108.014 383.972 109.406 384.591 110.993C385.21 112.58 385.46 114.313 385.317 116.033Z" fill="#FFC3BD"/>
<path d="M384.932 120.708C383.273 120.331 381.134 117.73 380.903 113.328C380.604 107.673 386.163 107.353 388.84 108.701C391.517 110.048 390.038 117.617 384.932 120.708Z" fill="#263238"/>
<path d="M381.784 110.963C378.705 112.301 366.723 111.82 364.842 108.437C362.96 105.053 387.882 108.314 381.784 110.963Z" fill="#263238"/>
<path d="M382.999 110.077C379.834 111.113 367.929 109.511 366.321 105.968C364.714 102.424 389.294 107.956 382.999 110.077Z" fill="#263238"/>
<path d="M384.598 109.53C381.365 110.246 369.64 107.466 368.348 103.772C367.057 100.077 391.038 108.098 384.598 109.53Z" fill="#263238"/>
<path d="M386.685 109.888C383.409 110.341 371.761 105.506 370.7 101.717C369.64 97.9284 393.202 108.993 386.685 109.888Z" fill="#263238"/>
<path d="M387.959 109.134C384.658 109.219 373.557 104.215 372.847 100.332C372.137 96.4487 394.528 108.927 387.959 109.134Z" fill="#263238"/>
<path d="M388.336 109.068C385.616 108.493 375.883 102.009 376.183 98.7012C376.516 94.9973 393.801 110.218 388.336 109.068Z" fill="#263238"/>
<path d="M388.113 121.839C387.913 122.728 387.552 123.563 387.052 124.295C386.553 125.026 385.925 125.64 385.205 126.099C383.273 127.315 381.707 125.543 381.784 123.215C381.784 121.113 382.879 117.956 385.06 117.692C385.536 117.648 386.014 117.734 386.454 117.94C386.893 118.147 387.28 118.468 387.581 118.877C387.881 119.285 388.087 119.769 388.18 120.285C388.273 120.801 388.25 121.335 388.113 121.839Z" fill="#FFC3BD"/>
<path d="M375.054 117.617C375.054 118.22 374.737 118.691 374.378 118.682C374.019 118.672 373.745 118.154 373.762 117.551C373.779 116.947 374.07 116.467 374.429 116.486C374.788 116.504 375.054 116.985 375.054 117.617Z" fill="#263238"/>
<path d="M368.913 117.268C368.913 117.871 368.596 118.352 368.237 118.333C367.878 118.314 367.604 117.805 367.621 117.202C367.639 116.599 367.929 116.127 368.289 116.146C368.648 116.165 368.921 116.674 368.913 117.268Z" fill="#263238"/>
<path d="M370.863 117.673C370.173 119.482 369.258 121.176 368.143 122.706C368.501 123.016 368.916 123.237 369.359 123.354C369.802 123.471 370.262 123.481 370.709 123.384L370.863 117.673Z" fill="#FF5652"/>
<path d="M373.001 125.156C372.765 125.175 372.527 125.175 372.291 125.156C372.27 125.156 372.249 125.152 372.23 125.143C372.211 125.133 372.194 125.12 372.179 125.103C372.165 125.087 372.154 125.067 372.146 125.045C372.139 125.023 372.136 125 372.137 124.977C372.137 124.954 372.141 124.931 372.15 124.91C372.158 124.889 372.17 124.87 372.185 124.854C372.2 124.838 372.218 124.826 372.238 124.818C372.258 124.81 372.279 124.806 372.3 124.808C372.974 124.861 373.65 124.734 374.271 124.439C374.891 124.144 375.439 123.688 375.866 123.111C375.896 123.08 375.936 123.063 375.977 123.063C376.019 123.063 376.058 123.08 376.088 123.111C376.122 123.141 376.145 123.183 376.153 123.23C376.161 123.276 376.153 123.325 376.131 123.366C375.747 123.883 375.272 124.309 374.734 124.617C374.195 124.925 373.606 125.108 373.001 125.156Z" fill="#263238"/>
<path d="M377.029 115.477C376.972 115.484 376.914 115.473 376.861 115.447C376.808 115.42 376.763 115.379 376.73 115.326C376.509 114.949 376.21 114.636 375.858 114.411C375.505 114.187 375.11 114.058 374.703 114.035C374.617 114.035 374.535 113.999 374.473 113.934C374.411 113.869 374.374 113.781 374.369 113.686C374.367 113.64 374.373 113.594 374.388 113.551C374.402 113.507 374.424 113.468 374.453 113.434C374.482 113.401 374.517 113.374 374.555 113.356C374.594 113.338 374.635 113.328 374.677 113.328C375.189 113.352 375.688 113.508 376.134 113.785C376.58 114.062 376.96 114.451 377.243 114.921C377.292 114.998 377.312 115.093 377.299 115.186C377.286 115.279 377.242 115.363 377.175 115.421C377.132 115.454 377.082 115.474 377.029 115.477Z" fill="#263238"/>
<path d="M366.304 114.789C366.246 114.811 366.183 114.811 366.125 114.789C366.086 114.768 366.052 114.739 366.025 114.703C365.997 114.668 365.976 114.626 365.963 114.581C365.95 114.536 365.946 114.489 365.95 114.442C365.954 114.395 365.967 114.35 365.988 114.308C366.21 113.808 366.539 113.374 366.947 113.046C367.356 112.717 367.831 112.504 368.331 112.424C368.417 112.418 368.501 112.45 368.567 112.511C368.632 112.572 368.673 112.659 368.682 112.753C368.687 112.799 368.683 112.846 368.671 112.89C368.66 112.934 368.64 112.976 368.614 113.012C368.588 113.048 368.555 113.077 368.519 113.099C368.482 113.121 368.441 113.135 368.4 113.14C368.003 113.204 367.626 113.375 367.304 113.638C366.981 113.901 366.723 114.248 366.552 114.648C366.524 114.691 366.486 114.726 366.443 114.75C366.4 114.775 366.353 114.788 366.304 114.789Z" fill="#263238"/>
<path d="M401.31 151.696C402.362 154.307 403.183 156.795 404.03 159.368C404.876 161.941 405.603 164.533 406.287 167.172C407.718 172.548 408.666 178.066 409.118 183.646L409.212 185.851V186.483V187.35C409.212 187.915 409.101 188.396 409.033 188.905C408.714 190.579 408.208 192.203 407.528 193.74C406.378 196.349 405.006 198.833 403.431 201.157C400.481 205.552 397.165 209.635 393.527 213.353L389.653 209.696C392.142 205.37 394.63 200.912 396.751 196.501C397.779 194.414 398.668 192.247 399.411 190.017C399.691 189.141 399.883 188.234 399.984 187.312C399.984 187.171 399.984 187.001 399.984 186.907C399.98 186.869 399.98 186.831 399.984 186.794V186.652V186.436L399.788 184.711C399.046 179.851 397.965 175.062 396.555 170.385C395.87 167.982 395.109 165.579 394.34 163.185C393.57 160.791 392.715 158.369 391.919 156.135L401.31 151.696Z" fill="#FFC3BD"/>
<path d="M399.471 147.823C404.953 151.772 407.493 167.86 407.493 167.86L394.579 174.004C391.51 169.296 389.361 163.936 388.267 158.265C386.437 148.021 393.869 143.77 399.471 147.823Z" fill="#7E3AF2"/>
<path d="M392.928 208.602L384.966 208.263L389.157 216.745C389.157 216.745 394.93 214.992 394.357 211.515L392.928 208.602Z" fill="#FFC3BD"/>
<path d="M380.724 212.316L384.478 219.12L389.157 216.708L384.966 208.263L380.724 212.316Z" fill="#FFC3BD"/>
<path d="M316.546 173.505L310.644 169.433L309.661 178.858C309.661 178.858 315.357 181.111 316.708 177.916L316.546 173.505Z" fill="#FFC3BD"/>
<path d="M304.829 170.791L303.195 177.859L309.661 178.896L310.644 169.433L304.829 170.791Z" fill="#FFC3BD"/>
<path d="M260.296 122.687C255.369 128.427 247.988 143.327 253.65 148.558C255.623 149.494 257.744 149.991 259.892 150.018C262.04 150.046 264.171 149.604 266.163 148.718L264.837 127.201C264.837 127.201 264.144 118.917 260.296 122.687Z" fill="#263238"/>
<path d="M256.37 172.016C255.7 174.961 254.895 177.868 253.958 180.724C253.034 183.552 251.974 186.332 250.811 189.074C249.652 191.847 248.323 194.53 246.834 197.104C246.081 198.405 245.269 199.677 244.413 200.931C243.986 201.553 243.558 202.175 243.079 202.816C242.848 203.117 242.6 203.409 242.361 203.711L242.002 204.163C241.763 204.451 241.506 204.719 241.232 204.964C240.606 205.512 239.884 205.91 239.111 206.133C238.407 206.327 237.677 206.381 236.956 206.293C235.899 206.151 234.877 205.786 233.945 205.219C232.563 204.369 231.285 203.331 230.139 202.128C228.115 200.018 226.247 197.733 224.554 195.295C221.291 190.595 218.341 185.64 215.728 180.47L218.85 178.236C220.441 180.451 222.074 182.713 223.742 184.89C225.41 187.067 227.086 189.235 228.874 191.27C230.536 193.294 232.328 195.184 234.236 196.925C235.042 197.669 235.926 198.302 236.87 198.81C237.099 198.938 237.349 199.012 237.606 199.027C237.606 199.027 237.554 199.027 237.409 199.027C237.27 199.062 237.137 199.122 237.016 199.206C237.003 199.227 236.985 199.244 236.964 199.253L237.238 198.867C237.426 198.612 237.614 198.367 237.794 198.103C238.153 197.575 238.504 197.048 238.846 196.492C239.521 195.398 240.171 194.267 240.779 193.08C241.993 190.733 243.079 188.254 244.106 185.738C245.132 183.222 246.021 180.611 246.86 177.982C247.698 175.352 248.467 172.628 249.109 170.093L256.37 172.016Z" fill="#FF8B7B"/>
<path d="M261.732 174.108C260.937 176.568 258.234 180.979 256.113 184.24C254.565 186.596 253.334 188.349 253.334 188.349L252.111 187.406L241.985 179.819C243.892 173.439 246.423 166.625 253.488 164.74C257.935 163.571 263.152 169.716 261.732 174.108Z" fill="#7E3AF2"/>
<g opacity="0.5">
<path d="M261.732 174.108C260.937 176.568 258.234 180.979 256.113 184.24C254.565 186.596 253.334 188.349 253.334 188.349L252.111 187.406L241.985 179.819C243.892 173.439 246.423 166.625 253.488 164.74C257.935 163.571 263.152 169.716 261.732 174.108Z" fill="white"/>
</g>
<path opacity="0.3" d="M256.113 184.24C254.565 186.596 253.334 188.349 253.334 188.349L252.111 187.406C252.718 184.862 253.821 180.875 255.429 179.292C255.974 180.869 256.207 182.555 256.113 184.24Z" fill="black"/>
<path d="M219.526 179.97L219.859 172.958L212.247 174.127C212.247 174.127 214.394 179.508 216.66 181.761L219.526 179.97Z" fill="#FF8B7B"/>
<path d="M217.396 170.037L211.888 172.063L212.247 174.127L219.859 172.958L217.396 170.037Z" fill="#FF8B7B"/>
<path d="M280.719 380.49L273.509 381.263L268.711 362.63L275.921 361.867L280.719 380.49Z" fill="#FF8B7B"/>
<path d="M332.753 362.574L326.073 365.957L316.811 350.001L323.49 346.618L332.753 362.574Z" fill="#FF8B7B"/>
<path d="M324.08 363.478L331.436 359.265C331.562 359.193 331.707 359.173 331.845 359.209C331.984 359.246 332.105 359.336 332.188 359.463L336.045 365.363C336.137 365.516 336.199 365.689 336.226 365.87C336.253 366.052 336.246 366.237 336.204 366.415C336.162 366.592 336.087 366.759 335.983 366.902C335.879 367.046 335.749 367.164 335.601 367.248C333.035 368.662 331.718 369.208 328.494 371.018C326.518 372.158 322.284 375.005 319.548 376.569C316.811 378.134 315.271 375.25 316.263 374.326C320.805 370.179 322.25 367.088 323.225 364.505C323.401 364.069 323.701 363.709 324.08 363.478Z" fill="#263238"/>
<path d="M272.218 378.841H280.976C281.132 378.843 281.283 378.901 281.407 379.006C281.53 379.112 281.619 379.259 281.66 379.425L283.558 387.031C283.606 387.21 283.614 387.399 283.582 387.582C283.551 387.765 283.48 387.938 283.377 388.085C283.274 388.233 283.14 388.352 282.988 388.432C282.835 388.513 282.667 388.552 282.498 388.548C279.419 388.548 277.965 388.548 274.125 388.548H262.365C259.184 388.548 258.517 384.995 259.8 384.674C265.709 383.232 269.122 381.244 270.918 379.349C271.093 379.173 271.298 379.037 271.521 378.95C271.744 378.862 271.981 378.825 272.218 378.841Z" fill="#263238"/>
<path opacity="0.2" d="M268.711 362.63L271.191 372.234H278.598L275.93 361.867L268.711 362.63Z" fill="black"/>
<path opacity="0.2" d="M323.499 346.618L316.811 350.001L321.592 358.229L328.271 354.845L323.499 346.618Z" fill="black"/>
<path d="M290.469 209.158L260.851 213.334C248.399 167.153 251.529 165.475 251.529 165.475C251.529 165.475 256.473 163.59 261.519 162.139C262.28 161.922 263.049 161.715 263.802 161.526C268.241 160.55 272.736 159.92 277.255 159.641L279.248 159.5C282.849 159.326 286.456 159.388 290.05 159.688C289.502 165.635 289.109 170.668 288.861 175.069C288.527 180.8 288.425 185.437 288.502 189.451C288.682 196.068 289.34 202.657 290.469 209.158Z" fill="#7E3AF2"/>
<g opacity="0.5">
<path d="M290.469 209.158L260.851 213.334C248.399 167.153 251.529 165.475 251.529 165.475C251.529 165.475 256.473 163.59 261.519 162.139C262.28 161.922 263.049 161.715 263.802 161.526C268.241 160.55 272.736 159.92 277.255 159.641L279.248 159.5C282.849 159.326 286.456 159.388 290.05 159.688C289.502 165.635 289.109 170.668 288.861 175.069C288.527 180.8 288.425 185.437 288.502 189.451C288.682 196.068 289.34 202.657 290.469 209.158Z" fill="white"/>
</g>
<path opacity="0.3" d="M288.502 189.433C286.501 184.72 285.526 174.438 286.791 170.913L288.861 175.051C288.527 180.762 288.425 185.399 288.502 189.433Z" fill="black"/>
<path d="M273.997 149.755C274.27 153.788 275.134 157.898 277.255 159.622C273.935 160.717 270.853 162.548 268.198 165.004C264.563 162.893 263.811 161.526 263.811 161.526C268.489 159.575 268.164 156.031 266.18 150.339L269.832 148.171C270.146 147.788 270.557 147.514 271.011 147.385C271.466 147.256 271.945 147.278 272.389 147.446C272.833 147.615 273.222 147.924 273.508 148.334C273.793 148.745 273.964 149.239 273.997 149.755Z" fill="#FF8B7B"/>
<path d="M264.726 158.303C263.434 157.652 261.014 161.177 260.689 162.12C260.364 163.062 261.681 163.354 261.544 164.598C261.407 165.843 262.16 166.945 264.392 167.916C266.624 168.887 271.046 168.302 272.517 165.89C273.988 163.477 283.156 161.545 281.874 159.142C280.591 156.738 279.599 158.086 278.692 155.683C277.785 153.279 273.945 155.579 272.705 156.833C271.465 158.086 270.165 161.027 264.726 158.303Z" fill="#7E3AF2"/>
<path opacity="0.2" d="M269.857 148.162C270.153 147.802 270.532 147.539 270.955 147.403C271.377 147.266 271.826 147.261 272.251 147.388C272.676 147.515 273.06 147.768 273.363 148.121C273.665 148.474 273.872 148.912 273.963 149.387C272.577 152.474 270.341 154.997 267.574 156.597C267.476 154.432 267.012 152.307 266.205 150.33L269.857 148.162Z" fill="black"/>
<path d="M279.676 137.107C277.862 144.901 277.247 148.237 272.928 151.517C266.428 156.446 258.14 152.29 257.807 144.062C257.507 136.654 260.526 125.156 268.07 123.507C269.733 123.132 271.456 123.233 273.074 123.799C274.692 124.364 276.152 125.377 277.315 126.74C278.478 128.103 279.305 129.77 279.718 131.585C280.132 133.399 280.117 135.3 279.676 137.107Z" fill="#FF8B7B"/>
<path d="M280.018 144.778C279.725 145.478 279.311 146.107 278.797 146.63C278.283 147.152 277.681 147.558 277.024 147.823C275.263 148.529 274.245 146.824 274.621 144.92C274.963 143.205 276.289 140.764 278.11 140.895C278.507 140.932 278.888 141.077 279.221 141.317C279.554 141.556 279.827 141.884 280.016 142.269C280.206 142.654 280.305 143.085 280.305 143.524C280.305 143.962 280.207 144.393 280.018 144.778Z" fill="#FF8B7B"/>
<path d="M261.826 128.163C265.299 127.38 273.637 128.031 274.364 131.791C271.397 134.845 272.825 144.684 269.738 147.568C274.245 152.28 283.182 152.328 283.182 152.328C283.182 152.328 292.017 125.872 281.232 124.581C278.966 117.89 266.693 117.287 260.296 122.696" fill="#263238"/>
<path d="M278.41 132.159H274.134C273.984 132.159 273.84 132.093 273.734 131.977C273.629 131.86 273.569 131.702 273.569 131.537C273.571 131.372 273.631 131.216 273.737 131.1C273.842 130.983 273.985 130.917 274.134 130.915H278.41C278.56 130.915 278.703 130.98 278.809 131.097C278.915 131.214 278.974 131.372 278.974 131.537C278.975 131.619 278.962 131.7 278.934 131.776C278.906 131.852 278.864 131.921 278.812 131.979C278.759 132.037 278.696 132.083 278.627 132.114C278.558 132.145 278.484 132.16 278.41 132.159Z" fill="#7E3AF2"/>
<path d="M260.851 213.343C260.851 213.343 249.477 276.422 253.265 300.785C256.9 324.14 268.078 369.453 268.078 369.453L280.762 369.095C280.762 369.095 272.799 316.59 272.645 297.072C272.38 264.698 282.541 210.28 282.541 210.28L260.851 213.343Z" fill="#7E3AF2"/>
<path d="M267.283 370.179L281.959 369.736L281.053 364.43L265.153 365.326L267.283 370.179Z" fill="#263238"/>
<path opacity="0.3" d="M271.183 220.986L276.255 211.166L282.541 210.28C282.541 210.28 277.914 235.029 274.989 261.07C271.474 248.62 270.234 226.717 271.183 220.986Z" fill="black"/>
<path d="M267.292 212.523C267.292 212.523 276.28 265.886 284.294 296.356C290.76 320.964 317.905 354.497 317.905 354.497L327.501 349.19C327.501 349.19 309.285 312.038 304.769 295.319C290.324 241.824 301.621 222.381 290.435 209.158L267.292 212.523Z" fill="#7E3AF2"/>
<path d="M318.008 357.758L329.306 351.33L327.613 346.024L315.134 353.658L318.008 357.758Z" fill="#263238"/>
<path d="M290.691 207.151L292.402 209.884C292.53 210.092 292.316 210.365 291.974 210.412L260.903 214.804C260.638 214.804 260.398 214.728 260.364 214.54L259.757 211.656C259.757 211.458 259.928 211.251 260.219 211.213L290.212 206.972C290.299 206.956 290.389 206.964 290.472 206.996C290.556 207.027 290.631 207.08 290.691 207.151Z" fill="#7E3AF2"/>
<path opacity="0.4" d="M290.691 207.151L292.402 209.884C292.53 210.092 292.316 210.365 291.974 210.412L260.903 214.804C260.638 214.804 260.398 214.728 260.364 214.54L259.757 211.656C259.757 211.458 259.928 211.251 260.219 211.213L290.212 206.972C290.299 206.956 290.389 206.964 290.472 206.996C290.556 207.027 290.631 207.08 290.691 207.151Z" fill="white"/>
<path d="M287.091 211.449L287.895 211.326C288.057 211.326 288.168 211.204 288.143 211.091L287.287 207.321C287.287 207.208 287.116 207.142 286.954 207.16L286.15 207.274C285.996 207.274 285.885 207.405 285.902 207.519L286.757 211.288C286.783 211.392 286.962 211.468 287.091 211.449Z" fill="#263238"/>
<path d="M263.169 214.823L263.973 214.71C264.127 214.71 264.238 214.578 264.221 214.474L263.366 210.704C263.366 210.591 263.186 210.516 263.032 210.544L262.228 210.657C262.066 210.657 261.955 210.789 261.98 210.893L262.836 214.663C262.853 214.776 263.015 214.851 263.169 214.823Z" fill="#263238"/>
<path d="M275.126 213.136L275.93 213.023C276.092 213.023 276.203 212.891 276.178 212.778L275.365 209.008C275.365 208.904 275.186 208.829 275.032 208.848L274.228 208.961C274.065 208.961 273.954 209.093 273.98 209.206L274.792 212.976C274.818 213.089 274.989 213.155 275.126 213.136Z" fill="#263238"/>
<path d="M267.565 136.777C267.454 137.418 267.052 137.87 266.71 137.785C266.368 137.7 266.111 137.126 266.222 136.485C266.334 135.844 266.736 135.382 267.078 135.467C267.42 135.552 267.676 136.136 267.565 136.777Z" fill="#263238"/>
<path d="M260.98 135.382C260.869 136.023 260.475 136.475 260.124 136.39C259.774 136.306 259.526 135.731 259.637 135.09C259.748 134.449 260.15 133.987 260.535 134.072C260.92 134.157 261.099 134.732 260.98 135.382Z" fill="#263238"/>
<path d="M260.663 134.138L259.338 133.403C259.338 133.403 259.842 134.76 260.663 134.138Z" fill="#263238"/>
<path d="M262.724 136.815C261.951 138.168 261.013 139.398 259.936 140.471C260.192 140.768 260.504 141.001 260.85 141.152C261.195 141.303 261.566 141.37 261.938 141.348L262.724 136.815Z" fill="#FF5652"/>
<path d="M264.161 144.543C264.133 144.523 264.111 144.495 264.097 144.461C264.084 144.428 264.079 144.391 264.084 144.354C264.093 144.303 264.119 144.258 264.157 144.228C264.196 144.198 264.243 144.186 264.29 144.194C265.01 144.368 265.758 144.35 266.472 144.144C267.185 143.938 267.844 143.548 268.395 143.007C268.428 142.971 268.473 142.952 268.519 142.952C268.565 142.952 268.609 142.971 268.643 143.007C268.659 143.023 268.673 143.044 268.682 143.066C268.691 143.089 268.695 143.114 268.695 143.139C268.695 143.163 268.691 143.188 268.682 143.211C268.673 143.233 268.659 143.254 268.643 143.27C268.055 143.865 267.344 144.294 266.573 144.521C265.801 144.747 264.991 144.765 264.213 144.571C264.193 144.568 264.175 144.558 264.161 144.543Z" fill="#263238"/>
<path d="M269.857 134.798C269.805 134.762 269.763 134.709 269.738 134.647C269.556 134.209 269.284 133.824 268.942 133.525C268.6 133.225 268.199 133.018 267.77 132.922C267.725 132.918 267.68 132.903 267.64 132.879C267.599 132.855 267.563 132.822 267.535 132.782C267.506 132.743 267.485 132.697 267.472 132.648C267.46 132.599 267.457 132.548 267.463 132.498C267.475 132.398 267.522 132.307 267.594 132.244C267.665 132.181 267.756 132.151 267.847 132.159C268.393 132.266 268.907 132.517 269.345 132.891C269.783 133.266 270.132 133.752 270.362 134.308C270.404 134.399 270.411 134.505 270.382 134.602C270.353 134.699 270.291 134.78 270.208 134.826C270.152 134.854 270.091 134.866 270.029 134.861C269.968 134.856 269.909 134.834 269.857 134.798Z" fill="#263238"/>
<path d="M258.679 131.593V131.527C258.666 131.48 258.662 131.43 258.666 131.38C258.671 131.331 258.684 131.282 258.705 131.239C258.727 131.195 258.756 131.156 258.791 131.125C258.826 131.093 258.867 131.07 258.91 131.056C259.436 130.863 259.996 130.814 260.543 130.912C261.089 131.011 261.606 131.254 262.049 131.622C262.12 131.688 262.165 131.783 262.173 131.885C262.181 131.988 262.152 132.089 262.092 132.168C262.031 132.247 261.945 132.296 261.852 132.305C261.759 132.314 261.667 132.282 261.596 132.215C261.244 131.929 260.835 131.741 260.403 131.667C259.971 131.593 259.529 131.636 259.115 131.791C259.033 131.822 258.944 131.819 258.864 131.782C258.783 131.746 258.718 131.679 258.679 131.593Z" fill="#263238"/>
<path d="M293.095 167.916C294.07 169.075 294.882 170.131 295.712 171.281C296.541 172.43 297.337 173.552 298.115 174.711C299.646 177.049 301.091 179.424 302.391 181.959C303.744 184.468 304.952 187.068 306.009 189.744C306.291 190.413 306.522 191.11 306.779 191.789C307.035 192.467 307.275 193.155 307.488 193.862C307.702 194.569 307.925 195.229 308.147 196.011L308.455 197.274L308.677 198.527C309.059 201.665 308.958 204.851 308.378 207.952C307.844 210.846 307.086 213.684 306.112 216.434C305.157 219.109 304.081 221.729 302.887 224.285C301.689 226.817 300.37 229.277 298.936 231.655L295.72 229.563C296.729 227.169 297.721 224.634 298.568 222.117C299.453 219.624 300.22 217.082 300.869 214.502C301.516 212.008 301.988 209.462 302.28 206.887C302.409 205.664 302.472 204.433 302.468 203.202C302.448 202.059 302.336 200.921 302.135 199.8L301.964 199.027L301.75 198.292C301.579 197.764 301.322 197.114 301.108 196.539C300.894 195.964 300.655 195.351 300.398 194.758C300.142 194.164 299.919 193.579 299.637 193.005C298.585 190.667 297.345 188.415 296.096 186.162C294.848 183.91 293.445 181.751 292 179.631C291.29 178.556 290.554 177.501 289.802 176.464C289.049 175.427 288.262 174.381 287.552 173.486L293.095 167.916Z" fill="#FF8B7B"/>
<path d="M297.225 227.301L291.324 230.477L297.379 235.689C297.379 235.689 300.005 232.202 299.894 228.837L297.225 227.301Z" fill="#FF8B7B"/>
<path d="M288.519 236.924L293.668 239.864L297.337 235.689L291.281 230.477L288.519 236.924Z" fill="#FF8B7B"/>
<path d="M290.05 159.669C293.719 160.216 299.261 171.507 299.261 171.507L289.93 181.61C289.93 181.61 282.78 172.628 282.968 167.379C283.139 162.921 285.372 158.981 290.05 159.669Z" fill="#7E3AF2"/>
<g opacity="0.5">
<path d="M290.05 159.669C293.719 160.216 299.261 171.507 299.261 171.507L289.93 181.61C289.93 181.61 282.78 172.628 282.968 167.379C283.139 162.921 285.372 158.981 290.05 159.669Z" fill="white"/>
</g>
<path d="M321.173 366.428C321.133 366.434 321.093 366.434 321.053 366.428C320.889 366.378 320.741 366.282 320.621 366.15C320.501 366.018 320.414 365.854 320.369 365.674C320.328 365.568 320.314 365.452 320.327 365.338C320.341 365.223 320.382 365.115 320.446 365.024C321.027 364.204 323.678 364.477 323.978 364.506C324.012 364.51 324.044 364.526 324.07 364.551C324.096 364.577 324.115 364.61 324.123 364.647C324.132 364.682 324.132 364.719 324.123 364.754C324.114 364.789 324.096 364.82 324.072 364.845C323.336 365.486 322.028 366.522 321.173 366.428ZM323.516 364.826C322.455 364.751 321.027 364.826 320.719 365.231C320.697 365.274 320.685 365.323 320.685 365.373C320.685 365.422 320.697 365.471 320.719 365.514C320.746 365.636 320.801 365.748 320.879 365.839C320.957 365.93 321.055 365.996 321.164 366.032C321.6 366.127 322.481 365.684 323.49 364.779L323.516 364.826Z" fill="#7E3AF2"/>
<path d="M323.738 364.798C322.883 364.656 321.173 363.855 320.976 363.026C320.936 362.88 320.943 362.723 320.996 362.582C321.049 362.441 321.145 362.325 321.267 362.253C321.374 362.164 321.499 362.104 321.631 362.077C321.763 362.051 321.899 362.06 322.028 362.102C323.063 362.385 324.055 364.449 324.098 364.534C324.113 364.564 324.12 364.598 324.12 364.633C324.12 364.667 324.113 364.701 324.098 364.732C324.08 364.759 324.057 364.781 324.03 364.796C324.003 364.811 323.974 364.818 323.944 364.817L323.738 364.798ZM321.874 362.46C321.803 362.447 321.73 362.449 321.659 362.467C321.589 362.485 321.522 362.518 321.463 362.564C321.284 362.705 321.284 362.828 321.309 362.913C321.455 363.459 322.738 364.195 323.619 364.393C323.259 363.723 322.567 362.64 321.908 362.508L321.874 362.46Z" fill="#7E3AF2"/>
<path d="M268.343 380.424C267.746 380.472 267.149 380.317 266.633 379.981C266.5 379.871 266.392 379.728 266.316 379.565C266.241 379.402 266.2 379.222 266.197 379.038C266.184 378.937 266.197 378.834 266.235 378.741C266.273 378.648 266.334 378.568 266.411 378.511C267.206 377.926 270.174 379.453 270.764 379.717C270.796 379.733 270.822 379.76 270.839 379.794C270.856 379.828 270.863 379.867 270.858 379.905C270.855 379.946 270.84 379.985 270.815 380.016C270.791 380.046 270.758 380.067 270.721 380.075C269.941 380.28 269.145 380.396 268.343 380.424ZM266.958 378.765C266.839 378.756 266.72 378.786 266.616 378.85C266.591 378.87 266.571 378.897 266.559 378.929C266.547 378.96 266.543 378.995 266.547 379.029C266.55 379.155 266.579 379.278 266.633 379.389C266.686 379.501 266.762 379.597 266.855 379.67C267.368 380.094 268.566 380.15 270.131 379.839C269.131 379.301 268.06 378.939 266.958 378.765Z" fill="#7E3AF2"/>
<path d="M270.713 380.094H270.644C269.661 379.651 267.676 377.898 267.788 376.984C267.788 376.786 267.933 376.541 268.386 376.484C270.097 376.258 270.849 379.726 270.884 379.868C270.891 379.904 270.89 379.941 270.879 379.976C270.869 380.011 270.849 380.042 270.824 380.066C270.791 380.089 270.751 380.099 270.713 380.094ZM268.54 376.842H268.429C268.241 376.842 268.147 376.927 268.13 377.022C268.07 377.549 269.438 378.906 270.447 379.538C270.199 378.68 269.567 376.842 268.523 376.842H268.54Z" fill="#7E3AF2"/>
<path d="M267.24 135.523L265.923 134.788C265.923 134.788 266.436 136.155 267.24 135.523Z" fill="#263238"/>
<path d="M136.301 380.575L143.168 380.462L144.742 362.913L137.883 363.026L136.301 380.575Z" fill="#B55B52"/>
<path d="M102.313 380.603H109.181L111.875 363.083H105.016L102.313 380.603Z" fill="#B55B52"/>
<path d="M110.13 379.726H101.757C101.621 379.727 101.489 379.779 101.384 379.873C101.278 379.967 101.205 380.098 101.175 380.245L99.8156 386.974C99.7847 387.138 99.7877 387.307 99.8244 387.469C99.8611 387.632 99.9305 387.783 100.028 387.911C100.125 388.04 100.247 388.143 100.385 388.212C100.523 388.282 100.673 388.316 100.825 388.312C103.519 388.265 105.477 388.086 108.873 388.086C110.96 388.086 117.254 388.331 120.136 388.331C123.019 388.331 123.395 385.193 122.215 384.901C116.921 383.628 112.935 381.875 111.242 380.188C110.933 379.893 110.539 379.729 110.13 379.726Z" fill="#263238"/>
<path d="M143.109 379.623L135.608 379.755C135.473 379.754 135.341 379.806 135.237 379.9C135.132 379.995 135.061 380.127 135.035 380.273L133.769 387.021C133.736 387.185 133.738 387.354 133.774 387.517C133.81 387.68 133.879 387.831 133.977 387.959C134.075 388.088 134.197 388.19 134.336 388.258C134.475 388.325 134.627 388.357 134.778 388.35C137.481 388.256 141.39 388.011 144.785 387.954C148.762 387.888 152.2 388.067 156.853 387.954C159.675 387.907 160.41 384.759 159.23 384.495C153.842 383.289 149.455 383.223 144.768 380.151C144.269 379.81 143.695 379.628 143.109 379.623Z" fill="#263238"/>
<path d="M148.266 150.188C150.472 154.74 152.807 159.424 155.159 163.958C157.511 168.491 159.966 172.996 162.583 177.152C162.899 177.689 163.241 178.179 163.575 178.679L164.071 179.424L164.293 179.763L164.379 179.895C164.592 180.236 164.889 180.504 165.234 180.668C166.158 181.111 168.108 181.054 170.075 180.536C172.202 179.941 174.277 179.14 176.275 178.142C177.319 177.623 178.379 177.105 179.414 176.521C180.449 175.936 181.51 175.314 182.467 174.749L185.658 179.216C184.683 180.281 183.75 181.177 182.741 182.044C181.732 182.911 180.731 183.825 179.654 184.635C177.446 186.36 175.067 187.802 172.564 188.933C171.183 189.541 169.75 189.995 168.287 190.29C166.553 190.623 164.778 190.594 163.053 190.205C161.022 189.737 159.156 188.638 157.674 187.039C157.485 186.841 157.314 186.633 157.143 186.426L156.793 185.983L156.151 185.154C155.724 184.607 155.296 184.051 154.894 183.495C151.755 179.119 148.864 174.533 146.239 169.763C143.673 165.051 141.227 160.339 138.978 155.334L148.266 150.188Z" fill="#B65B52"/>
<path d="M136.036 150.414C134.18 157.351 147.214 176.266 147.214 176.266L160.385 166.955C157.912 160.957 154.861 155.269 151.285 149.99C145.845 142.385 138.063 142.799 136.036 150.414Z" fill="#7E3AF2"/>
<path opacity="0.2" d="M136.036 150.414C134.18 157.351 147.214 176.266 147.214 176.266L160.385 166.955C157.912 160.957 154.861 155.269 151.285 149.99C145.845 142.385 138.063 142.799 136.036 150.414Z" fill="white"/>
<path opacity="0.2" d="M144.041 158.557C146.743 159.83 150.72 167.04 152.79 172.317L147.214 176.266C144.099 171.676 141.297 166.838 138.832 161.79C140.594 159.66 142.613 157.888 144.041 158.557Z" fill="black"/>
<path d="M181.903 175.107L186.692 171.969L190.798 179.829C190.798 179.829 185.469 183.269 182.023 179.273L181.903 175.107Z" fill="#B55B52"/>
<path d="M193.389 172.044L195.536 178.104L190.798 179.829L186.692 171.969L193.389 172.044Z" fill="#B55B52"/>
<path opacity="0.2" d="M144.742 362.913L143.93 371.961L137.062 372.083L137.874 363.035L144.742 362.913Z" fill="black"/>
<path opacity="0.2" d="M105.007 363.092H111.875L110.481 372.121H103.613L105.007 363.092Z" fill="black"/>
<path d="M105.435 147.342C112.824 176.05 111.635 206.567 112.08 212.806L148.77 211.289C155.005 168.453 143.81 144.609 143.81 144.609C143.81 144.609 141.458 144.109 138.259 143.742C137.25 143.629 136.173 143.534 135.044 143.468C134.419 143.468 133.786 143.402 133.145 143.393C127.954 143.48 122.771 143.892 117.622 144.628C116.638 144.76 115.646 144.929 114.689 145.099C113.731 145.269 112.918 145.448 112.123 145.627C108.317 146.447 105.435 147.342 105.435 147.342Z" fill="#7E3AF2"/>
<path opacity="0.2" d="M105.435 147.342C112.824 176.05 111.635 206.567 112.08 212.806L148.77 211.289C155.005 168.453 143.81 144.609 143.81 144.609C143.81 144.609 141.458 144.109 138.259 143.742C137.25 143.629 136.173 143.534 135.044 143.468C134.419 143.468 133.786 143.402 133.145 143.393C127.954 143.48 122.771 143.892 117.622 144.628C116.638 144.76 115.646 144.929 114.689 145.099C113.731 145.269 112.918 145.448 112.123 145.627C108.317 146.447 105.435 147.342 105.435 147.342Z" fill="white"/>
<path opacity="0.2" d="M113.243 159.669C113.902 162.45 113.149 175.135 110.515 178.264C110.156 174.202 109.66 169.961 109.044 165.626L113.243 159.669Z" fill="black"/>
<path d="M135.3 143.45H135.035C134.411 143.45 133.778 143.384 133.136 143.374C127.93 143.472 122.733 143.897 117.571 144.647C116.818 144.75 116.065 144.873 115.321 145.005L116.459 146.079C119.829 149.255 123.754 152.196 129.57 152.196H130.314C133.282 152.064 135.18 150.999 135.976 149.01C136.274 148.091 136.368 147.107 136.251 146.139C136.133 145.172 135.807 144.25 135.3 143.45Z" fill="white"/>
<path d="M117.819 125.156C119.17 130.594 120.829 140.632 117.579 144.599C120.504 147.361 124.293 150.509 130.254 150.254C136.215 150 134.873 145.542 133.145 143.327C127.457 142.309 127.295 137.729 128.013 133.365L117.819 125.156Z" fill="#B55B52"/>
<path opacity="0.2" d="M121.958 128.54L127.945 133.393C127.774 134.41 127.683 135.441 127.671 136.475C125.516 136.306 122.411 133.968 122.018 131.527C121.832 130.544 121.812 129.531 121.958 128.54Z" fill="black"/>
<path d="M132.315 119.907C134.265 122.093 137.849 110.171 134.026 107.278C130.203 104.384 122.754 109.134 132.315 119.907Z" fill="#263238"/>
<path d="M116.656 116.928C117.579 124.365 117.776 128.775 121.462 132.328C127.004 137.672 135.146 133.563 136.258 125.976C137.259 119.143 135.582 108.126 128.749 105.694C127.243 105.15 125.636 105.039 124.08 105.372C122.524 105.705 121.072 106.47 119.86 107.596C118.648 108.722 117.718 110.17 117.157 111.803C116.596 113.437 116.424 115.201 116.656 116.928Z" fill="#B55B52"/>
<path d="M117.536 123.667C119.752 125.552 121.693 113.14 117.536 110.906C113.38 108.672 106.589 114.591 117.536 123.667Z" fill="#263238"/>
<path d="M114.937 112.593C121.445 115.053 139.739 112.763 136.506 98.0885C135.129 91.7552 128.903 97.1461 128.475 100.652C125.294 97.7681 119.384 98.3996 120.077 103.008C116.647 101.906 103.681 105.364 114.937 112.593Z" fill="#263238"/>
<path d="M114.15 125.42C114.657 126.18 115.297 126.82 116.031 127.306C116.765 127.791 117.579 128.111 118.426 128.248C120.675 128.606 121.505 126.306 120.633 124.138C119.846 122.187 117.733 119.652 115.595 120.293C113.457 120.934 112.918 123.545 114.15 125.42Z" fill="#B55B52"/>
<path d="M146.478 370.198L134.855 370.396C134.855 370.396 138.73 319.795 137.686 296.252C137.37 289.089 136.061 279.071 134.342 268.336C132.178 254.802 131.135 249.411 128.355 232.315C126.354 220.119 124.678 212.278 124.678 212.278L148.796 211.279C148.796 211.279 156.228 270.768 155.997 293.849C155.732 317.825 146.478 370.198 146.478 370.198Z" fill="#263238"/>
<path opacity="0.2" d="M133.017 227.885C137.344 239.76 137.43 267.582 135.437 275.414C135.095 273.096 134.727 270.702 134.342 268.308C132.17 254.774 131.126 249.383 128.355 232.287C128.304 231.947 128.244 231.618 128.193 231.288C129.611 229.856 131.243 228.704 133.017 227.885Z" fill="black"/>
<path d="M135.762 211.788C135.762 211.788 131.383 274.49 128.159 296.375C124.635 320.332 113.671 370.368 113.671 370.368H101.099C101.099 370.368 105.247 325.129 107.821 301.568C110.746 274.801 112.097 212.74 112.097 212.74L135.762 211.788Z" fill="#263238"/>
<path d="M115.176 370.669H100.372V365.797L116.921 365.476L115.176 370.669Z" fill="#7E3AF2"/>
<path opacity="0.5" d="M115.176 370.669H100.372V365.797L116.921 365.476L115.176 370.669Z" fill="white"/>
<path d="M147.941 370.443L134.094 370.679L134.017 365.75L149.497 365.222L147.941 370.443Z" fill="#7E3AF2"/>
<path opacity="0.5" d="M147.941 370.443L134.094 370.679L134.017 365.75L149.497 365.222L147.941 370.443Z" fill="white"/>
<path d="M127.09 118.173C127.09 118.785 127.457 119.256 127.817 119.219C128.176 119.181 128.432 118.672 128.39 118.069C128.347 117.466 128.03 116.994 127.663 117.023C127.295 117.051 127.03 117.617 127.09 118.173Z" fill="#263238"/>
<path d="M133.325 117.664C133.325 118.276 133.692 118.738 134.06 118.71C134.428 118.681 134.676 118.163 134.633 117.56C134.59 116.957 134.265 116.476 133.906 116.504C133.547 116.533 133.29 117.051 133.325 117.664Z" fill="#263238"/>
<path d="M131.366 118.125C132.148 119.934 133.152 121.615 134.351 123.121C133.998 123.443 133.586 123.677 133.143 123.808C132.7 123.938 132.237 123.961 131.785 123.874L131.366 118.125Z" fill="#A02724"/>
<path d="M129.536 125.693C128.914 125.665 128.304 125.497 127.743 125.199C127.183 124.9 126.684 124.479 126.277 123.959C126.251 123.921 126.24 123.872 126.246 123.824C126.253 123.777 126.276 123.734 126.311 123.705C126.347 123.676 126.391 123.664 126.434 123.671C126.477 123.678 126.516 123.704 126.542 123.743C127.001 124.31 127.575 124.75 128.217 125.027C128.859 125.303 129.551 125.409 130.237 125.335C130.279 125.333 130.32 125.348 130.352 125.378C130.384 125.408 130.404 125.45 130.408 125.496C130.41 125.52 130.408 125.544 130.402 125.568C130.395 125.591 130.384 125.613 130.37 125.631C130.355 125.65 130.338 125.665 130.318 125.676C130.298 125.686 130.276 125.692 130.254 125.693C130.015 125.712 129.775 125.712 129.536 125.693Z" fill="#263238"/>
<path d="M125.011 116.109C124.956 116.109 124.902 116.089 124.857 116.052C124.785 116.002 124.734 115.922 124.715 115.83C124.696 115.738 124.71 115.642 124.755 115.562C125.027 115.073 125.403 114.663 125.849 114.368C126.296 114.073 126.801 113.9 127.321 113.865C127.407 113.865 127.489 113.903 127.55 113.97C127.611 114.038 127.646 114.129 127.646 114.224C127.646 114.319 127.611 114.41 127.55 114.477C127.489 114.544 127.407 114.582 127.321 114.582C126.912 114.617 126.518 114.759 126.169 114.997C125.821 115.235 125.53 115.561 125.319 115.948C125.288 116.005 125.242 116.051 125.187 116.08C125.133 116.108 125.071 116.118 125.011 116.109Z" fill="#263238"/>
<path d="M135.856 115.081C135.803 115.077 135.752 115.058 135.708 115.027C135.663 114.996 135.626 114.953 135.599 114.902C135.403 114.507 135.125 114.168 134.787 113.913C134.45 113.657 134.063 113.493 133.658 113.432C133.572 113.432 133.489 113.394 133.428 113.327C133.367 113.26 133.333 113.169 133.333 113.074C133.333 112.979 133.367 112.888 133.428 112.821C133.489 112.753 133.572 112.716 133.658 112.716C134.17 112.781 134.661 112.98 135.089 113.297C135.518 113.613 135.872 114.037 136.121 114.535C136.144 114.575 136.159 114.62 136.165 114.667C136.171 114.714 136.169 114.762 136.157 114.808C136.146 114.854 136.126 114.897 136.1 114.934C136.073 114.971 136.039 115.002 136.001 115.025C135.958 115.056 135.908 115.075 135.856 115.081Z" fill="#263238"/>
<path d="M112.396 381.055C111.791 381.036 111.188 380.945 110.6 380.782C110.569 380.773 110.541 380.754 110.52 380.727C110.498 380.7 110.485 380.667 110.481 380.631C110.476 380.596 110.481 380.561 110.495 380.529C110.508 380.497 110.53 380.47 110.558 380.452C110.806 380.283 113.021 378.784 113.782 379.208C113.864 379.259 113.932 379.333 113.98 379.422C114.028 379.512 114.054 379.613 114.056 379.717C114.075 379.892 114.054 380.07 113.996 380.234C113.938 380.399 113.844 380.545 113.722 380.66C113.332 380.949 112.866 381.088 112.396 381.055ZM111.071 380.565C112.242 380.82 113.132 380.773 113.508 380.424C113.592 380.347 113.657 380.248 113.696 380.136C113.735 380.023 113.747 379.902 113.731 379.783C113.733 379.74 113.725 379.697 113.707 379.659C113.689 379.621 113.661 379.589 113.628 379.566C113.235 379.302 111.977 379.953 111.071 380.565Z" fill="#7E3AF2"/>
<path d="M110.643 380.782C110.612 380.792 110.58 380.792 110.549 380.782C110.525 380.766 110.505 380.742 110.493 380.713C110.481 380.685 110.477 380.653 110.481 380.622C110.481 380.527 110.652 378.341 111.447 377.625C111.541 377.534 111.651 377.466 111.771 377.427C111.89 377.388 112.016 377.378 112.14 377.398C112.261 377.398 112.378 377.444 112.471 377.528C112.565 377.612 112.629 377.73 112.653 377.86C112.798 378.709 111.43 380.367 110.72 380.791L110.643 380.782ZM112.029 377.738C111.889 377.736 111.755 377.794 111.652 377.898C111.157 378.573 110.859 379.398 110.797 380.264C111.507 379.67 112.379 378.379 112.294 377.926C112.294 377.879 112.294 377.766 112.054 377.738H111.986H112.029Z" fill="#7E3AF2"/>
<path d="M143.793 380.622C143.765 380.609 143.741 380.588 143.723 380.562C143.705 380.535 143.694 380.504 143.69 380.471C143.683 380.436 143.687 380.399 143.701 380.367C143.715 380.334 143.738 380.308 143.767 380.292C144.084 380.103 146.82 378.52 147.659 379.01C147.737 379.058 147.804 379.127 147.852 379.211C147.9 379.296 147.927 379.392 147.932 379.491C147.952 379.652 147.936 379.816 147.885 379.969C147.835 380.122 147.751 380.258 147.641 380.367C146.897 381.112 144.93 380.848 143.818 380.622H143.793ZM147.445 379.302C146.923 379.114 145.435 379.764 144.357 380.358C145.88 380.612 147.009 380.518 147.419 380.103C147.492 380.031 147.548 379.94 147.58 379.838C147.613 379.736 147.623 379.626 147.607 379.519C147.608 379.48 147.599 379.442 147.58 379.409C147.562 379.375 147.536 379.348 147.505 379.331L147.445 379.302Z" fill="#7E3AF2"/>
<path d="M143.793 380.622C143.769 380.604 143.749 380.581 143.736 380.553C143.722 380.525 143.715 380.493 143.716 380.462C143.716 380.377 143.878 378.332 144.742 377.531C144.858 377.417 144.994 377.331 145.141 377.276C145.287 377.221 145.443 377.199 145.597 377.21C146.042 377.21 146.179 377.493 146.213 377.7C146.35 378.548 144.734 380.217 143.904 380.641C143.866 380.647 143.827 380.64 143.793 380.622ZM145.743 377.568H145.58C145.461 377.556 145.341 377.572 145.227 377.614C145.114 377.656 145.01 377.724 144.922 377.813C144.424 378.48 144.126 379.299 144.066 380.16C144.922 379.585 145.999 378.275 145.914 377.766C145.897 377.738 145.845 377.615 145.743 377.568Z" fill="#7E3AF2"/>
<path d="M113.029 157.059L106.581 172.544C105.529 175.135 104.451 177.708 103.45 180.31C102.954 181.601 102.424 182.892 101.954 184.183L101.586 185.126C101.466 185.455 101.398 185.682 101.304 185.955C101.107 186.483 100.979 187.067 100.816 187.623C100.237 190.033 99.9215 192.51 99.8755 195.003C99.799 197.665 99.8962 200.329 100.166 202.976C100.431 205.671 100.833 208.395 101.347 211.109C101.86 213.824 102.475 216.595 103.143 219.168L98.413 221.429C97.7203 220.016 97.1472 218.706 96.5913 217.311C96.0354 215.916 95.5223 214.549 95.0348 213.136C94.0615 210.293 93.2559 207.384 92.6229 204.427C91.1678 198.2 90.9028 191.707 91.8447 185.361C92.0157 184.532 92.1611 183.693 92.4006 182.854L92.7256 181.629L93.042 180.564C93.4526 179.141 93.8973 177.737 94.3249 176.342C95.2315 173.514 96.1552 170.8 97.1558 168.086C99.1314 162.619 101.278 157.323 103.673 152.064L113.029 157.059Z" fill="#B65B52"/>
<path d="M105.435 147.342C99.1742 149.51 93.0164 172.911 93.0164 172.911L107.504 179.895C107.504 179.895 112.191 168.585 114.885 159.726C117.827 150.066 113.021 144.722 105.435 147.342Z" fill="#7E3AF2"/>
<path opacity="0.2" d="M105.435 147.342C99.1742 149.51 93.0164 172.911 93.0164 172.911L107.504 179.895C107.504 179.895 112.191 168.585 114.885 159.726C117.827 150.066 113.021 144.722 105.435 147.342Z" fill="white"/>
<path d="M102.758 217.886L106.136 224.606L98.1736 226.886C98.1736 226.886 95.7617 220.374 98.6097 218.3L102.758 217.886Z" fill="#B55B52"/>
<path d="M106.726 232.23L99.4137 232.899L98.1736 226.886L106.136 224.606L106.726 232.23Z" fill="#B55B52"/>
<path d="M250.186 262.144C250.124 264.477 249.24 266.691 247.722 268.319C246.204 269.946 244.171 270.858 242.053 270.862H220.535C222.311 273.574 223.373 276.773 223.604 280.108C223.835 283.443 223.226 286.784 221.844 289.761C220.462 292.739 218.361 295.238 215.772 296.983C213.183 298.729 210.206 299.652 207.171 299.652C204.136 299.652 201.16 298.729 198.571 296.983C195.982 295.238 193.881 292.739 192.499 289.761C191.117 286.784 190.507 283.443 190.739 280.108C190.97 276.773 192.032 273.574 193.808 270.862H172.281C170.128 270.857 168.064 269.912 166.541 268.234C165.018 266.556 164.161 264.281 164.156 261.908V185.022C164.161 182.648 165.018 180.372 166.541 178.693C168.063 177.013 170.127 176.066 172.281 176.059H242.053C244.171 176.065 246.203 176.98 247.72 178.609C249.236 180.238 250.118 182.453 250.178 184.786V208.734C247.717 206.782 244.816 205.616 241.793 205.365C238.769 205.113 235.742 205.786 233.043 207.309C230.345 208.832 228.08 211.147 226.499 213.997C224.917 216.848 224.081 220.124 224.081 223.465C224.081 226.806 224.917 230.082 226.499 232.933C228.08 235.783 230.345 238.098 233.043 239.621C235.742 241.144 238.769 241.817 241.793 241.565C244.816 241.314 247.717 240.148 250.178 238.196V261.908C250.176 261.987 250.179 262.066 250.186 262.144Z" fill="#7E3AF2"/>
<path opacity="0.3" d="M207.167 296.884C204.588 296.891 202.057 296.111 199.855 294.632C197.653 293.153 195.865 291.032 194.688 288.503C193.512 285.973 192.993 283.135 193.19 280.301C193.386 277.467 194.29 274.748 195.801 272.445L198.606 268.157H172.281C170.78 268.152 169.341 267.492 168.28 266.321C167.219 265.15 166.622 263.563 166.62 261.909V185.022C166.62 183.365 167.215 181.777 168.277 180.603C169.338 179.43 170.778 178.769 172.281 178.764H242.053C243.529 178.775 244.943 179.415 246 180.55C247.057 181.685 247.675 183.227 247.723 184.852V203.975C247.722 203.994 247.717 204.012 247.708 204.029C247.699 204.045 247.687 204.059 247.672 204.069C247.656 204.078 247.639 204.083 247.621 204.083C247.603 204.083 247.585 204.078 247.569 204.069C245.348 203.087 242.976 202.585 240.582 202.59C238.062 202.531 235.557 203.026 233.213 204.048C230.869 205.07 228.734 206.597 226.933 208.54C225.132 210.483 223.701 212.803 222.724 215.364C221.747 217.924 221.244 220.674 221.244 223.451C221.244 226.229 221.747 228.978 222.724 231.539C223.701 234.099 225.132 236.419 226.933 238.362C228.734 240.305 230.869 241.832 233.213 242.854C235.557 243.876 238.062 244.372 240.582 244.313C242.976 244.32 245.349 243.818 247.569 242.833C247.585 242.824 247.603 242.819 247.621 242.819C247.639 242.819 247.656 242.824 247.672 242.833C247.687 242.843 247.699 242.857 247.708 242.873C247.717 242.89 247.722 242.908 247.723 242.927V262.154C247.643 263.757 247.012 265.266 245.959 266.376C244.906 267.485 243.51 268.112 242.053 268.129H215.754L218.533 272.408C218.553 272.43 218.564 272.461 218.564 272.492C218.564 272.524 218.553 272.554 218.533 272.577C218.524 272.588 218.513 272.596 218.5 272.602C218.488 272.608 218.474 272.611 218.461 272.611C218.447 272.611 218.434 272.608 218.421 272.602C218.409 272.596 218.398 272.588 218.388 272.577L215.48 268.101C215.47 268.082 215.464 268.061 215.464 268.039C215.464 268.018 215.47 267.996 215.48 267.978C215.49 267.961 215.504 267.946 215.521 267.936C215.537 267.927 215.556 267.921 215.574 267.921H242.087C243.487 267.903 244.828 267.3 245.84 266.235C246.853 265.17 247.462 263.722 247.544 262.182V243.125C245.336 244.075 242.986 244.561 240.616 244.558C237.8 244.562 235.018 243.883 232.468 242.567C229.918 241.252 227.662 239.333 225.862 236.946C224.062 234.56 222.761 231.766 222.053 228.763C221.345 225.76 221.246 222.621 221.765 219.571C222.283 216.521 223.405 213.635 225.052 211.118C226.698 208.6 228.828 206.514 231.29 205.008C233.752 203.501 236.485 202.611 239.294 202.402C242.103 202.193 244.92 202.669 247.544 203.796V184.862C247.497 183.297 246.903 181.813 245.886 180.72C244.869 179.627 243.508 179.011 242.087 179H172.281C171.565 179.001 170.855 179.158 170.194 179.461C169.532 179.764 168.931 180.208 168.425 180.767C167.92 181.327 167.519 181.99 167.245 182.72C166.972 183.45 166.832 184.232 166.833 185.022V261.909C166.833 263.502 167.407 265.03 168.429 266.157C169.45 267.284 170.836 267.919 172.281 267.921H198.794C198.813 267.919 198.832 267.923 198.849 267.934C198.866 267.944 198.88 267.959 198.888 267.978C198.899 267.996 198.905 268.018 198.905 268.039C198.905 268.061 198.899 268.082 198.888 268.101L195.963 272.587C194.264 275.161 193.348 278.262 193.346 281.446C193.346 285.48 194.801 289.349 197.389 292.202C199.978 295.055 203.489 296.657 207.15 296.657C210.811 296.657 214.322 295.055 216.911 292.202C219.5 289.349 220.954 285.48 220.954 281.446C220.954 281.416 220.965 281.387 220.984 281.366C221.003 281.345 221.029 281.333 221.056 281.333C221.071 281.331 221.085 281.333 221.098 281.339C221.112 281.344 221.124 281.352 221.135 281.362C221.145 281.373 221.153 281.386 221.159 281.4C221.165 281.415 221.168 281.43 221.168 281.446C221.161 285.536 219.684 289.457 217.06 292.35C214.436 295.244 210.879 296.874 207.167 296.884Z" fill="white"/>
<path d="M328.092 176.05H306.582C308.352 178.763 309.409 181.962 309.636 185.294C309.863 188.627 309.251 191.963 307.868 194.937C306.484 197.911 304.383 200.407 301.795 202.149C299.208 203.892 296.234 204.814 293.201 204.814C290.169 204.814 287.195 203.892 284.607 202.149C282.02 200.407 279.919 197.911 278.535 194.937C277.152 191.963 276.54 188.627 276.767 185.294C276.994 181.962 278.051 178.763 279.821 176.05H258.311C256.158 176.057 254.094 177.002 252.571 178.68C251.047 180.357 250.187 182.63 250.178 185.003V208.725C247.717 206.773 244.816 205.607 241.793 205.355C238.769 205.104 235.742 205.777 233.043 207.3C230.345 208.823 228.08 211.137 226.499 213.988C224.917 216.839 224.081 220.115 224.081 223.456C224.081 226.797 224.917 230.073 226.499 232.924C228.08 235.774 230.345 238.088 233.043 239.612C235.742 241.135 238.769 241.808 241.793 241.556C244.816 241.305 247.717 240.139 250.178 238.187V261.909C250.185 264.283 251.044 266.559 252.568 268.238C254.091 269.917 256.156 270.864 258.311 270.871H328.092C330.246 270.864 332.31 269.917 333.832 268.237C335.355 266.558 336.212 264.282 336.216 261.909V185.012C336.212 182.639 335.355 180.363 333.832 178.684C332.31 177.004 330.246 176.057 328.092 176.05Z" fill="#263238"/>
<path opacity="0.3" d="M328.092 268.157H258.311C256.807 268.157 255.365 267.499 254.302 266.327C253.238 265.155 252.641 263.566 252.641 261.909V232.899L248.75 235.991C246.659 237.652 244.192 238.645 241.622 238.86C239.051 239.074 236.477 238.502 234.183 237.207C231.889 235.911 229.964 233.942 228.621 231.517C227.278 229.092 226.57 226.306 226.573 223.465C226.572 223.45 226.573 223.434 226.578 223.419C226.583 223.404 226.59 223.391 226.6 223.379C226.609 223.368 226.621 223.358 226.634 223.352C226.647 223.346 226.661 223.343 226.675 223.343C226.705 223.343 226.733 223.356 226.754 223.379C226.775 223.402 226.787 223.433 226.787 223.465C226.783 226.262 227.481 229.006 228.803 231.393C230.125 233.781 232.02 235.72 234.278 236.996C236.537 238.272 239.072 238.836 241.602 238.625C244.133 238.415 246.562 237.438 248.621 235.802L252.684 232.579C252.7 232.567 252.719 232.561 252.738 232.56C252.757 232.558 252.776 232.563 252.794 232.572C252.811 232.582 252.826 232.596 252.836 232.614C252.847 232.631 252.853 232.652 252.855 232.673V261.89C252.855 263.484 253.43 265.014 254.453 266.141C255.476 267.269 256.864 267.903 258.311 267.903H328.092C329.539 267.903 330.927 267.269 331.95 266.141C332.973 265.014 333.548 263.484 333.548 261.89V185.012C333.546 183.419 332.97 181.891 331.947 180.763C330.925 179.636 329.538 179.002 328.092 179H311.055C312.18 182.197 312.581 185.649 312.224 189.056C311.866 192.463 310.76 195.722 309.001 198.552C307.243 201.382 304.885 203.697 302.132 205.296C299.379 206.896 296.314 207.732 293.201 207.732C290.089 207.732 287.024 206.896 284.271 205.296C281.518 203.697 279.16 201.382 277.401 198.552C275.643 195.722 274.537 192.463 274.179 189.056C273.821 185.649 274.223 182.197 275.348 179H258.311C256.865 179.002 255.478 179.636 254.455 180.763C253.433 181.891 252.857 183.419 252.855 185.012V214.229C252.854 214.252 252.848 214.274 252.837 214.294C252.827 214.313 252.812 214.33 252.795 214.342C252.778 214.351 252.759 214.356 252.739 214.356C252.72 214.356 252.701 214.351 252.684 214.342L248.621 211.119C246.284 209.25 243.47 208.244 240.582 208.244C240.555 208.244 240.529 208.232 240.509 208.211C240.49 208.19 240.479 208.161 240.479 208.131C240.478 208.116 240.48 208.1 240.485 208.085C240.489 208.07 240.497 208.057 240.506 208.045C240.516 208.034 240.528 208.024 240.541 208.018C240.554 208.012 240.568 208.009 240.582 208.009C243.515 208.007 246.374 209.026 248.75 210.921L252.641 214.012V185.012C252.643 183.356 253.241 181.768 254.304 180.597C255.367 179.426 256.808 178.766 258.311 178.764H275.502C275.521 178.765 275.539 178.77 275.555 178.78C275.571 178.79 275.585 178.804 275.596 178.82C275.602 178.837 275.606 178.854 275.606 178.872C275.606 178.89 275.602 178.908 275.596 178.924C274.707 181.379 274.254 184 274.262 186.643C274.367 192.099 276.408 197.292 279.947 201.11C283.485 204.928 288.241 207.066 293.193 207.066C298.145 207.066 302.9 204.928 306.439 201.11C309.978 197.292 312.019 192.099 312.124 186.643C312.131 184 311.678 181.379 310.79 178.924C310.781 178.908 310.777 178.89 310.777 178.872C310.777 178.854 310.781 178.836 310.79 178.82C310.8 178.803 310.814 178.789 310.83 178.779C310.847 178.769 310.865 178.764 310.884 178.764H328.074C329.578 178.766 331.019 179.426 332.081 180.597C333.144 181.768 333.743 183.356 333.745 185.012V261.909C333.743 263.562 333.147 265.147 332.088 266.318C331.028 267.488 329.592 268.15 328.092 268.157Z" fill="white"/>
</svg>
