<svg width="24" height="24" viewBox="0 0 24 24" fill="none" xmlns="http://www.w3.org/2000/svg">
<path d="M12 6.6C13.1046 6.6 14 5.79411 14 4.8C14 3.80589 13.1046 3 12 3C10.8954 3 10 3.80589 10 4.8C10 5.79411 10.8954 6.6 12 6.6Z" fill="#6B7280"/>
<path d="M12 13.8C13.1046 13.8 14 12.9941 14 12C14 11.0059 13.1046 10.2 12 10.2C10.8954 10.2 10 11.0059 10 12C10 12.9941 10.8954 13.8 12 13.8Z" fill="#6B7280"/>
<path d="M12 21C13.1046 21 14 20.1941 14 19.2C14 18.2059 13.1046 17.4 12 17.4C10.8954 17.4 10 18.2059 10 19.2C10 20.1941 10.8954 21 12 21Z" fill="#6B7280"/>
</svg>
