<svg width="84" height="84" viewBox="0 0 84 84" fill="none" xmlns="http://www.w3.org/2000/svg">
<path fill-rule="evenodd" clip-rule="evenodd" d="M41.6667 75C34.0879 75.0121 26.7332 72.4301 20.825 67.6833L20.8333 67.6875V64.8417C20.8333 57.3667 27.05 51.3 34.7208 51.3H48.6125C56.2792 51.3 62.5 57.3667 62.5 64.8417V67.6875C56.5935 72.431 49.2421 75.0114 41.6667 75ZM0 41.6667C0 18.6542 18.6542 0 41.6667 0C64.6792 0 83.3333 18.6542 83.3333 41.6667C83.3333 64.5833 64.8333 83.1792 41.95 83.3333H41.375C18.4917 83.175 0 64.5833 0 41.6667ZM41.6667 20.8333C34 20.8333 27.7792 26.8958 27.7792 34.375C27.7792 41.8542 33.9958 47.9167 41.6667 47.9167C49.3333 47.9167 55.5542 41.8542 55.5542 34.375C55.5542 26.8958 49.3375 20.8333 41.6667 20.8333Z" fill="#D1D5DB"/>
</svg>
