<svg width="500" height="500" viewBox="0 0 500 500" fill="none" xmlns="http://www.w3.org/2000/svg">
<path d="M435.46 96.4L433.03 92.4C412.51 58.59 375.42 38.21 336.31 40.69C331.268 40.9908 326.255 41.6593 321.31 42.69C285.75 50.3 254.81 77.19 241.99 111.63C234.45 131.88 232.34 155.2 217.99 171.28C199.43 192.24 167.81 192.9 140 192C112.19 191.1 80.5501 191.87 62.0001 212.88C50.3901 226.03 46.7001 244.74 47.6401 262.35C50.1101 309 82.6401 350.7 123.95 371.43C165.26 392.16 214 394 259.2 384.93C322.57 372.15 382.83 337.07 419.05 282.93C455.27 228.79 464.45 154.88 435.46 96.4Z" fill="#F5F5F5"/>
<path d="M147.466 92.0405C151.227 76.3131 141.527 60.5144 125.799 56.7531C110.072 52.9918 94.2734 62.6923 90.5121 78.4197C86.7508 94.147 96.4512 109.946 112.179 113.707C127.906 117.468 143.705 107.768 147.466 92.0405Z" fill="#F5F5F5"/>
<path d="M448.06 465.3C448.06 465.45 359.38 465.56 250.06 465.56C140.74 465.56 51.99 465.45 51.99 465.3C51.99 465.15 140.6 465 250 465C359.4 465 448.06 465.16 448.06 465.3Z" fill="#263238"/>
<path d="M267.49 93.59C267.92 86.08 272.54 81.46 279.02 77.59C282.283 75.6914 285.956 74.609 289.727 74.4349C293.499 74.2608 297.256 75.0001 300.68 76.59C305.23 78.75 309.21 82.45 314.2 83.09C322.42 84.15 330.2 76.53 338.27 78.44C340.702 78.9898 342.866 80.3727 344.386 82.3492C345.907 84.3258 346.688 86.7718 346.596 89.2637C346.503 91.7557 345.542 94.1369 343.879 95.9953C342.217 97.8536 339.956 99.0722 337.49 99.44C342.87 100.23 345.92 107.03 343.93 112.1C341.94 117.17 336.29 120.1 330.85 120.22C325.41 120.34 320.18 118.11 315.48 115.38C310.78 112.65 306.38 109.38 301.48 107.02C296.58 104.66 290.93 103.3 285.67 104.7C278.56 106.59 273.51 113.31 271.67 120.44C269.83 127.57 270.61 135.1 271.72 142.38C272.83 149.66 274.23 157 273.53 164.38C273.555 164.811 273.478 165.241 273.304 165.636C273.13 166.03 272.865 166.378 272.53 166.65C271.44 167.25 270.19 166.22 269.38 165.26C260.24 154.433 253.316 141.916 249 128.42C246.52 120.61 245.15 113.02 248.13 105.42C251.11 97.82 261.13 90.52 267.48 93.62" fill="#263238"/>
<path d="M260.56 129.91L272.56 204.15C274.81 218.01 283.82 231.4 305.56 226.85C324.13 221.48 322.75 208.12 320.33 191.64C320.33 191.64 340.77 186.32 338.94 165.54C338.05 155.54 334.55 134.96 331.16 116.42C329.402 106.815 324.093 98.2249 316.288 92.3581C308.483 86.4914 298.755 83.7787 289.04 84.76L287.04 84.96C265.61 88.39 256.54 108.54 260.56 129.91Z" fill="#FFBF9D"/>
<path d="M320.38 191.64C320.38 191.64 307.38 193.72 292.55 186.37C292.55 186.37 300.7 201.81 321.23 197.85L320.38 191.64Z" fill="#FF9A6C"/>
<path d="M324.17 137.21C324.247 137.98 324.024 138.75 323.547 139.36C323.07 139.969 322.376 140.37 321.61 140.48C321.236 140.549 320.853 140.542 320.482 140.46C320.111 140.377 319.761 140.222 319.451 140.002C319.142 139.782 318.879 139.502 318.68 139.178C318.48 138.855 318.348 138.495 318.29 138.12C318.21 137.35 318.43 136.578 318.905 135.967C319.38 135.356 320.074 134.952 320.84 134.84C321.215 134.771 321.6 134.779 321.972 134.861C322.344 134.944 322.695 135.101 323.006 135.321C323.316 135.542 323.579 135.823 323.779 136.148C323.979 136.472 324.112 136.833 324.17 137.21Z" fill="#263238"/>
<path d="M327.78 127.05C327.45 127.47 325.03 126.05 321.84 126.37C318.65 126.69 316.48 128.53 316.09 128.17C315.91 128.02 316.21 127.28 317.15 126.44C318.436 125.345 320.028 124.671 321.71 124.51C323.365 124.334 325.034 124.684 326.48 125.51C327.54 126.19 327.94 126.86 327.78 127.05Z" fill="#263238"/>
<path d="M294.28 139.12C294.36 139.89 294.14 140.662 293.665 141.273C293.189 141.884 292.496 142.288 291.73 142.4C291.353 142.468 290.966 142.46 290.592 142.376C290.218 142.291 289.866 142.132 289.555 141.908C289.244 141.684 288.981 141.399 288.783 141.072C288.585 140.744 288.454 140.379 288.4 140C288.32 139.228 288.542 138.456 289.019 137.844C289.496 137.233 290.192 136.83 290.96 136.72C291.336 136.653 291.722 136.663 292.095 136.748C292.467 136.833 292.819 136.992 293.129 137.216C293.438 137.44 293.7 137.724 293.898 138.051C294.095 138.378 294.225 138.742 294.28 139.12Z" fill="#263238"/>
<path d="M296.48 130.8C296.15 131.22 293.74 129.8 290.55 130.12C287.36 130.44 285.18 132.28 284.8 131.92C284.61 131.76 284.91 131.03 285.86 130.18C287.145 129.084 288.738 128.413 290.42 128.26C292.076 128.081 293.746 128.431 295.19 129.26C296.24 129.94 296.64 130.61 296.48 130.8Z" fill="#263238"/>
<path d="M310.44 153.29C310.44 153.11 312.35 152.57 315.52 151.84C316.33 151.67 317.08 151.43 317.16 150.84C317.151 149.992 316.878 149.167 316.38 148.48C315.413 146.593 314.413 144.593 313.38 142.48C309.14 133.99 305.99 126.97 306.33 126.8C306.67 126.63 310.39 133.38 314.62 141.88C315.62 143.97 316.62 145.97 317.56 147.88C318.167 148.815 318.429 149.933 318.3 151.04C318.214 151.34 318.059 151.616 317.847 151.845C317.635 152.074 317.372 152.25 317.08 152.36C316.643 152.531 316.186 152.645 315.72 152.7C312.47 153.25 310.47 153.47 310.44 153.29Z" fill="#263238"/>
<path d="M296.05 118.22C295.82 119.11 292.59 119.02 288.9 119.85C285.21 120.68 282.28 122 281.7 121.28C281.44 120.93 281.89 120.06 283.02 119.09C284.536 117.881 286.319 117.051 288.22 116.67C290.11 116.249 292.074 116.28 293.95 116.76C295.38 117.18 296.14 117.79 296.05 118.22Z" fill="#263238"/>
<path d="M325.67 117.94C325.19 118.72 322.91 118.19 320.27 118.42C317.63 118.65 315.44 119.42 314.85 118.69C314.58 118.34 314.85 117.58 315.77 116.8C317.001 115.846 318.488 115.278 320.042 115.17C321.597 115.061 323.148 115.416 324.5 116.19C325.5 116.84 325.89 117.56 325.67 117.94Z" fill="#263238"/>
<path d="M263.8 145.11C263.43 144.99 249.12 142.32 251 156.47C252.88 170.62 266.69 165.81 266.66 165.4C266.63 164.99 263.8 145.11 263.8 145.11Z" fill="#FFBF9D"/>
<path d="M261.63 160.62C261.56 160.62 261.4 160.82 261.01 161.07C260.46 161.398 259.803 161.499 259.18 161.35C257.61 161 256.03 158.79 255.63 156.25C255.432 155.042 255.507 153.805 255.85 152.63C255.921 152.171 256.105 151.736 256.384 151.365C256.663 150.993 257.029 150.696 257.45 150.5C257.725 150.382 258.034 150.368 258.319 150.46C258.603 150.552 258.845 150.744 259 151C259.25 151.37 259.19 151.66 259.27 151.68C259.35 151.7 259.54 151.4 259.35 150.83C259.227 150.491 258.99 150.204 258.68 150.02C258.252 149.777 257.745 149.712 257.27 149.84C256.705 150.032 256.198 150.365 255.797 150.808C255.396 151.251 255.115 151.788 254.98 152.37C254.544 153.677 254.43 155.07 254.65 156.43C255.12 159.27 256.94 161.74 259.06 162.06C259.455 162.12 259.858 162.091 260.241 161.975C260.623 161.859 260.975 161.659 261.27 161.39C261.65 161 261.68 160.63 261.63 160.62Z" fill="#FF9A6C"/>
<path d="M329.52 97.06C327.26 93.17 323.64 90.24 319.79 87.9C311.483 82.7342 301.758 80.3197 292 81C282.215 81.7628 273.109 86.2945 266.6 93.64C261.626 99.6711 258.528 107.028 257.69 114.8C256.885 122.535 257.626 130.354 259.87 137.8C260.8 141.08 262.06 144.45 264.65 146.67C266.27 148.05 268.88 148.81 270.43 147.35C271.239 146.382 271.704 145.171 271.75 143.91C273.38 132.68 274.89 120.64 269.82 110.49C272.061 106.585 275.08 103.181 278.69 100.49C280.503 99.1652 282.561 98.2126 284.744 97.6874C286.927 97.1622 289.193 97.0747 291.41 97.43C297.93 98.75 302.41 104.51 307.93 108.28C311.88 110.953 316.41 112.648 321.144 113.225C325.879 113.802 330.683 113.245 335.16 111.6L329.52 97.06Z" fill="#263238"/>
<path d="M313.24 161.91C313.079 163.255 312.722 164.569 312.18 165.81C311.909 166.43 311.508 166.985 311.005 167.437C310.501 167.889 309.906 168.228 309.26 168.43C308.555 168.583 307.822 168.555 307.131 168.346C306.44 168.138 305.813 167.757 305.31 167.24C304.305 166.191 303.661 164.85 303.47 163.41C303.26 162.12 303.53 160.48 304.76 160.07C305.288 159.935 305.842 159.935 306.37 160.07L313.59 161.37" fill="#FF9A6C"/>
<path d="M311.73 167.94C311.66 167.74 310.32 168.63 308.09 168.24C306.832 168.031 305.696 167.365 304.9 166.37C304.441 165.755 304.116 165.052 303.944 164.305C303.772 163.558 303.757 162.783 303.9 162.03C303.978 161.645 304.106 161.272 304.28 160.92C304.48 160.59 304.44 160.61 304.73 160.59C305.02 160.57 305.5 160.72 305.88 160.79L307.07 161C308.61 161.28 310.01 161.51 311.18 161.69C313.53 162.05 315 162.19 315.03 162.03C315.06 161.87 313.66 161.43 311.35 160.85C310.2 160.57 308.82 160.24 307.29 159.91L306.11 159.65C305.675 159.543 305.234 159.46 304.79 159.4C304.439 159.366 304.087 159.451 303.79 159.64C303.526 159.825 303.315 160.077 303.18 160.37C302.961 160.821 302.799 161.298 302.7 161.79C302.513 162.712 302.533 163.664 302.76 164.578C302.986 165.491 303.413 166.342 304.01 167.07C304.511 167.651 305.123 168.127 305.81 168.47C306.496 168.814 307.244 169.017 308.01 169.07C309.003 169.179 310.007 169.009 310.91 168.58C311.51 168.29 311.77 168 311.73 167.94Z" fill="#263238"/>
<path d="M343 81.37C343.134 81.6699 343.228 81.9859 343.28 82.31C343.453 83.2265 343.483 84.1642 343.37 85.09C343.137 86.8073 342.563 88.4607 341.682 89.9531C340.801 91.4454 339.631 92.7466 338.24 93.78C334.76 96.55 329.24 97.66 323.59 96.78C317.94 95.9 312.1 93.23 306.1 90.78C300.1 88.33 294 86.63 288.43 87.65C283.54 88.5786 279.101 91.1167 275.82 94.86C273.559 97.3487 271.737 100.202 270.43 103.3C269.52 105.51 269.21 106.8 269.11 106.78C269.132 106.441 269.192 106.105 269.29 105.78C269.508 104.883 269.775 103.998 270.09 103.13C271.295 99.9216 273.071 96.9573 275.33 94.38C278.66 90.4497 283.226 87.7666 288.28 86.77C294.05 85.66 300.43 87.38 306.46 89.88C312.49 92.38 318.16 95.1 323.72 95.88C329.28 96.66 334.5 95.75 337.86 93.19C340.552 91.2344 342.391 88.3211 343 85.05C343.156 83.8283 343.156 82.5917 343 81.37Z" fill="#455A64"/>
<path d="M250.13 124.47C250.052 123.143 250.239 121.814 250.68 120.56C252.024 115.735 254.817 111.438 258.68 108.25C259.788 107.272 261.121 106.585 262.56 106.25C263.57 106.033 264.624 106.152 265.56 106.59C266.19 106.91 266.43 107.24 266.39 107.28C265.254 106.734 263.965 106.597 262.74 106.89C260.52 107.46 258.02 109.89 255.74 112.65C253.838 115.104 252.351 117.854 251.34 120.79C250.51 123 250.28 124.49 250.13 124.47Z" fill="#455A64"/>
<path d="M253.88 136.71C253.907 135.375 254.178 134.057 254.68 132.82C256.796 126.659 261.112 121.495 266.8 118.32C267.93 117.607 269.18 117.105 270.49 116.84C269.407 117.562 268.289 118.23 267.14 118.84C261.812 122.216 257.67 127.169 255.29 133.01C254.884 134.267 254.414 135.502 253.88 136.71Z" fill="#455A64"/>
<path d="M330.08 216.82C330.08 216.82 345.25 236.39 348.9 243.74C352.55 251.09 378.71 332.3 378.71 332.3L367.36 337.07L330.08 216.82Z" fill="#455A64"/>
<path d="M269.05 198.5V188.69L324.17 206.62L338.93 230.25L350.31 263.26L318.41 215.31L269.05 198.5Z" fill="#EBEBEB"/>
<path d="M265.77 207.93C265.77 207.93 242.39 235.93 242.89 254.09C243.39 272 267.68 380.83 267.68 380.83L261.8 400.28L255.43 465.1H387.93L378.71 332.3C377.24 332.22 349.71 256.19 349.71 256.19L318.84 213.4L268.09 195.11L265.77 207.93Z" fill="#455A64"/>
<path d="M366.74 300.67C366.74 300.67 376.01 300.31 380.85 302.47C385.69 304.63 389.78 303.55 393.2 310.24C396.62 316.93 400.62 319.96 401.46 330.11C402.3 340.26 391.34 363.78 384.1 367.11C376.86 370.44 366.74 300.67 366.74 300.67Z" fill="#455A64"/>
<g opacity="0.3">
<path d="M263.09 299.75C263.09 299.75 317.26 350.6 324.15 355.46C331.04 360.32 332.06 391.07 340.55 391.66C349.04 392.25 376.55 371.9 376.55 371.9L295.06 295.13L263.09 299.75Z" fill="black"/>
</g>
<path d="M339.37 345.28C339.37 345.28 327.59 360.35 326.24 364.13C324.89 367.91 323.58 370.42 325.02 371.68C325.537 372.23 326.21 372.608 326.948 372.764C327.687 372.919 328.455 372.845 329.15 372.55C331.07 371.81 340.54 359.32 340.54 359.32C340.54 359.32 327.98 377.23 327.41 380.32C326.84 383.41 329.3 384.91 332.18 384.37C335.06 383.83 340.54 375.74 340.54 375.74C340.54 375.74 332.77 384.74 334.41 386.26C336.05 387.78 337.94 387.97 340.1 386.89C342.26 385.81 347.74 378.71 347.74 378.71C347.74 378.71 343.96 382.71 346.03 383.71C348.1 384.71 348.28 384.81 350.08 383.32C351.88 381.83 367.76 366.32 367.76 366.32L357.76 359.46L339.37 345.28Z" fill="#FFBF9D"/>
<path d="M344.2 354.49C343.65 355.374 343.034 356.216 342.36 357.01L337.76 363.01C335.96 365.34 334.27 367.41 332.99 368.87C332.346 369.692 331.623 370.45 330.83 371.13C331.393 370.251 332.021 369.415 332.71 368.63L337.35 362.69C339.15 360.36 340.82 358.27 342.07 356.79C342.705 355.957 343.418 355.187 344.2 354.49Z" fill="#FF9A6C"/>
<path d="M352.55 361.71C350.591 364.422 348.495 367.032 346.27 369.53C344.172 372.135 341.942 374.632 339.59 377.01C341.545 374.295 343.641 371.685 345.87 369.19C347.968 366.585 350.198 364.088 352.55 361.71Z" fill="#FF9A6C"/>
<path d="M359.24 366.24C357.179 368.875 354.982 371.402 352.66 373.81C350.455 376.338 348.118 378.748 345.66 381.03C347.724 378.397 349.92 375.87 352.24 373.46C354.442 370.929 356.778 368.519 359.24 366.24Z" fill="#FF9A6C"/>
<path d="M272.94 225.34C280.55 223.73 290.21 223.06 297.57 227.23L337.76 263.49C337.76 263.49 394.41 327.04 396.63 330.58C398.85 334.12 401.84 355.04 393.26 365.7C384.68 376.36 375 372.26 364 369.75C355.29 367.75 294.38 323 269.34 304.41C260.639 298.004 254.364 288.839 251.54 278.41C249.63 271.701 248.952 264.701 249.54 257.75" fill="#455A64"/>
<path d="M249.55 257.8C249.55 257.8 249.55 258.16 249.48 258.85C249.41 259.54 249.38 260.56 249.36 261.91C249.36 265.843 249.755 269.766 250.54 273.62C251.083 276.404 251.818 279.147 252.74 281.83C253.867 285.014 255.339 288.066 257.13 290.93C259.182 294.212 261.623 297.234 264.4 299.93C267.31 302.85 270.93 305.31 274.6 308.05C289.36 318.92 306.95 331.83 326.76 345.78C331.76 349.26 336.82 352.78 342.07 356.34C347.32 359.9 352.72 363.48 358.41 366.78C359.831 367.601 361.297 368.342 362.8 369C363.558 369.313 364.345 369.551 365.15 369.71L367.59 370.3C370.832 371.212 374.138 371.881 377.48 372.3C380.856 372.719 384.279 372.094 387.29 370.51C390.28 368.793 392.779 366.338 394.55 363.38C397.44 358.38 398.5 352.58 398.69 346.95C398.802 344.135 398.689 341.316 398.35 338.52C398.18 337.14 397.95 335.76 397.66 334.41C397.41 333.071 396.955 331.779 396.31 330.58C394.67 328.42 392.81 326.34 391.06 324.26L385.74 318.12L375.29 306.2L337.61 263.62L297.47 227.3C294.29 225.584 290.783 224.562 287.18 224.3C284.556 224.087 281.919 224.11 279.3 224.37C277.19 224.58 275.59 224.85 274.52 225.03L273.32 225.25C273.05 225.3 272.91 225.31 272.91 225.31C272.91 225.31 273.45 225.18 274.51 224.96C275.57 224.74 277.17 224.47 279.29 224.24C281.917 223.956 284.565 223.913 287.2 224.11C290.84 224.363 294.384 225.386 297.6 227.11L337.85 263.3C349.13 275.93 361.85 290.25 375.6 305.82L386.06 317.74L391.38 323.88C393.16 325.97 394.97 328 396.68 330.25C396.879 330.567 397.05 330.902 397.19 331.25C397.33 331.58 397.43 331.91 397.55 332.25C397.78 332.92 397.93 333.6 398.1 334.25C398.4 335.62 398.63 337.01 398.8 338.41C399.142 341.233 399.259 344.079 399.15 346.92C398.95 352.6 397.89 358.48 394.93 363.6C393.117 366.64 390.551 369.161 387.48 370.92C384.378 372.545 380.855 373.187 377.38 372.76C374.001 372.348 370.658 371.679 367.38 370.76L364.94 370.17C364.112 370.003 363.302 369.759 362.52 369.44C360.994 368.766 359.508 368.005 358.07 367.16C352.35 363.84 346.97 360.23 341.71 356.7C336.45 353.17 331.35 349.6 326.4 346.11C306.59 332.11 289.02 319.2 274.29 308.29C270.64 305.54 267.01 303.06 264.08 300.11C261.29 297.379 258.842 294.32 256.79 291C255.006 288.114 253.54 285.043 252.42 281.84C251.504 279.141 250.779 276.381 250.25 273.58C249.483 269.711 249.121 265.774 249.17 261.83C249.214 260.48 249.341 259.134 249.55 257.8Z" fill="#263238"/>
<path d="M351.45 260.85L351.22 260.71L350.58 260.23C350.04 259.8 349.18 259.23 348.18 258.34C346.11 256.66 343.28 254.05 339.89 250.72C336.5 247.39 332.58 243.3 328.12 238.88C325.88 236.69 323.53 234.38 320.96 232.14C318.35 229.783 315.576 227.615 312.66 225.65C311.44 224.77 310.12 224.1 308.89 223.35L308.71 223.24V223.06C308.92 222.15 309.13 221.25 309.33 220.37L309.5 220.67L278.76 211L269.65 208.08L267.21 207.27L266.57 207.05L266.36 206.96C266.36 206.96 266.44 206.96 266.59 206.96L267.23 207.14L269.71 207.86L278.87 210.64L309.7 220.16L309.92 220.23L309.87 220.46C309.67 221.34 309.47 222.24 309.26 223.15L309.13 222.87C310.38 223.63 311.72 224.31 312.94 225.19C315.878 227.164 318.669 229.35 321.29 231.73C323.87 233.99 326.22 236.31 328.46 238.52C332.9 242.97 336.79 247.07 340.15 250.43C343.51 253.79 346.29 256.43 348.31 258.16C349.31 259.06 350.12 259.67 350.65 260.16L351.26 260.67C351.329 260.723 351.393 260.784 351.45 260.85Z" fill="#263238"/>
<path d="M371.34 301.79C370.917 301.133 370.539 300.448 370.21 299.74L367.32 294C364.9 289.13 361.6 282.4 357.98 274.94C354.36 267.48 351.12 260.71 348.8 255.8C347.68 253.38 346.75 251.41 346.08 249.97C345.79 249.32 345.55 248.79 345.37 248.37C345.273 248.19 345.199 247.998 345.15 247.8C345.276 247.963 345.38 248.141 345.46 248.33C345.67 248.73 345.94 249.25 346.26 249.88C346.97 251.3 347.95 253.25 349.13 255.64C351.55 260.57 354.83 267.29 358.45 274.71L367.65 293.84L370.4 299.65C370.749 300.347 371.063 301.061 371.34 301.79Z" fill="#263238"/>
<path d="M277.71 411.49H278.07L279.07 411.56L283.07 411.88L297.69 413.14L347 417.57L346.72 417.88L343.51 405C343.01 403 342.51 401 342.03 399L342.26 399.2L287.06 392.79L287.23 392.7C283.99 398.45 281.49 403.08 279.86 406.31C279.05 407.92 278.46 409.18 278.1 410.05C277.963 410.375 277.849 410.709 277.76 411.05C277.725 411.163 277.708 411.281 277.71 411.4C277.676 410.918 277.78 410.435 278.01 410.01C278.34 409.12 278.91 407.84 279.7 406.21C281.28 402.96 283.7 398.3 286.93 392.52L286.99 392.42H287.1L342.32 398.65H342.5V398.83L343.98 404.83C345.06 409.23 346.13 413.54 347.15 417.67L347.24 418.02H346.88L297.47 413.4L282.9 411.99L279 411.59L278 411.48C277.904 411.497 277.807 411.501 277.71 411.49Z" fill="#263238"/>
<g opacity="0.3">
<path d="M279.5 411.66L281.87 417.82L346.94 421.7V417.82L279.5 411.66Z" fill="black"/>
</g>
<path d="M190 101.56C189.8 98.08 186.91 95.17 183.59 94.12C180.27 93.07 176.59 93.6 173.32 94.7C166.11 97.09 160.05 101.99 154.17 106.8C145.04 114.25 136.17 124.49 132.69 135.8C130.06 144.28 129.3 149.8 132 158.8C134.38 166.8 136.27 174.51 135.8 181.19C135.05 191.74 133.8 194.19 131.06 204.57C129.37 211.04 135.14 227.97 135.14 227.97L171.63 213.97C184.63 207.85 212.69 196.43 212.69 196.43L190 101.56Z" fill="#263238"/>
<path d="M169.51 225.29C169.57 216.41 169.66 210.23 169.65 210.29C169.64 210.35 153.72 206.61 150.51 183.89C148.643 169.18 148.234 154.321 149.29 139.53C150.38 125.95 159.68 109.42 173.2 111.08L215.32 122.5C219.43 123.01 220.8 126.5 220.65 130.65L220.96 132.59L217.87 197.47L219.2 225.06C218.66 237.39 206.47 248.6 194.14 249.16C190.93 249.312 187.722 248.805 184.715 247.669C181.709 246.533 178.967 244.793 176.659 242.556C174.351 240.319 172.525 237.633 171.296 234.663C170.066 231.694 169.459 228.504 169.51 225.29Z" fill="#B56760"/>
<path d="M158.83 157.63C158.805 158.39 159.079 159.13 159.593 159.691C160.107 160.251 160.821 160.589 161.58 160.63C161.946 160.66 162.315 160.617 162.664 160.504C163.014 160.391 163.337 160.209 163.616 159.971C163.895 159.732 164.124 159.44 164.289 159.112C164.455 158.784 164.554 158.426 164.58 158.06C164.605 157.3 164.331 156.56 163.817 155.999C163.303 155.439 162.59 155.101 161.83 155.06C161.464 155.03 161.096 155.073 160.746 155.186C160.397 155.299 160.073 155.48 159.794 155.719C159.515 155.958 159.286 156.25 159.121 156.578C158.956 156.906 158.857 157.264 158.83 157.63Z" fill="#263238"/>
<path d="M155 149.76C155.35 150.14 157.58 148.55 160.71 148.61C163.84 148.67 166.1 150.28 166.45 149.9C166.62 149.73 166.26 149.04 165.27 148.3C163.936 147.336 162.335 146.812 160.69 146.8C159.062 146.761 157.464 147.245 156.13 148.18C155.17 148.9 154.83 149.58 155 149.76Z" fill="#263238"/>
<path d="M188.1 157.29C188.076 158.05 188.35 158.79 188.864 159.351C189.378 159.911 190.091 160.249 190.85 160.29C191.216 160.32 191.585 160.277 191.934 160.164C192.284 160.051 192.607 159.869 192.886 159.631C193.165 159.392 193.394 159.1 193.559 158.772C193.725 158.444 193.824 158.086 193.85 157.72C193.88 156.96 193.609 156.219 193.096 155.657C192.583 155.096 191.87 154.759 191.11 154.72C190.743 154.687 190.373 154.728 190.022 154.84C189.671 154.952 189.345 155.133 189.065 155.372C188.785 155.612 188.555 155.905 188.389 156.234C188.224 156.563 188.125 156.922 188.1 157.29Z" fill="#263238"/>
<path d="M185 149.67C185.36 150.05 187.59 148.46 190.72 148.52C193.85 148.58 196.11 150.19 196.46 149.81C196.63 149.64 196.27 148.95 195.28 148.21C193.946 147.246 192.345 146.722 190.7 146.71C189.072 146.676 187.476 147.159 186.14 148.09C185.17 148.81 184.83 149.49 185 149.67Z" fill="#263238"/>
<path d="M172.45 173.32C172.45 173.15 170.53 172.78 167.38 172.32C166.59 172.22 165.83 172.05 165.71 171.5C165.653 170.677 165.852 169.856 166.28 169.15L168.75 163.1C172.18 154.5 174.67 147.42 174.32 147.29C173.97 147.16 170.92 154.02 167.49 162.62C166.66 164.74 165.87 166.76 165.12 168.7C164.599 169.651 164.432 170.757 164.65 171.82C164.759 172.105 164.932 172.362 165.156 172.57C165.38 172.778 165.648 172.932 165.94 173.02C166.383 173.145 166.84 173.216 167.3 173.23C170.47 173.45 172.43 173.5 172.45 173.32Z" fill="#263238"/>
<path d="M169.65 210.3C180.319 210.643 190.874 208.019 200.14 202.72C200.14 202.72 192.21 218.59 169.56 216.08L169.65 210.3Z" fill="#8A4A43"/>
<path d="M184 138.61C184.37 139.44 187.45 138.82 191.15 139.01C194.85 139.2 197.87 140.01 198.3 139.2C198.49 138.82 197.92 138.06 196.67 137.32C195.008 136.424 193.164 135.918 191.277 135.84C189.39 135.762 187.51 136.114 185.78 136.87C184.47 137.5 183.84 138.21 184 138.61Z" fill="#263238"/>
<path d="M154.13 140C154.77 140.72 157.33 140 160.39 140C163.45 140 166.05 140.57 166.66 139.84C166.93 139.48 166.53 138.76 165.41 138.07C163.86 137.204 162.105 136.773 160.33 136.82C158.573 136.807 156.845 137.27 155.33 138.16C154.22 138.91 153.85 139.64 154.13 140Z" fill="#263238"/>
<path d="M173.19 181C173.857 180.035 174.772 179.269 175.839 178.781C176.906 178.293 178.084 178.103 179.25 178.23H179.47C180.104 178.229 180.724 178.413 181.255 178.76C181.786 179.106 182.204 179.6 182.459 180.18C182.714 180.761 182.793 181.403 182.689 182.028C182.584 182.653 182.3 183.234 181.87 183.7C181.086 184.608 180.037 185.248 178.87 185.53C178.135 185.767 177.359 185.845 176.591 185.759C175.824 185.673 175.084 185.424 174.42 185.03C173.768 184.615 173.286 183.981 173.061 183.242C172.835 182.503 172.881 181.708 173.19 181Z" fill="#8A4A43"/>
<path d="M181.94 176.29C181.79 176.29 181.6 177.08 181.02 178.29C180.295 179.803 179.19 181.102 177.812 182.059C176.434 183.016 174.831 183.599 173.16 183.75C171.87 183.89 171.04 183.75 171.01 183.94C170.98 184.13 171.78 184.42 173.19 184.47C175.048 184.509 176.871 183.958 178.397 182.896C179.922 181.834 181.072 180.316 181.68 178.56C182.13 177.19 182.06 176.3 181.94 176.29Z" fill="#263238"/>
<path d="M148.71 165.71L144.02 146.71C139.8 140.89 143.09 131.39 146.08 124.86C149.07 118.33 154.77 113.32 161.08 109.94C167.39 106.56 174.43 104.65 181.41 102.94C178.528 111.757 172.586 119.252 164.66 124.07C164.66 124.07 153.13 132 151 141.3C148.76 151.49 148.71 165.71 148.71 165.71Z" fill="#263238"/>
<path d="M175.07 114.93L208.14 134.8C209.061 144.999 211.435 155.013 215.19 164.54C221.29 159.32 225.06 169.38 226.89 161.65C226.99 161.24 225.21 177.86 218.82 178.38L217.82 196.45L249.36 188.69C249.36 188.69 247.66 166.79 242.28 153.5C238.93 145.24 237.16 138.31 233.86 130.03C231.35 123.76 226.91 114.39 223.57 109.93C216.41 100.36 189.88 99.93 189.88 99.93C178.19 102.69 186.06 101.38 176.21 108.27L172.85 117.27" fill="#263238"/>
<path d="M215.18 164.41C215.18 159.64 220.27 156.17 224.61 158.32C226.99 159.51 228.91 162.04 228.98 167.11C229.16 180.63 215.3 178.04 215.27 177.65C215.24 177.26 215.21 170 215.18 164.41Z" fill="#B56760"/>
<path d="M219.4 172.47C219.46 172.47 219.65 172.63 220.05 172.81C220.629 173.034 221.271 173.034 221.85 172.81C223.3 172.26 224.49 169.98 224.52 167.54C224.539 166.381 224.296 165.232 223.81 164.18C223.669 163.759 223.43 163.377 223.112 163.068C222.793 162.758 222.405 162.529 221.98 162.4C221.704 162.331 221.412 162.36 221.155 162.483C220.898 162.605 220.691 162.812 220.57 163.07C220.39 163.45 220.48 163.71 220.41 163.74C220.34 163.77 220.11 163.52 220.21 162.96C220.287 162.622 220.473 162.32 220.74 162.1C221.117 161.813 221.59 161.684 222.06 161.74C222.624 161.838 223.154 162.078 223.599 162.439C224.043 162.8 224.388 163.268 224.6 163.8C225.2 164.958 225.502 166.246 225.48 167.55C225.48 170.28 224.05 172.85 222.06 173.44C221.692 173.551 221.303 173.579 220.923 173.522C220.543 173.465 220.18 173.324 219.86 173.11C219.43 172.8 219.36 172.5 219.4 172.47Z" fill="#8A4A43"/>
<path d="M190.84 99.9C190.687 100.194 190.495 100.466 190.27 100.71C189.86 101.2 189.27 101.88 188.43 102.71C186.83 104.32 184.52 106.45 181.96 108.78C179.4 111.11 177.1 113.23 175.46 114.78C174.616 115.664 173.728 116.505 172.8 117.3C172.958 117.01 173.157 116.744 173.39 116.51C173.8 116.02 174.39 115.34 175.2 114.51C176.78 112.86 179.05 110.69 181.61 108.36L188.18 102.36C189.86 100.9 190.78 99.85 190.84 99.9Z" fill="#455A64"/>
<path d="M154.05 111.35C154.309 110.988 154.603 110.653 154.93 110.35C155.786 109.449 156.705 108.61 157.68 107.84C160.912 105.283 164.631 103.412 168.61 102.34C170.811 101.661 173.162 101.63 175.38 102.25C176.293 102.511 177.14 102.962 177.865 103.574C178.591 104.186 179.179 104.945 179.59 105.8C180.112 106.974 180.18 108.299 179.78 109.52C179.673 109.848 179.518 110.158 179.32 110.44C179.18 110.627 179.1 110.717 179.08 110.71C179.275 110.304 179.446 109.887 179.59 109.46C179.886 108.286 179.766 107.045 179.25 105.95C178.845 105.161 178.281 104.466 177.592 103.908C176.903 103.35 176.106 102.942 175.25 102.71C173.114 102.145 170.862 102.19 168.75 102.84C164.839 103.904 161.164 105.699 157.92 108.13C155.42 110 154.12 111.42 154.05 111.35Z" fill="#455A64"/>
<path d="M146.49 125C146.736 124.633 147.024 124.298 147.35 124C147.93 123.4 148.79 122.54 149.87 121.51C152.659 118.764 155.776 116.373 159.15 114.39C161.008 113.289 163.036 112.502 165.15 112.06C166.931 111.698 168.782 111.974 170.38 112.84C171.441 113.441 172.283 114.366 172.78 115.48C172.903 115.802 172.987 116.138 173.03 116.48C173.045 116.593 173.045 116.707 173.03 116.82C172.97 116.82 172.93 116.36 172.58 115.61C172.042 114.589 171.209 113.752 170.19 113.21C168.646 112.43 166.879 112.207 165.19 112.58C163.122 113.035 161.14 113.819 159.32 114.9C155.985 116.868 152.874 119.191 150.04 121.83L147.41 124.19C147.128 124.487 146.82 124.758 146.49 125Z" fill="#455A64"/>
<path d="M225.65 179C225.681 179.933 225.435 180.854 224.943 181.647C224.45 182.44 223.734 183.069 222.884 183.455C222.035 183.841 221.089 183.966 220.169 183.815C219.248 183.664 218.392 183.243 217.71 182.606C217.028 181.969 216.55 181.144 216.337 180.235C216.124 179.326 216.185 178.375 216.513 177.501C216.84 176.627 217.419 175.87 218.177 175.325C218.935 174.78 219.837 174.472 220.77 174.44C221.39 174.419 222.008 174.52 222.589 174.737C223.17 174.955 223.702 175.285 224.155 175.708C224.608 176.132 224.974 176.641 225.23 177.205C225.487 177.77 225.629 178.38 225.65 179Z" fill="#455A64"/>
<path d="M139 314.05C137.87 314.8 125.4 317.82 122.38 325.76C119.36 333.7 103.32 349.82 114.93 365.56L139 352.21V314.05Z" fill="#DCD7FE"/>
<path d="M114.94 365.6C112.906 362.921 111.553 359.788 111 356.47C110.568 353.519 110.745 350.51 111.52 347.63C112.95 341.92 116.2 336.63 118.81 332.31C120.176 330.229 121.374 328.042 122.39 325.77C124.86 319.28 133.64 316.07 137.39 314.7C137.942 314.504 138.48 314.271 139 314V352.22L114.94 365.6ZM139 314.09C138.479 314.333 137.945 314.547 137.4 314.73C133.66 316.09 124.89 319.3 122.4 325.73C121.388 328.008 120.191 330.198 118.82 332.28C116.21 336.56 112.96 341.88 111.54 347.59C110.765 350.46 110.588 353.459 111.02 356.4C111.571 359.701 112.913 362.82 114.93 365.49L138.93 352.15L139 314.09Z" fill="#263238"/>
<path d="M166.8 248.28L168.77 221.05L218.33 200.37L220.09 210.53L186.33 227.71L166.8 248.28Z" fill="#E0E0E0"/>
<path d="M220.09 204.54C220.09 204.54 189.73 216.82 176.26 228.82C163.6 240.1 137.26 284.58 134.44 296.71C131.62 308.84 132.17 342.39 132.17 342.39C132.17 342.39 132.1 377.01 132.1 377.86C132.1 378.71 110.39 434.55 114.33 465H238.16C238.16 465 241.83 422.12 233.37 405.48C224.91 388.84 224.62 392.22 224.62 392.22C224.62 392.22 229.7 386.58 229.14 381.5C228.647 378.159 227.391 374.977 225.47 372.2L247.19 304.5C247.19 304.5 249.44 270.37 243.52 247.5C238 226.12 235.9 227.33 229 220.48C229.09 220.67 228.85 220.34 229 220.48L222.69 215.31L220.09 204.54Z" fill="#DCD7FE"/>
<path d="M139 411.49C138.62 410.03 148.38 392.7 148.38 392.7L204.38 402.1L208.27 417.82L139 411.49Z" fill="#DCD7FE"/>
<path d="M139 411.49H139.37L140.37 411.56L144.37 411.88L159 413.16L208.27 417.57L207.99 417.88C207.05 414.07 206.06 410.07 205.05 406.01C204.73 404.71 204.41 403.41 204.05 402.16L204.26 402.35L148.31 392.87L148.49 392.78C145.25 398.52 142.76 403.16 141.13 406.38C140.31 407.99 139.72 409.26 139.36 410.13C139.219 410.454 139.102 410.789 139.01 411.13C138.95 411.36 139.01 411.47 139.01 411.48C138.991 410.994 139.097 410.512 139.32 410.08C139.65 409.19 140.22 407.92 141.01 406.29C142.59 403.03 145.01 398.37 148.24 392.6L148.3 392.5H148.42L204.42 401.81H204.59V401.97L205.54 405.82C206.54 409.89 207.54 413.89 208.48 417.7L208.57 418.05H208.21L158.81 413.43L144.24 412.02L140.33 411.62L139.33 411.51C139.22 411.518 139.109 411.511 139 411.49Z" fill="#263238"/>
<g opacity="0.3">
<path d="M127 384.6L128.25 394.74C137.17 401.06 149.79 399.86 159.34 394.52C168.89 389.18 175.97 380.41 182.51 371.65C202.36 345.1 219.65 316.43 231.44 285.45C200.69 322.38 158.07 347.92 127 384.6Z" fill="black"/>
</g>
<path d="M227 233.19C237.39 241.46 246.45 267.34 230.36 289.71C230.36 289.71 160.06 385.09 148.42 392.71C136.78 400.33 121.11 395.84 116.63 384.65C112.15 373.46 113.94 362.71 120.21 355.1C126.48 347.49 167.68 274.94 167.68 274.94C167.68 274.94 177.07 241.32 193.08 231.56" fill="#DCD7FE"/>
<path d="M193.06 231.55L192.34 232.06C191.62 232.54 190.926 233.058 190.26 233.61C187.711 235.796 185.435 238.28 183.48 241.01C178.3 248.07 172.48 259.63 167.82 275.01C158.82 290.92 147.5 310.73 134.36 333.01C131.05 338.55 127.66 344.27 124 350.01C123 351.43 122.18 352.9 121.12 354.29C120.61 355 120.12 355.69 119.57 356.36C119.056 357.051 118.578 357.768 118.14 358.51C117.256 360.003 116.515 361.577 115.93 363.21C115.355 364.87 114.94 366.581 114.69 368.32C114.205 371.858 114.358 375.455 115.14 378.94C115.34 379.82 115.55 380.7 115.83 381.56C116.11 382.42 116.4 383.28 116.71 384.13C117.02 384.98 117.46 385.77 117.84 386.59L118.58 387.73C118.814 388.12 119.081 388.488 119.38 388.83C121.733 391.7 124.855 393.84 128.38 395C131.916 396.203 135.691 396.529 139.38 395.95C142.79 395.397 146.029 394.074 148.85 392.08C151.451 389.854 153.875 387.431 156.1 384.83C160.64 379.73 164.93 374.54 169.1 369.41C177.42 359.13 185.25 349.06 192.67 339.41C200.09 329.76 207.06 320.57 213.56 311.94L222.94 299.42L227.34 293.51C228.76 291.57 230.24 289.73 231.42 287.77C233.841 284.138 235.721 280.173 237 276C237.27 275 237.54 274 237.8 273.06C238.06 272.12 238.17 271.11 238.35 270.15C239.735 262.107 238.863 253.837 235.83 246.26C234.433 242.573 232.429 239.145 229.9 236.12C229.45 235.61 229.09 235.12 228.72 234.79L227.77 233.91C227.26 233.44 227.01 233.18 227.01 233.18C227.01 233.18 227.29 233.41 227.81 233.87L228.81 234.73C229.2 235.07 229.56 235.55 230.02 236.05C232.582 239.065 234.611 242.494 236.02 246.19C238.328 252.028 239.424 258.275 239.24 264.55C239.161 266.443 238.967 268.33 238.66 270.2C238.48 271.2 238.38 272.2 238.12 273.13C237.86 274.06 237.59 275.13 237.31 276.13C236.027 280.34 234.134 284.339 231.69 288C230.5 290 229.02 291.82 227.61 293.77L223.22 299.69C220.22 303.69 217.1 307.87 213.86 312.23C207.38 320.87 200.41 330.09 193.01 339.73C185.61 349.37 177.78 359.45 169.46 369.73C165.29 374.87 161.01 380.07 156.46 385.17C155.33 386.45 154.15 387.71 152.96 388.95C151.769 390.222 150.489 391.409 149.13 392.5C146.246 394.559 142.927 395.927 139.43 396.5C135.642 397.094 131.765 396.751 128.14 395.5C124.541 394.3 121.357 392.101 118.96 389.16C118.647 388.811 118.369 388.433 118.13 388.03L117.37 386.86C116.98 386.01 116.52 385.19 116.2 384.32C115.88 383.45 115.55 382.6 115.31 381.72C115.07 380.84 114.82 379.95 114.62 379.06C113.371 373.757 113.652 368.209 115.43 363.06C116.034 361.397 116.791 359.794 117.69 358.27C118.15 357.52 118.62 356.78 119.15 356.08C119.68 355.38 120.21 354.7 120.7 354.01C121.7 352.65 122.62 351.17 123.57 349.76C127.22 344.03 130.62 338.32 133.94 332.76C147.09 310.55 158.42 290.76 167.51 274.88C172.17 259.49 178.11 247.95 183.35 240.88C185.321 238.148 187.63 235.675 190.22 233.52C190.895 232.975 191.599 232.467 192.33 232C192.8 231.7 193.06 231.55 193.06 231.55Z" fill="#263238"/>
<path d="M162.06 305.38C162.06 305.38 160.25 300.65 156.63 300.02C153.01 299.39 146.02 300.02 146.02 300.02C146.02 300.02 142.94 302.34 142.97 305.52C142.971 307.339 143.19 309.152 143.62 310.92C143.62 310.92 141.09 307.51 137.76 310.74C134.43 313.97 131.51 320.52 131.51 320.52C131.51 320.52 127.08 321.94 125.39 324.09C124.199 325.811 123.291 327.712 122.7 329.72C121.6 330.477 120.731 331.525 120.191 332.747C119.651 333.969 119.46 335.316 119.64 336.64C119.84 338.047 120.37 339.387 121.187 340.549C122.003 341.712 123.084 342.665 124.34 343.33C124.34 343.33 137.55 353.06 139.16 351.8C140.77 350.54 144.08 348.56 139.33 344.35L131.6 337.5L133.84 334.04C133.84 334.04 146.77 342.93 148.84 342.5C150.91 342.07 154.44 342 152.99 338.81C151.54 335.62 139.46 326.32 139.46 326.32L140.89 321.32C140.89 321.32 154.89 330.78 157.16 329.27C159.43 327.76 161.49 327.05 159.16 323.93C156.83 320.81 146.74 313.36 146.74 313.36L150.87 309.5C150.87 309.5 160.64 311.21 162.06 305.38Z" fill="#B56760"/>
<path d="M222.65 215.31L222.3 215.41L221.3 215.69C220.4 215.92 219.07 216.27 217.36 216.76C212.542 218.094 207.799 219.683 203.15 221.52C201.68 222.11 200.15 222.76 198.6 223.52C197.82 223.89 197.03 224.27 196.24 224.7C195.85 224.92 195.44 225.12 195.05 225.35C194.66 225.58 194.28 225.82 193.92 226.1C190.87 228.617 188.065 231.416 185.54 234.46C180.06 240.79 174.47 248.13 168.75 255.91C163.03 263.69 157.75 271.27 153 278.18C150.63 281.64 148.41 284.94 146.35 288.05C144.394 290.891 142.621 293.854 141.04 296.92C138.844 301.412 136.985 306.062 135.48 310.83C134.93 312.52 134.54 313.83 134.28 314.73L133.99 315.73C133.961 315.85 133.921 315.967 133.87 316.08C133.87 316.08 133.87 315.95 133.94 315.72L134.18 314.72C134.41 313.82 134.77 312.49 135.28 310.79C136.721 305.989 138.537 301.307 140.71 296.79C142.276 293.699 144.04 290.713 145.99 287.85C147.99 284.72 150.25 281.41 152.6 277.94C157.32 271.01 162.6 263.45 168.33 255.64C174.06 247.83 179.66 240.51 185.18 234.17C187.731 231.108 190.575 228.301 193.67 225.79C194.04 225.5 194.45 225.27 194.84 225.01C195.23 224.75 195.65 224.58 196.05 224.36C196.84 223.93 197.64 223.55 198.43 223.19C200 222.45 201.53 221.8 203.01 221.19C207.684 219.376 212.459 217.834 217.31 216.57C219.03 216.11 220.37 215.8 221.31 215.57L222.31 215.35C222.422 215.326 222.536 215.312 222.65 215.31Z" fill="#263238"/>
<path d="M214.79 386.24C214.25 385.989 213.732 385.695 213.24 385.36C212.24 384.78 210.87 383.87 209.19 382.7C200.451 376.547 192.819 368.956 186.62 360.25C185.44 358.58 184.52 357.2 183.93 356.25C183.6 355.755 183.306 355.237 183.05 354.7C183.422 355.148 183.757 355.627 184.05 356.13C184.69 357.08 185.65 358.42 186.87 360.06C193.201 368.604 200.782 376.145 209.36 382.43C211 383.64 212.36 384.59 213.3 385.22C213.82 385.524 214.318 385.865 214.79 386.24Z" fill="#263238"/>
<g opacity="0.3">
<path d="M140.82 411.66L142.51 417.82L205.89 417.61L140.82 411.66Z" fill="black"/>
</g>
</svg>
