<svg width="40" height="40" viewBox="0 0 40 40" fill="none" xmlns="http://www.w3.org/2000/svg">
<circle cx="20" cy="20" r="20" fill="#CABFFD" fill-opacity="0.5"/>
<path d="M20 19V24M20 24L22 22M20 24L18 22M11 14V15C11 15.5523 11.4477 16 12 16H28C28.5523 16 29 15.5523 29 15V14C29 13.4477 28.5523 13 28 13H12C11.4477 13 11 13.4477 11 14ZM13 16V26C13 26.5523 13.4477 27 14 27H26C26.5523 27 27 26.5523 27 26V16H13Z" stroke="#7E3AF2" stroke-width="2" stroke-linecap="round" stroke-linejoin="round"/>
</svg>
