<svg width="50" height="51" viewBox="0 0 50 51" fill="none" xmlns="http://www.w3.org/2000/svg">
<g clip-path="url(#clip0_12670_53521)">
<path d="M49.247 31.1277C45.9079 44.5207 32.3423 52.6707 18.9477 49.3316C5.55944 45.9926 -2.59135 32.4269 0.748496 19.0347C4.086 5.64021 17.6508 -2.51135 31.0415 0.827712C44.4352 4.16677 52.5852 17.734 49.2462 31.1277H49.247Z" fill="#F7931A"/>
<path d="M36.0203 21.5184C36.5171 18.1918 33.9843 16.4035 30.521 15.2105L31.6445 10.7043L28.9007 10.0207L27.807 14.4082C27.0867 14.2285 26.346 14.059 25.6101 13.891L26.7117 9.47461L23.9703 8.79102L22.846 13.2957C22.2492 13.1598 21.6632 13.0254 21.0945 12.884L21.0976 12.8699L17.3148 11.9254L16.5851 14.8551C16.5851 14.8551 18.6203 15.3215 18.5773 15.3504C19.6882 15.6277 19.8898 16.3629 19.8554 16.9457L18.5757 22.0793C18.6523 22.0988 18.7515 22.127 18.8609 22.1707L18.5718 22.0988L16.7773 29.2902C16.6414 29.6277 16.2968 30.134 15.5203 29.9418C15.5476 29.9816 13.5265 29.4441 13.5265 29.4441L12.1648 32.5848L15.7351 33.4746C16.3992 33.641 17.05 33.8152 17.6898 33.9793L16.5546 38.5379L19.2945 39.2215L20.4195 34.7121C21.1671 34.9152 21.8937 35.1027 22.6046 35.2793L21.4843 39.7676L24.2273 40.4512L25.3624 35.902C30.0398 36.7871 33.5578 36.4301 35.0367 32.2004C36.2296 28.7941 34.9781 26.8293 32.5171 25.5473C34.3093 25.1324 35.6593 23.9535 36.0195 21.5184H36.0203ZM29.7523 30.3066C28.9039 33.7129 23.1695 31.8723 21.3093 31.4098L22.8156 25.3715C24.675 25.8355 30.6367 26.7543 29.7531 30.3066H29.7523ZM30.6 21.4691C29.8265 24.5676 25.0531 22.9934 23.5039 22.6074L24.8695 17.1309C26.4187 17.5168 31.4062 18.2371 30.6 21.4691Z" fill="white"/>
</g>
<defs>
<clipPath id="clip0_12670_53521">
<rect width="50" height="50" fill="white" transform="translate(0 0.0800781)"/>
</clipPath>
</defs>
</svg>
