<svg width="500" height="500" viewBox="0 80 500 500" fill="none" xmlns="http://www.w3.org/2000/svg">
<path d="M500 382.4H0V382.65H500V382.4Z" fill="#EBEBEB"/>
<path d="M433.79 393.04H400.67V393.29H433.79V393.04Z" fill="#EBEBEB"/>
<path d="M313.07 392.92H304.38V393.17H313.07V392.92Z" fill="#EBEBEB"/>
<path d="M449.9 398.49H430.71V398.74H449.9V398.49Z" fill="#EBEBEB"/>
<path d="M114.6 401.81H71.41V402.06H114.6V401.81Z" fill="#EBEBEB"/>
<path d="M110.89 390.89H104.56V391.14H110.89V390.89Z" fill="#EBEBEB"/>
<path d="M248.45 391.96H187.55V392.21H248.45V391.96Z" fill="#EBEBEB"/>
<path d="M237 337.8H43.91C42.3973 337.797 40.9475 337.195 39.8788 336.124C38.8102 335.054 38.21 333.603 38.21 332.09V60.66C38.2231 59.156 38.8292 57.718 39.8964 56.6582C40.9637 55.5985 42.4059 55.0026 43.91 55H237C238.514 55 239.967 55.6016 241.038 56.6724C242.108 57.7433 242.71 59.1956 242.71 60.71V332.09C242.71 333.604 242.108 335.057 241.038 336.128C239.967 337.198 238.514 337.8 237 337.8ZM43.91 55.2C42.4636 55.2026 41.0774 55.7791 40.0556 56.8027C39.0338 57.8264 38.46 59.2136 38.46 60.66V332.09C38.46 333.536 39.0338 334.924 40.0556 335.947C41.0774 336.971 42.4636 337.547 43.91 337.55H237C238.447 337.547 239.834 336.971 240.858 335.948C241.881 334.924 242.457 333.537 242.46 332.09V60.66C242.457 59.2127 241.881 57.8255 240.858 56.8021C239.834 55.7787 238.447 55.2026 237 55.2H43.91Z" fill="#EBEBEB"/>
<path d="M453.31 337.8H260.21C258.696 337.797 257.246 337.195 256.175 336.125C255.105 335.054 254.503 333.604 254.5 332.09V60.66C254.516 59.1551 255.124 57.7171 256.193 56.6576C257.262 55.5981 258.705 55.0025 260.21 55H453.31C454.812 55.0052 456.252 55.6022 457.317 56.6617C458.382 57.7212 458.987 59.1578 459 60.66V332.09C459 333.601 458.401 335.05 457.335 336.121C456.268 337.191 454.821 337.795 453.31 337.8ZM260.21 55.2C258.763 55.2026 257.375 55.7787 256.352 56.8021C255.329 57.8255 254.753 59.2127 254.75 60.66V332.09C254.753 333.537 255.329 334.924 256.352 335.948C257.375 336.971 258.763 337.547 260.21 337.55H453.31C454.757 337.547 456.145 336.971 457.168 335.948C458.191 334.924 458.767 333.537 458.77 332.09V60.66C458.767 59.2127 458.191 57.8255 457.168 56.8021C456.145 55.7787 454.757 55.2026 453.31 55.2H260.21Z" fill="#EBEBEB"/>
<path d="M428.89 96.33H71.11V245.22H428.89V96.33Z" fill="#F0F0F0"/>
<path d="M421.89 238.23V103.34L78.11 103.34V238.23L421.89 238.23Z" fill="#FAFAFA"/>
<path d="M123.37 238.22L158.63 103.33H184.63L149.37 238.22H123.37Z" fill="white"/>
<path d="M155.37 238.22L190.63 103.33H202.26L167 238.22H155.37Z" fill="white"/>
<path d="M212.27 238.22L247.54 103.33H273.54L238.27 238.22H212.27Z" fill="white"/>
<path d="M277.83 238.22L313.09 103.33H324.73L289.46 238.22H277.83Z" fill="white"/>
<path d="M170.21 238.23V103.34H168.43V238.23H170.21Z" fill="#E0E0E0"/>
<path d="M79.89 238.23L79.89 103.34H78.11L78.11 238.23H79.89Z" fill="#E0E0E0"/>
<path d="M168.43 238.23V103.34H161.43V238.23H168.43Z" fill="#F0F0F0"/>
<path d="M257 238.23V103.34H255.22V238.23H257Z" fill="#E0E0E0"/>
<path d="M255.22 238.23V103.34H248.22V238.23H255.22Z" fill="#F0F0F0"/>
<path d="M343.83 238.22V103.33H342.05V238.22H343.83Z" fill="#E0E0E0"/>
<path d="M342.05 238.22V103.33H335.05V238.22H342.05Z" fill="#F0F0F0"/>
<path d="M430.67 245.22V96.33H428.89V245.22H430.67Z" fill="#E0E0E0"/>
<path d="M434.67 86.11H65.33C64.9198 86.1074 64.527 85.9432 64.2369 85.6531C63.9468 85.363 63.7827 84.9703 63.78 84.56C63.78 84.148 63.943 83.7527 64.2334 83.4604C64.5238 83.1682 64.918 83.0026 65.33 83H434.67C435.082 83.0026 435.476 83.1682 435.767 83.4604C436.057 83.7527 436.22 84.148 436.22 84.56C436.217 84.9703 436.053 85.363 435.763 85.6531C435.473 85.9432 435.08 86.1074 434.67 86.11Z" fill="#E0E0E0"/>
<g opacity="0.6">
<path d="M142.34 80H66.78V351.67H142.34V80Z" fill="#F5F5F5"/>
<path d="M107.72 353.89H101.39L103.17 82.22H106L107.72 353.89Z" fill="#E6E6E6"/>
<path d="M86.7501 353.89H83.6901L84.5501 82.22H85.9201L86.7501 353.89Z" fill="#E6E6E6"/>
<path d="M128.75 353.89H125.69L126.55 82.22H127.92L128.75 353.89Z" fill="#E6E6E6"/>
</g>
<g opacity="0.6">
<path d="M432.32 80H356.76V351.67H432.32V80Z" fill="#F5F5F5"/>
<path d="M386.37 353.89H380.04L381.82 82.22H384.65L386.37 353.89Z" fill="#E6E6E6"/>
<path d="M372.4 353.89H369.35L370.2 82.22H371.57L372.4 353.89Z" fill="#E6E6E6"/>
<path d="M404.73 353.89H401.68L402.54 82.22H403.9L404.73 353.89Z" fill="#E6E6E6"/>
<path d="M420.29 353.89H417.24L418.09 82.22H419.46L420.29 353.89Z" fill="#E6E6E6"/>
</g>
<path d="M325.21 380.7H339.41V299.32H325.21V380.7Z" fill="#E6E6E6"/>
<path d="M160.59 380.7H330.68V299.32H160.59V380.7Z" fill="#F0F0F0"/>
<path d="M326.86 380.7H321.74H167.93V382.4H321.74H326.86H332.07V380.7H326.86Z" fill="#E0E0E0"/>
<path opacity="0.5" d="M165.44 337.25H325.83V304.41H165.44V337.25Z" fill="#FAFAFA"/>
<path opacity="0.5" d="M165.44 375.39H325.83V342.55H165.44V375.39Z" fill="#FAFAFA"/>
<path d="M189.75 320.83C189.75 321.544 189.538 322.242 189.142 322.836C188.745 323.429 188.181 323.892 187.522 324.165C186.862 324.438 186.136 324.51 185.436 324.371C184.735 324.231 184.092 323.888 183.587 323.383C183.083 322.878 182.739 322.235 182.599 321.534C182.46 320.834 182.532 320.108 182.805 319.449C183.078 318.789 183.541 318.225 184.134 317.828C184.728 317.432 185.426 317.22 186.14 317.22C186.614 317.22 187.084 317.313 187.522 317.495C187.96 317.676 188.357 317.942 188.693 318.277C189.028 318.613 189.294 319.011 189.475 319.449C189.657 319.887 189.75 320.356 189.75 320.83Z" fill="#E0E0E0"/>
<path d="M308.73 320.83C308.73 321.544 308.518 322.242 308.122 322.836C307.725 323.429 307.161 323.892 306.501 324.165C305.842 324.438 305.116 324.51 304.416 324.371C303.715 324.231 303.072 323.888 302.567 323.383C302.062 322.878 301.719 322.235 301.579 321.534C301.44 320.834 301.512 320.108 301.785 319.449C302.058 318.789 302.521 318.225 303.114 317.828C303.708 317.432 304.406 317.22 305.12 317.22C305.594 317.22 306.064 317.313 306.501 317.495C306.939 317.676 307.337 317.942 307.673 318.277C308.008 318.613 308.274 319.011 308.455 319.449C308.637 319.887 308.73 320.356 308.73 320.83Z" fill="#E0E0E0"/>
<path d="M186.14 362.58C188.134 362.58 189.75 360.964 189.75 358.97C189.75 356.976 188.134 355.36 186.14 355.36C184.146 355.36 182.53 356.976 182.53 358.97C182.53 360.964 184.146 362.58 186.14 362.58Z" fill="#E0E0E0"/>
<path d="M308.73 359C308.73 359.714 308.518 360.412 308.122 361.006C307.725 361.599 307.161 362.062 306.501 362.335C305.842 362.608 305.116 362.68 304.416 362.541C303.715 362.401 303.072 362.058 302.567 361.553C302.062 361.048 301.719 360.405 301.579 359.704C301.44 359.004 301.512 358.278 301.785 357.618C302.058 356.959 302.521 356.395 303.114 355.998C303.708 355.602 304.406 355.39 305.12 355.39C306.077 355.39 306.996 355.77 307.673 356.447C308.35 357.124 308.73 358.043 308.73 359Z" fill="#E0E0E0"/>
<path d="M249.24 320.83C249.24 321.544 249.028 322.242 248.632 322.836C248.235 323.429 247.671 323.892 247.012 324.165C246.352 324.438 245.626 324.51 244.926 324.371C244.225 324.231 243.582 323.888 243.077 323.383C242.572 322.878 242.229 322.235 242.089 321.534C241.95 320.834 242.022 320.108 242.295 319.449C242.568 318.789 243.031 318.225 243.624 317.828C244.218 317.432 244.916 317.22 245.63 317.22C246.104 317.22 246.574 317.313 247.012 317.495C247.449 317.676 247.847 317.942 248.183 318.277C248.518 318.613 248.784 319.011 248.965 319.449C249.147 319.887 249.24 320.356 249.24 320.83Z" fill="#E0E0E0"/>
<path d="M245.63 362.58C247.624 362.58 249.24 360.964 249.24 358.97C249.24 356.976 247.624 355.36 245.63 355.36C243.636 355.36 242.02 356.976 242.02 358.97C242.02 360.964 243.636 362.58 245.63 362.58Z" fill="#E0E0E0"/>
<path d="M320.16 285.5C320.16 289.165 318.704 292.68 316.112 295.272C313.52 297.864 310.005 299.32 306.34 299.32C302.675 299.32 299.16 297.864 296.568 295.272C293.976 292.68 292.52 289.165 292.52 285.5H320.16Z" fill="#F0F0F0"/>
<path d="M210.89 283C210.89 287.32 209.174 291.464 206.119 294.519C203.064 297.574 198.92 299.29 194.6 299.29C190.28 299.29 186.136 297.574 183.081 294.519C180.026 291.464 178.31 287.32 178.31 283H210.89Z" fill="#F0F0F0"/>
<path d="M280.92 289.73C280.92 292.273 279.91 294.713 278.111 296.511C276.313 298.31 273.873 299.32 271.33 299.32C268.787 299.32 266.347 298.31 264.549 296.511C262.75 294.713 261.74 292.273 261.74 289.73H280.92Z" fill="#F0F0F0"/>
<path d="M250 427.56C357.082 427.56 443.89 422.492 443.89 416.24C443.89 409.988 357.082 404.92 250 404.92C142.917 404.92 56.11 409.988 56.11 416.24C56.11 422.492 142.917 427.56 250 427.56Z" fill="#F5F5F5"/>
<path d="M348.15 115.36C346.02 113.23 341.92 105.16 345.85 101.36C349.78 97.56 353.28 101.01 353.55 102.86C353.82 104.71 353.1 120.3 348.15 115.36Z" fill="#263238"/>
<path d="M347.25 405.65L338.32 405.73L335.89 385.09L344.81 385.01L347.25 405.65Z" fill="#FF8B7B"/>
<path d="M338.31 404.7L348.05 404.61C348.23 404.613 348.404 404.672 348.548 404.78C348.691 404.888 348.797 405.038 348.85 405.21L351.21 413.12C351.273 413.304 351.29 413.501 351.261 413.693C351.231 413.885 351.156 414.067 351.041 414.224C350.927 414.381 350.776 414.508 350.601 414.595C350.427 414.681 350.234 414.724 350.04 414.72C346.53 414.72 341.43 414.53 337.04 414.57C331.88 414.57 329.58 414.93 323.52 414.99C319.86 414.99 318.52 411.33 320.07 410.99C326.94 409.4 330.49 409.19 336.24 405.42C336.845 404.984 337.565 404.733 338.31 404.7Z" fill="#263238"/>
<path opacity="0.2" d="M335.89 385.1L337.15 395.74L346.07 395.66L344.82 385.02L335.89 385.1Z" fill="black"/>
<path d="M334.62 406.29C335.583 406.273 336.541 406.155 337.48 405.94C337.524 405.933 337.565 405.912 337.596 405.879C337.627 405.847 337.646 405.805 337.65 405.76C337.654 405.717 337.645 405.674 337.623 405.636C337.602 405.598 337.569 405.568 337.53 405.55C337.11 405.34 333.36 403.55 332.33 404.18C332.235 404.241 332.157 404.325 332.104 404.425C332.052 404.525 332.026 404.637 332.03 404.75C332.028 404.942 332.07 405.133 332.153 405.306C332.236 405.48 332.358 405.631 332.51 405.75C333.135 406.156 333.877 406.345 334.62 406.29ZM336.76 405.65C334.83 405.99 333.36 405.92 332.76 405.44C332.656 405.359 332.574 405.254 332.52 405.133C332.466 405.013 332.442 404.882 332.45 404.75C332.444 404.709 332.451 404.667 332.468 404.63C332.486 404.593 332.515 404.561 332.55 404.54C333.11 404.2 335.23 405 336.76 405.65Z" fill="#7E3AF2"/>
<path d="M337.44 406C337.487 405.997 337.533 405.979 337.57 405.95C337.6 405.927 337.623 405.896 337.635 405.861C337.648 405.825 337.65 405.787 337.64 405.75C337.64 405.59 336.94 401.75 334.82 401.99C334.26 402.05 334.1 402.34 334.07 402.56C333.92 403.56 336.21 405.5 337.35 405.98L337.44 406ZM335 402.4C336.28 402.4 336.92 404.49 337.14 405.4C335.96 404.74 334.4 403.22 334.49 402.62C334.49 402.62 334.49 402.45 334.87 402.41L335 402.4Z" fill="#7E3AF2"/>
<path d="M340.94 160.43L340.02 161.43L339.16 162.28C338.59 162.84 338 163.37 337.41 163.89C336.237 164.943 335.037 165.943 333.81 166.89C331.334 168.857 328.729 170.655 326.01 172.27C324.64 173.08 323.23 173.85 321.8 174.58C320.37 175.31 318.86 175.94 317.34 176.58C314.223 177.824 310.976 178.712 307.66 179.23L306.92 179.34C306.439 179.402 305.955 179.432 305.47 179.43C304.356 179.42 303.254 179.203 302.22 178.79C301.194 178.378 300.255 177.778 299.45 177.02C298.809 176.409 298.251 175.716 297.79 174.96C297.151 173.863 296.67 172.681 296.36 171.45C296.118 170.497 295.94 169.528 295.83 168.55C295.648 166.86 295.598 165.158 295.68 163.46C295.75 161.84 295.88 160.28 296.06 158.75C296.44 155.68 296.98 152.75 297.64 149.75C298.3 146.75 299.05 143.98 300.02 141.08L306.59 142.38C306.35 148 306.08 153.76 306.26 159.2C306.293 161.726 306.561 164.244 307.06 166.72C307.159 167.177 307.296 167.626 307.47 168.06C307.61 168.4 307.78 168.61 307.77 168.52C307.712 168.368 307.62 168.231 307.5 168.12C307.228 167.857 306.909 167.647 306.56 167.5C306.201 167.349 305.819 167.258 305.43 167.23C305.25 167.23 305.17 167.23 305.06 167.23H305.17L305.38 167.17C307.749 166.562 310.053 165.724 312.26 164.67C314.569 163.556 316.804 162.293 318.95 160.89C321.12 159.45 323.26 157.89 325.32 156.24C326.32 155.42 327.37 154.56 328.32 153.69L329.78 152.37L330.48 151.72L331.09 151.14L340.94 160.43Z" fill="#FF8B7B"/>
<path d="M346.23 156.9C345.89 147.47 338.15 144.19 328.45 150.62C324.174 153.331 320.057 156.286 316.12 159.47L322.39 179.61C322.39 179.61 334.39 175.8 341.33 168.32C346 163.24 346.35 160.11 346.23 156.9Z" fill="#263238"/>
<path opacity="0.2" d="M334.42 160.92C334.42 160.92 328.63 169.2 326.58 178C329.427 176.786 332.169 175.341 334.78 173.68L334.42 160.92Z" fill="black"/>
<path d="M306.26 145.37L309.62 137.78L300.11 135C300.11 135 298.48 138.63 299.41 144.86L306.26 145.37Z" fill="#FF8B7B"/>
<path d="M310.63 128.88L302.36 129.87L300.11 135L309.62 137.78L310.63 128.88Z" fill="#FF8B7B"/>
<path d="M334.48 225.26C334.48 225.26 328.34 276.72 327.66 304.26C326.96 332.87 332.57 390.58 332.57 390.58L348.68 390.24C348.68 390.24 350.62 328.46 352.96 300.15C355.5 269.29 361.9 224.7 361.9 224.7L334.48 225.26Z" fill="#7E3AF2"/>
<path opacity="0.6" d="M334.48 225.26C334.48 225.26 328.34 276.72 327.66 304.26C326.96 332.87 332.57 390.58 332.57 390.58L348.68 390.24C348.68 390.24 350.62 328.46 352.96 300.15C355.5 269.29 361.9 224.7 361.9 224.7L334.48 225.26Z" fill="white"/>
<path opacity="0.2" d="M353.67 239.83C346.47 255.7 348.4 291.15 352.49 306.35C352.64 304.14 352.8 302.05 352.96 300.12C354.63 279.78 357.96 253.49 360.07 237.92C358.11 235.08 355.92 234.86 353.67 239.83Z" fill="black"/>
<path d="M350.66 390.93L331.72 391.31L330.32 385.02L350.43 384.97L350.66 390.93Z" fill="#7E3AF2"/>
<path d="M387.04 405.65L378.12 405.73L375.69 385.09L384.61 385.01L387.04 405.65Z" fill="#FF8B7B"/>
<path d="M378.1 404.7L387.85 404.61C388.029 404.614 388.203 404.674 388.346 404.782C388.49 404.889 388.596 405.039 388.65 405.21L391.01 413.12C391.07 413.304 391.086 413.5 391.056 413.691C391.025 413.882 390.95 414.064 390.836 414.22C390.721 414.377 390.571 414.503 390.398 414.59C390.225 414.677 390.034 414.722 389.84 414.72C386.32 414.72 381.23 414.53 376.84 414.57C371.68 414.57 369.37 414.93 363.32 414.99C359.66 414.99 358.32 411.33 359.87 410.99C366.73 409.4 370.28 409.19 376.04 405.42C376.642 404.984 377.358 404.733 378.1 404.7Z" fill="#263238"/>
<path opacity="0.2" d="M375.69 385.1L376.94 395.74L385.87 395.66L384.62 385.02L375.69 385.1Z" fill="black"/>
<path d="M374.42 406.29C375.383 406.272 376.341 406.154 377.28 405.94C377.323 405.933 377.363 405.911 377.392 405.879C377.421 405.846 377.438 405.804 377.44 405.76C377.446 405.718 377.439 405.675 377.419 405.637C377.4 405.599 377.368 405.569 377.33 405.55C376.9 405.34 373.15 403.55 372.13 404.18C372.033 404.239 371.954 404.323 371.902 404.424C371.849 404.524 371.824 404.637 371.83 404.75C371.828 404.941 371.869 405.131 371.951 405.304C372.032 405.477 372.151 405.629 372.3 405.75C372.93 406.155 373.674 406.344 374.42 406.29ZM376.56 405.65C374.63 405.99 373.16 405.92 372.56 405.44C372.457 405.358 372.374 405.253 372.318 405.133C372.263 405.013 372.236 404.882 372.24 404.75C372.234 404.709 372.24 404.667 372.258 404.63C372.276 404.593 372.304 404.561 372.34 404.54C372.9 404.2 375 405 376.56 405.65Z" fill="#7E3AF2"/>
<path d="M377.23 406C377.261 405.999 377.291 405.991 377.319 405.978C377.346 405.964 377.371 405.945 377.391 405.922C377.41 405.898 377.425 405.871 377.434 405.841C377.442 405.811 377.444 405.78 377.44 405.75C377.44 405.59 376.74 401.75 374.62 401.99C374.06 402.05 373.9 402.34 373.86 402.56C373.72 403.56 376.01 405.5 377.15 405.98L377.23 406ZM374.8 402.4C376.07 402.4 376.72 404.49 376.94 405.4C375.76 404.74 374.19 403.22 374.28 402.62C374.28 402.62 374.28 402.45 374.66 402.41L374.8 402.4Z" fill="#7E3AF2"/>
<path d="M350.2 224.92C350.2 224.92 354.65 280.29 357.9 307.61C361.27 336.03 372.37 390.55 372.37 390.55L388.48 390.21C388.48 390.21 384.06 328.31 382.35 299.95C380.48 269 380 224.24 380 224.24L350.2 224.92Z" fill="#7E3AF2"/>
<path opacity="0.6" d="M350.2 224.92C350.2 224.92 354.65 280.29 357.9 307.61C361.27 336.03 372.37 390.55 372.37 390.55L388.48 390.21C388.48 390.21 384.06 328.31 382.35 299.95C380.48 269 380 224.24 380 224.24L350.2 224.92Z" fill="white"/>
<path d="M390.46 390.93L371.51 391.31L370.12 385.02L390.23 384.97L390.46 390.93Z" fill="#7E3AF2"/>
<path d="M333.37 148.15C333.37 148.15 326.78 172.61 334.48 225.26C348.86 224.95 373.01 224.39 380 224.26C380.18 216.93 374.77 180.99 381.1 146.34C376.546 145.554 371.94 145.106 367.32 145C360.557 144.753 353.786 144.9 347.04 145.44C342.42 145.987 337.849 146.893 333.37 148.15Z" fill="#263238"/>
<path opacity="0.2" d="M378.34 171L370.89 164.83C371.38 169.65 375.74 181.46 378.04 187.44C378 182.2 378.05 176.67 378.34 171Z" fill="black"/>
<path d="M351.69 162.33L343.56 178.42C343.388 178.758 343.328 179.141 343.388 179.516C343.449 179.89 343.626 180.235 343.895 180.502C344.164 180.769 344.511 180.944 344.886 181.001C345.261 181.058 345.644 180.995 345.98 180.82L351.29 177.9C351.579 177.745 351.905 177.674 352.232 177.695C352.559 177.716 352.874 177.829 353.14 178.02L358.37 181.79C358.67 182.009 359.033 182.125 359.405 182.121C359.776 182.117 360.136 181.994 360.432 181.77C360.729 181.546 360.945 181.232 361.049 180.875C361.153 180.519 361.139 180.138 361.01 179.79L354.9 162.61C354.794 162.283 354.594 161.995 354.325 161.781C354.056 161.567 353.73 161.437 353.388 161.407C353.045 161.377 352.702 161.449 352.4 161.613C352.098 161.777 351.851 162.027 351.69 162.33Z" fill="white"/>
<path d="M364.82 122.16C363.68 128.72 362.66 140.7 367.32 144.95C367.32 144.95 365.96 150.89 353.55 152.95C345.21 150.27 347.04 145.43 347.04 145.43C354.28 143.53 353.97 138.14 352.6 133.1L364.82 122.16Z" fill="#FF8B7B"/>
<path opacity="0.2" d="M359.84 126.61L352.6 133.05C352.937 134.224 353.171 135.425 353.3 136.64C356.08 136.18 359.83 133.04 360.06 130.13C360.202 128.953 360.127 127.76 359.84 126.61Z" fill="black"/>
<path d="M368.79 114.09C366.38 122.61 365.41 127.72 360.09 131.21C352.09 136.45 342.28 130.21 342.09 121.12C341.91 112.96 345.87 100.39 355.09 98.79C357.115 98.4308 359.199 98.5945 361.143 99.2658C363.087 99.9371 364.827 101.094 366.199 102.626C367.571 104.158 368.53 106.016 368.983 108.022C369.436 110.028 369.37 112.117 368.79 114.09Z" fill="#FF8B7B"/>
<path d="M363.66 119.31C362.54 116.59 361.73 107.63 366.4 105.43C371.07 103.23 375.92 108.6 374.69 111.14C372.8 115.08 366.26 125.61 363.66 119.31Z" fill="#263238"/>
<path d="M366.45 108.59C365.3 105.59 351.59 103.89 349.67 100.66C347.39 96.82 356.74 96.36 363.17 98.31C368.82 100.03 372.59 101.69 371.93 105.89C371.56 108.27 366.45 108.59 366.45 108.59Z" fill="#263238"/>
<path d="M369.43 105.5C369.43 105.5 372.43 106.32 374.07 104.12C373.55 106.3 371 108.5 369.43 105.5Z" fill="#263238"/>
<path d="M355.7 96.25C351.58 93.05 345.97 96.81 346.5 100.98C347.03 105.15 360.92 108.32 360.92 108.32C360.92 108.32 361.17 100.5 355.7 96.25Z" fill="#263238"/>
<path d="M346.51 101C347.14 103.92 349.27 106.21 353.58 107.91C351.085 106.065 349.195 103.521 348.15 100.6L346.51 101Z" fill="#263238"/>
<path d="M355.16 113.66C355.01 114.37 354.52 114.86 354.06 114.76C353.6 114.66 353.35 114 353.5 113.3C353.65 112.6 354.15 112.11 354.61 112.21C355.07 112.31 355.32 113 355.16 113.66Z" fill="#263238"/>
<path d="M347.22 111.94C347.06 112.64 346.57 113.13 346.11 113.03C345.65 112.93 345.4 112.28 345.55 111.58C345.7 110.88 346.2 110.39 346.66 110.48C347.12 110.57 347.37 111.24 347.22 111.94Z" fill="#263238"/>
<path d="M349.67 112.84C348.365 114.807 346.793 116.584 345 118.12C346 119.55 348.23 119.48 348.23 119.48L349.67 112.84Z" fill="#FF5652"/>
<path d="M349.85 121.87C350.789 122.103 351.77 122.106 352.711 121.878C353.651 121.65 354.522 121.198 355.25 120.56C355.27 120.54 355.286 120.517 355.297 120.491C355.307 120.466 355.313 120.438 355.313 120.41C355.313 120.382 355.307 120.354 355.297 120.329C355.286 120.303 355.27 120.28 355.25 120.26C355.209 120.222 355.156 120.201 355.1 120.201C355.044 120.201 354.991 120.222 354.95 120.26C354.267 120.835 353.459 121.242 352.591 121.448C351.723 121.655 350.818 121.655 349.95 121.45C349.894 121.438 349.836 121.449 349.788 121.48C349.74 121.511 349.707 121.559 349.695 121.615C349.683 121.671 349.694 121.729 349.725 121.777C349.756 121.825 349.804 121.858 349.86 121.87H349.85Z" fill="#263238"/>
<path d="M358.11 111.62C358.187 111.635 358.266 111.629 358.34 111.603C358.414 111.577 358.479 111.53 358.528 111.47C358.577 111.409 358.609 111.336 358.62 111.259C358.631 111.181 358.621 111.102 358.59 111.03C358.32 110.414 357.907 109.871 357.385 109.447C356.863 109.023 356.248 108.729 355.59 108.59C355.479 108.576 355.367 108.605 355.277 108.672C355.187 108.74 355.127 108.839 355.11 108.95C355.101 109.005 355.104 109.06 355.117 109.114C355.13 109.167 355.153 109.218 355.186 109.263C355.218 109.307 355.259 109.345 355.306 109.374C355.353 109.402 355.406 109.421 355.46 109.43C355.979 109.544 356.463 109.781 356.872 110.12C357.281 110.459 357.602 110.891 357.81 111.38C357.838 111.441 357.88 111.494 357.932 111.535C357.984 111.577 358.045 111.606 358.11 111.62Z" fill="#263238"/>
<path d="M344.32 108.45C344.398 108.472 344.482 108.469 344.558 108.442C344.635 108.415 344.702 108.366 344.75 108.3C345.067 107.875 345.479 107.531 345.953 107.295C346.427 107.058 346.95 106.937 347.48 106.94C347.591 106.951 347.702 106.917 347.789 106.845C347.875 106.774 347.929 106.671 347.94 106.56C347.951 106.449 347.917 106.338 347.845 106.251C347.774 106.165 347.671 106.111 347.56 106.1C346.889 106.08 346.223 106.222 345.619 106.515C345.015 106.807 344.49 107.241 344.09 107.78C344.055 107.823 344.028 107.872 344.012 107.926C343.997 107.979 343.992 108.035 343.998 108.09C344.005 108.145 344.023 108.198 344.05 108.247C344.078 108.295 344.115 108.337 344.16 108.37C344.205 108.41 344.261 108.438 344.32 108.45Z" fill="#263238"/>
<path d="M383.28 153.16C385.1 156.34 386.62 159.42 388.2 162.59C389.78 165.76 391.2 168.95 392.55 172.21C393.9 175.47 395.21 178.78 396.35 182.21C397.535 185.631 398.537 189.112 399.35 192.64L399.96 195.37C400.227 196.652 400.341 197.961 400.3 199.27C400.215 201.702 399.676 204.096 398.71 206.33C397.012 210.094 394.597 213.49 391.6 216.33C388.927 218.911 386.014 221.232 382.9 223.26C381.39 224.26 379.83 225.18 378.26 226.06C376.69 226.94 375.13 227.75 373.38 228.52L370.06 222.71C371.27 221.71 372.6 220.71 373.84 219.63C375.08 218.55 376.29 217.45 377.49 216.35C379.807 214.2 381.957 211.877 383.92 209.4C385.666 207.276 387.02 204.858 387.92 202.26C388.23 201.292 388.352 200.274 388.28 199.26C388.251 198.852 388.174 198.45 388.05 198.06L387.37 195.82C385.349 189.607 382.945 183.525 380.17 177.61C378.8 174.61 377.34 171.61 375.88 168.61C374.42 165.61 372.88 162.61 371.39 159.76L383.28 153.16Z" fill="#FF8B7B"/>
<path d="M381.44 146.39C389.78 148.19 395.58 169.95 395.58 169.95L380.67 183.48C375.93 178.206 372.201 172.104 369.67 165.48C365.72 154.59 372.52 144.45 381.44 146.39Z" fill="#263238"/>
<path d="M371.87 221.68L362.28 221.78L368.28 231.45C368.28 231.45 375.11 229.76 375.72 226.33L371.87 221.68Z" fill="#FF8B7B"/>
<path d="M356.31 227.49L361.6 235.25L368.23 231.45L362.28 221.78L356.31 227.49Z" fill="#FF8B7B"/>
<path d="M371.41 121.89C370.345 123.85 368.547 125.31 366.41 125.95C363.57 126.78 362.12 124.25 362.88 121.56C363.57 119.14 365.88 115.79 368.72 116.14C371.56 116.49 372.68 119.48 371.41 121.89Z" fill="#FF8B7B"/>
<path d="M286.414 287.346L275.752 288.12L275.824 289.117L286.486 288.344L286.414 287.346Z" fill="#7E3AF2"/>
<path d="M295.994 286.655L290.758 287.035L290.83 288.033L296.066 287.653L295.994 286.655Z" fill="#7E3AF2"/>
<path d="M342 169.27L165.44 182C161.765 182.287 158.352 184.011 155.941 186.799C153.529 189.586 152.315 193.212 152.56 196.89L158.56 280.11C158.844 283.79 160.57 287.209 163.362 289.623C166.155 292.037 169.787 293.251 173.47 293L183.47 292.28C184.197 292.228 184.914 292.466 185.465 292.942C186.017 293.418 186.356 294.094 186.41 294.82L187.53 310.24C187.548 310.539 187.655 310.825 187.838 311.062C188.02 311.299 188.269 311.477 188.553 311.571C188.837 311.666 189.142 311.674 189.431 311.593C189.719 311.513 189.976 311.348 190.17 311.12L206.91 291.77C207.614 290.959 208.61 290.46 209.68 290.38L350 280.27C353.677 279.986 357.092 278.263 359.506 275.475C361.919 272.687 363.135 269.059 362.89 265.38L356.89 182.16C356.606 178.484 354.883 175.068 352.095 172.654C349.307 170.241 345.679 169.025 342 169.27Z" fill="#7E3AF2"/>
<path d="M191.23 220.2L200.77 219.51L201.55 230.31L211.97 229.56L211.19 218.76L220.77 218.06L223 248.92L213.42 249.61L212.52 237.13L202.1 237.89L203 250.37L193.47 251.06L191.23 220.2Z" fill="white"/>
<path opacity="0.2" d="M165.44 182C161.765 182.287 158.352 184.011 155.941 186.799C153.529 189.586 152.315 193.212 152.56 196.89L158.56 280.11C158.844 283.79 160.57 287.209 163.362 289.623C166.155 292.037 169.787 293.251 173.47 293L174.94 292.89C177.382 292.713 179.698 291.736 181.528 290.108C183.358 288.481 184.6 286.295 185.06 283.89L205.17 179.13L165.44 182Z" fill="black"/>
<path d="M252.93 237.66L235.75 238.9C235.882 240.013 236.349 241.059 237.09 241.9C237.515 242.347 238.038 242.69 238.617 242.902C239.196 243.113 239.817 243.188 240.43 243.12C241.272 243.06 242.085 242.784 242.79 242.32C243.342 241.902 243.813 241.387 244.18 240.8L252.68 240.97C251.755 243.066 250.253 244.855 248.35 246.13C246.603 247.237 244.023 247.903 240.61 248.13C238.224 248.408 235.805 248.152 233.53 247.38C231.706 246.614 230.141 245.34 229.02 243.71C227.735 241.854 226.997 239.675 226.89 237.42C226.712 235.854 226.863 234.268 227.335 232.765C227.807 231.261 228.589 229.873 229.63 228.69C231.71 226.37 234.71 225.067 238.63 224.78C241.225 224.472 243.857 224.78 246.31 225.68C248.189 226.483 249.772 227.849 250.84 229.59C252.063 231.752 252.749 234.177 252.84 236.66L252.93 237.66ZM243.93 234.18C243.808 232.88 243.248 231.659 242.34 230.72C241.883 230.368 241.358 230.114 240.799 229.973C240.24 229.833 239.657 229.809 239.088 229.902C238.519 229.996 237.975 230.206 237.49 230.518C237.006 230.831 236.59 231.24 236.27 231.72C235.736 232.661 235.467 233.729 235.49 234.81L243.93 234.18Z" fill="white"/>
<path d="M255.58 215.55L264.17 214.93L266.4 245.78L257.81 246.4L255.58 215.55Z" fill="white"/>
<path d="M269.93 214.51L278.52 213.89L280.75 244.74L272.17 245.36L269.93 214.51Z" fill="white"/>
<path d="M284.37 233.31C284.208 231.745 284.377 230.163 284.866 228.668C285.355 227.172 286.154 225.796 287.21 224.63C289.35 222.25 292.38 220.917 296.3 220.63C300.767 220.31 304.24 221.363 306.72 223.79C308.78 225.962 309.97 228.816 310.064 231.808C310.158 234.8 309.149 237.723 307.23 240.02C305.11 242.38 302.037 243.713 298.01 244.02C294.882 244.395 291.722 243.651 289.09 241.92C287.69 240.948 286.535 239.665 285.716 238.171C284.897 236.677 284.436 235.013 284.37 233.31ZM292.96 232.67C292.944 234.249 293.486 235.782 294.49 237C294.895 237.415 295.385 237.736 295.927 237.943C296.469 238.149 297.049 238.235 297.627 238.195C298.205 238.156 298.768 237.99 299.276 237.711C299.784 237.432 300.226 237.046 300.57 236.58C301.378 235.188 301.682 233.56 301.43 231.97C301.44 230.423 300.905 228.922 299.92 227.73C299.535 227.308 299.058 226.98 298.525 226.771C297.993 226.563 297.42 226.481 296.85 226.53C296.256 226.558 295.676 226.722 295.156 227.01C294.636 227.298 294.189 227.701 293.85 228.19C293.044 229.535 292.743 231.123 293 232.67H292.96Z" fill="white"/>
<path d="M312.77 211.41L321.92 210.75L322.43 217.75L321.68 232L316.02 232.41L313.27 218.41L312.77 211.41ZM314.77 234.69L323.31 234.07L323.86 241.63L315.31 242.24L314.77 234.69Z" fill="white"/>
<path d="M163 154.6C162.955 156.064 163.032 157.529 163.23 158.98C154.168 162.006 144.505 162.772 135.08 161.21C135.532 159.5 135.807 157.747 135.9 155.98C135.585 157.759 134.966 159.471 134.07 161.04C132.29 160.7 131.29 160.41 131.29 160.41C131.29 160.41 133.11 150.57 129.83 143.41C126.55 136.25 128.19 132.25 130.67 131.12C135.27 116.98 152.56 119.21 158.41 124.95C165.83 132.23 165.87 152.74 167.19 157.43C166.1 157.9 165.03 158.33 163.96 158.71C163.424 157.4 163.1 156.012 163 154.6Z" fill="#263238"/>
<path d="M170.15 176.61L171.05 179.46C171.38 180.46 171.71 181.46 172.05 182.41C172.72 184.41 173.42 186.41 174.17 188.33C174.92 190.25 175.64 192.27 176.42 194.23L177.58 197.23L177.87 197.97L177.94 198.14C177.816 198.032 177.674 197.947 177.52 197.89C177.3 197.81 177.21 197.89 177.35 197.89C177.591 197.889 177.83 197.852 178.06 197.78C178.842 197.532 179.593 197.197 180.3 196.78C182.005 195.786 183.636 194.67 185.18 193.44C186.8 192.18 188.39 190.83 189.95 189.44C191.51 188.05 193.08 186.6 194.59 185.18L197.66 187.78C196.38 189.62 195.03 191.3 193.66 193.01C192.29 194.72 190.75 196.32 189.17 197.91C187.544 199.57 185.773 201.082 183.88 202.43C182.797 203.189 181.633 203.826 180.41 204.33C179.634 204.641 178.82 204.85 177.99 204.95C176.863 205.09 175.719 204.935 174.67 204.5C173.527 204.013 172.552 203.199 171.87 202.16C171.72 201.93 171.58 201.7 171.47 201.49L171.2 200.95L170.84 200.22C170.37 199.22 169.84 198.22 169.43 197.28C168.52 195.28 167.61 193.28 166.78 191.28C165.95 189.28 165.14 187.22 164.37 185.16C164.01 184.16 163.65 183.07 163.31 182.02C162.97 180.97 162.64 179.94 162.31 178.71L170.15 176.61Z" fill="#FFC3BD"/>
<path d="M167.78 167.73C171.23 168.61 173.64 182.79 173.64 182.79L164.14 189.25C164.14 189.25 155.04 174.94 157.69 171.15C160.45 167.21 162.75 166.45 167.78 167.73Z" fill="#7E3AF2"/>
<path d="M167.78 167.73C171.23 168.61 173.64 182.79 173.64 182.79L164.14 189.25C164.14 189.25 155.04 174.94 157.69 171.15C160.45 167.21 162.75 166.45 167.78 167.73Z" fill="#7E3AF2"/>
<path opacity="0.4" d="M167.78 167.73C171.23 168.61 173.64 182.79 173.64 182.79L164.14 189.25C164.14 189.25 155.04 174.94 157.69 171.15C160.45 167.21 162.75 166.45 167.78 167.73Z" fill="white"/>
<path opacity="0.3" d="M167.47 170.9L170.12 185.19L164.78 188.81L167.47 170.9Z" fill="black"/>
<path d="M194.43 185.52L197.6 177.88L201.51 185.52C201.51 185.52 198.97 189.32 195.62 188.39L194.43 185.52Z" fill="#FFC3BD"/>
<path d="M201.09 177.09L206.11 179.11L201.51 185.52L197.59 177.88L201.09 177.09Z" fill="#FFC3BD"/>
<path d="M149.13 406.45H157.5L158.06 387.08H149.69L149.13 406.45Z" fill="#FFC3BD"/>
<path d="M93.01 381.5L100.7 384.78L110.77 368.02L103.07 364.74L93.01 381.5Z" fill="#FFC3BD"/>
<path d="M102.18 383.64L94.18 378.72C94.0432 378.632 93.8787 378.598 93.7182 378.623C93.5576 378.649 93.4123 378.734 93.31 378.86L88.5 384.63C88.3803 384.781 88.2943 384.956 88.2479 385.143C88.2014 385.33 88.1955 385.525 88.2305 385.714C88.2656 385.904 88.3408 386.083 88.4511 386.241C88.5614 386.399 88.7042 386.532 88.87 386.63C91.69 388.3 93.13 388.96 96.65 391.12C98.82 392.46 101.84 394.62 104.83 396.46C107.82 398.3 109.83 395.46 108.72 394.41C103.87 389.78 104.01 387.58 103.1 384.84C102.949 384.342 102.622 383.915 102.18 383.64Z" fill="#263238"/>
<path d="M157.78 405.48H148.39C148.228 405.478 148.071 405.535 147.948 405.64C147.825 405.744 147.744 405.89 147.72 406.05L146.65 413.49C146.624 413.681 146.64 413.875 146.696 414.059C146.752 414.243 146.848 414.413 146.976 414.557C147.105 414.7 147.263 414.814 147.439 414.891C147.616 414.967 147.807 415.005 148 415C151.28 414.95 152.86 414.75 157 414.75C159.54 414.75 164.8 415.02 168.31 415.02C171.82 415.02 172 411.55 170.54 411.23C163.99 409.82 161.41 407.88 159.2 406.03C158.809 405.681 158.304 405.486 157.78 405.48Z" fill="#263238"/>
<path opacity="0.2" d="M158.05 387.09L157.77 397.07H149.4L149.69 387.09H158.05Z" fill="black"/>
<path opacity="0.2" d="M103.07 364.75L110.76 368.02L105.57 376.66L97.88 373.38L103.07 364.75Z" fill="black"/>
<path d="M167.78 167.73C167.78 167.73 171.78 169.13 163.78 218.2H129.78C130.35 204.38 130.37 195.86 123.78 167.49C128.534 166.507 133.354 165.872 138.2 165.59C143.337 165.22 148.493 165.22 153.63 165.59C160.27 166.19 167.78 167.73 167.78 167.73Z" fill="#7E3AF2"/>
<path opacity="0.4" d="M167.78 167.73C167.78 167.73 171.78 169.13 163.78 218.2H129.78C130.35 204.38 130.37 195.86 123.78 167.49C128.534 166.507 133.354 165.872 138.2 165.59C143.337 165.22 148.493 165.22 153.63 165.59C160.27 166.19 167.78 167.73 167.78 167.73Z" fill="white"/>
<path d="M138.22 165.58C143.357 165.219 148.513 165.219 153.65 165.58C154.48 165.66 155.33 165.75 156.17 165.85C156.52 166.376 156.744 166.974 156.825 167.6C156.907 168.226 156.843 168.862 156.64 169.46C155.55 172.15 151.64 172.46 148.8 172.46C138.29 172.46 136.51 166.32 136.44 166.06L136.34 165.69L138.22 165.58Z" fill="white"/>
<path d="M139.75 148.22C140.75 153.22 141.7 162.28 138.22 165.59C138.22 165.59 139.58 170.59 148.8 170.59C158.94 170.59 153.65 165.59 153.65 165.59C148.11 164.27 148.26 160.16 149.22 156.31L139.75 148.22Z" fill="#FFC3BD"/>
<path d="M140.76 144.69C139.57 148.62 141.22 157.92 143.67 161.52C138.84 158.75 137.21 150.31 137.21 150.31L140.76 144.69Z" fill="#263238"/>
<path opacity="0.2" d="M143.61 151.52L149.22 156.3C148.974 157.196 148.813 158.114 148.74 159.04C146.63 158.73 143.74 156.41 143.5 154.2C143.376 153.307 143.413 152.4 143.61 151.52Z" fill="black"/>
<path d="M135.17 139.36C137.11 147.43 137.75 150.89 142.61 154.36C149.92 159.57 159.41 155.43 159.92 146.94C160.38 139.3 157.14 127.39 148.59 125.55C146.706 125.134 144.747 125.206 142.899 125.76C141.051 126.314 139.376 127.331 138.031 128.715C136.687 130.098 135.718 131.803 135.217 133.666C134.717 135.529 134.7 137.489 135.17 139.36Z" fill="#FFC3BD"/>
<path d="M163.79 218.2C163.79 218.2 170.38 282.62 169.79 308.12C169.22 334.64 159.5 395.12 159.5 395.12H148.2C148.2 395.12 149.99 336.17 148.99 310.12C147.9 281.72 138.88 218.18 138.88 218.18L163.79 218.2Z" fill="#7E3AF2"/>
<path opacity="0.4" d="M163.79 218.2C163.79 218.2 170.38 282.62 169.79 308.12C169.22 334.64 159.5 395.12 159.5 395.12H148.2C148.2 395.12 149.99 336.17 148.99 310.12C147.9 281.72 138.88 218.18 138.88 218.18L163.79 218.2Z" fill="black"/>
<path d="M147.26 395.54H160.52L161.5 391.31L146.64 390.79L147.26 395.54Z" fill="#7E3AF2"/>
<path opacity="0.2" d="M149.14 234.23C157.48 251.01 150.81 281.62 147.86 293.01C146.35 275.91 143.8 255.01 141.81 239.64C143.07 231 145.29 226.49 149.14 234.23Z" fill="black"/>
<path d="M154.82 218.2C154.82 218.2 147.12 285.2 141.31 306.67C134.42 332.2 108.19 375.67 108.19 375.67L97.7 371.21C97.7 371.21 113.93 321.85 119.21 308.4C130.46 279.7 120.83 236.93 129.82 218.2H154.82Z" fill="#7E3AF2"/>
<path opacity="0.4" d="M154.82 218.2C154.82 218.2 147.12 285.2 141.31 306.67C134.42 332.2 108.19 375.67 108.19 375.67L97.7 371.21C97.7 371.21 113.93 321.85 119.21 308.4C130.46 279.7 120.83 236.93 129.82 218.2H154.82Z" fill="black"/>
<path d="M96.25 371.24L109.27 376.78L112.4 373.28L97.38 366.07L96.25 371.24Z" fill="#7E3AF2"/>
<path d="M148 139.47C148.12 140.13 148.56 140.61 149 140.53C149.44 140.45 149.69 139.85 149.57 139.19C149.45 138.53 149.01 138.05 148.57 138.12C148.13 138.19 147.83 138.8 148 139.47Z" fill="#263238"/>
<path d="M155.46 138.15C155.57 138.81 156.02 139.29 156.46 139.21C156.9 139.13 157.16 138.53 157.04 137.87C156.92 137.21 156.48 136.73 156.04 136.8C155.6 136.87 155.34 137.48 155.46 138.15Z" fill="#263238"/>
<path d="M155.85 136.88L157.36 136.13C157.36 136.13 156.76 137.52 155.85 136.88Z" fill="#263238"/>
<path d="M153.67 139.64C154.528 141.051 155.578 142.337 156.79 143.46C156.493 143.76 156.135 143.993 155.739 144.141C155.344 144.29 154.921 144.351 154.5 144.32L153.67 139.64Z" fill="#ED847E"/>
<path d="M151.49 147.45C151.869 147.449 152.247 147.416 152.62 147.35C152.649 147.349 152.677 147.342 152.702 147.329C152.728 147.316 152.75 147.298 152.768 147.275C152.786 147.253 152.799 147.227 152.806 147.2C152.813 147.172 152.814 147.143 152.809 147.115C152.804 147.087 152.793 147.06 152.777 147.036C152.76 147.013 152.739 146.993 152.715 146.979C152.69 146.964 152.663 146.955 152.634 146.951C152.606 146.948 152.577 146.951 152.55 146.96C151.727 147.124 150.876 147.091 150.068 146.863C149.26 146.636 148.517 146.22 147.9 145.65C147.863 145.613 147.812 145.593 147.76 145.593C147.708 145.593 147.657 145.613 147.62 145.65C147.601 145.668 147.585 145.689 147.575 145.714C147.564 145.738 147.558 145.764 147.558 145.79C147.558 145.816 147.564 145.842 147.575 145.866C147.585 145.891 147.601 145.912 147.62 145.93C148.664 146.92 150.052 147.465 151.49 147.45Z" fill="#263238"/>
<path d="M138 134.63C138.219 136.757 138.552 138.87 139 140.96C139 140.96 144 134.63 144.83 131.24C144.632 132.575 144.244 133.874 143.68 135.1C143.68 135.1 150.41 133.63 151.07 129.19C151.059 131.178 150.837 133.159 150.41 135.1C150.41 135.1 156.83 132.58 156.24 128.32C155.65 124.06 145.79 122.41 141.24 123.85C136.69 125.29 132.24 129.96 133.58 136.38C134.92 142.8 137.49 145.21 137.49 145.21C137.49 145.21 135.64 138.74 138 134.63Z" fill="#263238"/>
<path d="M134.82 145.44C135.437 146.921 136.617 148.097 138.1 148.71C140.1 149.51 141.29 147.8 140.94 145.82C140.63 144.03 139.22 141.47 137.15 141.51C136.697 141.53 136.256 141.663 135.867 141.896C135.478 142.129 135.154 142.455 134.922 142.845C134.691 143.235 134.561 143.677 134.543 144.13C134.525 144.583 134.62 145.033 134.82 145.44Z" fill="#FFC3BD"/>
<path d="M139.21 131.55C138.21 135.55 140.29 144.75 142.91 148.22C137.91 145.69 135.91 137.33 135.91 137.33L139.21 131.55Z" fill="#263238"/>
<path d="M145.26 137.19C145.311 137.174 145.359 137.149 145.4 137.114C145.442 137.08 145.475 137.038 145.5 136.99C145.711 136.539 146.026 136.144 146.418 135.838C146.811 135.532 147.271 135.324 147.76 135.23C147.863 135.215 147.957 135.161 148.022 135.079C148.087 134.998 148.119 134.894 148.11 134.79C148.105 134.738 148.09 134.687 148.065 134.641C148.04 134.595 148.006 134.554 147.965 134.521C147.923 134.489 147.876 134.465 147.826 134.451C147.775 134.437 147.722 134.433 147.67 134.44C147.05 134.548 146.464 134.803 145.963 135.184C145.462 135.565 145.059 136.061 144.79 136.63C144.756 136.7 144.743 136.777 144.752 136.854C144.762 136.931 144.793 137.003 144.843 137.063C144.893 137.122 144.959 137.166 145.033 137.188C145.107 137.211 145.186 137.211 145.26 137.19Z" fill="#263238"/>
<path d="M158.19 134.09C158.24 134.092 158.29 134.083 158.337 134.064C158.384 134.045 158.426 134.017 158.46 133.98C158.533 133.905 158.574 133.805 158.574 133.7C158.574 133.595 158.533 133.495 158.46 133.42C158.034 132.958 157.504 132.604 156.915 132.385C156.327 132.166 155.694 132.089 155.07 132.16C155.018 132.17 154.968 132.189 154.924 132.218C154.88 132.247 154.842 132.285 154.812 132.328C154.782 132.372 154.761 132.421 154.751 132.473C154.74 132.525 154.74 132.578 154.75 132.63C154.772 132.731 154.832 132.82 154.918 132.878C155.003 132.935 155.108 132.958 155.21 132.94C155.702 132.885 156.201 132.947 156.665 133.121C157.128 133.294 157.545 133.575 157.88 133.94C157.917 133.987 157.964 134.024 158.018 134.05C158.072 134.076 158.13 134.09 158.19 134.09Z" fill="#263238"/>
<path d="M127.93 179.36C126.54 183.75 125.21 188.36 124.08 192.9C122.943 197.382 122.111 201.936 121.59 206.53L121.51 207.37C121.51 207.64 121.51 207.7 121.51 207.94C121.521 208.412 121.558 208.882 121.62 209.35C121.747 210.445 121.931 211.533 122.17 212.61C122.64 214.84 123.17 217.14 123.85 219.42C124.53 221.7 125.11 224.02 125.79 226.32L127.79 233.22L124.08 234.75C121.8 230.39 119.82 225.95 117.97 221.37C117.08 219.07 116.21 216.75 115.49 214.3C115.13 213.08 114.79 211.83 114.49 210.47C114.348 209.75 114.247 209.022 114.19 208.29C114.19 207.92 114.19 207.37 114.19 207.04V206.04C114.275 203.492 114.508 200.951 114.89 198.43C115.22 195.93 115.71 193.49 116.24 191.06C117.28 186.193 118.616 181.394 120.24 176.69L127.93 179.36Z" fill="#FFC3BD"/>
<path d="M123.8 167.49C120.4 168.49 116.31 180.24 116.31 180.24L129.51 189.68C129.51 189.68 134.33 179.9 132.9 175.5C131.41 170.92 127.69 166.31 123.8 167.49Z" fill="#7E3AF2"/>
<path opacity="0.4" d="M123.8 167.49C120.4 168.49 116.31 180.24 116.31 180.24L129.51 189.68C129.51 189.68 134.33 179.9 132.9 175.5C131.41 170.92 127.69 166.31 123.8 167.49Z" fill="white"/>
<path d="M105.56 386.82C105.723 386.763 105.871 386.67 105.993 386.549C106.116 386.428 106.21 386.282 106.27 386.12C106.328 386.016 106.358 385.899 106.358 385.78C106.358 385.661 106.328 385.544 106.27 385.44C105.67 384.56 102.64 384.63 102.27 384.64C102.232 384.641 102.194 384.652 102.162 384.674C102.13 384.695 102.105 384.725 102.09 384.76C102.07 384.792 102.06 384.828 102.06 384.865C102.06 384.902 102.07 384.938 102.09 384.97C102.88 385.76 104.36 387.05 105.4 386.85L105.56 386.82ZM102.75 385C103.96 385 105.58 385.17 105.9 385.64C105.927 385.685 105.942 385.737 105.942 385.79C105.942 385.843 105.927 385.895 105.9 385.94C105.856 386.061 105.782 386.169 105.686 386.254C105.59 386.339 105.475 386.4 105.35 386.43C104.8 386.57 103.84 386 102.75 385Z" fill="#7E3AF2"/>
<path d="M103.64 384.79C104.56 384.5 105.54 383.99 105.75 383.42C105.802 383.272 105.803 383.11 105.752 382.961C105.701 382.813 105.602 382.685 105.47 382.6C105.353 382.503 105.216 382.433 105.069 382.397C104.922 382.361 104.768 382.358 104.62 382.39C103.43 382.6 102.15 384.64 102.1 384.73C102.082 384.76 102.073 384.795 102.073 384.83C102.073 384.865 102.082 384.9 102.1 384.93C102.118 384.959 102.143 384.984 102.172 385.001C102.202 385.019 102.236 385.029 102.27 385.03C102.736 385.017 103.197 384.936 103.64 384.79ZM104.56 382.79H104.69C104.784 382.77 104.881 382.772 104.975 382.794C105.068 382.817 105.155 382.86 105.23 382.92C105.43 383.08 105.41 383.2 105.38 383.29C105.18 383.84 103.66 384.5 102.65 384.63C103.109 383.861 103.77 383.232 104.56 382.81V382.79Z" fill="#7E3AF2"/>
<path d="M160.92 406.94C161.625 406.998 162.329 406.818 162.92 406.43C163.057 406.306 163.162 406.149 163.225 405.975C163.288 405.801 163.307 405.613 163.28 405.43C163.272 405.322 163.237 405.217 163.177 405.126C163.118 405.035 163.036 404.961 162.94 404.91C161.94 404.35 158.59 406.05 158.21 406.24C158.173 406.255 158.142 406.281 158.12 406.314C158.098 406.347 158.086 406.385 158.086 406.425C158.086 406.465 158.098 406.503 158.12 406.536C158.142 406.569 158.173 406.595 158.21 406.61C159.1 406.811 160.008 406.922 160.92 406.94ZM162.41 405.21C162.537 405.202 162.664 405.226 162.78 405.28C162.819 405.302 162.852 405.333 162.875 405.372C162.898 405.411 162.91 405.455 162.91 405.5C162.929 405.615 162.918 405.733 162.88 405.843C162.841 405.953 162.776 406.052 162.69 406.13C162.18 406.59 160.8 406.67 158.95 406.36C160.03 405.783 161.2 405.395 162.41 405.21Z" fill="#7E3AF2"/>
<path d="M158.33 406.65H158.41C159.41 406.2 161.41 404.4 161.23 403.45C161.23 403.22 161.03 402.95 160.48 402.89C160.283 402.868 160.084 402.887 159.895 402.945C159.705 403.004 159.53 403.101 159.38 403.23C158.38 404.11 158.14 406.36 158.13 406.45C158.129 406.485 158.136 406.52 158.152 406.551C158.168 406.583 158.191 406.61 158.22 406.63C158.253 406.651 158.292 406.658 158.33 406.65ZM160.33 403.26H160.45C160.81 403.26 160.84 403.45 160.84 403.49C160.94 404.06 159.6 405.49 158.58 406.1C158.66 405.15 159.034 404.248 159.65 403.52C159.833 403.353 160.072 403.261 160.32 403.26H160.33Z" fill="#7E3AF2"/>
<path d="M129.31 216.21L128.45 219.21C128.33 219.44 128.61 219.68 129 219.68H164C164.31 219.68 164.56 219.53 164.58 219.34L164.89 216.34C164.89 216.13 164.64 215.95 164.31 215.95H129.87C129.762 215.942 129.654 215.961 129.556 216.007C129.458 216.052 129.373 216.122 129.31 216.21Z" fill="#263238"/>
<path d="M133.93 220.05H133C132.82 220.05 132.68 219.96 132.69 219.84L133.12 215.84C133.12 215.73 133.3 215.63 133.48 215.63H134.4C134.59 215.63 134.72 215.73 134.71 215.84L134.28 219.84C134.28 220 134.12 220.05 133.93 220.05Z" fill="#7E3AF2"/>
<path opacity="0.4" d="M133.93 220.05H133C132.82 220.05 132.68 219.96 132.69 219.84L133.12 215.84C133.12 215.73 133.3 215.63 133.48 215.63H134.4C134.59 215.63 134.72 215.73 134.71 215.84L134.28 219.84C134.28 220 134.12 220.05 133.93 220.05Z" fill="black"/>
<path d="M161.36 220.05H160.44C160.26 220.05 160.12 219.96 160.13 219.84L160.57 215.84C160.57 215.73 160.74 215.63 160.92 215.63H161.84C162.03 215.63 162.17 215.73 162.15 215.84L161.72 219.84C161.71 220 161.55 220.05 161.36 220.05Z" fill="#7E3AF2"/>
<path opacity="0.4" d="M161.36 220.05H160.44C160.26 220.05 160.12 219.96 160.13 219.84L160.57 215.84C160.57 215.73 160.74 215.63 160.92 215.63H161.84C162.03 215.63 162.17 215.73 162.15 215.84L161.72 219.84C161.71 220 161.55 220.05 161.36 220.05Z" fill="black"/>
<path d="M147.65 220.05H146.73C146.54 220.05 146.4 219.96 146.42 219.84L146.85 215.84C146.85 215.73 147.02 215.63 147.21 215.63H148.13C148.31 215.63 148.45 215.73 148.44 215.84L148.01 219.84C148 220 147.83 220.05 147.65 220.05Z" fill="#7E3AF2"/>
<path opacity="0.4" d="M147.65 220.05H146.73C146.54 220.05 146.4 219.96 146.42 219.84L146.85 215.84C146.85 215.73 147.02 215.63 147.21 215.63H148.13C148.31 215.63 148.45 215.73 148.44 215.84L148.01 219.84C148 220 147.83 220.05 147.65 220.05Z" fill="black"/>
<path d="M148.34 138.19L149.85 137.45C149.85 137.45 149.25 138.84 148.34 138.19Z" fill="#263238"/>
<path d="M127.51 232.09L134.68 237.59L126.37 239.42C126.37 239.42 122.84 235.42 124.06 232.12L127.51 232.09Z" fill="#FFC3BD"/>
<path d="M136.44 244.4L129.4 245.55L125.56 238.33L134.68 237.59L136.44 244.4Z" fill="#FFC3BD"/>
</svg>
