<svg width="500" height="400" viewBox="0 0 500 500" fill="none" xmlns="http://www.w3.org/2000/svg">
<path d="M500 382.4H0V382.65H500V382.4Z" fill="#EBEBEB"/>
<path d="M435.67 398.49H416.78V398.74H435.67V398.49Z" fill="#EBEBEB"/>
<path d="M322.52 396.75H293.05V397H322.52V396.75Z" fill="#EBEBEB"/>
<path d="M415.78 389.21H368.67V389.46H415.78V389.21Z" fill="#EBEBEB"/>
<path d="M63.43 390.89H52.46V391.14H63.43V390.89Z" fill="#EBEBEB"/>
<path d="M110.89 390.89H72.3301V391.14H110.89V390.89Z" fill="#EBEBEB"/>
<path d="M225.15 395.11H171V395.36H225.15V395.11Z" fill="#EBEBEB"/>
<path d="M237 337.8H43.92C42.4056 337.8 40.9532 337.198 39.8824 336.128C38.8115 335.057 38.21 333.604 38.21 332.09V60.66C38.2231 59.1543 38.8305 57.7147 39.9 56.6547C40.9694 55.5947 42.4142 54.9999 43.92 55H237C238.514 55 239.967 55.6016 241.038 56.6724C242.108 57.7433 242.71 59.1956 242.71 60.71V332.09C242.71 333.604 242.108 335.057 241.038 336.128C239.967 337.198 238.514 337.8 237 337.8ZM43.92 55.2C42.4727 55.2026 41.0855 55.7787 40.0621 56.8021C39.0387 57.8255 38.4626 59.2127 38.46 60.66V332.09C38.4626 333.537 39.0387 334.924 40.0621 335.948C41.0855 336.971 42.4727 337.547 43.92 337.55H237C238.447 337.547 239.834 336.971 240.858 335.948C241.881 334.924 242.457 333.537 242.46 332.09V60.66C242.457 59.2127 241.881 57.8255 240.858 56.8021C239.834 55.7787 238.447 55.2026 237 55.2H43.92Z" fill="#EBEBEB"/>
<path d="M453.31 337.8H260.21C258.696 337.797 257.246 337.195 256.175 336.125C255.105 335.054 254.503 333.604 254.5 332.09V60.66C254.516 59.1551 255.124 57.7171 256.193 56.6576C257.262 55.5981 258.705 55.0025 260.21 55H453.31C454.812 55.0052 456.252 55.6022 457.317 56.6617C458.382 57.7212 458.987 59.1578 459 60.66V332.09C459 333.601 458.401 335.05 457.335 336.121C456.268 337.191 454.821 337.795 453.31 337.8ZM260.21 55.2C258.763 55.2026 257.375 55.7787 256.352 56.8021C255.329 57.8255 254.753 59.2127 254.75 60.66V332.09C254.753 333.537 255.329 334.924 256.352 335.948C257.375 336.971 258.763 337.547 260.21 337.55H453.31C454.757 337.547 456.145 336.971 457.168 335.948C458.191 334.924 458.767 333.537 458.77 332.09V60.66C458.767 59.2127 458.191 57.8255 457.168 56.8021C456.145 55.7787 454.757 55.2026 453.31 55.2H260.21Z" fill="#EBEBEB"/>
<path d="M435.67 398.49H416.78V398.74H435.67V398.49Z" fill="#EBEBEB"/>
<path d="M322.52 396.75H293.05V397H322.52V396.75Z" fill="#EBEBEB"/>
<path d="M415.78 389.21H368.67V389.46H415.78V389.21Z" fill="#EBEBEB"/>
<path d="M63.43 390.89H52.46V391.14H63.43V390.89Z" fill="#EBEBEB"/>
<path d="M110.89 390.89H72.3301V391.14H110.89V390.89Z" fill="#EBEBEB"/>
<path d="M225.15 395.11H171V395.36H225.15V395.11Z" fill="#EBEBEB"/>
<path d="M196.94 85.62H137.56V220.66H196.94V85.62Z" fill="#E6E6E6"/>
<path d="M200.57 85.62H141.19V220.66H200.57V85.62Z" fill="#F5F5F5"/>
<path d="M194.06 214.58V91.7H147.7V214.58H194.06Z" fill="white"/>
<path d="M194.05 214.58V91.7H191.31V214.58H194.05Z" fill="#E6E6E6"/>
<path d="M197.87 178.09H143.88V186.25H197.87V178.09Z" fill="#F5F5F5"/>
<path d="M197.87 102.42H143.88V110.58H197.87V102.42Z" fill="#F5F5F5"/>
<path d="M277 85.62H217.62V220.66H277V85.62Z" fill="#E6E6E6"/>
<path d="M280.62 85.62H221.24V220.66H280.62V85.62Z" fill="#F5F5F5"/>
<path d="M274.11 214.58V91.7H227.75V214.58H274.11Z" fill="white"/>
<path d="M274.11 214.58V91.7H271.37V214.58H274.11Z" fill="#E6E6E6"/>
<path d="M277.93 178.09H223.94V186.25H277.93V178.09Z" fill="#F5F5F5"/>
<path d="M277.93 102.42H223.94V110.58H277.93V102.42Z" fill="#F5F5F5"/>
<path d="M116.88 85.62H57.5V220.66H116.88V85.62Z" fill="#E6E6E6"/>
<path d="M120.51 85.62H61.1299V220.66H120.51V85.62Z" fill="#F5F5F5"/>
<path d="M114 214.58L114 91.7H67.64V214.58H114Z" fill="white"/>
<path d="M113.99 214.57L113.99 91.69H111.25L111.25 214.57H113.99Z" fill="#E6E6E6"/>
<path d="M117.81 178.09H63.8198V186.25H117.81V178.09Z" fill="#F5F5F5"/>
<path d="M117.81 102.42H63.8198V110.58H117.81V102.42Z" fill="#F5F5F5"/>
<path d="M329.22 247.51H319.51V382.4H329.22V247.51Z" fill="#E6E6E6"/>
<path d="M331.82 247.51H326.1V382.4H331.82V247.51Z" fill="#F0F0F0"/>
<path d="M195.71 257.62H333.59V247.5L195.71 247.5V257.62Z" fill="#F0F0F0"/>
<path d="M65.1099 247.51H55.3999V382.4H65.1099V247.51Z" fill="#E6E6E6"/>
<path d="M66.93 247.51H61.21V382.4H66.93V247.51Z" fill="#F0F0F0"/>
<path d="M53.67 257.62H191.55V247.5L53.67 247.5V257.62Z" fill="#E6E6E6"/>
<path d="M194.88 247.51H185.17V382.4H194.88V247.51Z" fill="#E6E6E6"/>
<path d="M197.48 247.51H191.76V382.4H197.48V247.51Z" fill="#F0F0F0"/>
<path d="M170.17 202.64H242.17L247.82 245.15H175.83L170.17 202.64Z" fill="#E6E6E6"/>
<path d="M175.83 245.15L176.12 247.5H248.12L247.83 245.15H175.83Z" fill="#E6E6E6"/>
<path d="M172.39 202.64H244.38L250.04 245.15H178.04L172.39 202.64Z" fill="#F0F0F0"/>
<path d="M179.78 243.21L174.65 204.58H242.64L247.78 243.21H179.78Z" fill="white"/>
<path d="M196.8 245.15L197.09 247.5H276.38L276.08 245.15H196.8Z" fill="#F0F0F0"/>
<path d="M326.9 211H291.26C285.193 210.945 279.317 213.116 274.743 217.102C270.169 221.088 267.215 226.613 266.44 232.63L261.23 272L241.87 271.93H241.81C237.493 271.828 233.302 273.386 230.1 276.283C226.898 279.18 224.929 283.195 224.6 287.5L223.46 301C221.583 301.265 219.845 302.14 218.513 303.49C217.181 304.839 216.33 306.589 216.09 308.47H311.7C317.762 308.525 323.633 306.356 328.203 302.373C332.773 298.391 335.725 292.872 336.5 286.86L344 230.36C344.286 227.939 344.057 225.485 343.33 223.158C342.602 220.831 341.392 218.684 339.778 216.857C338.164 215.03 336.183 213.564 333.964 212.555C331.745 211.545 329.338 211.016 326.9 211ZM242.9 300.86H228.6L229.68 288.44C229.915 285.257 231.365 282.287 233.728 280.142C236.092 277.998 239.19 276.845 242.38 276.92H242.43L260.59 276.98L259.32 286.55C258.806 290.536 256.847 294.194 253.815 296.832C250.783 299.47 246.889 300.903 242.87 300.86H242.9Z" fill="#E0E0E0"/>
<path d="M238.17 308.43H233.21L221.59 382.4H226.55L238.17 308.43Z" fill="#F0F0F0"/>
<path d="M256.79 308.43H251.83L240.2 382.4H245.16L256.79 308.43Z" fill="#F0F0F0"/>
<path d="M300.47 308.43H305.43L317.06 382.4H312.1L300.47 308.43Z" fill="#F0F0F0"/>
<path d="M281.86 308.43H286.82L298.44 382.4H293.48L281.86 308.43Z" fill="#F0F0F0"/>
<path d="M439.61 87.99H342.92V290H439.61V87.99Z" fill="#E6E6E6"/>
<path d="M446.33 87.99H344.71V290H446.33V87.99Z" fill="#F0F0F0"/>
<path d="M437.81 281.49V96.51H353.21V281.49H437.81Z" fill="#FAFAFA"/>
<path d="M383.21 281.49L393.69 96.5H407.83L397.35 281.49H383.21Z" fill="white"/>
<path d="M400.02 281.49L410.5 96.5H424.64L414.16 281.49H400.02Z" fill="white"/>
<path d="M250 427.56C357.082 427.56 443.89 422.492 443.89 416.24C443.89 409.988 357.082 404.92 250 404.92C142.917 404.92 56.1099 409.988 56.1099 416.24C56.1099 422.492 142.917 427.56 250 427.56Z" fill="#F5F5F5"/>
<path d="M240.81 121.6L225.3 348.09H414.42L431.55 97.87H266.17L240.81 121.6Z" fill="#7E57C2"/>
<path opacity="0.8" d="M240.81 121.6L225.3 348.09H414.42L431.55 97.87H266.17L240.81 121.6Z" fill="white"/>
<path d="M398.944 174.336C411.684 162.024 412.691 142.398 401.193 130.499C389.695 118.601 370.045 118.936 357.305 131.248C344.565 143.56 343.558 163.186 355.056 175.085C366.554 186.983 386.203 186.648 398.944 174.336Z" fill="#7E57C2"/>
<path d="M397.846 173.2C409.915 161.537 410.87 142.945 399.978 131.674C389.086 120.403 370.472 120.721 358.403 132.384C346.334 144.047 345.379 162.639 356.271 173.91C367.163 185.181 385.777 184.863 397.846 173.2Z" fill="white"/>
<mask id="mask0_153_396" style="mask-type:luminance" maskUnits="userSpaceOnUse" x="348" y="123" width="60" height="60">
<path d="M397.846 173.2C409.915 161.537 410.87 142.945 399.978 131.674C389.086 120.403 370.472 120.721 358.403 132.384C346.334 144.047 345.379 162.639 356.271 173.91C367.163 185.181 385.777 184.863 397.846 173.2Z" fill="white"/>
</mask>
<g mask="url(#mask0_153_396)">
<path d="M370.41 163L364.63 162.62C364.63 162.62 361.94 176.46 360.22 177.62C357.87 179.25 353.22 183.19 350.13 184.62C349.811 185.556 349.746 186.56 349.94 187.53C354.74 187.53 363.62 182.75 365.15 180.67C368.66 176 370.41 163 370.41 163Z" fill="#FFC3BD"/>
<path d="M373.17 154.32C374.92 157.58 369.47 169.32 369.47 169.32L362.05 167C362.263 163.39 363.099 159.845 364.52 156.52C366.36 152.69 371.25 150.74 373.17 154.32Z" fill="#263238"/>
<path opacity="0.2" d="M367.5 160.32C368.5 162.68 367.19 168.38 366.16 171.99C363.65 167.69 363.3 163.69 367.5 160.32Z" fill="black"/>
<path d="M367.47 154.9C366.33 159.07 364.09 170.02 365.92 187.21H385.45C385.9 183.94 385.33 167.97 389.92 152.56C387.593 152.1 385.238 151.799 382.87 151.66C379.853 151.485 376.827 151.485 373.81 151.66C372.522 151.78 371.247 152.014 370 152.36C369.394 152.527 368.842 152.849 368.399 153.295C367.955 153.74 367.635 154.293 367.47 154.9Z" fill="#263238"/>
<path opacity="0.2" d="M384.94 156.36C384.35 158.9 384.58 164.97 386.35 171.99C386.875 165.944 387.922 159.955 389.48 154.09C388.09 153.92 385.5 154 384.94 156.36Z" fill="black"/>
<path d="M382.47 143.18C381.63 146.1 381.01 149.71 382.87 151.66C382.87 151.66 381.42 154.66 376.01 154.66C371.06 154.66 373.81 151.66 373.81 151.66C377.13 150.88 377.34 146.86 376.98 144.6L382.47 143.18Z" fill="#FFC3BD"/>
<path d="M376 154.61C376.505 155.457 376.774 156.424 376.78 157.41C376.78 157.41 383.78 155.02 383.78 151.51C383.78 151.51 382.87 150.94 382.3 150.51C382.32 150.48 381.85 153.21 376 154.61Z" fill="white"/>
<path d="M375.81 154.61C375.18 155.371 374.711 156.252 374.43 157.2C373.606 156.569 373.003 155.692 372.71 154.696C372.417 153.7 372.449 152.637 372.8 151.66C373.381 151.427 373.98 151.24 374.59 151.1C374.59 151.1 373.74 153.86 375.81 154.61Z" fill="white"/>
<path opacity="0.2" d="M377 144.6C377.288 146.206 377.125 147.861 376.53 149.38C377.045 149.306 377.547 149.158 378.02 148.94C379.94 148.07 380.97 146.71 382.1 144.7C382.21 144.18 382.35 143.7 382.49 143.18L377 144.6Z" fill="black"/>
<path d="M372.25 141.9C372.398 142.343 372.638 142.75 372.953 143.094C373.268 143.438 373.652 143.713 374.08 143.9C375.25 144.4 376.08 143.33 376.01 142.1C375.94 140.87 375.2 139.39 373.91 139.41C373.619 139.424 373.336 139.506 373.083 139.649C372.829 139.793 372.613 139.994 372.452 140.236C372.29 140.478 372.188 140.755 372.153 141.044C372.118 141.333 372.151 141.626 372.25 141.9Z" fill="#FFC3BD"/>
<path opacity="0.2" d="M372.25 141.9C372.398 142.343 372.638 142.75 372.953 143.094C373.268 143.438 373.652 143.713 374.08 143.9C375.25 144.4 376.08 143.33 376.01 142.1C375.94 140.87 375.2 139.39 373.91 139.41C373.619 139.424 373.336 139.506 373.083 139.649C372.829 139.793 372.613 139.994 372.452 140.236C372.29 140.478 372.188 140.755 372.153 141.044C372.118 141.333 372.151 141.626 372.25 141.9Z" fill="black"/>
<path d="M377.48 133.73C377.1 131.42 373.69 135.48 374.42 137.62C375.15 139.76 377.9 136.33 377.48 133.73Z" fill="#263238"/>
<path d="M384.78 139.59C383.53 143.46 382.99 145.77 380.54 147.43C379.799 147.997 378.911 148.339 377.98 148.415C377.05 148.492 376.118 148.3 375.294 147.861C374.47 147.423 373.79 146.757 373.333 145.943C372.877 145.129 372.664 144.201 372.72 143.27C372.82 139.61 374.85 133.9 378.99 133C383.13 132.1 386 135.72 384.78 139.59Z" fill="#FFC3BD"/>
<path d="M383.64 137.3C379.42 136.7 373.36 135.92 375.56 132.47C377.65 129.18 385.99 129.78 383.46 131.24C386.73 131.43 390.89 133 387.75 134.08C390.28 135.88 389.28 140.7 384.45 142.38C383.06 140.36 382 139.47 383.64 137.3Z" fill="#263238"/>
<path d="M385.38 144.2C384.667 144.931 383.709 145.373 382.69 145.44C381.37 145.51 381.12 144.25 381.83 143.16C382.54 142.07 383.92 140.96 385.08 141.41C386.24 141.86 386.27 143.28 385.38 144.2Z" fill="#FFC3BD"/>
<path d="M378.71 139.67C378.63 139.99 378.4 140.21 378.19 140.18C377.98 140.15 377.89 139.86 377.98 139.54C378.07 139.22 378.29 138.99 378.49 139.03C378.69 139.07 378.8 139.35 378.71 139.67Z" fill="#263238"/>
<path d="M375.2 139.05C375.12 139.37 374.89 139.6 374.69 139.56C374.49 139.52 374.39 139.24 374.47 138.92C374.55 138.6 374.78 138.38 374.99 138.41C375.2 138.44 375.29 138.73 375.2 139.05Z" fill="#263238"/>
<path d="M376.28 139.41C375.652 140.318 374.913 141.145 374.08 141.87C374.258 142.063 374.477 142.211 374.722 142.305C374.966 142.399 375.229 142.435 375.49 142.41L376.28 139.41Z" fill="#ED847E"/>
<path d="M376.17 143.45C376.158 143.448 376.147 143.443 376.137 143.436C376.127 143.429 376.118 143.42 376.111 143.41C376.105 143.4 376.101 143.388 376.099 143.376C376.097 143.364 376.097 143.352 376.1 143.34C376.109 143.315 376.125 143.294 376.147 143.28C376.168 143.266 376.194 143.259 376.22 143.26C376.62 143.33 377.03 143.31 377.421 143.201C377.813 143.092 378.174 142.897 378.48 142.63C378.488 142.621 378.499 142.614 378.51 142.609C378.521 142.605 378.533 142.602 378.545 142.602C378.557 142.602 378.569 142.605 378.58 142.609C378.592 142.614 378.602 142.621 378.61 142.63C378.628 142.649 378.639 142.674 378.639 142.7C378.639 142.726 378.628 142.751 378.61 142.77C378.282 143.062 377.892 143.275 377.469 143.393C377.046 143.51 376.602 143.53 376.17 143.45Z" fill="#263238"/>
<path d="M380.07 138.69C380.043 138.686 380.017 138.674 379.996 138.657C379.975 138.639 379.959 138.616 379.95 138.59C379.867 138.378 379.732 138.191 379.557 138.046C379.382 137.9 379.173 137.802 378.95 137.76C378.926 137.759 378.902 137.753 378.881 137.742C378.86 137.731 378.841 137.715 378.827 137.696C378.813 137.677 378.803 137.655 378.798 137.631C378.793 137.608 378.794 137.583 378.8 137.56C378.81 137.51 378.837 137.465 378.878 137.433C378.918 137.402 378.969 137.387 379.02 137.39C379.303 137.431 379.57 137.545 379.796 137.72C380.022 137.896 380.199 138.126 380.31 138.39C380.327 138.438 380.325 138.49 380.304 138.537C380.284 138.583 380.247 138.62 380.2 138.64C380.183 138.657 380.163 138.67 380.14 138.679C380.118 138.688 380.094 138.691 380.07 138.69Z" fill="#263238"/>
<path d="M374 137.5C373.977 137.508 373.953 137.508 373.93 137.5C373.912 137.483 373.898 137.463 373.889 137.441C373.879 137.418 373.875 137.394 373.875 137.37C373.875 137.346 373.879 137.322 373.889 137.299C373.898 137.277 373.912 137.257 373.93 137.24C374.13 137.004 374.38 136.816 374.662 136.69C374.944 136.564 375.251 136.502 375.56 136.51C375.584 136.514 375.607 136.522 375.627 136.535C375.648 136.547 375.665 136.564 375.679 136.583C375.693 136.603 375.703 136.625 375.709 136.649C375.714 136.672 375.714 136.696 375.71 136.72C375.7 136.772 375.671 136.819 375.628 136.85C375.586 136.882 375.533 136.896 375.48 136.89C375.236 136.887 374.995 136.938 374.773 137.04C374.552 137.143 374.356 137.293 374.2 137.48C374.172 137.503 374.139 137.517 374.103 137.521C374.067 137.524 374.032 137.517 374 137.5Z" fill="#263238"/>
<path d="M391.64 157.91L386.35 160.72C386.35 160.72 391.46 173.32 390.59 175.21C389.4 177.79 387.43 183.46 385.49 186.27C385.719 187.207 386.208 188.059 386.9 188.73C391.14 186.17 396.35 177.52 396.58 175.02C397.1 169.31 391.64 157.91 391.64 157.91Z" fill="#FFC3BD"/>
<path d="M389.92 152.56C393.62 153.21 396.34 166.39 396.34 166.39L387.22 169C385.924 165.969 384.851 162.847 384.01 159.66C382.8 154.78 386 151.85 389.92 152.56Z" fill="#263238"/>
</g>
<path d="M388.879 321.397C401.619 309.085 402.626 289.459 391.128 277.56C379.63 265.662 359.98 265.997 347.24 278.309C334.5 290.621 333.493 310.247 344.991 322.146C356.489 334.044 376.139 333.709 388.879 321.397Z" fill="#7E57C2"/>
<path d="M387.781 320.251C399.85 308.588 400.805 289.996 389.913 278.725C379.021 267.454 360.407 267.772 348.338 279.435C336.269 291.098 335.314 309.69 346.206 320.961C357.098 332.232 375.712 331.914 387.781 320.251Z" fill="white"/>
<mask id="mask1_153_396" style="mask-type:luminance" maskUnits="userSpaceOnUse" x="338" y="270" width="60" height="60">
<path d="M387.781 320.251C399.85 308.588 400.805 289.996 389.913 278.725C379.021 267.454 360.407 267.772 348.338 279.435C336.269 291.098 335.314 309.69 346.206 320.961C357.098 332.232 375.712 331.914 387.781 320.251Z" fill="white"/>
</mask>
<g mask="url(#mask1_153_396)">
<path d="M357.84 310.34L352.41 308.57C352.41 308.57 346.5 321.57 344.57 322.35C341.93 323.35 336.57 326.16 333.26 326.83C332.723 327.681 332.413 328.655 332.36 329.66C336.94 330.84 346.57 328.24 348.54 326.55C353 322.71 357.84 310.34 357.84 310.34Z" fill="#FFB573"/>
<path d="M362.57 302.41C363.45 306.05 355.41 316.36 355.41 316.36L348.9 312.24C349.972 308.739 351.625 305.443 353.79 302.49C356.47 299.16 361.6 298.42 362.57 302.41Z" fill="#7E57C2"/>
<path opacity="0.3" d="M362.57 302.41C363.45 306.05 355.41 316.36 355.41 316.36L348.9 312.24C349.972 308.739 351.625 305.443 353.79 302.49C356.47 299.16 361.6 298.42 362.57 302.41Z" fill="black"/>
<path opacity="0.2" d="M357.49 306.94C358.1 309.46 357.55 313.49 355.94 316.94C354.51 314.77 352.84 309.6 357.49 306.94Z" fill="black"/>
<path d="M357.4 302C356.26 306.17 354.03 317.12 355.85 334.31H375.39C375.84 331.04 375.26 315.07 379.85 299.66C377.523 299.2 375.168 298.899 372.8 298.76C369.782 298.585 366.757 298.585 363.74 298.76C362.452 298.881 361.177 299.115 359.93 299.46C359.325 299.629 358.774 299.952 358.33 300.397C357.887 300.842 357.566 301.394 357.4 302Z" fill="#7E57C2"/>
<path opacity="0.3" d="M357.4 302C356.26 306.17 354.03 317.12 355.85 334.31H375.39C375.84 331.04 375.26 315.07 379.85 299.66C377.523 299.2 375.168 298.899 372.8 298.76C369.782 298.585 366.757 298.585 363.74 298.76C362.452 298.881 361.177 299.115 359.93 299.46C359.325 299.629 358.774 299.952 358.33 300.397C357.887 300.842 357.566 301.394 357.4 302Z" fill="black"/>
<path opacity="0.2" d="M374.94 306.69C374.35 309.23 373.83 315.26 376.28 319.04C376.808 312.994 377.859 307.005 379.42 301.14C378 301 375.5 304.31 374.94 306.69Z" fill="black"/>
<g opacity="0.95">
<path d="M365.69 306.56L364.62 307.03L363.8 306.29C362.758 305.427 362.001 304.269 361.628 302.968C361.255 301.667 361.284 300.284 361.71 299C362.371 298.869 363.039 298.772 363.71 298.71C366.727 298.535 369.753 298.535 372.77 298.71C373.47 298.71 374.17 298.8 374.85 298.87L374.17 299.74C371.876 302.606 368.981 304.934 365.69 306.56Z" fill="white"/>
</g>
<path d="M372.41 290.23C371.56 293.15 370.94 296.76 372.8 298.71C370.697 301.313 368.057 303.431 365.06 304.92C364.144 304.206 363.509 303.192 363.267 302.056C363.026 300.92 363.193 299.735 363.74 298.71C367.07 297.93 367.27 293.91 366.91 291.65L372.41 290.23Z" fill="#FFB573"/>
<path opacity="0.2" d="M366.91 291.65C367.198 293.256 367.035 294.911 366.44 296.43C366.958 296.355 367.463 296.207 367.94 295.99C369.85 295.12 370.88 293.76 372.01 291.75C372.13 291.23 372.26 290.75 372.41 290.23L366.91 291.65Z" fill="black"/>
<path d="M362.18 289C362.328 289.444 362.569 289.852 362.886 290.197C363.203 290.542 363.589 290.815 364.02 291C365.19 291.5 366.02 290.43 365.94 289.2C365.86 287.97 365.13 286.49 363.85 286.51C363.558 286.522 363.274 286.603 363.019 286.746C362.765 286.889 362.547 287.09 362.385 287.332C362.222 287.575 362.119 287.852 362.083 288.142C362.048 288.431 362.081 288.725 362.18 289Z" fill="#FFB573"/>
<path opacity="0.2" d="M362.18 289C362.328 289.444 362.569 289.852 362.886 290.197C363.203 290.542 363.589 290.815 364.02 291C365.19 291.5 366.02 290.43 365.94 289.2C365.86 287.97 365.13 286.49 363.85 286.51C363.558 286.522 363.274 286.603 363.019 286.746C362.765 286.889 362.547 287.09 362.385 287.332C362.222 287.575 362.119 287.852 362.083 288.142C362.048 288.431 362.081 288.725 362.18 289Z" fill="black"/>
<path d="M366.81 282.11C366.43 279.5 363.53 282.49 363.2 284.4C362.87 286.31 364.47 288.24 365.56 286.4C366.65 284.56 367 283.52 366.81 282.11Z" fill="#263238"/>
<path d="M374.71 286.64C373.46 290.51 372.92 292.81 370.47 294.48C369.729 295.047 368.84 295.389 367.91 295.465C366.98 295.542 366.048 295.35 365.224 294.911C364.4 294.473 363.72 293.807 363.263 292.993C362.807 292.179 362.594 291.251 362.65 290.32C362.75 286.66 364.78 280.95 368.92 280.05C373.06 279.15 376 282.77 374.71 286.64Z" fill="#FFB573"/>
<path d="M372.82 290.69C371.32 289.69 371.05 289.31 371.82 288.41C373.12 286.95 371.19 286.74 372.21 284.93C373.63 282.41 369.1 284.18 369.02 282.35C368.95 280.86 365.02 283.54 364.61 281.82C364.02 279.24 367.8 279.72 368.46 278.46C369.12 277.2 373 277.01 373.62 278.85C374.24 280.69 376.19 279.22 377.46 281.46C378.73 283.7 376.1 283.87 377.37 286.05C378.37 287.8 376.44 289.05 375.07 290.44C374.25 291.34 373.75 291.32 372.82 290.69Z" fill="#263238"/>
<path d="M375.56 290.72C374.912 291.514 373.993 292.038 372.98 292.19C371.66 292.37 371.3 291.19 371.92 290C372.54 288.81 373.82 287.64 375.02 288C376.22 288.36 376.37 289.73 375.56 290.72Z" fill="#FFB573"/>
<path d="M368.64 286.72C368.56 287.04 368.33 287.26 368.13 287.23C367.93 287.2 367.83 286.91 367.91 286.59C367.99 286.27 368.22 286.04 368.43 286.08C368.64 286.12 368.73 286.4 368.64 286.72Z" fill="#263238"/>
<path d="M365.14 286.1C365.05 286.42 364.82 286.65 364.62 286.61C364.42 286.57 364.32 286.29 364.4 285.97C364.48 285.65 364.72 285.43 364.92 285.46C365.12 285.49 365.22 285.78 365.14 286.1Z" fill="#263238"/>
<path d="M366.21 286.46C365.586 287.369 364.85 288.195 364.02 288.92C364.197 289.113 364.417 289.261 364.662 289.355C364.906 289.449 365.169 289.485 365.43 289.46L366.21 286.46Z" fill="#ED893E"/>
<path d="M366.1 290.5C366.088 290.498 366.077 290.493 366.067 290.486C366.057 290.479 366.049 290.47 366.043 290.459C366.038 290.449 366.034 290.437 366.034 290.425C366.033 290.413 366.035 290.401 366.04 290.39C366.045 290.365 366.059 290.343 366.079 290.328C366.1 290.314 366.125 290.307 366.15 290.31C366.55 290.38 366.96 290.36 367.351 290.251C367.742 290.142 368.104 289.947 368.41 289.68C368.419 289.671 368.429 289.665 368.44 289.66C368.451 289.655 368.463 289.653 368.475 289.653C368.487 289.653 368.499 289.655 368.51 289.66C368.521 289.665 368.531 289.671 368.54 289.68C368.549 289.689 368.555 289.699 368.56 289.71C368.565 289.721 368.567 289.733 368.567 289.745C368.567 289.757 368.565 289.769 368.56 289.78C368.555 289.791 368.549 289.801 368.54 289.81C368.213 290.104 367.823 290.318 367.4 290.438C366.977 290.558 366.532 290.579 366.1 290.5Z" fill="#263238"/>
<path d="M370 285.74C369.973 285.736 369.947 285.724 369.926 285.707C369.905 285.689 369.889 285.666 369.88 285.64C369.797 285.428 369.662 285.241 369.487 285.096C369.312 284.95 369.103 284.852 368.88 284.81C368.857 284.808 368.834 284.8 368.813 284.789C368.793 284.777 368.775 284.762 368.761 284.743C368.747 284.724 368.737 284.703 368.732 284.68C368.726 284.657 368.726 284.633 368.73 284.61C368.74 284.56 368.767 284.515 368.808 284.483C368.848 284.452 368.899 284.437 368.95 284.44C369.233 284.481 369.5 284.595 369.726 284.771C369.952 284.946 370.129 285.176 370.24 285.44C370.257 285.488 370.255 285.54 370.234 285.587C370.214 285.633 370.176 285.67 370.13 285.69C370.113 285.707 370.093 285.72 370.07 285.729C370.048 285.738 370.024 285.741 370 285.74Z" fill="#263238"/>
<path d="M363.89 284.55C363.867 284.556 363.843 284.556 363.82 284.55C363.802 284.533 363.788 284.513 363.779 284.491C363.769 284.468 363.764 284.444 363.764 284.42C363.764 284.396 363.769 284.372 363.779 284.349C363.788 284.327 363.802 284.307 363.82 284.29C364.015 284.052 364.263 283.862 364.544 283.735C364.825 283.609 365.132 283.549 365.44 283.56C365.464 283.564 365.487 283.572 365.507 283.585C365.528 283.597 365.545 283.614 365.559 283.633C365.573 283.653 365.583 283.675 365.588 283.699C365.594 283.722 365.594 283.746 365.59 283.77C365.58 283.82 365.553 283.865 365.512 283.897C365.472 283.928 365.421 283.943 365.37 283.94C365.126 283.936 364.884 283.986 364.662 284.088C364.441 284.191 364.245 284.342 364.09 284.53C364.061 284.551 364.028 284.563 363.993 284.567C363.957 284.57 363.922 284.565 363.89 284.55Z" fill="#263238"/>
<path d="M382 305.41L376.44 307.53C376.44 307.53 379.83 320.8 378.73 322.58C377.23 325.01 374.56 330.43 372.29 332.99C372.39 333.953 372.761 334.869 373.36 335.63C377.85 333.63 384.1 325.63 384.65 323.16C385.88 317.51 382 305.41 382 305.41Z" fill="#FFB573"/>
<path d="M381 299.83C384.55 300.96 385.52 314.49 385.52 314.49L376.22 315.93C375.337 312.731 374.689 309.473 374.28 306.18C373.7 301.14 377.18 298.62 381 299.83Z" fill="#7E57C2"/>
<path opacity="0.3" d="M381 299.83C384.55 300.96 385.52 314.49 385.52 314.49L376.22 315.93C375.337 312.731 374.689 309.473 374.28 306.18C373.7 301.14 377.18 298.62 381 299.83Z" fill="black"/>
</g>
<path d="M301.442 247.872C314.182 235.56 315.189 215.934 303.691 204.035C292.192 192.137 272.543 192.472 259.803 204.784C247.062 217.096 246.055 236.722 257.553 248.62C269.052 260.519 288.701 260.184 301.442 247.872Z" fill="#7E57C2"/>
<path d="M300.344 246.736C312.413 235.072 313.367 216.481 302.475 205.209C291.583 193.938 272.97 194.257 260.9 205.92C248.831 217.583 247.877 236.175 258.769 247.446C269.661 258.717 288.274 258.399 300.344 246.736Z" fill="white"/>
<mask id="mask2_153_396" style="mask-type:luminance" maskUnits="userSpaceOnUse" x="251" y="196" width="60" height="60">
<path d="M300.344 246.736C312.413 235.072 313.367 216.481 302.475 205.209C291.583 193.938 272.97 194.257 260.9 205.92C248.831 217.583 247.877 236.175 258.769 247.446C269.661 258.717 288.274 258.399 300.344 246.736Z" fill="white"/>
</mask>
<g mask="url(#mask2_153_396)">
<path d="M292.91 233.25C293.06 235.63 293.18 238.03 293.27 240.42L293.56 247.56L293.61 248.43L293.68 249.19C293.76 249.71 293.82 250.25 293.93 250.81C294.14 251.91 294.41 253.03 294.73 254.15C295.33 256.4 296.06 258.67 296.73 260.91L294.66 261.91C293.408 259.791 292.302 257.589 291.35 255.32C290.89 254.17 290.46 253 290.09 251.77C289.893 251.146 289.729 250.512 289.6 249.87L289.43 248.87L289.33 247.95C288.8 243.11 288.45 238.34 288.26 233.53L292.91 233.25Z" fill="#FF8B7B"/>
<path d="M291.81 228C293.63 228.47 294.41 236.13 294.41 236.13L287 241C287 241 284.69 231.93 286.26 229.89C287.83 227.85 289.14 227.32 291.81 228Z" fill="#7E57C2"/>
<path opacity="0.2" d="M291.52 229.72L292.42 237.43L289.41 239.39L291.52 229.72Z" fill="black"/>
<path d="M271.5 208.28C268.37 208.73 261.82 223.69 272.5 230.67C283.18 237.65 291.06 229.72 291.06 229.72C291.06 229.72 284.56 222 285.5 216.96C286.44 211.92 290.5 205.57 282.18 203.45C276.32 202 268.44 203.4 271.5 208.28Z" fill="#263238"/>
<path d="M291.81 228C291.81 228 293.9 228.76 287.81 255.24H269.46C270.28 247.78 270.6 243.18 268.08 227.87C270.673 227.349 273.3 227.015 275.94 226.87C278.71 226.675 281.49 226.675 284.26 226.87C287.81 227.18 291.81 228 291.81 228Z" fill="#7E57C2"/>
<path opacity="0.2" d="M269.18 233.94C270.81 234.35 272.18 236.16 271.81 239.5C271.591 241.038 270.962 242.489 269.99 243.7C269.88 241.13 269.59 238.15 269.07 234.34L269.18 233.94Z" fill="black"/>
<path d="M282.89 232.72C282.89 232.72 279.72 235.2 279.54 237.83C277.17 236 274.14 231.02 274.01 227.83C274.01 227.565 274.115 227.31 274.303 227.123C274.49 226.935 274.745 226.83 275.01 226.83C275.235 226.813 275.459 226.783 275.68 226.74C275.772 226.72 275.868 226.721 275.96 226.744C276.052 226.766 276.137 226.809 276.21 226.87L282.89 232.72Z" fill="#FAFAFA"/>
<path d="M282.89 232.72C283.733 233.245 284.437 233.966 284.943 234.82C285.45 235.675 285.744 236.638 285.8 237.63C288.46 235.78 287.55 230.25 286.32 227.54C286.225 227.329 286.076 227.147 285.888 227.012C285.7 226.877 285.48 226.793 285.25 226.77C284.89 226.77 284.61 226.68 284.42 226.64C284.351 226.628 284.28 226.643 284.223 226.683C284.165 226.722 284.124 226.782 284.11 226.85L282.89 232.72Z" fill="#FAFAFA"/>
<path d="M277.4 217.48C277.74 220.16 277.93 225.07 275.94 226.85C277.806 229.285 280.177 231.288 282.89 232.72C286.81 229.72 284.26 226.85 284.26 226.85C281.32 226.14 281.55 223.93 282.21 221.85L277.4 217.48Z" fill="#FF8B7B"/>
<path opacity="0.2" d="M279.36 219.26L282.21 221.84C282.048 222.322 281.927 222.817 281.85 223.32C280.72 223.15 279 222.18 278.85 220.94C278.886 220.348 279.061 219.772 279.36 219.26Z" fill="black"/>
<path d="M273.21 213.18C274.15 217.49 274.46 219.33 277.04 221.08C277.904 221.693 278.915 222.065 279.97 222.161C281.026 222.256 282.087 222.07 283.047 221.622C284.007 221.174 284.831 220.48 285.436 219.61C286.041 218.74 286.404 217.726 286.49 216.67C286.84 212.54 285.24 206.19 280.64 205.41C279.597 205.247 278.53 205.339 277.529 205.678C276.529 206.016 275.626 206.592 274.896 207.355C274.166 208.118 273.632 209.046 273.338 210.061C273.045 211.075 273.001 212.145 273.21 213.18Z" fill="#FF8B7B"/>
<path d="M274.44 217.06C277.21 214.42 277.31 211.15 276.61 210.13C278.99 209.93 285.15 208.43 284.16 206.13C283.17 203.83 273.58 202.59 272.26 208.47C269.08 211.13 271.11 216.46 274.44 217.06Z" fill="#263238"/>
<path d="M280.45 212.79C280.51 213.15 280.74 213.39 280.98 213.34C281.22 213.29 281.36 212.96 281.3 212.61C281.24 212.26 281.01 212 280.78 212.06C280.55 212.12 280.4 212.44 280.45 212.79Z" fill="#263238"/>
<path d="M284.53 211.9C284.58 212.26 284.82 212.5 285.05 212.45C285.28 212.4 285.44 212.07 285.38 211.71C285.32 211.35 285.09 211.11 284.86 211.16C284.725 211.223 284.618 211.333 284.557 211.469C284.497 211.604 284.487 211.758 284.53 211.9Z" fill="#263238"/>
<path d="M284.75 211.21L285.58 210.77C285.58 210.77 285.24 211.53 284.75 211.21Z" fill="#263238"/>
<path d="M283.37 212.82C283.814 213.561 284.363 214.235 285 214.82C284.839 214.989 284.645 215.123 284.43 215.212C284.215 215.302 283.983 215.345 283.75 215.34L283.37 212.82Z" fill="#FF5652"/>
<path d="M282 217.14C282.182 217.13 282.362 217.107 282.54 217.07C282.568 217.063 282.593 217.046 282.609 217.022C282.626 216.998 282.633 216.969 282.63 216.94C282.629 216.926 282.625 216.912 282.618 216.9C282.611 216.888 282.602 216.878 282.59 216.87C282.578 216.862 282.565 216.857 282.551 216.855C282.537 216.854 282.523 216.855 282.51 216.86C282.077 216.973 281.623 216.978 281.187 216.875C280.751 216.772 280.347 216.564 280.01 216.27C279.99 216.251 279.963 216.24 279.935 216.24C279.907 216.24 279.88 216.251 279.86 216.27C279.849 216.279 279.841 216.291 279.835 216.304C279.829 216.317 279.826 216.331 279.826 216.345C279.826 216.359 279.829 216.373 279.835 216.386C279.841 216.399 279.849 216.411 279.86 216.42C280.146 216.684 280.485 216.884 280.853 217.008C281.222 217.132 281.613 217.177 282 217.14Z" fill="#263238"/>
<path d="M272.63 217.48C272.85 217.835 273.141 218.14 273.485 218.376C273.83 218.612 274.22 218.773 274.63 218.85C275.75 219.06 276.28 218.02 275.95 217.01C275.62 216 274.71 214.9 273.6 215.15C273.358 215.203 273.132 215.314 272.942 215.473C272.752 215.631 272.603 215.834 272.508 216.062C272.413 216.291 272.374 216.539 272.396 216.786C272.417 217.033 272.497 217.271 272.63 217.48Z" fill="#FF8B7B"/>
<path d="M278.54 212C278.585 211.995 278.628 211.976 278.662 211.945C278.696 211.915 278.72 211.875 278.73 211.83C278.992 211.154 279.509 210.608 280.17 210.31C280.197 210.299 280.222 210.283 280.243 210.262C280.263 210.242 280.28 210.217 280.291 210.19C280.302 210.163 280.308 210.134 280.308 210.105C280.307 210.076 280.301 210.047 280.29 210.02C280.279 209.995 280.264 209.973 280.244 209.955C280.225 209.936 280.201 209.922 280.176 209.913C280.151 209.903 280.124 209.899 280.097 209.9C280.071 209.902 280.044 209.908 280.02 209.92C279.627 210.095 279.274 210.348 278.98 210.662C278.686 210.976 278.458 211.346 278.31 211.75C278.303 211.777 278.301 211.805 278.305 211.833C278.309 211.861 278.319 211.887 278.335 211.911C278.35 211.934 278.369 211.954 278.393 211.97C278.416 211.985 278.442 211.995 278.47 212C278.481 212.005 278.493 212.008 278.505 212.008C278.517 212.008 278.529 212.005 278.54 212Z" fill="#263238"/>
<path d="M285.52 209.06C285.557 209.06 285.594 209.051 285.627 209.034C285.66 209.016 285.689 208.991 285.71 208.96C285.748 208.919 285.769 208.866 285.769 208.81C285.769 208.754 285.748 208.701 285.71 208.66C285.433 208.469 285.114 208.346 284.78 208.303C284.446 208.26 284.107 208.296 283.79 208.41C283.737 208.432 283.695 208.473 283.671 208.525C283.647 208.577 283.643 208.636 283.66 208.69C283.67 208.717 283.685 208.741 283.705 208.762C283.724 208.782 283.748 208.799 283.774 208.81C283.8 208.821 283.829 208.827 283.857 208.827C283.886 208.827 283.914 208.821 283.94 208.81C284.19 208.718 284.458 208.69 284.721 208.726C284.985 208.763 285.235 208.864 285.45 209.02L285.52 209.06Z" fill="#263238"/>
<path d="M280.68 212.1L281.51 211.66C281.51 211.66 281.16 212.43 280.68 212.1Z" fill="#263238"/>
<path d="M269.26 254.17L268.68 255.81C268.6 255.94 268.75 256.07 268.96 256.07H287.82C287.99 256.07 288.13 255.99 288.15 255.88L288.42 254.24C288.42 254.13 288.31 254.03 288.12 254.03H269.57C269.511 254.025 269.451 254.035 269.397 254.06C269.343 254.084 269.296 254.122 269.26 254.17Z" fill="#7E57C2"/>
<path opacity="0.2" d="M269.26 254.17L268.68 255.81C268.6 255.94 268.75 256.07 268.96 256.07H287.82C287.99 256.07 288.13 255.99 288.15 255.88L288.42 254.24C288.42 254.13 288.31 254.03 288.12 254.03H269.57C269.511 254.025 269.451 254.035 269.397 254.06C269.343 254.084 269.296 254.122 269.26 254.17Z" fill="white"/>
<path d="M271.67 256.24H271.17C271.07 256.24 271 256.19 271.01 256.13L271.39 254C271.39 253.94 271.49 253.89 271.59 253.89H272.09C272.19 253.89 272.26 253.94 272.25 254L271.87 256.13C271.86 256.19 271.77 256.24 271.67 256.24Z" fill="#7E57C2"/>
<path opacity="0.4" d="M271.67 256.24H271.17C271.07 256.24 271 256.19 271.01 256.13L271.39 254C271.39 253.94 271.49 253.89 271.59 253.89H272.09C272.19 253.89 272.26 253.94 272.25 254L271.87 256.13C271.86 256.19 271.77 256.24 271.67 256.24Z" fill="black"/>
<path d="M286.41 256.24H285.91C285.81 256.24 285.74 256.19 285.75 256.13L286.13 254C286.13 253.94 286.23 253.89 286.33 253.89H286.83C286.93 253.89 287 253.94 286.99 254L286.61 256.13C286.6 256.19 286.51 256.24 286.41 256.24Z" fill="#7E57C2"/>
<path opacity="0.4" d="M286.41 256.24H285.91C285.81 256.24 285.74 256.19 285.75 256.13L286.13 254C286.13 253.94 286.23 253.89 286.33 253.89H286.83C286.93 253.89 287 253.94 286.99 254L286.61 256.13C286.6 256.19 286.51 256.24 286.41 256.24Z" fill="black"/>
<path d="M279.07 256.24H278.57C278.47 256.24 278.4 256.19 278.41 256.13L278.79 254C278.79 253.94 278.89 253.89 278.99 253.89H279.49C279.59 253.89 279.66 253.94 279.65 254L279.27 256.13C279.26 256.19 279.17 256.24 279.07 256.24Z" fill="#7E57C2"/>
<path opacity="0.4" d="M279.07 256.24H278.57C278.47 256.24 278.4 256.19 278.41 256.13L278.79 254C278.79 253.94 278.89 253.89 278.99 253.89H279.49C279.59 253.89 279.66 253.94 279.65 254L279.27 256.13C279.26 256.19 279.17 256.24 279.07 256.24Z" fill="black"/>
<path d="M270.12 234C269.6 237 269.01 240.09 268.41 243.13C268.12 244.65 267.79 246.13 267.47 247.68L267 249.95L266.79 250.95C266.765 251.021 266.765 251.099 266.79 251.17C266.953 251.591 267.214 251.968 267.55 252.27C268.015 252.724 268.524 253.129 269.07 253.48C270.295 254.261 271.575 254.953 272.9 255.55C274.25 256.18 275.65 256.76 277.07 257.29C278.49 257.82 279.94 258.29 281.37 258.81L280.85 261.04C277.712 260.526 274.624 259.743 271.62 258.7C270.061 258.166 268.552 257.496 267.11 256.7C266.327 256.264 265.587 255.755 264.9 255.18C264.023 254.489 263.335 253.588 262.9 252.56C262.657 251.923 262.561 251.239 262.62 250.56C262.67 250.13 262.69 250.04 262.72 249.83L262.81 249.25L263.16 246.96C263.41 245.43 263.63 243.9 263.9 242.37C264.41 239.32 264.9 236.27 265.53 233.23L270.12 234Z" fill="#FF8B7B"/>
<path d="M268.08 227.88C266.21 228.44 263.57 234.76 263.57 234.76L269.57 241.37C269.57 241.37 273.33 234.57 272.73 232.2C272.13 229.83 270.22 227.24 268.08 227.88Z" fill="#7E57C2"/>
</g>
<path opacity="0.3" d="M257.32 149.85H329C329.667 149.84 330.307 149.581 330.793 149.124C331.279 148.667 331.578 148.045 331.63 147.38C331.657 147.064 331.617 146.745 331.513 146.446C331.409 146.146 331.243 145.871 331.026 145.639C330.81 145.408 330.547 145.224 330.254 145.1C329.962 144.976 329.647 144.915 329.33 144.92H257.66C256.993 144.93 256.354 145.187 255.866 145.642C255.379 146.096 255.077 146.716 255.02 147.38C254.994 147.697 255.034 148.015 255.138 148.316C255.241 148.616 255.407 148.891 255.624 149.124C255.84 149.357 256.103 149.541 256.395 149.666C256.687 149.791 257.002 149.854 257.32 149.85Z" fill="#7E57C2"/>
<path opacity="0.3" d="M277.12 160.69H328.23C328.898 160.678 329.537 160.418 330.024 159.962C330.512 159.506 330.813 158.885 330.87 158.22C330.897 157.904 330.857 157.585 330.753 157.286C330.649 156.986 330.483 156.711 330.266 156.479C330.049 156.248 329.786 156.064 329.494 155.94C329.202 155.816 328.887 155.755 328.57 155.76H277.46C276.793 155.77 276.154 156.027 275.666 156.482C275.178 156.936 274.877 157.556 274.82 158.22C274.793 158.537 274.833 158.855 274.937 159.156C275.041 159.456 275.207 159.731 275.423 159.964C275.64 160.197 275.903 160.381 276.195 160.506C276.487 160.631 276.802 160.694 277.12 160.69Z" fill="#7E57C2"/>
<path d="M289.06 139H329.72C330.386 138.992 331.025 138.735 331.512 138.28C331.999 137.825 332.298 137.204 332.35 136.54C332.376 136.224 332.337 135.906 332.233 135.607C332.13 135.307 331.965 135.032 331.75 134.8C331.534 134.567 331.273 134.382 330.982 134.257C330.691 134.131 330.377 134.067 330.06 134.07H289.4C288.733 134.08 288.093 134.339 287.607 134.796C287.121 135.253 286.822 135.875 286.77 136.54C286.743 136.855 286.783 137.173 286.887 137.472C286.99 137.771 287.155 138.045 287.37 138.277C287.586 138.509 287.848 138.692 288.139 138.817C288.43 138.942 288.743 139.004 289.06 139Z" fill="white"/>
<path opacity="0.3" d="M289.15 308.23H318.15C318.467 308.225 318.782 308.286 319.074 308.41C319.367 308.534 319.63 308.718 319.846 308.949C320.063 309.181 320.229 309.456 320.333 309.756C320.437 310.056 320.477 310.374 320.45 310.69C320.398 311.357 320.098 311.98 319.609 312.437C319.121 312.894 318.479 313.152 317.81 313.16H288.81C288.492 313.164 288.177 313.101 287.885 312.976C287.593 312.851 287.33 312.667 287.114 312.434C286.897 312.201 286.731 311.926 286.628 311.626C286.524 311.325 286.484 311.007 286.51 310.69C286.565 310.025 286.866 309.404 287.354 308.949C287.842 308.494 288.483 308.238 289.15 308.23Z" fill="#7E57C2"/>
<path opacity="0.3" d="M249.88 308.23H278.88C279.197 308.225 279.512 308.286 279.804 308.41C280.097 308.534 280.36 308.718 280.576 308.949C280.793 309.181 280.959 309.456 281.063 309.756C281.167 310.056 281.207 310.374 281.18 310.69C281.123 311.355 280.822 311.976 280.335 312.432C279.847 312.888 279.208 313.148 278.54 313.16H249.54C249.222 313.164 248.907 313.101 248.615 312.976C248.323 312.851 248.06 312.667 247.844 312.434C247.627 312.201 247.461 311.926 247.358 311.626C247.254 311.325 247.214 311.007 247.24 310.69C247.293 310.024 247.593 309.402 248.082 308.947C248.57 308.491 249.212 308.235 249.88 308.23Z" fill="#7E57C2"/>
<path opacity="0.3" d="M267.76 297.39H318.87C319.187 297.385 319.502 297.446 319.794 297.57C320.086 297.694 320.349 297.878 320.566 298.109C320.783 298.341 320.949 298.616 321.053 298.916C321.157 299.216 321.197 299.534 321.17 299.85C321.118 300.515 320.819 301.137 320.333 301.594C319.846 302.051 319.207 302.31 318.54 302.32H267.42C267.103 302.324 266.788 302.261 266.496 302.136C266.204 302.011 265.942 301.826 265.726 301.594C265.511 301.361 265.346 301.085 265.243 300.785C265.141 300.485 265.102 300.166 265.13 299.85C265.182 299.186 265.481 298.565 265.968 298.11C266.454 297.655 267.094 297.398 267.76 297.39Z" fill="#7E57C2"/>
<path d="M261 286.54H319.6C319.917 286.536 320.232 286.599 320.524 286.724C320.816 286.849 321.078 287.034 321.294 287.266C321.509 287.499 321.674 287.775 321.777 288.075C321.879 288.375 321.918 288.694 321.89 289.01C321.838 289.674 321.539 290.295 321.052 290.75C320.566 291.205 319.926 291.462 319.26 291.47H260.69C260.373 291.475 260.058 291.414 259.766 291.29C259.474 291.166 259.211 290.982 258.994 290.751C258.777 290.519 258.611 290.244 258.507 289.944C258.403 289.645 258.363 289.326 258.39 289.01C258.442 288.348 258.738 287.729 259.22 287.273C259.702 286.816 260.336 286.555 261 286.54Z" fill="white"/>
<path opacity="0.3" d="M382.8 234.7H329.4C328.733 234.71 328.093 234.969 327.607 235.426C327.121 235.883 326.822 236.505 326.77 237.17C326.743 237.485 326.783 237.803 326.887 238.102C326.99 238.401 327.155 238.675 327.37 238.907C327.586 239.138 327.848 239.323 328.139 239.447C328.43 239.572 328.743 239.634 329.06 239.63H382.46C383.126 239.622 383.765 239.365 384.252 238.91C384.739 238.455 385.038 237.834 385.09 237.17C385.118 236.854 385.079 236.535 384.977 236.235C384.874 235.935 384.709 235.659 384.493 235.426C384.278 235.194 384.015 235.009 383.724 234.884C383.432 234.759 383.117 234.696 382.8 234.7Z" fill="#7E57C2"/>
<path opacity="0.3" d="M355.34 223.86H330.14C329.473 223.87 328.833 224.129 328.347 224.586C327.861 225.043 327.562 225.665 327.51 226.33C327.483 226.646 327.523 226.965 327.627 227.264C327.731 227.564 327.897 227.839 328.114 228.071C328.331 228.302 328.593 228.486 328.886 228.61C329.178 228.734 329.493 228.795 329.81 228.79H355C355.667 228.78 356.306 228.523 356.794 228.068C357.281 227.614 357.583 226.994 357.64 226.33C357.666 226.013 357.626 225.695 357.523 225.394C357.419 225.094 357.253 224.819 357.036 224.586C356.82 224.353 356.557 224.169 356.265 224.044C355.973 223.919 355.658 223.856 355.34 223.86Z" fill="#7E57C2"/>
<path d="M370.09 213H330.89C330.223 213.01 329.584 213.267 329.096 213.722C328.609 214.176 328.307 214.796 328.25 215.46C328.224 215.777 328.264 216.095 328.368 216.396C328.471 216.696 328.637 216.971 328.854 217.204C329.07 217.437 329.333 217.621 329.625 217.746C329.917 217.871 330.232 217.934 330.55 217.93H369.76C370.428 217.922 371.069 217.664 371.555 217.206C372.042 216.749 372.34 216.126 372.39 215.46C372.417 215.144 372.377 214.825 372.273 214.526C372.169 214.226 372.003 213.951 371.786 213.719C371.57 213.488 371.307 213.304 371.014 213.18C370.722 213.056 370.407 212.995 370.09 213Z" fill="white"/>
<path opacity="0.3" d="M401.8 223.86H366C365.332 223.872 364.693 224.132 364.206 224.588C363.718 225.044 363.417 225.665 363.36 226.33C363.333 226.646 363.373 226.965 363.477 227.264C363.581 227.564 363.747 227.839 363.964 228.071C364.181 228.302 364.444 228.486 364.736 228.61C365.028 228.734 365.343 228.795 365.66 228.79H401.46C402.127 228.78 402.766 228.523 403.254 228.068C403.742 227.614 404.043 226.994 404.1 226.33C404.127 226.013 404.087 225.695 403.983 225.394C403.879 225.094 403.713 224.819 403.497 224.586C403.28 224.353 403.017 224.169 402.725 224.044C402.433 223.919 402.118 223.856 401.8 223.86Z" fill="#7E57C2"/>
<path opacity="0.3" d="M240.81 121.6H267.59L266.17 97.87L240.81 121.6Z" fill="#7E57C2"/>
<path d="M240.81 121.6L269.48 118.17L266.17 97.87L240.81 121.6Z" fill="#7E57C2"/>
<path d="M132.78 191.9C131.93 193.9 130.99 196.12 130.16 198.26C129.33 200.4 128.48 202.59 127.71 204.76C126.144 209.005 124.858 213.347 123.86 217.76C123.72 218.3 123.65 218.83 123.55 219.36L123.41 220.16L123.3 220.79C123.201 221.68 123.181 222.577 123.24 223.47C123.412 225.655 123.71 227.829 124.13 229.98C124.99 234.47 126.13 239.12 127.26 243.68L122.18 245.83C119.656 241.514 117.528 236.979 115.82 232.28C114.907 229.81 114.201 227.268 113.71 224.68C113.417 223.192 113.286 221.676 113.32 220.16V219.51C113.32 219.3 113.32 219.17 113.32 218.99L113.42 217.99C113.49 217.34 113.53 216.67 113.64 215.99C114.381 210.947 115.549 205.976 117.13 201.13C117.91 198.74 118.71 196.38 119.64 194.07C120.57 191.76 121.47 189.49 122.64 187.12L132.78 191.9Z" fill="#7F3E3B"/>
<path d="M127.09 242.44L130.99 246.24L122.48 250.24C122.48 250.24 120.42 246.64 121.84 243.38L127.09 242.44Z" fill="#7F3E3B"/>
<path d="M134.13 251.91L126.95 254.85L122.48 250.2L130.99 246.24L134.13 251.91Z" fill="#7F3E3B"/>
<path d="M319.796 230.033C331.032 202.908 318.151 171.811 291.026 160.576C263.902 149.34 232.805 162.221 221.57 189.346C210.334 216.47 223.215 247.567 250.34 258.803C277.464 270.038 308.561 257.157 319.796 230.033Z" fill="#7E57C2"/>
<path d="M270.68 260.05C298.493 260.05 321.04 237.503 321.04 209.69C321.04 181.877 298.493 159.33 270.68 159.33C242.867 159.33 220.32 181.877 220.32 209.69C220.32 237.503 242.867 260.05 270.68 260.05Z" fill="white"/>
<mask id="mask3_153_396" style="mask-type:luminance" maskUnits="userSpaceOnUse" x="220" y="159" width="102" height="102">
<path d="M270.68 260.05C298.493 260.05 321.04 237.503 321.04 209.69C321.04 181.877 298.493 159.33 270.68 159.33C242.867 159.33 220.32 181.877 220.32 209.69C220.32 237.503 242.867 260.05 270.68 260.05Z" fill="white"/>
</mask>
<g mask="url(#mask3_153_396)">
<path d="M292.54 221.28C293.1 225.4 293.54 229.54 294.03 233.67L295.39 246L295.57 247.48L295.78 248.81L296.07 250.19L296.42 251.6C296.94 253.49 297.53 255.41 298.19 257.33C299.47 261.18 300.97 265.04 302.44 268.88L299 270.74C296.64 267.186 294.509 263.485 292.62 259.66C291.69 257.72 290.8 255.75 290.04 253.66L289.48 252.08L288.98 250.43C288.83 249.86 288.7 249.27 288.56 248.69L288.25 247.09C287.48 242.91 286.85 238.79 286.25 234.65C285.65 230.51 285.12 226.37 284.68 222.21L292.54 221.28Z" fill="#FF8B7B"/>
<path d="M290.05 212.57C293.24 213.38 295.47 226.51 295.47 226.51L283.28 234.8C283.28 234.8 278.28 219.24 280.71 215.74C283.27 212.09 285.4 211.39 290.05 212.57Z" fill="#7E57C2"/>
<path opacity="0.2" d="M289.77 215.5L292.22 228.73L287.28 232.08L289.77 215.5Z" fill="black"/>
<path d="M252.91 178.75C247.61 179.52 238.12 205.17 257.27 217.14C276.42 229.11 289 215.51 289 215.51C289 215.51 276.95 202.26 278 193.62C279.05 184.98 285.24 174.09 270.72 170.46C260.43 167.89 247.1 170.37 252.91 178.75Z" fill="#263238"/>
<path d="M290.05 212.57C290.05 212.57 293.74 213.87 286.36 259.27H254.93C255.46 246.48 255.47 238.6 249.36 212.35C253.758 211.437 258.216 210.849 262.7 210.59C267.451 210.245 272.22 210.245 276.97 210.59C283.1 211.15 290.05 212.57 290.05 212.57Z" fill="#7E57C2"/>
<path opacity="0.2" d="M252 222.74C254.85 223.45 257.48 226.55 257.16 232.27C256.987 234.87 256.078 237.367 254.54 239.47C254.04 235.07 253.19 229.97 251.86 223.47L252 222.74Z" fill="black"/>
<path d="M275.32 220.65C275.32 220.65 270.17 224.89 270.17 229.4C265.89 226.27 260.12 217.73 259.51 212.27C259.491 212.05 259.517 211.828 259.586 211.618C259.654 211.408 259.765 211.214 259.911 211.047C260.056 210.881 260.234 210.746 260.434 210.65C260.633 210.554 260.849 210.5 261.07 210.49C261.454 210.469 261.835 210.419 262.21 210.34C262.371 210.306 262.537 210.309 262.697 210.349C262.856 210.388 263.005 210.464 263.13 210.57L275.32 220.65Z" fill="#FAFAFA"/>
<path d="M275.32 220.65C276.821 221.543 278.101 222.763 279.065 224.219C280.03 225.675 280.654 227.33 280.89 229.06C285.22 225.89 283.01 216.41 280.6 211.77C280.411 211.409 280.136 211.1 279.8 210.869C279.463 210.639 279.075 210.495 278.67 210.45C278.03 210.37 277.55 210.29 277.23 210.22C277.172 210.209 277.113 210.209 277.055 210.222C276.997 210.235 276.943 210.259 276.895 210.294C276.847 210.329 276.807 210.373 276.777 210.424C276.747 210.475 276.727 210.531 276.72 210.59L275.32 220.65Z" fill="#FAFAFA"/>
<path d="M264.12 194.52C265.02 199.11 265.92 207.52 262.7 210.59C266.188 214.758 270.48 218.179 275.32 220.65C281.69 215.57 276.97 210.59 276.97 210.59C271.85 209.37 271.97 205.59 272.88 202L264.12 194.52Z" fill="#FF8B7B"/>
<path opacity="0.2" d="M267.69 197.57L272.87 202C272.652 202.829 272.505 203.676 272.43 204.53C270.48 204.25 267.43 202.58 266.98 200.45C266.976 199.446 267.22 198.457 267.69 197.57Z" fill="black"/>
<path d="M256.42 187.15C258.54 194.53 259.28 197.69 263.92 200.7C270.92 205.21 279.49 200.99 279.61 193.12C279.72 186.04 276.23 175.12 268.25 173.81C266.49 173.504 264.681 173.654 262.995 174.244C261.309 174.834 259.802 175.846 258.616 177.182C257.431 178.519 256.607 180.136 256.223 181.881C255.838 183.625 255.906 185.439 256.42 187.15Z" fill="#FF8B7B"/>
<path d="M259 193.8C263.45 189.26 263.23 183.66 261.91 181.91C265.97 181.57 276.36 179 274.39 175.07C272.42 171.14 255.84 169 254.26 179.07C249.11 183.62 253.21 192.77 259 193.8Z" fill="#263238"/>
<path d="M268.79 186.48C268.93 187.09 269.36 187.48 269.79 187.42C270.22 187.36 270.4 186.77 270.27 186.16C270.14 185.55 269.7 185.16 269.27 185.22C268.84 185.28 268.66 185.87 268.79 186.48Z" fill="#263238"/>
<path d="M275.68 185C275.82 185.61 276.25 186 276.68 185.94C277.11 185.88 277.29 185.29 277.15 184.68C277.01 184.07 276.58 183.68 276.15 183.73C275.72 183.78 275.55 184.34 275.68 185Z" fill="#263238"/>
<path d="M276 183.76L277.37 183.01C277.37 183.01 276.86 184.32 276 183.76Z" fill="#263238"/>
<path d="M273.8 186.52C274.641 187.785 275.65 188.929 276.8 189.92C276.539 190.211 276.218 190.442 275.859 190.595C275.5 190.749 275.111 190.822 274.72 190.81L273.8 186.52Z" fill="#FF5652"/>
<path d="M272 193.94C272.309 193.919 272.617 193.876 272.92 193.81C272.967 193.798 273.008 193.769 273.034 193.728C273.06 193.687 273.069 193.638 273.06 193.59C273.048 193.543 273.019 193.502 272.978 193.476C272.937 193.45 272.888 193.441 272.84 193.45C272.086 193.633 271.299 193.638 270.542 193.465C269.785 193.291 269.079 192.944 268.48 192.45C268.445 192.417 268.398 192.399 268.35 192.399C268.302 192.399 268.255 192.417 268.22 192.45C268.203 192.467 268.189 192.487 268.179 192.509C268.169 192.532 268.165 192.556 268.165 192.58C268.165 192.604 268.169 192.628 268.179 192.651C268.189 192.673 268.203 192.693 268.22 192.71C268.737 193.156 269.337 193.495 269.986 193.706C270.635 193.917 271.32 193.997 272 193.94Z" fill="#263238"/>
<path d="M255.93 194.51C256.343 195.118 256.871 195.639 257.486 196.042C258.1 196.445 258.788 196.723 259.51 196.86C261.45 197.22 262.24 195.45 261.51 193.71C260.89 192.15 259.14 190.09 257.27 190.51C256.867 190.618 256.496 190.825 256.192 191.111C255.888 191.397 255.659 191.754 255.526 192.15C255.393 192.546 255.361 192.969 255.431 193.381C255.502 193.793 255.673 194.181 255.93 194.51Z" fill="#FF8B7B"/>
<path d="M265.42 185.14C265.496 185.131 265.567 185.098 265.622 185.046C265.678 184.993 265.716 184.925 265.73 184.85C265.911 184.279 266.207 183.751 266.601 183.3C266.995 182.85 267.478 182.485 268.02 182.23C268.065 182.211 268.105 182.182 268.139 182.147C268.173 182.111 268.199 182.069 268.215 182.024C268.232 181.978 268.24 181.929 268.237 181.88C268.234 181.832 268.222 181.784 268.2 181.74C268.18 181.696 268.151 181.657 268.115 181.624C268.079 181.592 268.037 181.567 267.991 181.551C267.946 181.535 267.897 181.528 267.849 181.532C267.801 181.535 267.753 181.548 267.71 181.57C267.061 181.871 266.484 182.308 266.018 182.852C265.552 183.395 265.209 184.032 265.01 184.72C265.002 184.767 265.002 184.815 265.012 184.861C265.022 184.907 265.041 184.951 265.068 184.99C265.095 185.029 265.129 185.063 265.169 185.088C265.209 185.114 265.254 185.132 265.3 185.14C265.34 185.15 265.381 185.15 265.42 185.14Z" fill="#263238"/>
<path d="M277 180.07C277.082 180.079 277.166 180.06 277.235 180.015C277.305 179.971 277.357 179.903 277.383 179.825C277.409 179.746 277.407 179.661 277.377 179.583C277.348 179.506 277.292 179.441 277.22 179.4C276.742 179.066 276.191 178.853 275.613 178.778C275.035 178.703 274.447 178.769 273.9 178.97C273.812 179.009 273.743 179.082 273.708 179.171C273.672 179.261 273.673 179.361 273.71 179.45C273.729 179.494 273.756 179.535 273.79 179.568C273.825 179.602 273.865 179.629 273.91 179.646C273.955 179.664 274.003 179.673 274.051 179.672C274.099 179.67 274.146 179.66 274.19 179.64C274.626 179.488 275.093 179.442 275.55 179.506C276.007 179.571 276.443 179.743 276.82 180.01C276.872 180.049 276.935 180.07 277 180.07Z" fill="#263238"/>
<path d="M269.1 185.29L270.47 184.54C270.47 184.54 270 185.85 269.1 185.29Z" fill="#263238"/>
<path d="M254.46 257.43L253.65 260.24C253.55 260.46 253.8 260.68 254.17 260.68H286.51C286.79 260.68 287.03 260.54 287.05 260.37L287.33 257.55C287.33 257.36 287.1 257.19 286.79 257.19H255C254.897 257.177 254.792 257.192 254.697 257.235C254.601 257.277 254.52 257.344 254.46 257.43Z" fill="#7E57C2"/>
<path opacity="0.2" d="M254.46 257.43L253.65 260.24C253.55 260.46 253.8 260.68 254.17 260.68H286.51C286.79 260.68 287.03 260.54 287.05 260.37L287.33 257.55C287.33 257.36 287.1 257.19 286.79 257.19H255C254.897 257.177 254.792 257.192 254.697 257.235C254.601 257.277 254.52 257.344 254.46 257.43Z" fill="white"/>
<path d="M258.84 261H258C257.83 261 257.7 260.91 257.71 260.8L258.11 257.15C258.11 257.04 258.27 256.95 258.44 256.95H259.29C259.46 256.95 259.59 257.04 259.58 257.15L259.18 260.8C259.16 260.9 259 261 258.84 261Z" fill="#7E57C2"/>
<path opacity="0.4" d="M258.84 261H258C257.83 261 257.7 260.91 257.71 260.8L258.11 257.15C258.11 257.04 258.27 256.95 258.44 256.95H259.29C259.46 256.95 259.59 257.04 259.58 257.15L259.18 260.8C259.16 260.9 259 261 258.84 261Z" fill="black"/>
<path d="M284.12 261H283.26C283.09 261 282.96 260.91 282.98 260.8L283.38 257.15C283.38 257.04 283.54 256.95 283.71 256.95H284.56C284.73 256.95 284.86 257.04 284.85 257.15L284.45 260.8C284.424 260.865 284.378 260.919 284.319 260.955C284.259 260.991 284.189 261.007 284.12 261Z" fill="#7E57C2"/>
<path opacity="0.4" d="M284.12 261H283.26C283.09 261 282.96 260.91 282.98 260.8L283.38 257.15C283.38 257.04 283.54 256.95 283.71 256.95H284.56C284.73 256.95 284.86 257.04 284.85 257.15L284.45 260.8C284.424 260.865 284.378 260.919 284.319 260.955C284.259 260.991 284.189 261.007 284.12 261Z" fill="black"/>
<path d="M271.53 261H270.68C270.51 261 270.38 260.91 270.39 260.8L270.79 257.15C270.79 257.04 270.95 256.95 271.12 256.95H272C272.17 256.95 272.3 257.04 272.29 257.15L271.89 260.8C271.85 260.9 271.7 261 271.53 261Z" fill="#7E57C2"/>
<path opacity="0.4" d="M271.53 261H270.68C270.51 261 270.38 260.91 270.39 260.8L270.79 257.15C270.79 257.04 270.95 256.95 271.12 256.95H272C272.17 256.95 272.3 257.04 272.29 257.15L271.89 260.8C271.85 260.9 271.7 261 271.53 261Z" fill="black"/>
<path d="M253.56 222.56C253.3 225.22 252.97 227.88 252.68 230.56L251.68 238.56C251.36 241.21 250.94 243.86 250.58 246.56L250.01 250.56L249.83 251.82C249.841 252.016 249.896 252.207 249.99 252.38C250.426 253.145 250.998 253.823 251.68 254.38C252.57 255.115 253.512 255.783 254.5 256.38C256.657 257.693 258.899 258.862 261.21 259.88C263.57 260.95 266 261.88 268.47 262.81C270.94 263.74 273.47 264.59 275.92 265.4L275.04 269.22C269.624 268.347 264.29 267.029 259.09 265.28C256.399 264.4 253.784 263.303 251.27 262C249.924 261.299 248.64 260.486 247.43 259.57C245.98 258.513 244.756 257.177 243.83 255.64C243.285 254.634 242.945 253.529 242.83 252.39C242.83 252.08 242.78 251.77 242.83 251.46C242.88 251.15 242.83 250.76 242.88 250.66L242.97 249.66L243.31 245.66C243.56 243 243.75 240.33 244.04 237.66L244.85 229.66C245.17 227 245.44 224.34 245.79 221.66L253.56 222.56Z" fill="#FF8B7B"/>
<path d="M249.36 212.35C246.21 213.35 242.43 224.15 242.43 224.15L253.43 235.49C253.43 235.49 259.08 223.83 257.75 219.76C256.4 215.52 253 211.25 249.36 212.35Z" fill="#7E57C2"/>
</g>
<path opacity="0.2" d="M222.52 222.66C219.954 213.136 220.27 203.066 223.428 193.722C226.586 184.378 232.443 176.18 240.26 170.165C248.077 164.15 257.502 160.588 267.343 159.929C277.184 159.271 286.999 161.545 295.548 166.465C304.097 171.384 310.994 178.728 315.369 187.568C319.744 196.408 321.399 206.347 320.126 216.127C318.852 225.908 314.707 235.091 308.214 242.516C301.722 249.941 293.173 255.274 283.65 257.84C277.326 259.544 270.729 259.986 264.234 259.14C257.739 258.295 251.475 256.178 245.798 252.911C240.122 249.644 235.144 245.292 231.15 240.101C227.156 234.91 224.224 228.984 222.52 222.66Z" fill="#7E57C2"/>
<path opacity="0.2" d="M306.82 175.32L265.75 259.32C269.273 259.68 272.824 259.649 276.34 259.23L313.27 183.73C311.429 180.703 309.266 177.883 306.82 175.32ZM318.82 196.7L318.55 195.7L289.06 256.02C300.433 251.504 309.75 242.965 315.237 232.028C320.724 221.09 322 208.517 318.82 196.7ZM257.69 161.53C248.985 163.877 241.079 168.538 234.812 175.02C228.545 181.502 224.153 189.561 222.101 198.34C220.049 207.119 220.415 216.29 223.16 224.878C225.905 233.465 230.927 241.149 237.69 247.11L280 160.68C272.595 159.265 264.966 159.556 257.69 161.53Z" fill="white"/>
<path d="M214.56 204.27L213.56 204.17C213.72 202.46 213.97 200.74 214.29 199.06L215.29 199.25C215 200.9 214.73 202.59 214.56 204.27ZM216.5 194.12L215.5 193.84C216.817 189.385 218.664 185.105 221 181.09L221.87 181.59C219.586 185.537 217.783 189.744 216.5 194.12Z" fill="#7E57C2"/>
<path d="M322.66 195.67C319.89 185.389 314.133 176.161 306.118 169.151C298.104 162.141 288.19 157.666 277.632 156.29C267.074 154.914 256.345 156.699 246.801 161.42C237.258 166.142 229.328 173.587 224.015 182.814C218.703 192.041 216.245 202.637 216.954 213.261C217.662 223.885 221.505 234.06 227.996 242.5C234.487 250.941 243.335 257.267 253.421 260.679C263.507 264.091 274.378 264.436 284.66 261.67C291.49 259.833 297.89 256.668 303.496 252.357C309.103 248.045 313.804 242.672 317.333 236.542C320.862 230.413 323.149 223.649 324.063 216.636C324.977 209.623 324.5 202.499 322.66 195.67ZM222.52 222.67C219.954 213.146 220.27 203.076 223.428 193.732C226.586 184.388 232.443 176.19 240.26 170.175C248.077 164.16 257.502 160.598 267.343 159.939C277.184 159.281 287 161.555 295.548 166.475C304.097 171.394 310.995 178.738 315.369 187.578C319.744 196.418 321.399 206.357 320.126 216.137C318.852 225.918 314.707 235.101 308.214 242.526C301.722 249.951 293.173 255.284 283.65 257.85C277.325 259.554 270.727 259.996 264.232 259.149C257.737 258.303 251.472 256.185 245.796 252.918C240.119 249.65 235.142 245.296 231.148 240.104C227.154 234.912 224.223 228.985 222.52 222.66V222.67Z" fill="#7E57C2"/>
<path d="M223.32 230.91C223.32 233.2 222.73 233.5 222.1 233.57L220.29 234.05L216.66 235.05L209.4 236.97L194.85 240.7C185.137 243.14 175.41 245.517 165.67 247.83L136.45 254.83L121.86 258.37C117 259.58 112.12 260.7 107.31 262.1C106.822 262.243 106.311 262.289 105.805 262.234C105.3 262.18 104.81 262.026 104.364 261.783C103.918 261.539 103.524 261.21 103.205 260.814C102.886 260.418 102.648 259.963 102.505 259.475C102.362 258.987 102.316 258.476 102.371 257.97C102.425 257.465 102.579 256.975 102.822 256.529C103.066 256.083 103.395 255.689 103.791 255.37C104.187 255.051 104.642 254.813 105.13 254.67H105.29C110.16 253.47 114.94 251.98 119.74 250.59L134.14 246.32L162.91 237.66C172.503 234.76 182.107 231.923 191.72 229.15L206.17 225L213.41 223L217.03 222L218.84 221.5C219.42 221.25 220.06 221.22 221.24 223.19C222.627 225.524 223.347 228.195 223.32 230.91Z" fill="#7E57C2"/>
<path d="M160.4 156.3C160.4 156.89 160.71 157.37 161.1 157.37C161.49 157.37 161.8 156.89 161.8 156.3C161.8 155.71 161.49 155.22 161.1 155.22C160.71 155.22 160.4 155.7 160.4 156.3Z" fill="#263238"/>
<path d="M160.66 157.37C161.363 159.181 162.312 160.887 163.48 162.44C163.075 162.729 162.612 162.927 162.124 163.018C161.635 163.11 161.132 163.093 160.65 162.97L160.66 157.37Z" fill="#630F0F"/>
<path d="M158.3 153C158.227 152.998 158.157 152.973 158.099 152.93C158.041 152.886 157.998 152.825 157.976 152.756C157.954 152.687 157.954 152.612 157.976 152.543C157.999 152.474 158.042 152.414 158.1 152.37C158.542 152.039 159.056 151.817 159.6 151.723C160.144 151.629 160.703 151.666 161.23 151.83C161.316 151.864 161.385 151.93 161.422 152.014C161.46 152.098 161.463 152.194 161.43 152.28C161.396 152.366 161.33 152.435 161.246 152.473C161.162 152.51 161.066 152.513 160.98 152.48C160.56 152.355 160.117 152.331 159.686 152.409C159.255 152.487 158.849 152.666 158.5 152.93C158.444 152.976 158.373 153.001 158.3 153Z" fill="#263238"/>
<path d="M141.32 160.13C141.85 165.92 141.92 176.45 137.83 179.9C137.83 179.9 138.76 185.81 148.7 186.73C159.63 187.73 154.46 181.44 154.46 181.44C148.63 179.37 149.22 174.67 150.67 170.35L141.32 160.13Z" fill="#7F3E3B"/>
<path d="M125.33 397.31C124.47 397.67 122.5 396.8 121.87 396.43C121.841 396.415 121.818 396.392 121.803 396.363C121.789 396.334 121.784 396.302 121.79 396.27C121.792 396.236 121.805 396.203 121.827 396.176C121.848 396.15 121.877 396.13 121.91 396.12C122.01 396.12 124.35 395.34 125.3 395.89C125.404 395.946 125.495 396.024 125.566 396.119C125.637 396.214 125.686 396.324 125.71 396.44C125.76 396.579 125.765 396.73 125.723 396.872C125.682 397.014 125.597 397.139 125.48 397.23C125.433 397.263 125.383 397.289 125.33 397.31ZM122.42 396.31C123.42 396.81 124.85 397.23 125.27 396.93C125.27 396.93 125.44 396.81 125.37 396.49C125.355 396.423 125.326 396.359 125.285 396.304C125.243 396.249 125.191 396.203 125.13 396.17C124.23 395.957 123.288 396.013 122.42 396.33V396.31Z" fill="#7E57C2"/>
<path d="M122.51 396.29C122.345 396.359 122.175 396.413 122 396.45C121.97 396.461 121.937 396.462 121.907 396.453C121.876 396.444 121.849 396.425 121.83 396.4C121.815 396.372 121.807 396.341 121.807 396.31C121.807 396.279 121.815 396.248 121.83 396.22C121.83 396.14 122.64 394.16 123.66 393.74C123.781 393.686 123.912 393.658 124.045 393.658C124.178 393.658 124.309 393.686 124.43 393.74C124.556 393.775 124.665 393.853 124.739 393.961C124.812 394.07 124.844 394.2 124.83 394.33C124.73 395 123.44 395.9 122.51 396.29ZM122.27 396.01C123.17 395.67 124.4 394.79 124.46 394.3C124.46 394.25 124.46 394.15 124.26 394.05C124.182 394.013 124.097 393.993 124.01 393.993C123.924 393.993 123.838 394.013 123.76 394.05C123.11 394.33 122.53 395.44 122.27 396V396.01Z" fill="#7E57C2"/>
<path d="M170.76 409.11C170.006 409.107 169.253 409.04 168.51 408.91C168.475 408.903 168.444 408.886 168.419 408.861C168.394 408.836 168.377 408.804 168.37 408.77C168.362 408.734 168.367 408.697 168.383 408.664C168.399 408.631 168.427 408.605 168.46 408.59C168.57 408.52 171.13 407.06 172.36 407.39C172.59 407.449 172.788 407.596 172.91 407.8C172.988 407.911 173.03 408.044 173.03 408.18C173.03 408.316 172.988 408.449 172.91 408.56C172.62 409 171.71 409.11 170.76 409.11ZM169.07 408.65C170.44 408.84 172.3 408.83 172.64 408.36C172.64 408.3 172.73 408.19 172.64 407.97C172.603 407.908 172.554 407.855 172.496 407.814C172.437 407.772 172.37 407.744 172.3 407.73C171.51 407.52 170 408.19 169.07 408.65Z" fill="#7E57C2"/>
<path d="M168.54 408.91C168.507 408.919 168.473 408.919 168.44 408.91C168.415 408.892 168.395 408.868 168.383 408.84C168.371 408.812 168.366 408.781 168.37 408.75C168.37 408.67 168.58 406.69 169.51 405.92C169.648 405.805 169.808 405.719 169.979 405.668C170.151 405.616 170.332 405.6 170.51 405.62C170.98 405.67 171.12 405.91 171.15 406.11C171.29 406.94 169.53 408.53 168.65 408.93L168.54 408.91ZM170.34 405.91C170.117 405.916 169.902 405.997 169.73 406.14C169.175 406.774 168.826 407.563 168.73 408.4C169.64 407.86 170.83 406.61 170.73 406.11C170.73 406.11 170.73 405.95 170.39 405.92L170.34 405.91Z" fill="#7E57C2"/>
<path d="M160.47 408.74H167.81L168.54 391.73H161.2L160.47 408.74Z" fill="#7F3E3B"/>
<path d="M113.67 394.7L120.89 396.06L129.02 380.27L121.8 378.92L113.67 394.7Z" fill="#7F3E3B"/>
<path d="M121.68 395.31L113.78 392.93C113.641 392.889 113.492 392.896 113.357 392.95C113.223 393.005 113.111 393.104 113.04 393.23L109.76 399.07C109.682 399.213 109.637 399.372 109.629 399.534C109.62 399.697 109.649 399.86 109.713 400.01C109.776 400.16 109.873 400.294 109.995 400.401C110.118 400.508 110.263 400.587 110.42 400.63C113.19 401.41 114.58 401.63 118.05 402.7C120.19 403.34 125.81 405.7 128.77 406.57C131.73 407.44 132.98 404.65 131.85 404.02C126.79 401.21 123.96 398.17 122.69 396.09C122.463 395.713 122.102 395.435 121.68 395.31Z" fill="#263238"/>
<path d="M167.76 407.89H159.76C159.615 407.889 159.474 407.938 159.361 408.03C159.248 408.121 159.17 408.248 159.14 408.39L157.69 414.92C157.653 415.077 157.653 415.24 157.689 415.397C157.725 415.554 157.797 415.701 157.898 415.826C157.999 415.951 158.127 416.052 158.273 416.12C158.419 416.189 158.579 416.223 158.74 416.22C161.64 416.22 165.82 416.01 169.46 416.01C173.71 416.01 177.38 416.24 182.37 416.24C185.37 416.24 186.22 413.19 184.96 412.91C179.21 411.66 174.52 411.52 169.55 408.46C169.018 408.106 168.398 407.909 167.76 407.89Z" fill="#263238"/>
<path d="M124 181.77C117.62 184.77 115 205.33 115 205.33L129.65 211.08C131.923 205.514 133.762 199.78 135.15 193.93C137.25 184.65 130.55 178.65 124 181.77Z" fill="#7E57C2"/>
<path opacity="0.3" d="M124 181.77C117.62 184.77 115 205.33 115 205.33L129.65 211.08C131.923 205.514 133.762 199.78 135.15 193.93C137.25 184.65 130.55 178.65 124 181.77Z" fill="black"/>
<path opacity="0.2" d="M133.53 187.8C134.029 187.558 134.552 187.367 135.09 187.23C135.674 189.423 135.695 191.727 135.15 193.93C133.762 199.78 131.923 205.514 129.65 211.08L124.82 209.19C125.71 203.82 128.44 190.24 133.53 187.8Z" fill="black"/>
<path d="M166.52 181.61C166.52 181.61 174.34 190.44 166.95 245.11H127.66C127.39 239.11 131.18 209.65 125.36 181.23C129.706 180.394 134.102 179.84 138.52 179.57C144.082 179.25 149.658 179.25 155.22 179.57C159.034 179.954 162.812 180.636 166.52 181.61Z" fill="#7E57C2"/>
<path opacity="0.3" d="M166.52 181.61C166.52 181.61 174.34 190.44 166.95 245.11H127.66C127.39 239.11 131.18 209.65 125.36 181.23C129.706 180.394 134.102 179.84 138.52 179.57C144.082 179.25 149.658 179.25 155.22 179.57C159.034 179.954 162.812 180.636 166.52 181.61Z" fill="black"/>
<path opacity="0.2" d="M158.61 193.33C160.39 187.99 164.67 186.28 169.03 189.45C169.91 194.63 170.53 202.98 169.82 216.22L162.15 216.15C162.15 216.15 156 201.28 158.61 193.33Z" fill="black"/>
<path d="M171.06 189.68C171.44 191.97 171.86 194.47 172.33 196.85C172.8 199.23 173.33 201.65 173.89 204.01C174.926 208.652 176.333 213.204 178.1 217.62C178.55 218.62 179.01 219.68 179.52 220.62L180.17 221.8C180.334 222.066 180.525 222.314 180.74 222.54C182.229 223.953 183.913 225.145 185.74 226.08C190.058 228.325 194.509 230.302 199.07 232L197.98 237.4C192.601 237.028 187.295 235.945 182.2 234.18C180.832 233.704 179.495 233.139 178.2 232.49C176.781 231.766 175.441 230.898 174.2 229.9C173.47 229.3 172.8 228.63 172.2 227.9L171.72 227.27L171.41 226.8C171.2 226.49 170.99 226.18 170.8 225.87C170.02 224.62 169.33 223.37 168.69 222.11C166.349 217.213 164.493 212.099 163.15 206.84C162.48 204.27 161.86 201.71 161.36 199.12C160.86 196.53 160.36 194 160.06 191.24L171.06 189.68Z" fill="#7F3E3B"/>
<path d="M156.7 187C154.63 193.71 163.03 213.71 163.03 213.71L180.72 209.26C179.637 202.938 177.815 196.766 175.29 190.87C169.55 178.39 159.19 178.91 156.7 187Z" fill="#7E57C2"/>
<path opacity="0.3" d="M156.7 187C154.63 193.71 163.03 213.71 163.03 213.71L180.72 209.26C179.637 202.938 177.815 196.766 175.29 190.87C169.55 178.39 159.19 178.91 156.7 187Z" fill="black"/>
<path d="M199.18 232L206.77 235.41L199.41 241.48C199.41 241.48 196.17 240.42 195.64 235.1L194.51 230.68L197.84 231.53C198.3 231.646 198.748 231.803 199.18 232Z" fill="#7F3E3B"/>
<path d="M210.8 239.09L203.41 243.5L199.41 241.44L206.76 235.37L210.8 239.09Z" fill="#7F3E3B"/>
<path d="M158.56 178.92C155.39 176.24 147.69 174.31 139.07 173.83C134.14 173.56 129.07 174.37 126.96 175.31C124.85 176.25 127.35 183.04 130.11 183.19C128.65 185.49 130.77 189.93 133.94 190.8C133.44 194.64 143.12 195 148.94 191.9C153.64 189.43 162.36 182.13 158.56 178.92Z" fill="#263238"/>
<path opacity="0.2" d="M168.54 391.73L168.17 400.5H160.82L161.19 391.73H168.54Z" fill="black"/>
<path opacity="0.2" d="M121.79 378.92L129.02 380.28L124.83 388.41L117.6 387.05L121.79 378.92Z" fill="black"/>
<path d="M140.64 155C141.08 162.28 140.96 166.56 144.64 170.3C150.16 175.92 159.15 172.6 160.89 165.3C162.46 158.76 161.47 147.96 154.35 145.05C152.78 144.401 151.07 144.164 149.382 144.364C147.695 144.564 146.087 145.193 144.712 146.191C143.337 147.188 142.241 148.522 141.528 150.064C140.815 151.607 140.509 153.306 140.64 155Z" fill="#7F3E3B"/>
<path d="M154.26 159.06C157.01 156.28 161.53 150.22 159.95 145.67C157.62 138.94 150.67 141.22 151.78 142.56C147.78 139.92 139.7 139.79 141.39 143.33C134.12 144.33 133.53 147.28 135.55 148.39C130.37 153.33 130.62 158.44 134.55 158.06C131.55 161.06 137.07 167 143.24 169.83C145.34 164.33 156.58 163.33 154.26 159.06Z" fill="#263238"/>
<path d="M151.07 161.69C151.024 161.703 150.976 161.703 150.93 161.69C150.903 161.671 150.88 161.647 150.862 161.619C150.845 161.591 150.833 161.56 150.827 161.527C150.821 161.495 150.822 161.462 150.83 161.429C150.837 161.397 150.851 161.367 150.87 161.34C152.45 159.02 153.99 157.16 155.35 155.52C157.95 152.38 159.83 150.11 159.99 147.03C160.027 145.768 159.67 144.526 158.967 143.477C158.264 142.428 157.251 141.625 156.07 141.18C154.21 140.34 152.21 140.29 151.42 141.07C151 141.48 150.96 142.07 151.3 142.89C151.315 142.919 151.323 142.951 151.324 142.984C151.325 143.017 151.32 143.049 151.307 143.079C151.295 143.11 151.276 143.137 151.253 143.159C151.229 143.182 151.201 143.199 151.17 143.21C151.14 143.223 151.107 143.23 151.074 143.231C151.041 143.232 151.009 143.226 150.978 143.214C150.947 143.202 150.919 143.184 150.896 143.161C150.872 143.138 150.853 143.11 150.84 143.08C150.619 142.712 150.522 142.284 150.564 141.857C150.605 141.43 150.783 141.028 151.07 140.71C152.01 139.79 154.2 139.79 156.28 140.71C157.553 141.193 158.643 142.062 159.398 143.195C160.153 144.328 160.535 145.669 160.49 147.03C160.32 150.28 158.4 152.6 155.74 155.81C154.38 157.45 152.85 159.3 151.28 161.61C151.254 161.639 151.221 161.661 151.184 161.675C151.148 161.689 151.109 161.694 151.07 161.69Z" fill="#263238"/>
<path d="M151.43 158.24C151.563 160.046 152.287 161.757 153.49 163.11C155.09 164.87 156.77 163.77 157.05 161.63C157.3 159.69 156.78 156.44 154.82 155.47C152.86 154.5 151.3 156.06 151.43 158.24Z" fill="#7F3E3B"/>
<path d="M153 245.11C153 245.11 155.48 294.63 150.65 315.61C143 348.83 128.37 387.36 128.37 387.36L114.75 384.79C114.75 384.79 126.22 346.21 128.75 318.55C130.98 293.71 127.68 265.18 127.68 245.11H153Z" fill="#263238"/>
<path opacity="0.2" d="M149.33 259.78C150.33 257.85 152.28 263.6 153.64 270.98C153.64 281.16 153.46 292.74 152.57 302.55C145.77 290 147.22 263.78 149.33 259.78Z" fill="black"/>
<path d="M131.71 383.18C131.77 383.18 129.58 387.9 129.58 387.9L113.82 384.83L115.54 380.08L131.71 383.18Z" fill="#2C6BDB"/>
<path d="M167 245.11C167 245.11 178 292 178.8 314.41C179.67 339.54 170.9 398.8 170.9 398.8H158.46C158.46 398.8 156.93 339.08 156.37 316.19C155.77 291.24 141.13 245.11 141.13 245.11H167Z" fill="#263238"/>
<path d="M173.3 393.84C173.36 393.84 172.6 399.01 172.6 399.01H157.46L157.05 394.4L173.3 393.84Z" fill="#2C6BDB"/>
</svg>
