<svg width="800" height="600" viewBox="0 0 500 600" fill="none" xmlns="http://www.w3.org/2000/svg">
<path d="M250 463.65C372.861 463.65 472.46 406.145 472.46 335.21C472.46 264.275 372.861 206.77 250 206.77C127.139 206.77 27.54 264.275 27.54 335.21C27.54 406.145 127.139 463.65 250 463.65Z" fill="#F5F5F5"/>
<path d="M289.94 441.7L399.08 378.7C401.47 377.32 401.47 375.08 399.08 373.7L192.45 254.39C191.108 253.709 189.625 253.354 188.12 253.354C186.615 253.354 185.132 253.709 183.79 254.39L74.6499 317.39C72.2599 318.77 72.2599 321.01 74.6499 322.39L281.28 441.7C282.622 442.381 284.105 442.736 285.61 442.736C287.115 442.736 288.598 442.381 289.94 441.7Z" fill="#E0E0E0"/>
<path d="M95.52 319.78L104.08 314.84C104.08 314.84 106.17 296.52 104.78 282.33C102.78 262.4 89.94 238.41 74.58 244.04C59.22 249.67 81.58 269.98 86.58 286.89C91.58 303.8 95.52 319.78 95.52 319.78Z" fill="#7E3AF2"/>
<path opacity="0.15" d="M95.52 319.78L104.08 314.84C104.08 314.84 106.17 296.52 104.78 282.33C102.78 262.4 89.94 238.41 74.58 244.04C59.22 249.67 81.58 269.98 86.58 286.89C91.58 303.8 95.52 319.78 95.52 319.78Z" fill="black"/>
<path d="M100 317.7C99.8638 317.695 99.7351 317.636 99.6416 317.537C99.5481 317.438 99.4973 317.306 99.5 317.17C101 272.87 79 250.58 78.73 250.36C78.6813 250.312 78.6426 250.256 78.6162 250.193C78.5898 250.13 78.5762 250.063 78.5762 249.995C78.5762 249.927 78.5898 249.86 78.6162 249.797C78.6426 249.734 78.6813 249.677 78.73 249.63C78.8273 249.534 78.9584 249.48 79.095 249.48C79.2316 249.48 79.3627 249.534 79.46 249.63C79.68 249.86 102.06 272.46 100.54 317.21C100.532 317.346 100.471 317.474 100.37 317.565C100.269 317.657 100.136 317.705 100 317.7Z" fill="white"/>
<path d="M90.9999 323.32L96.9999 319.8C96.9999 319.8 97.9999 307.23 91.8799 291.96C86.5099 278.66 73.1999 267.63 66.4999 269.96C59.7999 272.29 59.9999 277 63.2699 282C66.5399 287 86.3999 298.85 90.9999 323.32Z" fill="#7E3AF2"/>
<path d="M94.17 322C94.0321 322 93.8998 321.945 93.8023 321.848C93.7048 321.75 93.65 321.618 93.65 321.48C93.77 293.48 67.47 274.54 67.2 274.35C67.0894 274.27 67.0149 274.149 66.9924 274.015C66.97 273.88 67.0014 273.742 67.08 273.63C67.1189 273.574 67.1685 273.527 67.226 273.49C67.2834 273.454 67.3476 273.43 67.4147 273.418C67.4818 273.407 67.5504 273.409 67.6166 273.425C67.6828 273.441 67.7451 273.47 67.8 273.51C68.07 273.7 94.8 292.94 94.69 321.51C94.68 321.642 94.6212 321.765 94.525 321.856C94.4288 321.946 94.3022 321.998 94.17 322Z" fill="white"/>
<path d="M387.73 54.7099L396.35 59.7099C396.299 59.332 396.272 58.9513 396.27 58.5699V55.9999C396.27 51.5599 399.39 49.7599 403.27 51.9999C404.925 53.0197 406.34 54.384 407.42 55.9999C408.05 50.4199 412.42 48.3399 417.75 51.4099C423.5 54.7299 428.17 62.81 428.17 69.41V73.1399C428.208 74.6323 427.903 76.1135 427.28 77.4699L434.44 81.5999C435.563 82.3318 436.498 83.318 437.168 84.4786C437.839 85.6392 438.227 86.9415 438.3 88.2799C438.3 90.7499 436.57 91.74 434.44 90.51L387.73 63.6199C386.607 62.8881 385.672 61.9019 385.002 60.7413C384.331 59.5807 383.943 58.2784 383.87 56.9399C383.87 54.4699 385.6 53.4699 387.73 54.7099Z" fill="#EBEBEB"/>
<path d="M352 76.8899L358.31 80.5299C358.295 80.2534 358.295 79.9764 358.31 79.6999V77.8699C358.31 74.6099 360.59 73.2899 363.41 74.8699C364.607 75.6219 365.63 76.6208 366.41 77.7999C366.87 73.6999 370.08 72.1799 373.98 74.4299C376.202 75.8787 378.052 77.8305 379.379 80.1273C380.706 82.4241 381.474 85.0012 381.62 87.6499V90.3899C381.645 91.482 381.422 92.5656 380.97 93.5599L386.21 96.5599C387.036 97.0954 387.723 97.8183 388.217 98.6697C388.71 99.5212 388.996 100.477 389.05 101.46C389.05 103.27 387.78 104 386.21 103.09L352 83.4299C351.175 82.8917 350.489 82.1666 349.998 81.3135C349.506 80.4603 349.222 79.5032 349.17 78.5199C349.13 76.7199 350.39 75.9999 352 76.8899Z" fill="#EBEBEB"/>
<path d="M392.46 357.27C394.02 358.47 393.85 360.18 391.97 361.27L289 420.74C287.839 421.327 286.556 421.633 285.255 421.633C283.954 421.633 282.671 421.327 281.51 420.74L84.5901 307.07C82.6801 305.97 82.5301 304.24 84.1501 303.07C83.1814 303.801 82.3835 304.735 81.8119 305.805C81.2403 306.876 80.9087 308.058 80.8401 309.27V314.22C80.9115 315.522 81.2882 316.788 81.9396 317.917C82.591 319.046 83.499 320.007 84.5901 320.72L281.44 434.35C282.602 434.942 283.887 435.25 285.19 435.25C286.494 435.25 287.779 434.942 288.94 434.35L391.94 374.89C393.032 374.179 393.94 373.221 394.592 372.094C395.243 370.966 395.619 369.7 395.69 368.4V363.4C395.619 362.207 395.295 361.043 394.737 359.986C394.18 358.929 393.404 358.003 392.46 357.27Z" fill="#455A64"/>
<path d="M392 356.94L195.09 243.27C193.929 242.683 192.646 242.377 191.345 242.377C190.044 242.377 188.761 242.683 187.6 243.27L84.6001 302.75C82.5301 303.94 82.5301 305.88 84.6001 307.07L281.46 420.74C282.621 421.327 283.904 421.633 285.205 421.633C286.506 421.633 287.789 421.327 288.95 420.74L391.95 361.26C394 360.07 394 358.13 392 356.94ZM365.29 347.75C367.06 348.75 367.06 350.43 365.29 351.45L271.63 405.54C270.633 406.043 269.532 406.305 268.415 406.305C267.298 406.305 266.197 406.043 265.2 405.54L111.88 317C110.11 316 110.11 314.31 111.88 313.29L205.55 259.21C207.32 258.21 209.17 257.59 210.94 258.61L365.29 347.75Z" fill="#37474F"/>
<path d="M84.1501 303C83.1814 303.731 82.3835 304.665 81.8119 305.735C81.2403 306.806 80.9087 307.988 80.8401 309.2V314.15C80.9123 315.451 81.2893 316.718 81.9407 317.847C82.592 318.976 83.4996 319.936 84.5901 320.65L281.44 434.35C282.598 434.961 283.891 435.27 285.2 435.25V421.63C283.895 421.655 282.605 421.349 281.45 420.74L84.5901 307.07C82.6801 306 82.5301 304.24 84.1501 303Z" fill="#263238"/>
<path d="M146 278.85C147.39 278.05 147.39 276.75 146 275.95C145.225 275.559 144.368 275.355 143.5 275.355C142.632 275.355 141.775 275.559 141 275.95C139.61 276.75 139.61 278.05 141 278.85C141.775 279.241 142.632 279.445 143.5 279.445C144.368 279.445 145.225 279.241 146 278.85Z" fill="black"/>
<path d="M336.64 387.62C339.91 385.74 339.91 382.68 336.64 380.8C334.809 379.864 332.782 379.376 330.725 379.376C328.669 379.376 326.641 379.864 324.81 380.8C321.54 382.68 321.54 385.74 324.81 387.62C326.641 388.556 328.669 389.044 330.725 389.044C332.782 389.044 334.809 388.556 336.64 387.62Z" stroke="#E6E6E6" stroke-miterlimit="10"/>
<path d="M143.49 288.47L162.89 277.28C164.04 276.61 164.1 275.56 163.02 274.93C162.39 274.63 161.699 274.48 161.002 274.492C160.304 274.504 159.619 274.678 159 275L139.6 286.19C138.45 286.86 138.39 287.91 139.47 288.54C140.1 288.84 140.791 288.99 141.488 288.978C142.186 288.966 142.871 288.792 143.49 288.47Z" fill="black"/>
<path d="M210.94 258.65C209.17 257.65 207.32 258.22 205.55 259.25L111.88 313.33C110.11 314.33 110.11 316.01 111.88 317.04L265.16 405.53C266.157 406.033 267.258 406.295 268.375 406.295C269.492 406.295 270.593 406.033 271.59 405.53L365.25 351.44C367.03 350.44 367.03 348.76 365.25 347.74L210.94 258.65Z" fill="#7E3AF2"/>
<path opacity="0.85" d="M210.94 258.65C209.17 257.65 207.32 258.22 205.55 259.25L111.88 313.33C110.11 314.33 110.11 316.01 111.88 317.04L265.16 405.53C266.157 406.033 267.258 406.295 268.375 406.295C269.492 406.295 270.593 406.033 271.59 405.53L365.25 351.44C367.03 350.44 367.03 348.76 365.25 347.74L210.94 258.65Z" fill="white"/>
<path d="M122.67 318.19L121.67 317.61C121.624 317.593 121.585 317.562 121.557 317.522C121.529 317.482 121.514 317.434 121.514 317.385C121.514 317.336 121.529 317.288 121.557 317.248C121.585 317.208 121.624 317.177 121.67 317.16L121.78 317.1C121.9 317.036 122.034 317.003 122.17 317.003C122.306 317.003 122.44 317.036 122.56 317.1L123.56 317.67C123.77 317.8 123.77 318 123.56 318.12L123.45 318.19C123.329 318.249 123.195 318.28 123.06 318.28C122.925 318.28 122.792 318.249 122.67 318.19Z" fill="#455A64"/>
<path d="M124.45 317.16L122.72 316.16C122.51 316.04 122.51 315.84 122.72 315.71L122.83 315.65C122.951 315.591 123.085 315.56 123.22 315.56C123.355 315.56 123.489 315.591 123.61 315.65L125.34 316.65C125.55 316.77 125.55 316.97 125.34 317.1L125.23 317.16C125.109 317.219 124.975 317.25 124.84 317.25C124.705 317.25 124.571 317.219 124.45 317.16Z" fill="#455A64"/>
<path d="M126.23 316.13L123.78 314.72C123.56 314.59 123.56 314.39 123.78 314.27L123.89 314.2C124.011 314.141 124.145 314.11 124.28 314.11C124.415 314.11 124.549 314.141 124.67 314.2L127.12 315.62C127.166 315.637 127.206 315.668 127.234 315.708C127.261 315.748 127.276 315.796 127.276 315.845C127.276 315.894 127.261 315.942 127.234 315.982C127.206 316.022 127.166 316.053 127.12 316.07L127.01 316.13C126.89 316.194 126.756 316.227 126.62 316.227C126.484 316.227 126.35 316.194 126.23 316.13Z" fill="#455A64"/>
<path d="M128 315.11L123.77 312.66C123.55 312.54 123.55 312.34 123.77 312.21L123.88 312.15C124.001 312.088 124.134 312.056 124.27 312.056C124.406 312.056 124.539 312.088 124.66 312.15L128.88 314.59C129.1 314.72 129.1 314.92 128.88 315.04L128.78 315.11C128.659 315.169 128.525 315.2 128.39 315.2C128.255 315.2 128.121 315.169 128 315.11Z" fill="#455A64"/>
<path d="M133.11 312.49C133.043 312.498 132.975 312.48 132.92 312.44L132.3 312.08L130.3 313.23C130.257 313.259 130.207 313.274 130.155 313.274C130.103 313.274 130.053 313.259 130.01 313.23L129.78 313.1L129.68 313.03V312.93L129.58 310.42C129.574 310.384 129.574 310.346 129.58 310.31C129.613 310.272 129.654 310.241 129.7 310.22L129.97 310.06C130.041 310.019 130.119 309.991 130.2 309.98C130.274 309.981 130.347 310.002 130.41 310.04L132.58 311.29L133.02 311.04C133.086 310.996 133.161 310.968 133.24 310.96C133.311 310.96 133.381 310.981 133.44 311.02L133.59 311.11C133.66 311.11 133.69 311.18 133.68 311.22C133.67 311.26 133.68 311.29 133.55 311.34L133.11 311.6L133.73 311.96C133.8 311.96 133.83 312.03 133.82 312.07C133.81 312.11 133.77 312.15 133.68 312.2L133.34 312.39C133.275 312.446 133.195 312.481 133.11 312.49ZM131.9 311.7L130.35 310.81L130.45 312.54L131.9 311.7Z" fill="#455A64"/>
<path d="M135.1 310.91C134.4 310.944 133.705 310.773 133.1 310.42C132.48 310.06 132.2 309.67 132.25 309.25C132.3 308.83 132.69 308.42 133.4 308.01C133.68 307.844 133.975 307.703 134.28 307.59C134.548 307.486 134.826 307.409 135.11 307.36C135.152 307.344 135.198 307.344 135.24 307.36C135.244 307.376 135.244 307.394 135.24 307.41L135.33 307.67C135.34 307.681 135.345 307.695 135.345 307.71C135.345 307.725 135.34 307.739 135.33 307.75H135.22C134.789 307.835 134.377 307.994 134 308.22C133.52 308.49 133.26 308.78 133.22 309.07C133.18 309.36 133.4 309.65 133.88 309.92C134.319 310.188 134.826 310.324 135.34 310.31C135.849 310.291 136.344 310.143 136.78 309.88C136.936 309.789 137.086 309.689 137.23 309.58C137.344 309.499 137.445 309.401 137.53 309.29L136.53 308.71L135.7 309.19C135.629 309.231 135.551 309.258 135.47 309.27C135.399 309.268 135.33 309.247 135.27 309.21L135.13 309.13C135.063 309.09 135.033 309.05 135.04 309.01C135.04 309.01 135.09 308.94 135.17 308.89L136.5 308.12C136.579 308.072 136.668 308.045 136.76 308.04C136.842 308.041 136.922 308.065 136.99 308.11L138.43 308.94C138.471 308.956 138.505 308.984 138.53 309.02C138.53 309.02 138.53 309.07 138.53 309.11C138.216 309.58 137.781 309.957 137.27 310.2C136.616 310.612 135.871 310.856 135.1 310.91Z" fill="#455A64"/>
<path d="M162.78 291.48L165.13 292.84C165.229 292.889 165.339 292.915 165.45 292.915C165.561 292.915 165.671 292.889 165.77 292.84L168.14 291.48C168.31 291.37 168.31 291.21 168.14 291.11L165.78 289.75C165.682 289.696 165.572 289.667 165.46 289.667C165.348 289.667 165.238 289.696 165.14 289.75L162.78 291.11C162.6 291.21 162.6 291.37 162.78 291.48Z" fill="#455A64"/>
<path d="M164.41 289.63C164.099 289.479 163.756 289.403 163.41 289.41C163.064 289.401 162.721 289.476 162.41 289.63C161.95 289.9 161.95 290.31 162.41 290.57L163.22 291.04L163.81 290.92L163 290.46C162.928 290.433 162.866 290.384 162.823 290.321C162.779 290.257 162.756 290.182 162.756 290.105C162.756 290.028 162.779 289.953 162.823 289.89C162.866 289.826 162.928 289.777 163 289.75C163.129 289.68 163.273 289.642 163.42 289.64C163.565 289.636 163.707 289.674 163.83 289.75L164.64 290.22L165.24 290.1L164.41 289.63Z" fill="#455A64"/>
<path d="M207.32 264.82C206.924 264.806 206.531 264.896 206.18 265.08L200.18 268.53C199.66 268.82 199.66 269.29 200.18 269.59L202.36 270.84C202.711 271.024 203.104 271.113 203.5 271.1C203.684 271.099 203.868 271.082 204.05 271.05C204.255 271.017 204.452 270.946 204.63 270.84L210.63 267.4C211.14 267.1 211.14 266.63 210.63 266.34L208.45 265.08C208.103 264.896 207.713 264.806 207.32 264.82ZM203.52 270.82C203.349 270.817 203.18 270.773 203.03 270.69L200.86 269.43C200.776 269.4 200.704 269.345 200.653 269.273C200.602 269.2 200.575 269.114 200.575 269.025C200.575 268.936 200.602 268.85 200.653 268.777C200.704 268.705 200.776 268.65 200.86 268.62L206.86 265.18C206.955 265.121 207.06 265.081 207.17 265.06H207.35C207.519 265.065 207.684 265.113 207.83 265.2L210 266.45C210.084 266.48 210.156 266.535 210.207 266.607C210.258 266.68 210.286 266.766 210.286 266.855C210.286 266.944 210.258 267.03 210.207 267.103C210.156 267.175 210.084 267.23 210 267.26L204 270.71C203.854 270.796 203.689 270.845 203.52 270.85V270.82Z" fill="#455A64"/>
<path d="M203.69 270.43L203.61 270.38L201.61 269.25C201.549 269.227 201.496 269.186 201.459 269.133C201.421 269.079 201.401 269.015 201.401 268.95C201.401 268.885 201.421 268.821 201.459 268.767C201.496 268.714 201.549 268.673 201.61 268.65L206.99 265.55C207.024 265.527 207.061 265.51 207.1 265.5L207.18 265.55L209.18 266.68C209.238 266.704 209.288 266.745 209.323 266.798C209.358 266.85 209.376 266.912 209.376 266.975C209.376 267.038 209.358 267.1 209.323 267.152C209.288 267.205 209.238 267.246 209.18 267.27L203.8 270.38L203.69 270.43Z" fill="#455A64"/>
<path d="M208.76 264.92C208.967 264.871 209.181 264.866 209.39 264.906C209.598 264.946 209.796 265.029 209.97 265.15L210.37 265.39C210.82 265.64 211.01 265.96 210.8 266.1L210.41 266.34L208.41 265.15L208.76 264.92Z" fill="#455A64"/>
<path d="M174.59 323.68C176.06 323.619 177.497 323.222 178.79 322.52C181.23 321.11 181.86 319.19 177.99 316.78C177.86 317.508 177.563 318.195 177.122 318.789C176.681 319.382 176.109 319.865 175.45 320.2C172.13 322.12 168.35 322.61 165.3 320.86C162.25 319.11 163.3 316.51 166.64 314.59C168.789 313.364 171.222 312.723 173.697 312.732C176.171 312.741 178.6 313.399 180.74 314.64C186.39 317.9 185.12 321.35 181.12 323.64C179.027 324.812 176.695 325.496 174.3 325.64L174.59 323.68ZM176 315.74C173.07 314.47 170.58 314.65 168.69 315.74C167.1 316.65 166.78 317.98 168.54 318.99C169.422 319.467 170.417 319.693 171.418 319.646C172.419 319.598 173.388 319.278 174.22 318.72C174.781 318.459 175.251 318.035 175.568 317.503C175.885 316.972 176.036 316.358 176 315.74Z" fill="#455A64"/>
<path d="M183 309.45C183.596 309.088 184.27 308.874 184.966 308.825C185.662 308.777 186.359 308.895 187 309.17C188 309.77 187.81 310.77 186.53 311.5C185.924 311.87 185.239 312.09 184.53 312.14C183.822 312.191 183.112 312.071 182.46 311.79C181.43 311.2 181.69 310.19 183 309.45ZM190.81 313.96C191.407 313.599 192.081 313.386 192.777 313.339C193.473 313.292 194.17 313.413 194.81 313.69C195.81 314.28 195.62 315.28 194.34 316.02C193.733 316.388 193.048 316.606 192.34 316.657C191.632 316.707 190.923 316.588 190.27 316.31C189.25 315.72 189.5 314.7 190.78 314L190.81 313.96Z" fill="#455A64"/>
<path d="M192.13 308.51C187.22 305.67 187.22 302.72 191.24 300.39C195.26 298.06 200.4 298.08 205.3 300.91C210.2 303.74 210.3 306.78 206.3 309.11C202.3 311.44 197.05 311.35 192.13 308.51ZM201.94 302.84C197.83 300.47 195.19 300.49 193.3 301.58C191.41 302.67 191.37 304.2 195.48 306.58C199.59 308.96 202.41 309 204.27 307.93C206.13 306.86 206.06 305.22 201.94 302.84Z" fill="#455A64"/>
<path d="M207.77 299.48C202.85 296.64 202.85 293.69 206.87 291.37C210.89 289.05 216.04 289.06 220.93 291.88C225.82 294.7 225.99 297.76 221.93 300.08C217.87 302.4 212.68 302.32 207.77 299.48ZM217.58 293.82C213.46 291.44 210.82 291.46 208.93 292.55C207.04 293.64 207 295.17 211.12 297.55C215.24 299.93 218.05 299.96 219.9 298.89C221.75 297.82 221.69 296.19 217.58 293.82Z" fill="#455A64"/>
<path d="M182.56 345.63L261.24 300.21C262.17 299.74 263.198 299.495 264.24 299.495C265.282 299.495 266.31 299.74 267.24 300.21L287.35 311.82C289.01 312.82 289.01 314.33 287.35 315.29L208.7 360.71C207.77 361.18 206.742 361.425 205.7 361.425C204.658 361.425 203.63 361.18 202.7 360.71L182.56 349.1C180.9 348.14 180.9 346.59 182.56 345.63Z" fill="#7E3AF2"/>
<path d="M191 347.17L205.08 355.29C205.48 355.497 205.924 355.605 206.375 355.605C206.826 355.605 207.27 355.497 207.67 355.29L228.42 343.29C229.14 342.87 229.14 342.2 228.42 341.79L214.34 333.66C213.938 333.458 213.495 333.352 213.045 333.352C212.595 333.352 212.152 333.458 211.75 333.66L191 345.66C190.839 345.71 190.697 345.81 190.597 345.946C190.497 346.081 190.443 346.246 190.443 346.415C190.443 346.584 190.497 346.748 190.597 346.884C190.697 347.02 190.839 347.12 191 347.17Z" fill="#FAFAFA"/>
<path d="M212.24 343.26L228.93 342.6L212.3 342.35L212.97 333.38L210.24 344.45L190.45 346.41L206.61 345.65L206.21 355.6L207.45 345.61L212.08 345.39L212.24 343.26Z" fill="#7E3AF2"/>
<path d="M221 329.42L241.33 317.73C241.837 317.473 242.397 317.34 242.965 317.34C243.533 317.34 244.093 317.473 244.6 317.73C245.49 318.24 245.46 319.08 244.53 319.62L224.2 331.31C223.693 331.566 223.133 331.7 222.565 331.7C221.997 331.7 221.437 331.566 220.93 331.31C220.05 330.8 220.09 330 221 329.42Z" fill="#FAFAFA"/>
<path d="M227.27 333L268.47 309.19C268.977 308.933 269.537 308.8 270.105 308.8C270.673 308.8 271.233 308.933 271.74 309.19C272.63 309.7 272.6 310.55 271.67 311.08L230.47 334.89C229.961 335.146 229.4 335.279 228.83 335.279C228.261 335.279 227.699 335.146 227.19 334.89C226.31 334.41 226.34 333.57 227.27 333Z" fill="#FAFAFA"/>
<path d="M233.52 336.64L274.73 312.83C275.237 312.573 275.797 312.44 276.365 312.44C276.933 312.44 277.493 312.573 278 312.83C278.88 313.34 278.85 314.19 277.93 314.72L236.72 338.53C236.213 338.787 235.653 338.92 235.085 338.92C234.517 338.92 233.957 338.787 233.45 338.53C232.56 338 232.6 337.18 233.52 336.64Z" fill="#FAFAFA"/>
<path d="M173.55 181.54L306.93 104.54L312.27 107.62C312.998 108.099 313.603 108.742 314.038 109.498C314.472 110.253 314.723 111.1 314.77 111.97V210.36C314.723 211.23 314.473 212.077 314.039 212.833C313.604 213.589 312.999 214.232 312.27 214.71L183.9 288.81C183.123 289.197 182.268 289.398 181.4 289.398C180.532 289.398 179.677 289.197 178.9 288.81L176.08 287.18C175.351 286.701 174.745 286.058 174.309 285.303C173.873 284.547 173.62 283.701 173.57 282.83L173.55 181.54Z" fill="#7E3AF2"/>
<path opacity="0.05" d="M173.55 181.54L306.93 104.54L312.27 107.62C312.998 108.099 313.603 108.742 314.038 109.498C314.472 110.253 314.723 111.1 314.77 111.97V210.36C314.723 211.23 314.473 212.077 314.039 212.833C313.604 213.589 312.999 214.232 312.27 214.71L183.9 288.81C183.123 289.197 182.268 289.398 181.4 289.398C180.532 289.398 179.677 289.197 178.9 288.81L176.08 287.18C175.351 286.701 174.745 286.058 174.309 285.303C173.873 284.547 173.62 283.701 173.57 282.83L173.55 181.54Z" fill="black"/>
<path d="M306.19 95.88L306.74 95.58L304.67 94.38C304.49 94.2791 304.303 94.1921 304.11 94.12L245.41 72.37C244.605 72.1001 243.736 72.0931 242.927 72.3502C242.118 72.6073 241.411 73.115 240.91 73.8L175.24 169.69C174.221 171.344 173.639 173.229 173.55 175.17V181.54L175.55 182.72L306.9 104.53V98.16C306.881 97.3486 306.635 96.5587 306.19 95.88Z" fill="#7E3AF2"/>
<path opacity="0.1" d="M243.62 74.27C243.359 74.4746 243.129 74.7173 242.94 74.99L177.27 170.88C176.731 171.728 176.319 172.652 176.05 173.62L174.05 172.44C174.198 171.947 174.375 171.462 174.58 170.99C174.67 170.79 174.76 170.6 174.86 170.41V170.32C174.964 170.119 175.081 169.926 175.21 169.74L240.9 73.81C240.999 73.6679 241.109 73.5341 241.23 73.41L241.58 73.09L243.62 74.27Z" fill="black"/>
<path opacity="0.35" d="M306.71 95.58C306.533 95.4721 306.345 95.3816 306.15 95.31L247.44 73.55C246.795 73.3353 246.105 73.2888 245.437 73.4148C244.768 73.5408 244.143 73.8351 243.62 74.27L241.62 73.09C242.147 72.6592 242.774 72.3676 243.443 72.2418C244.112 72.116 244.802 72.1601 245.45 72.37L304.15 94.12C304.342 94.1917 304.526 94.2821 304.7 94.39L306.71 95.58Z" fill="white"/>
<path d="M241.24 73.41C241.347 73.2931 241.464 73.186 241.59 73.09C241.462 73.1834 241.344 73.2907 241.24 73.41Z" fill="#7E3AF2"/>
<path opacity="0.2" d="M174.84 170.37C174.84 170.37 174.84 170.3 174.84 170.27C174.84 170.24 174.86 170.34 174.84 170.37Z" fill="black"/>
<path opacity="0.2" d="M240.91 73.8C241.006 73.6588 241.117 73.5281 241.24 73.41C241.114 73.5254 241.003 73.6565 240.91 73.8Z" fill="black"/>
<path d="M242.94 74.9999L177.28 170.9C176.252 172.546 175.666 174.431 175.58 176.37V182.74L308.96 105.74V99.3399C308.91 98.4778 308.621 97.6466 308.125 96.9399C307.628 96.2332 306.944 95.6791 306.15 95.3399L247.45 73.5899C246.645 73.3234 245.777 73.3161 244.968 73.569C244.159 73.822 243.45 74.3225 242.94 74.9999Z" fill="#7E3AF2"/>
<path d="M190.1 275.41L185.82 272.94C185.467 272.671 185.189 272.314 185.014 271.906C184.839 271.498 184.772 271.052 184.82 270.61V137.25C184.876 135.896 185.29 134.581 186.02 133.44L190.37 135.94C189.634 137.086 189.22 138.409 189.17 139.77V273.08C189.117 273.515 189.174 273.957 189.337 274.364C189.499 274.771 189.762 275.131 190.1 275.41Z" fill="#E0E0E0"/>
<path d="M192.77 133.4L299.91 71.56C301.91 70.38 303.58 71.33 303.58 73.68V207C303.513 208.276 303.146 209.518 302.508 210.625C301.87 211.732 300.98 212.672 299.91 213.37L192.77 275.2C190.77 276.37 189.1 275.42 189.1 273.07V139.77C189.169 138.495 189.537 137.254 190.175 136.147C190.812 135.041 191.701 134.099 192.77 133.4Z" fill="#F0F0F0"/>
<path d="M298.16 68.79L302.36 71.23C301.953 71.0784 301.515 71.031 301.085 71.0921C300.656 71.1532 300.248 71.321 299.9 71.58L192.77 133.41C191.742 134.03 190.889 134.9 190.29 135.94L185.94 133.44C186.544 132.402 187.391 131.526 188.41 130.89L295.55 69C295.922 68.726 296.362 68.5597 296.823 68.5191C297.283 68.4786 297.746 68.5653 298.16 68.77V68.79Z" fill="#FAFAFA"/>
<path d="M201.13 140.38L290.22 88.94C291.42 88.25 292.39 88.74 292.39 90.04C292.336 90.7668 292.111 91.4705 291.734 92.0942C291.357 92.7179 290.838 93.2441 290.22 93.63L201.13 145.07C199.93 145.76 198.96 145.27 198.96 143.98C199.013 143.251 199.237 142.546 199.614 141.92C199.991 141.295 200.51 140.767 201.13 140.38Z" fill="#E0E0E0"/>
<path d="M201.13 149.73L290.22 98.29C291.42 97.6 292.39 98.09 292.39 99.39C292.336 100.117 292.111 100.82 291.734 101.444C291.357 102.068 290.838 102.594 290.22 102.98L201.13 154.42C199.93 155.11 198.96 154.62 198.96 153.33C199.013 152.601 199.237 151.896 199.614 151.27C199.991 150.645 200.51 150.117 201.13 149.73Z" fill="#E0E0E0"/>
<path d="M201.13 159.08L290.22 107.64C291.42 106.95 292.39 107.44 292.39 108.73C292.337 109.459 292.113 110.164 291.736 110.79C291.359 111.415 290.839 111.943 290.22 112.33L201.13 163.77C199.93 164.46 198.96 163.97 198.96 162.68C199.013 161.951 199.237 161.246 199.614 160.62C199.991 159.995 200.51 159.467 201.13 159.08Z" fill="#E0E0E0"/>
<path d="M201.13 168.43L290.22 117C291.42 116.31 292.39 116.8 292.39 118.09C292.337 118.818 292.113 119.524 291.736 120.15C291.359 120.775 290.839 121.303 290.22 121.69L201.13 173.13C199.93 173.82 198.96 173.33 198.96 172.03C199.013 171.301 199.237 170.596 199.614 169.97C199.991 169.345 200.51 168.817 201.13 168.43Z" fill="#E0E0E0"/>
<path d="M201.13 177.78L290.22 126.34C291.42 125.65 292.39 126.14 292.39 127.43C292.337 128.158 292.113 128.864 291.736 129.49C291.359 130.115 290.839 130.643 290.22 131.03L201.13 182.47C199.93 183.16 198.96 182.67 198.96 181.37C199.014 180.643 199.239 179.939 199.616 179.316C199.993 178.692 200.512 178.166 201.13 177.78Z" fill="#E0E0E0"/>
<path d="M201.13 187.13L290.22 135.69C291.42 135 292.39 135.49 292.39 136.78C292.337 137.509 292.113 138.214 291.736 138.84C291.359 139.465 290.839 139.993 290.22 140.38L201.13 191.82C199.93 192.51 198.96 192.02 198.96 190.72C199.014 189.993 199.239 189.29 199.616 188.666C199.993 188.042 200.512 187.516 201.13 187.13Z" fill="#E0E0E0"/>
<path d="M201.13 196.48L290.22 145C291.42 144.31 292.39 144.8 292.39 146.09C292.337 146.818 292.113 147.524 291.736 148.15C291.359 148.775 290.839 149.303 290.22 149.69L201.13 201.13C199.93 201.82 198.96 201.33 198.96 200.03C199.02 199.31 199.248 198.614 199.625 197.998C200.001 197.382 200.517 196.862 201.13 196.48Z" fill="#E0E0E0"/>
<path d="M201.13 205.83L290.22 154.39C291.42 153.69 292.39 154.19 292.39 155.48C292.337 156.209 292.113 156.914 291.736 157.54C291.359 158.165 290.839 158.693 290.22 159.08L201.13 210.52C199.93 211.21 198.96 210.72 198.96 209.42C199.014 208.693 199.239 207.99 199.616 207.366C199.993 206.742 200.512 206.216 201.13 205.83Z" fill="#E0E0E0"/>
<path d="M311.39 211.66C311.35 211.731 311.303 211.798 311.25 211.86L255.67 187.21C253.56 186.276 251.183 186.137 248.978 186.817C246.773 187.496 244.888 188.95 243.67 190.91L184.25 286.25L182.05 287.52C181.805 287.691 181.521 287.798 181.224 287.831C180.927 287.864 180.627 287.823 180.35 287.71L241.46 189.65C242.681 187.693 244.566 186.241 246.769 185.56C248.973 184.879 251.348 185.014 253.46 185.94L311.39 211.66Z" fill="#7E3AF2"/>
<path opacity="0.4" d="M238.18 199.58L238.32 199.46L184.23 286.26L182.03 287.53C181.784 287.699 181.5 287.804 181.204 287.837C180.907 287.87 180.607 287.83 180.33 287.72L236 198.3L238.18 199.58Z" fill="white"/>
<path opacity="0.4" d="M311.39 211.67C311.35 211.741 311.303 211.808 311.25 211.87L255.66 187.21C253.55 186.276 251.173 186.137 248.968 186.817C246.763 187.496 244.878 188.95 243.66 190.91L241.46 189.63C242.685 187.678 244.572 186.233 246.775 185.557C248.978 184.882 251.351 185.021 253.46 185.95L311.39 211.67Z" fill="white"/>
<path d="M314.73 111.33C314.61 110.61 314.23 110.41 313.73 110.75C313.483 110.934 313.267 111.157 313.09 111.41L312.81 111.8L258 188.16L249.81 199.57C249.283 200.235 248.584 200.743 247.79 201.041C246.995 201.339 246.134 201.415 245.3 201.26L238.23 199.58L184.23 186.74C183.867 186.666 183.493 186.666 183.13 186.74C182.989 186.768 182.852 186.812 182.72 186.87L184.21 186.01L236.21 198.38L243.3 200C244.134 200.157 244.996 200.082 245.791 199.784C246.586 199.486 247.284 198.977 247.81 198.31L256 186.91L311.12 110.16C311.288 109.932 311.499 109.738 311.74 109.59L307 106.86L309 105.71L312.3 107.61C312.933 108.037 313.474 108.585 313.891 109.224C314.308 109.863 314.594 110.579 314.73 111.33Z" fill="#7E3AF2"/>
<path opacity="0.4" d="M258 188.16L249.81 199.57C249.283 200.235 248.584 200.744 247.79 201.041C246.995 201.339 246.134 201.415 245.3 201.26L238.23 199.58L238.37 199.46L238.71 198.92L243.34 200.02C244.174 200.177 245.036 200.102 245.831 199.804C246.626 199.507 247.324 198.997 247.85 198.33L255.96 187.05L258 188.16Z" fill="white"/>
<path opacity="0.1" d="M312.26 107.61L308.96 105.71L306.96 106.86L311.73 109.61C311.489 109.759 311.279 109.952 311.11 110.18L256 186.93L255.92 187.04L257.92 188.15L312.8 111.8L313.08 111.41C313.257 111.157 313.473 110.934 313.72 110.75C314.21 110.41 314.59 110.61 314.72 111.33C314.58 110.577 314.29 109.859 313.868 109.22C313.445 108.581 312.898 108.034 312.26 107.61Z" fill="black"/>
<path d="M185.31 188.34L173.55 181.54V282.83C173.6 283.701 173.853 284.547 174.289 285.303C174.725 286.058 175.331 286.701 176.06 287.18L178.88 288.81C179.657 289.197 180.512 289.398 181.38 289.398C182.248 289.398 183.103 289.197 183.88 288.81L185.29 287.99L185.31 188.34Z" fill="#7E3AF2"/>
<path opacity="0.15" d="M185.31 188.34L173.55 181.54V282.83C173.6 283.701 173.853 284.547 174.289 285.303C174.725 286.058 175.331 286.701 176.06 287.18L178.88 288.81C179.657 289.197 180.512 289.398 181.38 289.398C182.248 289.398 183.103 289.197 183.88 288.81L185.29 287.99L185.31 188.34Z" fill="black"/>
<path d="M312.81 111.8V209.12C312.784 210.022 312.514 210.899 312.03 211.66C311.663 212.305 311.162 212.865 310.56 213.3L310.47 213.36L310.3 213.47L181.94 287.57C181.786 287.665 181.622 287.742 181.45 287.8C181.439 287.65 181.439 287.5 181.45 287.35V189C181.428 188.648 181.491 188.295 181.636 187.973C181.78 187.651 182 187.368 182.277 187.15C182.555 186.931 182.881 186.784 183.228 186.719C183.575 186.655 183.933 186.676 184.27 186.78L238.27 199.62L245.34 201.3C246.174 201.455 247.035 201.379 247.83 201.081C248.624 200.784 249.323 200.275 249.85 199.61L258 188.16L312.81 111.8Z" fill="#455A64"/>
<path d="M314.78 112V210.39C314.749 211.291 314.48 212.167 314 212.93C313.627 213.574 313.127 214.136 312.53 214.58L312.43 214.63C312.379 214.67 312.326 214.707 312.27 214.74L183.91 288.8C183.665 288.974 183.38 289.084 183.081 289.119C182.782 289.154 182.479 289.113 182.2 289C181.987 288.876 181.808 288.702 181.677 288.493C181.546 288.284 181.468 288.046 181.45 287.8C181.439 287.65 181.439 287.5 181.45 287.35V189C181.428 188.648 181.491 188.295 181.636 187.973C181.78 187.651 182 187.368 182.277 187.15C182.555 186.931 182.881 186.784 183.228 186.719C183.575 186.655 183.933 186.676 184.27 186.78L238.27 199.62L245.34 201.3C246.174 201.455 247.035 201.379 247.83 201.081C248.624 200.783 249.323 200.275 249.85 199.61L258 188.16L312.85 111.8L313.13 111.41C314 110.12 314.78 110.36 314.78 112Z" fill="#7E3AF2"/>
<path d="M312.27 214.7L312.43 214.59L312.53 214.54C313.127 214.096 313.627 213.534 314 212.89C314.467 212.14 314.732 211.282 314.77 210.4L258 188.16L296 224.09L312.27 214.7Z" fill="#7E3AF2"/>
<path opacity="0.2" d="M312.27 214.7L312.43 214.59L312.53 214.54C313.127 214.096 313.627 213.534 314 212.89C314.467 212.14 314.732 211.282 314.77 210.4L258 188.16L296 224.09L312.27 214.7Z" fill="black"/>
<path d="M181.4 287.36C181.363 287.68 181.417 288.005 181.555 288.296C181.692 288.588 181.909 288.835 182.18 289.01C182.459 289.123 182.762 289.164 183.061 289.129C183.359 289.094 183.645 288.984 183.89 288.81L228.08 263.3L238.17 199.59L181.4 285.72V287.36Z" fill="#7E3AF2"/>
<path opacity="0.15" d="M243.63 190.9L182.17 289C181.899 288.825 181.682 288.578 181.545 288.286C181.407 287.995 181.353 287.67 181.39 287.35V285.72L235.62 199L236.04 198.33L241.43 189.69L243.63 190.9Z" fill="black"/>
<path d="M314 212.89C313.627 213.534 313.127 214.095 312.53 214.54L312.43 214.59L183.91 288.8C183.665 288.974 183.379 289.084 183.081 289.119C182.782 289.154 182.479 289.113 182.2 289L243.66 190.87C244.893 188.901 246.793 187.443 249.013 186.762C251.234 186.08 253.625 186.222 255.75 187.16L314 212.89Z" fill="#7E3AF2"/>
<path d="M314 212.9C313.633 213.545 313.131 214.105 312.53 214.54L312.44 214.6L183.9 288.81C183.653 288.981 183.367 289.088 183.069 289.121C182.77 289.154 182.468 289.113 182.19 289L183.9 286.28L310.21 213.34L310.31 213.28C310.842 212.89 311.294 212.401 311.64 211.84L314 212.9Z" fill="#7E3AF2"/>
<path opacity="0.15" d="M174 172.44L176 173.62C175.717 174.507 175.558 175.429 175.53 176.36V182.72L173.53 181.54V175.17C173.559 174.243 173.717 173.324 174 172.44Z" fill="black"/>
<path d="M186.08 186.42L184.2 185.97L182.71 186.83L180.65 185.64L175.58 182.72L177.55 181.55L186.08 186.42Z" fill="#7E3AF2"/>
<path opacity="0.1" d="M186.08 186.42L177.56 181.56L175.56 182.73L180.63 185.65L182.69 186.84C182.81 186.781 182.938 186.74 183.07 186.72C183.433 186.646 183.807 186.646 184.17 186.72L188.32 187.72L235.62 199L236.04 198.33L186.08 186.42Z" fill="black"/>
<path d="M338.5 190.34L329.01 184.84L328.93 184.79C324.79 182.45 319.1 182.79 312.81 186.44C300.15 193.75 289.88 211.53 289.88 226.15C289.88 233.45 292.45 238.58 296.58 240.98L305.23 245.98L307.23 242.59C309.541 242.078 311.76 241.215 313.81 240.03C326.47 232.72 336.74 214.94 336.74 200.32C336.738 198.345 336.496 196.377 336.02 194.46L338.5 190.34Z" fill="#F28F8F"/>
<path opacity="0.15" d="M290.72 218.46C290.16 220.989 289.869 223.57 289.85 226.16C289.85 233.46 292.42 238.59 296.55 240.99L305.2 245.99L307.2 242.6C309.511 242.088 311.73 241.225 313.78 240.04C316.021 238.729 318.116 237.183 320.03 235.43L290.72 218.46Z" fill="black"/>
<path d="M321.81 191.65C309.15 198.96 298.88 216.74 298.88 231.36C298.88 245.98 309.15 251.91 321.81 244.6C334.47 237.29 344.74 219.51 344.74 204.89C344.74 190.27 334.48 184.34 321.81 191.65Z" fill="#FFA8A7"/>
<path d="M330.87 212V206.38C330.87 199.97 326.97 197.02 322.17 199.8C317.36 202.58 313.46 210.02 313.46 216.43V221.43C313.355 224.899 312.345 228.281 310.53 231.24C310.083 232.024 309.839 232.908 309.82 233.81C309.82 235.42 310.82 236.17 312.01 235.47L332.34 223.73C333.007 223.251 333.552 222.622 333.932 221.895C334.313 221.167 334.517 220.361 334.53 219.54C334.561 219.226 334.52 218.91 334.409 218.615C334.298 218.32 334.12 218.055 333.89 217.84C332.05 217.06 330.87 215 330.87 212Z" fill="white"/>
<path d="M326.34 229C326.34 232.08 324.47 235.65 322.17 237C319.87 238.35 317.99 236.92 317.99 233.85L326.34 229Z" fill="white"/>
</svg>
